<?xml version="1.0" encoding="utf-8"?>
<!-- Generator: Adobe Illustrator 25.1.0, SVG Export Plug-In . SVG Version: 6.00 Build 0)  -->
<!DOCTYPE svg PUBLIC "-//W3C//DTD SVG 1.1//EN" "http://www.w3.org/Graphics/SVG/1.1/DTD/svg11.dtd" [
	<!ENTITY ns_extend "http://ns.adobe.com/Extensibility/1.0/">
	<!ENTITY ns_ai "http://ns.adobe.com/AdobeIllustrator/10.0/">
	<!ENTITY ns_graphs "http://ns.adobe.com/Graphs/1.0/">
	<!ENTITY ns_vars "http://ns.adobe.com/Variables/1.0/">
	<!ENTITY ns_imrep "http://ns.adobe.com/ImageReplacement/1.0/">
	<!ENTITY ns_sfw "http://ns.adobe.com/SaveForWeb/1.0/">
	<!ENTITY ns_custom "http://ns.adobe.com/GenericCustomNamespace/1.0/">
	<!ENTITY ns_adobe_xpath "http://ns.adobe.com/XPath/1.0/">
]>
<svg version="1.1"
	 id="freepik_stories-contact-us" xmlns:x="&ns_extend;" xmlns:i="&ns_ai;" xmlns:graph="&ns_graphs;" xmlns:svgjs="http://svgjs.com/svgjs"
	 xmlns="http://www.w3.org/2000/svg" xmlns:xlink="http://www.w3.org/1999/xlink" x="0px" y="0px" viewBox="0 0 429.3 384.9"
	 style="enable-background:new 0 0 429.3 384.9;" xml:space="preserve">
<style type="text/css">
	.st0{display:none;fill:#EBEBEB;}
	.st1{fill:#EBEBEB;}
	.st2{fill:#E0E0E0;}
	.st3{fill:#F5F5F5;}
	.st4{fill:#E6E6E6;}
	.st5{fill:#F0F0F0;}
	.st6{opacity:0.2;fill:#E0E0E0;enable-background:new    ;}
	.st7{fill:#FCA311;}
	.st8{opacity:0.2;enable-background:new    ;}
	.st9{opacity:0.5;fill:#FFFFFF;enable-background:new    ;}
	.st10{opacity:0.2;fill:#FFFFFF;enable-background:new    ;}
	.st11{fill:#263238;}
	.st12{opacity:0.3;fill:#FFFFFF;enable-background:new    ;}
	.st13{opacity:0.6;fill:#FFFFFF;enable-background:new    ;}
	.st14{fill:#E4897B;}
	.st15{opacity:0.1;enable-background:new    ;}
	.st16{fill:#FFFFFF;}
	.st17{fill:#DE5753;}
	.st18{opacity:0.4;enable-background:new    ;}
	.st19{opacity:0.2;}
	.st20{opacity:0.7;fill:#FFFFFF;enable-background:new    ;}
	.st21{opacity:0.4;fill:#FFFFFF;enable-background:new    ;}
	.st22{opacity:0.1;fill:#FFFFFF;enable-background:new    ;}
</style>
<metadata>
	<sfw  xmlns="&ns_sfw;">
		<slices></slices>
		<sliceSourceBounds  bottomLeftOrigin="true" height="372.6" width="500" x="0" y="72.4"></sliceSourceBounds>
	</sfw>
</metadata>
<g id="freepik--background-complete--inject-33">
	<rect id="elkm2lbfvklv" x="-33.7" y="332.7" class="st0" width="500" height="0.2"/>
	<rect id="el2ucvc6z8hzq" x="383.1" y="348.8" class="st1" width="33.1" height="0.2"/>
	<rect id="el1bhnxicsrx1" x="288.9" y="351.5" class="st1" width="8.7" height="0.2"/>
	<rect id="el0h532v0schoc" x="362.9" y="339.5" class="st1" width="19.2" height="0.2"/>
	<rect id="elefxdh6a67b" x="18.8" y="341.2" class="st1" width="43.2" height="0.2"/>
	<rect id="el4nkl752o6n3" x="70.9" y="341.2" class="st1" width="6.3" height="0.2"/>
	<rect id="el66a4zzxxkc5" x="97.8" y="345.4" class="st1" width="93.7" height="0.2"/>
	<path id="el34e8bas4i9p" class="st1" d="M203.3,288.1H10.2c-3.1,0-5.7-2.6-5.7-5.7V11c0-3.1,2.6-5.7,5.7-5.7h193.1
		c3.2,0,5.7,2.6,5.7,5.7c0,0,0,0,0,0v271.4C209,285.6,206.5,288.1,203.3,288.1z M10.2,5.5c-3,0-5.5,2.4-5.5,5.5v271.4
		c0,3,2.4,5.5,5.5,5.5h193.1c3,0,5.5-2.4,5.5-5.5V11c0-3-2.4-5.5-5.5-5.5H10.2z"/>
	<path id="elp08b02ug8ei" class="st1" d="M419.6,288.1H226.5c-3.2,0-5.7-2.6-5.7-5.7V11c0-3.1,2.6-5.7,5.7-5.7h193.1
		c3.1,0,5.7,2.5,5.7,5.7v271.4C425.3,285.6,422.8,288.1,419.6,288.1z M226.5,5.5c-3,0-5.5,2.4-5.5,5.5v271.4c0,3,2.4,5.5,5.5,5.5
		h193.1c3,0,5.5-2.4,5.5-5.5V11c0-3-2.4-5.5-5.5-5.5H226.5z"/>
	<rect id="el08cxjr9ix9lr" x="169.5" y="67.5" class="st2" width="242.3" height="233.5"/>
	<rect id="eldgmdz0x0v5w" x="173.4" y="71.8" class="st3" width="238.4" height="225.2"/>
	<polygon id="el7bqczk3tcag" class="st4" points="175.1,242.4 175.1,174.7 182.2,174.7 182.2,165.7 198,158.3 198,149.2 
		200.6,149.2 200.6,174.7 203.3,174.7 203.3,242.4 206.8,242.4 206.8,207.2 214.7,207.2 214.7,188.8 217.4,188.8 217.4,242.4 
		223.5,242.4 223.5,222.2 227.9,222.2 227.9,216.9 237.6,216.9 237.6,198.4 242.9,198.4 242.9,186.1 249,186.1 249,167.6 
		251.7,167.6 251.7,186.1 257.8,186.1 257.8,198.4 263.1,198.4 263.1,216.9 272.8,216.9 272.8,222.2 277.2,222.2 277.2,242.4 
		282.5,242.4 282.5,216.9 292.1,216.9 292.1,160.6 294.8,160.6 294.8,154.5 315.9,154.5 315.9,160.6 320.3,160.6 320.3,201.1 
		337.9,201.1 337.9,205.5 344,205.5 344,208.1 337.9,208.1 337.9,224 356.4,224 356.4,171.2 359.9,171.2 359.9,160.6 368.7,160.6 
		368.7,120.1 371.3,120.1 371.3,160.6 377.5,160.6 377.5,171.2 411.8,171.2 411.8,297 173.4,297 173.4,242.4 	"/>
	<rect id="elnsbmgommph" x="390.9" y="173.9" class="st5" width="2.5" height="2.5"/>
	<rect id="elv61frnhrn" x="390.9" y="178.1" class="st5" width="2.5" height="2.5"/>
	<rect id="elmxhmlynto3" x="390.9" y="194.8" class="st5" width="2.5" height="2.5"/>
	<rect id="elwp4ydf64xj8" x="390.9" y="199" class="st5" width="2.5" height="2.5"/>
	<rect id="elq8idem49tdb" x="390.9" y="203.2" class="st5" width="2.5" height="2.5"/>
	<rect id="elh9yhyrxri9t" x="390.9" y="215.7" class="st5" width="2.5" height="2.5"/>
	<rect id="ellpktxc9u3aq" x="390.9" y="219.9" class="st5" width="2.5" height="2.5"/>
	<rect id="elpg8ryr6fxdp" x="387" y="190.6" class="st5" width="2.5" height="2.5"/>
	<rect id="elnmf2se4hdul" x="387" y="194.8" class="st5" width="2.5" height="2.5"/>
	<rect id="eleh5ka0zp75" x="387" y="199" class="st5" width="2.5" height="2.5"/>
	<rect id="eliwzna11y28o" x="387" y="203.2" class="st5" width="2.5" height="2.5"/>
	<rect id="elaf6l5csgfwq" x="387" y="207.4" class="st5" width="2.5" height="2.5"/>
	<rect id="elpdj98fr4cvf" x="387" y="215.7" class="st5" width="2.5" height="2.5"/>
	<rect id="elv9mmzlif1ic" x="387" y="219.9" class="st5" width="2.5" height="2.5"/>
	<rect id="el3aya69bloa9" x="383" y="173.9" class="st5" width="2.5" height="2.5"/>
	<rect id="el5jvvd42oryu" x="383" y="178.1" class="st5" width="2.5" height="2.5"/>
	<rect id="el4o1qnk7fut8" x="383" y="182.3" class="st5" width="2.5" height="2.5"/>
	<rect id="elr1b6o53pl6" x="383" y="186.5" class="st5" width="2.5" height="2.5"/>
	<rect id="elti5c0d7s2u" x="383" y="190.6" class="st5" width="2.5" height="2.5"/>
	<rect id="elusoiy70z58j" x="383" y="194.8" class="st5" width="2.5" height="2.5"/>
	<rect id="el205oh97ff45" x="383" y="199" class="st5" width="2.5" height="2.5"/>
	<rect id="elq7lyzl94qhj" x="383" y="203.2" class="st5" width="2.5" height="2.5"/>
	<rect id="eld1xew0krrqt" x="383" y="207.4" class="st5" width="2.5" height="2.5"/>
	<rect id="elou49fbiecfk" x="383" y="211.5" class="st5" width="2.5" height="2.5"/>
	<rect id="elfcr6vnga9di" x="383" y="219.9" class="st5" width="2.5" height="2.5"/>
	<rect id="elf22uwyjrb1c" x="379.1" y="173.9" class="st5" width="2.5" height="2.5"/>
	<rect id="elxuu5swfhdxq" x="379.1" y="178.1" class="st5" width="2.5" height="2.5"/>
	<rect id="elwa35r70xd6" x="379.1" y="182.3" class="st5" width="2.5" height="2.5"/>
	<rect id="elsgpu170035" x="379.1" y="186.5" class="st5" width="2.5" height="2.5"/>
	<rect id="el73b8sitd5yw" x="379.1" y="190.6" class="st5" width="2.5" height="2.5"/>
	<rect id="elcwaauzbk6tr" x="379.1" y="194.8" class="st5" width="2.5" height="2.5"/>
	<rect id="elbwwyelybmx7" x="379.1" y="199" class="st5" width="2.5" height="2.5"/>
	<rect id="el2qrrecylycv" x="379.1" y="236.6" class="st5" width="2.5" height="2.5"/>
	<rect id="elrarygfjak3a" x="375.1" y="173.9" class="st5" width="2.5" height="2.5"/>
	<rect id="elvfmdj8lgcy" x="375.1" y="178.1" class="st5" width="2.5" height="2.5"/>
	<rect id="eljwyjwvhi48" x="375.1" y="182.3" class="st5" width="2.5" height="2.5"/>
	<rect id="elrzgs5pa2sp" x="375.1" y="186.5" class="st5" width="2.5" height="2.5"/>
	<rect id="elmlc29ab4io" x="375.1" y="190.6" class="st5" width="2.5" height="2.5"/>
	<rect id="el5k7owowv3dr" x="375.1" y="194.8" class="st5" width="2.5" height="2.5"/>
	<rect id="elnrzb8wznf3" x="375.1" y="199" class="st5" width="2.5" height="2.5"/>
	<rect id="el0j40g2a3z1kd" x="375.1" y="203.2" class="st5" width="2.5" height="2.5"/>
	<rect id="eli9tjdznvsl" x="375.1" y="228.3" class="st5" width="2.5" height="2.5"/>
	<rect id="eljnh4qtkgyjg" x="375.1" y="232.4" class="st5" width="2.5" height="2.5"/>
	<rect id="elicfma4n0bci" x="375.1" y="236.6" class="st5" width="2.5" height="2.5"/>
	<rect id="el65ly5r2pr46" x="375.1" y="240.8" class="st5" width="2.5" height="2.5"/>
	<rect id="el3h34zce3b8x" x="375.1" y="257.5" class="st5" width="2.5" height="2.5"/>
	<rect id="eloqraroln7v" x="371.1" y="173.9" class="st5" width="2.5" height="2.5"/>
	<rect id="elzs2vha4wuy" x="371.1" y="178.1" class="st5" width="2.5" height="2.5"/>
	<rect id="el7imjv03eadt" x="371.1" y="182.3" class="st5" width="2.5" height="2.5"/>
	<rect id="el3j1y2z2snwa" x="371.1" y="186.5" class="st5" width="2.5" height="2.5"/>
	<rect id="eldiznb1z4bkj" x="371.1" y="190.6" class="st5" width="2.5" height="2.5"/>
	<rect id="elfan9b8j8m9o" x="371.1" y="194.8" class="st5" width="2.5" height="2.5"/>
	<rect id="elg87aufrzntq" x="371.1" y="199" class="st5" width="2.5" height="2.5"/>
	<rect id="elsvesau1yk1j" x="371.1" y="203.2" class="st5" width="2.5" height="2.5"/>
	<rect id="elowcc0rns6lg" x="371.1" y="207.4" class="st5" width="2.5" height="2.5"/>
	<rect id="elhwx5wh89zmp" x="371.1" y="211.5" class="st5" width="2.5" height="2.5"/>
	<rect id="elw345hxb6x1k" x="371.1" y="224.1" class="st5" width="2.5" height="2.5"/>
	<rect id="elpmf4yp1d98i" x="371.1" y="228.3" class="st5" width="2.5" height="2.5"/>
	<rect id="elu1eam4n101f" x="371.1" y="232.4" class="st5" width="2.5" height="2.5"/>
	<rect id="elotc7l1umj2g" x="371.1" y="236.6" class="st5" width="2.5" height="2.5"/>
	<rect id="el2r26aieri7u" x="371.1" y="240.8" class="st5" width="2.5" height="2.5"/>
	<rect id="eltu7jani2tvt" x="371.1" y="257.5" class="st5" width="2.5" height="2.5"/>
	<rect id="elofifov5zcj" x="367.2" y="173.9" class="st5" width="2.5" height="2.5"/>
	<rect id="elajomfntprlq" x="367.2" y="178.1" class="st5" width="2.5" height="2.5"/>
	<rect id="els2amswsk7j" x="367.2" y="182.3" class="st5" width="2.5" height="2.5"/>
	<rect id="el9lw6k61u0r8" x="367.2" y="186.5" class="st5" width="2.5" height="2.5"/>
	<rect id="elu288e3jj1y" x="367.2" y="190.6" class="st5" width="2.5" height="2.5"/>
	<rect id="el2sokh05fc3u" x="367.2" y="194.8" class="st5" width="2.5" height="2.5"/>
	<rect id="elqnxgupmvdco" x="367.2" y="199" class="st5" width="2.5" height="2.5"/>
	<rect id="elvu2iwhxtgxc" x="367.2" y="203.2" class="st5" width="2.5" height="2.5"/>
	<rect id="elczo3t45za9f" x="367.2" y="207.4" class="st5" width="2.5" height="2.5"/>
	<rect id="elicaymsfer3s" x="367.2" y="211.5" class="st5" width="2.5" height="2.5"/>
	<rect id="el4ry350x48cm" x="367.2" y="215.7" class="st5" width="2.5" height="2.5"/>
	<rect id="ell318ced1zl" x="367.2" y="219.9" class="st5" width="2.5" height="2.5"/>
	<rect id="el4ns1riavlcl" x="367.2" y="224.1" class="st5" width="2.5" height="2.5"/>
	<rect id="elv70b0k4v1qc" x="367.2" y="228.3" class="st5" width="2.5" height="2.5"/>
	<rect id="elm9gilbe3wy" x="367.2" y="232.4" class="st5" width="2.5" height="2.5"/>
	<rect id="elt8whkf1idu" x="367.2" y="236.6" class="st5" width="2.5" height="2.5"/>
	<rect id="elf24joqqm7ug" x="367.2" y="240.8" class="st5" width="2.5" height="2.5"/>
	<rect id="elszdxfjndnyh" x="367.2" y="245" class="st5" width="2.5" height="2.5"/>
	<rect id="elc29sdiv86j" x="363.2" y="173.9" class="st5" width="2.5" height="2.5"/>
	<rect id="elnz8ognhjlhl" x="363.2" y="178.1" class="st5" width="2.5" height="2.5"/>
	<rect id="el05xiv9p7fe3p" x="363.2" y="182.3" class="st5" width="2.5" height="2.5"/>
	<rect id="elrw9xnx6xvs" x="363.2" y="186.5" class="st5" width="2.5" height="2.5"/>
	<rect id="el90hymv0ojih" x="363.2" y="190.6" class="st5" width="2.5" height="2.5"/>
	<rect id="elxpj5qjbvuy" x="363.2" y="194.8" class="st5" width="2.5" height="2.5"/>
	<rect id="el07m59mjlg2dv" x="363.2" y="199" class="st5" width="2.5" height="2.5"/>
	<rect id="elx8vppsvr6c" x="363.2" y="203.2" class="st5" width="2.5" height="2.5"/>
	<rect id="el6fwwcfc92ia" x="363.2" y="207.4" class="st5" width="2.5" height="2.5"/>
	<rect id="els563ziedia" x="363.2" y="211.5" class="st5" width="2.5" height="2.5"/>
	<rect id="elrwb2nhxd7en" x="363.2" y="224.1" class="st5" width="2.5" height="2.5"/>
	<rect id="elkc7n0p9tm9d" x="363.2" y="228.3" class="st5" width="2.5" height="2.5"/>
	<rect id="elxouesliw7wh" x="363.2" y="232.4" class="st5" width="2.5" height="2.5"/>
	<rect id="elsm91gjcwrq" x="363.2" y="236.6" class="st5" width="2.5" height="2.5"/>
	<rect id="el3yh0swcakjs" x="359.3" y="173.9" class="st5" width="2.5" height="2.5"/>
	<rect id="elfeopy2zouet" x="359.3" y="178.1" class="st5" width="2.5" height="2.5"/>
	<rect id="elkmn6iraol1" x="359.3" y="182.3" class="st5" width="2.5" height="2.5"/>
	<rect id="elbljn2ngyhfo" x="359.3" y="186.5" class="st5" width="2.5" height="2.5"/>
	<rect id="eltvamlszxsc" x="359.3" y="190.6" class="st5" width="2.5" height="2.5"/>
	<rect id="el5gqpibfhvz" x="359.3" y="194.8" class="st5" width="2.5" height="2.5"/>
	<rect id="eloomsta67whl" x="359.3" y="199" class="st5" width="2.5" height="2.5"/>
	<rect id="elkxa4wzeelnd" x="359.3" y="203.2" class="st5" width="2.5" height="2.5"/>
	<rect id="el1wrlrej89xi" x="359.3" y="207.4" class="st5" width="2.5" height="2.5"/>
	<rect id="elwlpdjbgkeo" x="359.3" y="211.5" class="st5" width="2.5" height="2.5"/>
	<rect id="el74ud7docwke" x="359.3" y="224.1" class="st5" width="2.5" height="2.5"/>
	<rect id="el3j1i2610up1" x="359.3" y="228.3" class="st5" width="2.5" height="2.5"/>
	<rect id="elxn165jun89p" x="359.3" y="232.4" class="st5" width="2.5" height="2.5"/>
	<rect id="el69brxrhq935" x="314.7" y="163.1" class="st5" width="2.5" height="2.5"/>
	<rect id="elxcp7xn4w42q" x="314.7" y="167.3" class="st5" width="2.5" height="2.5"/>
	<rect id="eltrbz7mc41am" x="314.7" y="171.4" class="st5" width="2.5" height="2.5"/>
	<rect id="elpvc5vbtv7ql" x="314.7" y="175.6" class="st5" width="2.5" height="2.5"/>
	<rect id="eld01ut39nnje" x="314.7" y="179.8" class="st5" width="2.5" height="2.5"/>
	<rect id="elp2m5g5cx109" x="314.7" y="184" class="st5" width="2.5" height="2.5"/>
	<rect id="eldw4by7h600s" x="314.7" y="188.1" class="st5" width="2.5" height="2.5"/>
	<rect id="elisc0hdjcjjr" x="314.7" y="192.3" class="st5" width="2.5" height="2.5"/>
	<rect id="el7egdnewby9" x="314.7" y="204.9" class="st5" width="2.5" height="2.5"/>
	<rect id="elorereerai39" x="314.7" y="209" class="st5" width="2.5" height="2.5"/>
	<rect id="elyla65iqirt" x="310.7" y="163.1" class="st5" width="2.5" height="2.5"/>
	<rect id="eldw3c133f28" x="310.7" y="167.3" class="st5" width="2.5" height="2.5"/>
	<rect id="el7xmonf99bwp" x="310.7" y="171.4" class="st5" width="2.5" height="2.5"/>
	<rect id="elx94s84w1an" x="310.7" y="175.6" class="st5" width="2.5" height="2.5"/>
	<rect id="elpb8knwen3sh" x="310.7" y="179.8" class="st5" width="2.5" height="2.5"/>
	<rect id="el9euobz7j7a" x="310.7" y="184" class="st5" width="2.5" height="2.5"/>
	<rect id="elk6jyq2qoj6k" x="310.7" y="188.1" class="st5" width="2.5" height="2.5"/>
	<rect id="elsayc1bs2fhh" x="310.7" y="192.3" class="st5" width="2.5" height="2.5"/>
	<rect id="ellav9ptu3yff" x="310.7" y="209" class="st5" width="2.5" height="2.5"/>
	<rect id="eltyjz9h3j6o" x="306.8" y="163.1" class="st5" width="2.5" height="2.5"/>
	<rect id="el1yh82z03i2h" x="306.8" y="167.3" class="st5" width="2.5" height="2.5"/>
	<rect id="ele98nd686s34" x="306.8" y="171.4" class="st5" width="2.5" height="2.5"/>
	<rect id="elu5mxutc3vr" x="306.8" y="175.6" class="st5" width="2.5" height="2.5"/>
	<rect id="el9bxw8ryq8oq" x="306.8" y="179.8" class="st5" width="2.5" height="2.5"/>
	<rect id="ela8hksvtlwb7" x="306.8" y="184" class="st5" width="2.5" height="2.5"/>
	<rect id="elwi2px273pmt" x="306.8" y="188.1" class="st5" width="2.5" height="2.5"/>
	<rect id="elb6e65ypqrn" x="306.8" y="192.3" class="st5" width="2.5" height="2.5"/>
	<rect id="el6c4v6btoblv" x="302.8" y="163.1" class="st5" width="2.5" height="2.5"/>
	<rect id="ely9ifdfnrova" x="302.8" y="167.3" class="st5" width="2.5" height="2.5"/>
	<rect id="el1b0s3npysorj" x="302.8" y="171.4" class="st5" width="2.5" height="2.5"/>
	<rect id="elctai0ckhjii" x="302.8" y="175.6" class="st5" width="2.5" height="2.5"/>
	<rect id="elfkv5a2s8ehk" x="302.8" y="179.8" class="st5" width="2.5" height="2.5"/>
	<rect id="eleg0jl3i93r5" x="302.8" y="184" class="st5" width="2.5" height="2.5"/>
	<rect id="elx5tdm20m42g" x="302.8" y="192.3" class="st5" width="2.5" height="2.5"/>
	<rect id="elwoqwkaxtud" x="302.8" y="196.5" class="st5" width="2.5" height="2.5"/>
	<rect id="elsa5gtikgpf" x="302.8" y="209" class="st5" width="2.5" height="2.5"/>
	<rect id="elcfo9h03j2n" x="302.8" y="213.2" class="st5" width="2.5" height="2.5"/>
	<rect id="elm67s6o6d3qm" x="302.8" y="217.4" class="st5" width="2.5" height="2.5"/>
	<rect id="elswf0tavupa" x="302.8" y="221.6" class="st5" width="2.5" height="2.5"/>
	<rect id="elidt7yborqjq" x="302.8" y="225.8" class="st5" width="2.5" height="2.5"/>
	<rect id="elgdsg5r44ph" x="302.8" y="229.9" class="st5" width="2.5" height="2.5"/>
	<rect id="elexyq2w3yhe" x="302.8" y="234.1" class="st5" width="2.5" height="2.5"/>
	<rect id="eligjz4duuce" x="298.9" y="163.1" class="st5" width="2.5" height="2.5"/>
	<rect id="elkollp56icya" x="298.9" y="167.3" class="st5" width="2.5" height="2.5"/>
	<rect id="ely0asyxpv3v" x="298.9" y="171.4" class="st5" width="2.5" height="2.5"/>
	<rect id="elmjmdisv1x3c" x="298.9" y="175.6" class="st5" width="2.5" height="2.5"/>
	<rect id="elpq00xxav8k" x="298.9" y="179.8" class="st5" width="2.5" height="2.5"/>
	<rect id="el3gt2n90eabi" x="298.9" y="184" class="st5" width="2.5" height="2.5"/>
	<rect id="elmtjkvsxnc2" x="298.9" y="196.5" class="st5" width="2.5" height="2.5"/>
	<rect id="elev1s28eb05j" x="298.9" y="200.7" class="st5" width="2.5" height="2.5"/>
	<rect id="elql2w8m6ixtr" x="298.9" y="204.9" class="st5" width="2.5" height="2.5"/>
	<rect id="elr4n1dsszn5" x="298.9" y="209" class="st5" width="2.5" height="2.5"/>
	<rect id="elg0efy97tcm9" x="298.9" y="213.2" class="st5" width="2.5" height="2.5"/>
	<rect id="elqkraqc24x4" x="298.9" y="217.4" class="st5" width="2.5" height="2.5"/>
	<rect id="eldh0j2omjgg" x="298.9" y="221.6" class="st5" width="2.5" height="2.5"/>
	<rect id="elvj4288tv1kj" x="298.9" y="225.8" class="st5" width="2.5" height="2.5"/>
	<rect id="el50v4p3mc6ow" x="298.9" y="229.9" class="st5" width="2.5" height="2.5"/>
	<rect id="elxg7uoc5a7mi" x="298.9" y="234.1" class="st5" width="2.5" height="2.5"/>
	<rect id="elcxazv7oe4ef" x="298.9" y="238.3" class="st5" width="2.5" height="2.5"/>
	<rect id="elgi6c9yqcuu" x="298.9" y="246.7" class="st5" width="2.5" height="2.5"/>
	<rect id="el7sw47hs2rb8" x="294.9" y="163.1" class="st5" width="2.5" height="2.5"/>
	<rect id="el7rjlb4pw17h" x="294.9" y="167.3" class="st5" width="2.5" height="2.5"/>
	<rect id="elwqw3efkoszk" x="294.9" y="171.4" class="st5" width="2.5" height="2.5"/>
	<rect id="elpv7nv0msvqd" x="294.9" y="175.6" class="st5" width="2.5" height="2.5"/>
	<rect id="el9t05m7xfwzl" x="294.9" y="179.8" class="st5" width="2.5" height="2.5"/>
	<rect id="elh41sen2u73t" x="294.9" y="184" class="st5" width="2.5" height="2.5"/>
	<rect id="elspb8lxpuwg" x="294.9" y="196.5" class="st5" width="2.5" height="2.5"/>
	<rect id="el6upjxd1g9wp" x="294.9" y="200.7" class="st5" width="2.5" height="2.5"/>
	<rect id="elf37jqru14xj" x="294.9" y="204.9" class="st5" width="2.5" height="2.5"/>
	<rect id="elze2yhjmfep" x="294.9" y="209" class="st5" width="2.5" height="2.5"/>
	<rect id="eluwyb3di222m" x="294.9" y="221.6" class="st5" width="2.5" height="2.5"/>
	<rect id="el8bp8wimcnzm" x="294.9" y="225.8" class="st5" width="2.5" height="2.5"/>
	<rect id="elxg0p5qxh37g" x="294.9" y="229.9" class="st5" width="2.5" height="2.5"/>
	<rect id="elq83s3yioc1" x="294.9" y="234.1" class="st5" width="2.5" height="2.5"/>
	<rect id="elv6imx9b21r" x="294.9" y="238.3" class="st5" width="2.5" height="2.5"/>
	<rect id="eld6256wqw6cn" x="294.9" y="246.7" class="st5" width="2.5" height="2.5"/>
	<rect id="el80h50nilwas" x="294.9" y="250.8" class="st5" width="2.5" height="2.5"/>
	<rect id="el210rf5f6gnsi" x="259" y="201.9" class="st5" width="2.5" height="2.5"/>
	<rect id="ele6b473k6ixt" x="259" y="206.1" class="st5" width="2.5" height="2.5"/>
	<rect id="elw8q5kutwhdh" x="259" y="210.3" class="st5" width="2.5" height="2.5"/>
	<rect id="elxljk3zm2y8" x="259" y="214.5" class="st5" width="2.5" height="2.5"/>
	<rect id="el4owzjk5x387" x="259" y="218.6" class="st5" width="2.5" height="2.5"/>
	<rect id="el0oxhst9cb25h" x="259" y="222.8" class="st5" width="2.5" height="2.5"/>
	<rect id="elguksps84rkd" x="259" y="227" class="st5" width="2.5" height="2.5"/>
	<rect id="elggicajg7ne7" x="259" y="239.5" class="st5" width="2.5" height="2.5"/>
	<rect id="el7z873egw2hb" x="259" y="243.7" class="st5" width="2.5" height="2.5"/>
	<rect id="el2a6csjk2zrw" x="259" y="247.9" class="st5" width="2.5" height="2.5"/>
	<rect id="eldhsssu25o2a" x="255" y="201.9" class="st5" width="2.5" height="2.5"/>
	<rect id="el4k22aln84uk" x="255" y="206.1" class="st5" width="2.5" height="2.5"/>
	<rect id="elf9teapeobej" x="255" y="210.3" class="st5" width="2.5" height="2.5"/>
	<rect id="el1df3w49xczr" x="255" y="214.5" class="st5" width="2.5" height="2.5"/>
	<rect id="el1ypyuuu94ms" x="255" y="218.6" class="st5" width="2.5" height="2.5"/>
	<rect id="elbjxcfs9n6o" x="255" y="222.8" class="st5" width="2.5" height="2.5"/>
	<rect id="elzgevap90ast" x="255" y="227" class="st5" width="2.5" height="2.5"/>
	<rect id="elnu23njqu4ci" x="251.1" y="201.9" class="st5" width="2.5" height="2.5"/>
	<rect id="elaq77xu5woc7" x="251.1" y="206.1" class="st5" width="2.5" height="2.5"/>
	<rect id="el145vvvelom9" x="251.1" y="210.3" class="st5" width="2.5" height="2.5"/>
	<rect id="el35uaa0pxfmn" x="251.1" y="214.5" class="st5" width="2.5" height="2.5"/>
	<rect id="el0hq5xbxpyhf" x="251.1" y="218.6" class="st5" width="2.5" height="2.5"/>
	<rect id="el02cmgaw81m6q" x="251.1" y="222.8" class="st5" width="2.5" height="2.5"/>
	<rect id="elhfiyrmq8alw" x="251.1" y="227" class="st5" width="2.5" height="2.5"/>
	<rect id="elnsdzz0dhkj" x="247.1" y="201.9" class="st5" width="2.5" height="2.5"/>
	<rect id="elmmwpgpi5y7" x="247.1" y="206.1" class="st5" width="2.5" height="2.5"/>
	<rect id="elpo2y3tmzbok" x="247.1" y="210.3" class="st5" width="2.5" height="2.5"/>
	<rect id="elnbn1v6y6cj" x="247.1" y="214.5" class="st5" width="2.5" height="2.5"/>
	<rect id="ely8crcc33b2j" x="247.1" y="218.6" class="st5" width="2.5" height="2.5"/>
	<rect id="elcoxhx28ugz9" x="247.1" y="222.8" class="st5" width="2.5" height="2.5"/>
	<rect id="ellfwq5rawdrj" x="247.1" y="227" class="st5" width="2.5" height="2.5"/>
	<rect id="el5b8bpjdu34t" x="247.1" y="231.2" class="st5" width="2.5" height="2.5"/>
	<rect id="el7yt7cdxuikg" x="247.1" y="235.4" class="st5" width="2.5" height="2.5"/>
	<rect id="el5dg2eud5a6x" x="247.1" y="239.5" class="st5" width="2.5" height="2.5"/>
	<rect id="elb0fpqug8mtj" x="247.1" y="243.7" class="st5" width="2.5" height="2.5"/>
	<rect id="el5nwlayi72um" x="243.1" y="201.9" class="st5" width="2.5" height="2.5"/>
	<rect id="elfa2pgvmziu" x="243.1" y="206.1" class="st5" width="2.5" height="2.5"/>
	<rect id="el6i37ms976ac" x="243.1" y="210.3" class="st5" width="2.5" height="2.5"/>
	<rect id="el11c1rb0bav5" x="243.1" y="214.5" class="st5" width="2.5" height="2.5"/>
	<rect id="el42arah3n4y3" x="243.1" y="218.6" class="st5" width="2.5" height="2.5"/>
	<rect id="ela68t7rtbdgm" x="243.1" y="222.8" class="st5" width="2.5" height="2.5"/>
	<rect id="el5qp91dxrwf" x="243.1" y="227" class="st5" width="2.5" height="2.5"/>
	<rect id="el4deol51yevc" x="243.1" y="231.2" class="st5" width="2.5" height="2.5"/>
	<rect id="el8kez11lzxg4" x="243.1" y="235.4" class="st5" width="2.5" height="2.5"/>
	<rect id="el1grircpcmmy" x="243.1" y="239.5" class="st5" width="2.5" height="2.5"/>
	<rect id="elfmxxc7alhma" x="243.1" y="243.7" class="st5" width="2.5" height="2.5"/>
	<rect id="elnm2dpufpxe" x="243.1" y="247.9" class="st5" width="2.5" height="2.5"/>
	<rect id="elt2l4fi0ci0p" x="243.1" y="260.4" class="st5" width="2.5" height="2.5"/>
	<rect id="elt4zfnrjlxdl" x="243.1" y="264.6" class="st5" width="2.5" height="2.5"/>
	<rect id="el71v0x0xuizl" x="239.2" y="201.9" class="st5" width="2.5" height="2.5"/>
	<rect id="el7keqcfehpq" x="239.2" y="206.1" class="st5" width="2.5" height="2.5"/>
	<rect id="elq9xtgcqo60n" x="239.2" y="210.3" class="st5" width="2.5" height="2.5"/>
	<rect id="elrgcijzq8ymg" x="239.2" y="222.8" class="st5" width="2.5" height="2.5"/>
	<rect id="el9rksrb0cn8g" x="239.2" y="227" class="st5" width="2.5" height="2.5"/>
	<rect id="elfnujdi9g7y" x="239.2" y="231.2" class="st5" width="2.5" height="2.5"/>
	<rect id="el2dbicysso3b" x="239.2" y="235.4" class="st5" width="2.5" height="2.5"/>
	<rect id="elxy32v9wo6zr" x="239.2" y="239.5" class="st5" width="2.5" height="2.5"/>
	<rect id="elemtylcsze6" x="239.2" y="243.7" class="st5" width="2.5" height="2.5"/>
	<rect id="el2nhxi1rjosg" x="239.2" y="247.9" class="st5" width="2.5" height="2.5"/>
	<rect id="elmuin9m845d" x="239.2" y="260.4" class="st5" width="2.5" height="2.5"/>
	<rect id="elvq8qifd0yys" x="239.2" y="264.6" class="st5" width="2.5" height="2.5"/>
	<rect id="eli3ux6ybv7pe" x="239.2" y="268.8" class="st5" width="2.5" height="2.5"/>
	<rect id="elmrjtidvb9j" x="197.7" y="176.9" class="st5" width="2.5" height="2.5"/>
	<rect id="el1ck5m2o4y07" x="197.7" y="181" class="st5" width="2.5" height="2.5"/>
	<rect id="el0uixcu6q5c7" x="197.7" y="185.2" class="st5" width="2.5" height="2.5"/>
	<rect id="el7eotvgzf7g5" x="197.7" y="189.4" class="st5" width="2.5" height="2.5"/>
	<rect id="eld9lg77we7yt" x="197.7" y="193.6" class="st5" width="2.5" height="2.5"/>
	<rect id="elelprnwhprgh" x="197.7" y="197.8" class="st5" width="2.5" height="2.5"/>
	<rect id="elozy8zoaqcra" x="197.7" y="201.9" class="st5" width="2.5" height="2.5"/>
	<rect id="els1xy9xu3ts" x="197.7" y="206.1" class="st5" width="2.5" height="2.5"/>
	<rect id="elaly1ck2wp4w" x="197.7" y="210.3" class="st5" width="2.5" height="2.5"/>
	<rect id="elwcjhxckhqtg" x="197.7" y="214.5" class="st5" width="2.5" height="2.5"/>
	<rect id="elae9fnbx8hsd" x="197.7" y="218.6" class="st5" width="2.5" height="2.5"/>
	<rect id="eliaism6qw8nc" x="197.7" y="222.8" class="st5" width="2.5" height="2.5"/>
	<rect id="elveqvuzn5cs" x="197.7" y="227" class="st5" width="2.5" height="2.5"/>
	<rect id="elybyrs1aqdi" x="197.7" y="231.2" class="st5" width="2.5" height="2.5"/>
	<rect id="eloqe3m49r1o" x="197.7" y="235.4" class="st5" width="2.5" height="2.5"/>
	<rect id="el7340dwejbyd" x="197.7" y="239.5" class="st5" width="2.5" height="2.5"/>
	<rect id="elxjw8pdzoaph" x="197.7" y="243.7" class="st5" width="2.5" height="2.5"/>
	<rect id="el9e8f4o2kpu" x="197.7" y="247.9" class="st5" width="2.5" height="2.5"/>
	<rect id="elde8cok1hsq" x="197.7" y="252.1" class="st5" width="2.5" height="2.5"/>
	<rect id="elqevt2a7dmog" x="197.7" y="256.3" class="st5" width="2.5" height="2.5"/>
	<rect id="el17z6o13uycj" x="197.7" y="260.4" class="st5" width="2.5" height="2.5"/>
	<rect id="el2vb7jkmwphd" x="197.7" y="264.6" class="st5" width="2.5" height="2.5"/>
	<rect id="el4cfennbeadb" x="197.7" y="268.8" class="st5" width="2.5" height="2.5"/>
	<rect id="elv1danokgfb" x="193.7" y="176.9" class="st5" width="2.5" height="2.5"/>
	<rect id="ellzo9op9939l" x="193.7" y="181" class="st5" width="2.5" height="2.5"/>
	<rect id="elgddcxwejxqh" x="193.7" y="185.2" class="st5" width="2.5" height="2.5"/>
	<rect id="elkdr4fxs7aar" x="193.7" y="189.4" class="st5" width="2.5" height="2.5"/>
	<rect id="eluam4f7yn02s" x="193.7" y="193.6" class="st5" width="2.5" height="2.5"/>
	<rect id="eld0tap6n1185" x="193.7" y="197.8" class="st5" width="2.5" height="2.5"/>
	<rect id="elridibdp7tts" x="193.7" y="201.9" class="st5" width="2.5" height="2.5"/>
	<rect id="elh08upv09k9q" x="193.7" y="206.1" class="st5" width="2.5" height="2.5"/>
	<rect id="el6k7lsks9bw8" x="193.7" y="210.3" class="st5" width="2.5" height="2.5"/>
	<rect id="elww2lxwy9dmg" x="193.7" y="214.5" class="st5" width="2.5" height="2.5"/>
	<rect id="elgxb1zo1aaw" x="193.7" y="218.6" class="st5" width="2.5" height="2.5"/>
	<rect id="elz2pz8ke7d4c" x="193.7" y="222.8" class="st5" width="2.5" height="2.5"/>
	<rect id="elvjjrxvcp0hp" x="193.7" y="227" class="st5" width="2.5" height="2.5"/>
	<rect id="elhddr0ka3q2j" x="193.7" y="231.2" class="st5" width="2.5" height="2.5"/>
	<rect id="elzj23x0fwbo" x="193.7" y="235.4" class="st5" width="2.5" height="2.5"/>
	<rect id="elhj1u7zha9ci" x="193.7" y="239.5" class="st5" width="2.5" height="2.5"/>
	<rect id="el16vajk7v6kf" x="193.7" y="243.7" class="st5" width="2.5" height="2.5"/>
	<rect id="el6mc2hvti5pt" x="193.7" y="247.9" class="st5" width="2.5" height="2.5"/>
	<rect id="el3n17dtwk44q" x="193.7" y="252.1" class="st5" width="2.5" height="2.5"/>
	<rect id="elugigsgcr32" x="189.8" y="176.9" class="st5" width="2.5" height="2.5"/>
	<rect id="eldejjvc7o40j" x="189.8" y="181" class="st5" width="2.5" height="2.5"/>
	<rect id="elkj9qmo7d4l" x="189.8" y="185.2" class="st5" width="2.5" height="2.5"/>
	<rect id="eld4tzv6v0w3p" x="189.8" y="189.4" class="st5" width="2.5" height="2.5"/>
	<rect id="el6k3uat50d9d" x="189.8" y="193.6" class="st5" width="2.5" height="2.5"/>
	<rect id="elzvhj42qw16h" x="189.8" y="197.8" class="st5" width="2.5" height="2.5"/>
	<rect id="elti8m3sx0uep" x="189.8" y="201.9" class="st5" width="2.5" height="2.5"/>
	<rect id="elbkd1wn00yy" x="189.8" y="206.1" class="st5" width="2.5" height="2.5"/>
	<rect id="elfeoms83tj" x="189.8" y="210.3" class="st5" width="2.5" height="2.5"/>
	<rect id="el7zg1rug41nn" x="189.8" y="214.5" class="st5" width="2.5" height="2.5"/>
	<rect id="elktvuog0j08o" x="189.8" y="218.6" class="st5" width="2.5" height="2.5"/>
	<rect id="eljeyt4osaw9a" x="189.8" y="222.8" class="st5" width="2.5" height="2.5"/>
	<rect id="eltvqjsl50h" x="189.8" y="227" class="st5" width="2.5" height="2.5"/>
	<rect id="ell7ov2cd41e8" x="189.8" y="231.2" class="st5" width="2.5" height="2.5"/>
	<rect id="el4uekt3kg7av" x="189.8" y="235.4" class="st5" width="2.5" height="2.5"/>
	<rect id="elhewfir2rphh" x="189.8" y="239.5" class="st5" width="2.5" height="2.5"/>
	<rect id="elo1rnb24wr7" x="189.8" y="243.7" class="st5" width="2.5" height="2.5"/>
	<rect id="elletml9ckpw" x="189.8" y="247.9" class="st5" width="2.5" height="2.5"/>
	<rect id="elffw6u8tolmf" x="189.8" y="252.1" class="st5" width="2.5" height="2.5"/>
	<rect id="elp9dybyxdrp" x="185.8" y="176.9" class="st5" width="2.5" height="2.5"/>
	<rect id="el75lyjgnw1y9" x="185.8" y="181" class="st5" width="2.5" height="2.5"/>
	<rect id="eljvsgi11pr8g" x="185.8" y="185.2" class="st5" width="2.5" height="2.5"/>
	<rect id="elfox4q0i15jo" x="185.8" y="189.4" class="st5" width="2.5" height="2.5"/>
	<rect id="elqsebykpaeff" x="185.8" y="193.6" class="st5" width="2.5" height="2.5"/>
	<rect id="elx7ocsw77yll" x="185.8" y="197.8" class="st5" width="2.5" height="2.5"/>
	<rect id="elu2muf9012qf" x="185.8" y="201.9" class="st5" width="2.5" height="2.5"/>
	<rect id="elv9zsvnb4kjs" x="185.8" y="206.1" class="st5" width="2.5" height="2.5"/>
	<rect id="elz3oeccaqfmd" x="185.8" y="210.3" class="st5" width="2.5" height="2.5"/>
	<rect id="el89wf9tdrex" x="185.8" y="214.5" class="st5" width="2.5" height="2.5"/>
	<rect id="eld40lomjtkyw" x="185.8" y="218.6" class="st5" width="2.5" height="2.5"/>
	<rect id="elh94i50aqxib" x="185.8" y="222.8" class="st5" width="2.5" height="2.5"/>
	<rect id="elqu54k2nchg" x="185.8" y="227" class="st5" width="2.5" height="2.5"/>
	<rect id="elwlfvvout8y" x="185.8" y="231.2" class="st5" width="2.5" height="2.5"/>
	<rect id="elul0dvn3bbvp" x="185.8" y="235.4" class="st5" width="2.5" height="2.5"/>
	<rect id="el2i8xr73edvz" x="181.8" y="176.9" class="st5" width="2.5" height="2.5"/>
	<rect id="elhvlcp9go5ca" x="181.8" y="181" class="st5" width="2.5" height="2.5"/>
	<rect id="eltc35gmnv84" x="181.8" y="185.2" class="st5" width="2.5" height="2.5"/>
	<rect id="elsd86u4nuhlq" x="181.8" y="189.4" class="st5" width="2.5" height="2.5"/>
	<rect id="eltld5flwgon" x="181.8" y="193.6" class="st5" width="2.5" height="2.5"/>
	<rect id="elche0qk2s8mk" x="181.8" y="197.8" class="st5" width="2.5" height="2.5"/>
	<rect id="eliibw78spr1k" x="181.8" y="201.9" class="st5" width="2.5" height="2.5"/>
	<rect id="elmk71azt7oa" x="181.8" y="206.1" class="st5" width="2.5" height="2.5"/>
	<rect id="elqm40tmrihz" x="181.8" y="210.3" class="st5" width="2.5" height="2.5"/>
	<rect id="el0n28bw62kuy" x="181.8" y="214.5" class="st5" width="2.5" height="2.5"/>
	<rect id="elud4e4t298l" x="181.8" y="218.6" class="st5" width="2.5" height="2.5"/>
	<rect id="el0pvqzzxi1lrh" x="181.8" y="222.8" class="st5" width="2.5" height="2.5"/>
	<rect id="elok143z0tixm" x="181.8" y="227" class="st5" width="2.5" height="2.5"/>
	<rect id="el919itz0gv4f" x="177.9" y="176.9" class="st5" width="2.5" height="2.5"/>
	<rect id="elzfwy20kyppj" x="177.9" y="181" class="st5" width="2.5" height="2.5"/>
	<rect id="elquvy4n7a92" x="177.9" y="185.2" class="st5" width="2.5" height="2.5"/>
	<rect id="el1o8tioikl2w" x="177.9" y="189.4" class="st5" width="2.5" height="2.5"/>
	<rect id="elu3kd5mdybli" x="177.9" y="193.6" class="st5" width="2.5" height="2.5"/>
	<rect id="eljxu254jkxh" x="177.9" y="197.8" class="st5" width="2.5" height="2.5"/>
	<rect id="elz77zns2ld8" x="177.9" y="201.9" class="st5" width="2.5" height="2.5"/>
	<rect id="el0pfi9g2v2tp" x="177.9" y="206.1" class="st5" width="2.5" height="2.5"/>
	<rect id="elvqc1089gidj" x="177.9" y="210.3" class="st5" width="2.5" height="2.5"/>
	<rect id="elrnjgmuypor" x="177.9" y="214.5" class="st5" width="2.5" height="2.5"/>
	<rect id="elxmghio6s0cq" x="177.9" y="218.6" class="st5" width="2.5" height="2.5"/>
	<rect id="elrjaylkxabc7" x="177.9" y="222.8" class="st5" width="2.5" height="2.5"/>
	<rect id="elmirq1acchm" x="409" y="175.6" class="st5" width="2.5" height="2.5"/>
	<rect id="elrlybmcnym9b" x="409" y="179.8" class="st5" width="2.5" height="2.5"/>
	<rect id="el6jmh64nnjsb" x="409" y="184" class="st5" width="2.5" height="2.5"/>
	<rect id="eljrx8isqquxk" x="409" y="188.1" class="st5" width="2.5" height="2.5"/>
	<rect id="el6s3yqixxpze" x="409" y="192.3" class="st5" width="2.5" height="2.5"/>
	<rect id="elz4hwt0rpcc9" x="409" y="196.5" class="st5" width="2.5" height="2.5"/>
	<rect id="elhyd4cnuul18" x="409" y="200.7" class="st5" width="2.5" height="2.5"/>
	<rect id="elafochvbp0r" x="409" y="204.9" class="st5" width="2.5" height="2.5"/>
	<rect id="ela4av76vw5du" x="409" y="209" class="st5" width="2.5" height="2.5"/>
	<rect id="el34g6lbwk8wl" x="409" y="213.2" class="st5" width="2.5" height="2.5"/>
	<rect id="elhfva0c9hso" x="409" y="217.4" class="st5" width="2.5" height="2.5"/>
	<rect id="elhe8w0lidibj" x="409" y="221.6" class="st5" width="2.5" height="2.5"/>
	<rect id="el880sjvia6di" x="409" y="225.8" class="st5" width="2.5" height="2.5"/>
	<rect id="elc888pogbk5" x="409" y="229.9" class="st5" width="2.5" height="2.5"/>
	<rect id="elaqpp3gsa8b4" x="409" y="234.1" class="st5" width="2.5" height="2.5"/>
	<rect id="elzh0w1kk7qhi" x="409" y="238.3" class="st5" width="2.5" height="2.5"/>
	<rect id="el81hvo7mw3lu" x="409" y="242.5" class="st5" width="2.5" height="2.5"/>
	<rect id="elt58kwqnh6ta" x="409" y="250.8" class="st5" width="2.5" height="2.5"/>
	<rect id="elawag61o5pvw" x="409" y="255" class="st5" width="2.5" height="2.5"/>
	<rect id="eles1ralstqek" x="409" y="259.2" class="st5" width="2.5" height="2.5"/>
	<rect id="eldtrjg9xd0vn" x="409" y="263.4" class="st5" width="2.5" height="2.5"/>
	<rect id="elqvfbgcnjd0c" x="409" y="267.5" class="st5" width="2.5" height="2.5"/>
	<rect id="elq7np93otg1f" x="405" y="175.6" class="st5" width="2.5" height="2.5"/>
	<rect id="elb3klboxrzh" x="405" y="179.8" class="st5" width="2.5" height="2.5"/>
	<rect id="elb9omq8h798" x="405" y="184" class="st5" width="2.5" height="2.5"/>
	<rect id="el2f37421uom3" x="405" y="188.1" class="st5" width="2.5" height="2.5"/>
	<rect id="elhuwqlx541t" x="405" y="192.3" class="st5" width="2.5" height="2.5"/>
	<rect id="ela4jti6gjykb" x="405" y="196.5" class="st5" width="2.5" height="2.5"/>
	<rect id="elsxjtnrz0b3h" x="405" y="200.7" class="st5" width="2.5" height="2.5"/>
	<rect id="eld1kjjyuc6n" x="405" y="204.9" class="st5" width="2.5" height="2.5"/>
	<rect id="elbtels5av444" x="405" y="209" class="st5" width="2.5" height="2.5"/>
	<rect id="eluhjua8bvhu" x="405" y="213.2" class="st5" width="2.5" height="2.5"/>
	<rect id="eldl6on34f4ff" x="405" y="217.4" class="st5" width="2.5" height="2.5"/>
	<rect id="el1tvqucmgp7i" x="405" y="221.6" class="st5" width="2.5" height="2.5"/>
	<rect id="el0xmtnazkpc3" x="405" y="225.8" class="st5" width="2.5" height="2.5"/>
	<rect id="elxnw115upoal" x="405" y="229.9" class="st5" width="2.5" height="2.5"/>
	<rect id="el306vcci45gh" x="405" y="234.1" class="st5" width="2.5" height="2.5"/>
	<rect id="elduarhvu75i" x="405" y="238.3" class="st5" width="2.5" height="2.5"/>
	<rect id="el4o6lazlgx2i" x="405" y="263.4" class="st5" width="2.5" height="2.5"/>
	<rect id="elr1kp7d8a8en" x="405" y="267.5" class="st5" width="2.5" height="2.5"/>
	<rect id="elhs88kc34be8" x="401.1" y="175.6" class="st5" width="2.5" height="2.5"/>
	<rect id="elq0vegi4nx4" x="401.1" y="179.8" class="st5" width="2.5" height="2.5"/>
	<rect id="elx1mfca772xe" x="401.1" y="184" class="st5" width="2.5" height="2.5"/>
	<rect id="elga5f7usgqq4" x="401.1" y="188.1" class="st5" width="2.5" height="2.5"/>
	<rect id="elhhttf0h5sp" x="401.1" y="192.3" class="st5" width="2.5" height="2.5"/>
	<rect id="elqhnkq3en3hc" x="401.1" y="196.5" class="st5" width="2.5" height="2.5"/>
	<rect id="elcl4x2z3xk8r" x="401.1" y="200.7" class="st5" width="2.5" height="2.5"/>
	<rect id="el89e52yajytq" x="401.1" y="204.9" class="st5" width="2.5" height="2.5"/>
	<rect id="ele11y93p6i5i" x="401.1" y="209" class="st5" width="2.5" height="2.5"/>
	<rect id="elh4hf5o9wy1o" x="401.1" y="213.2" class="st5" width="2.5" height="2.5"/>
	<rect id="eltia0irqxi4d" x="401.1" y="217.4" class="st5" width="2.5" height="2.5"/>
	<rect id="el5x29531uthn" x="401.1" y="221.6" class="st5" width="2.5" height="2.5"/>
	<rect id="elca4ilof9ofo" x="401.1" y="225.8" class="st5" width="2.5" height="2.5"/>
	<rect id="elxwikde9mk3h" x="401.1" y="229.9" class="st5" width="2.5" height="2.5"/>
	<rect id="elubcpcm5qp4m" x="401.1" y="234.1" class="st5" width="2.5" height="2.5"/>
	<rect id="el1tv0i7awu5xi" x="401.1" y="238.3" class="st5" width="2.5" height="2.5"/>
	<rect id="elufete9v1g" x="401.1" y="246.7" class="st5" width="2.5" height="2.5"/>
	<rect id="el85o7gfeiet" x="401.1" y="250.8" class="st5" width="2.5" height="2.5"/>
	<rect id="el5zudntwbu2q" x="401.1" y="255" class="st5" width="2.5" height="2.5"/>
	<rect id="elsnuu2csyja" x="401.1" y="259.2" class="st5" width="2.5" height="2.5"/>
	<rect id="elg8r09dyo76q" x="401.1" y="267.5" class="st5" width="2.5" height="2.5"/>
	<rect id="el99tbjh9tlmp" x="332" y="204.9" class="st5" width="2.5" height="2.5"/>
	<rect id="eluvri2v9lv6" x="332" y="209" class="st5" width="2.5" height="2.5"/>
	<rect id="elv2yivbgg5" x="332" y="213.2" class="st5" width="2.5" height="2.5"/>
	<rect id="eluo8d25qedc" x="332" y="217.4" class="st5" width="2.5" height="2.5"/>
	<rect id="elpfa4msnv49l" x="332" y="221.6" class="st5" width="2.5" height="2.5"/>
	<rect id="eluzgkv8ewoer" x="332" y="225.8" class="st5" width="2.5" height="2.5"/>
	<rect id="el1ikg2nlnamk" x="332" y="229.9" class="st5" width="2.5" height="2.5"/>
	<rect id="elw7p5lrwjiuo" x="332" y="234.1" class="st5" width="2.5" height="2.5"/>
	<rect id="el12onxfnmf32p" x="332" y="238.3" class="st5" width="2.5" height="2.5"/>
	<rect id="elruqf5imtiqg" x="332" y="242.5" class="st5" width="2.5" height="2.5"/>
	<rect id="elkre056ftxq8" x="332" y="246.7" class="st5" width="2.5" height="2.5"/>
	<rect id="elmndy2dkwvpn" x="332" y="250.8" class="st5" width="2.5" height="2.5"/>
	<rect id="elck5f072q9lq" x="332" y="255" class="st5" width="2.5" height="2.5"/>
	<rect id="el5ho5prrw4ij" x="332" y="263.4" class="st5" width="2.5" height="2.5"/>
	<rect id="el53dai8kapkv" x="332" y="267.5" class="st5" width="2.5" height="2.5"/>
	<rect id="elqi38rpy2oli" x="332" y="271.7" class="st5" width="2.5" height="2.5"/>
	<rect id="elvudk6q676hk" x="332" y="275.9" class="st5" width="2.5" height="2.5"/>
	<rect id="elld0c1geewz" x="332" y="284.3" class="st5" width="2.5" height="2.5"/>
	<rect id="eleee0cy8ho2f" x="332" y="288.4" class="st5" width="2.5" height="2.5"/>
	<rect id="el8jkjy1fh0kj" x="332" y="292.6" class="st5" width="2.5" height="2.5"/>
	<rect id="elz2jrtyaz0jl" x="328" y="204.9" class="st5" width="2.5" height="2.5"/>
	<rect id="el7w3hgxwmjyj" x="328" y="209" class="st5" width="2.5" height="2.5"/>
	<rect id="eltj4ieyq89j" x="328" y="213.2" class="st5" width="2.5" height="2.5"/>
	<rect id="elxn02k5rymzg" x="328" y="217.4" class="st5" width="2.5" height="2.5"/>
	<rect id="elwql3qn6v2lc" x="328" y="221.6" class="st5" width="2.5" height="2.5"/>
	<rect id="el2196opszkwi" x="328" y="225.8" class="st5" width="2.5" height="2.5"/>
	<rect id="elzauf94mlenf" x="328" y="229.9" class="st5" width="2.5" height="2.5"/>
	<rect id="elcybcrbedso9" x="328" y="234.1" class="st5" width="2.5" height="2.5"/>
	<rect id="elczxm6sd9je" x="328" y="238.3" class="st5" width="2.5" height="2.5"/>
	<rect id="elo876niv7zoq" x="328" y="242.5" class="st5" width="2.5" height="2.5"/>
	<rect id="elr6apfyq4hwg" x="328" y="246.7" class="st5" width="2.5" height="2.5"/>
	<rect id="el6xjm8lq3b9" x="328" y="250.8" class="st5" width="2.5" height="2.5"/>
	<rect id="elmg3ii8mwci" x="328" y="255" class="st5" width="2.5" height="2.5"/>
	<rect id="el7fvmvwx2tds" x="328" y="267.5" class="st5" width="2.5" height="2.5"/>
	<rect id="el1g1g70aze5ch" x="328" y="271.7" class="st5" width="2.5" height="2.5"/>
	<rect id="elg87jm6zxxjk" x="328" y="280.1" class="st5" width="2.5" height="2.5"/>
	<rect id="el71gecb1vmei" x="328" y="284.3" class="st5" width="2.5" height="2.5"/>
	<rect id="el1lo8k6g1hww" x="328" y="288.4" class="st5" width="2.5" height="2.5"/>
	<rect id="ele3zu82p23gh" x="328" y="292.6" class="st5" width="2.5" height="2.5"/>
	<rect id="elsn620la99db" x="324.1" y="204.9" class="st5" width="2.5" height="2.5"/>
	<rect id="el9r9x1w6u8ks" x="324.1" y="209" class="st5" width="2.5" height="2.5"/>
	<rect id="elctspe0q67v7" x="324.1" y="213.2" class="st5" width="2.5" height="2.5"/>
	<rect id="el57jn6qkl3ql" x="324.1" y="217.4" class="st5" width="2.5" height="2.5"/>
	<rect id="elq3x0gjaw1po" x="324.1" y="221.6" class="st5" width="2.5" height="2.5"/>
	<rect id="elmun0bo184sc" x="324.1" y="225.8" class="st5" width="2.5" height="2.5"/>
	<rect id="elbmw8kh5scd" x="324.1" y="229.9" class="st5" width="2.5" height="2.5"/>
	<rect id="elvge2hgdcvwq" x="324.1" y="234.1" class="st5" width="2.5" height="2.5"/>
	<rect id="elz6x9lbd6iye" x="324.1" y="238.3" class="st5" width="2.5" height="2.5"/>
	<rect id="el35nx6qa1hsg" x="324.1" y="242.5" class="st5" width="2.5" height="2.5"/>
	<rect id="el4pm6w6fq6ck" x="324.1" y="246.7" class="st5" width="2.5" height="2.5"/>
	<rect id="ela7bg0o50l0n" x="324.1" y="250.8" class="st5" width="2.5" height="2.5"/>
	<rect id="eli77hpucghl" x="324.1" y="255" class="st5" width="2.5" height="2.5"/>
	<rect id="ela59rtugzfcv" x="324.1" y="259.2" class="st5" width="2.5" height="2.5"/>
	<rect id="el8gxyjar03gq" x="324.1" y="267.5" class="st5" width="2.5" height="2.5"/>
	<rect id="elqnzb6ssb4gd" x="324.1" y="275.9" class="st5" width="2.5" height="2.5"/>
	<rect id="eltr1i8icpojc" x="324.1" y="280.1" class="st5" width="2.5" height="2.5"/>
	<rect id="elvg45s8buv4i" x="324.1" y="284.3" class="st5" width="2.5" height="2.5"/>
	<rect id="el3ducx14r235" x="324.1" y="288.4" class="st5" width="2.5" height="2.5"/>
	<rect id="elnkmmqmleo2a" x="324.1" y="292.6" class="st5" width="2.5" height="2.5"/>
	<rect id="el4onzva09p9l" x="348.1" y="228.7" class="st5" width="2.5" height="2.5"/>
	<rect id="elm79b4bnploq" x="348.1" y="232.9" class="st5" width="2.5" height="2.5"/>
	<rect id="eli0gdwuwfpc" x="348.1" y="237.1" class="st5" width="2.5" height="2.5"/>
	<rect id="elcvyamlhqi7f" x="348.1" y="241.2" class="st5" width="2.5" height="2.5"/>
	<rect id="el9i57fw1obtm" x="348.1" y="245.4" class="st5" width="2.5" height="2.5"/>
	<rect id="eltaecsue1rq" x="348.1" y="249.6" class="st5" width="2.5" height="2.5"/>
	<rect id="el4vywyi7mr9d" x="348.1" y="262.1" class="st5" width="2.5" height="2.5"/>
	<rect id="elvjpwxfjmmh" x="348.1" y="266.3" class="st5" width="2.5" height="2.5"/>
	<rect id="el5dxo9ci8wgq" x="348.1" y="270.5" class="st5" width="2.5" height="2.5"/>
	<rect id="elsa55ns6yg8" x="348.1" y="274.7" class="st5" width="2.5" height="2.5"/>
	<rect id="elmh4bn8kwm8q" x="348.1" y="278.8" class="st5" width="2.5" height="2.5"/>
	<rect id="elp1srhjnncz8" x="348.1" y="283" class="st5" width="2.5" height="2.5"/>
	<rect id="elj5v5xbq6jz" x="348.1" y="287.2" class="st5" width="2.5" height="2.5"/>
	<rect id="eljk8hxuwofr" x="344.2" y="228.7" class="st5" width="2.5" height="2.5"/>
	<rect id="elhndvgk4ety6" x="344.2" y="232.9" class="st5" width="2.5" height="2.5"/>
	<rect id="el2y3ya3mnhsr" x="344.2" y="237.1" class="st5" width="2.5" height="2.5"/>
	<rect id="eljs1xepcdnci" x="344.2" y="241.2" class="st5" width="2.5" height="2.5"/>
	<rect id="el97rvj89ycfa" x="344.2" y="245.4" class="st5" width="2.5" height="2.5"/>
	<rect id="elqu8vvps1p7" x="344.2" y="249.6" class="st5" width="2.5" height="2.5"/>
	<rect id="elc7of80uwk9" x="344.2" y="262.1" class="st5" width="2.5" height="2.5"/>
	<rect id="ela0yi5rkn1vd" x="344.2" y="266.3" class="st5" width="2.5" height="2.5"/>
	<rect id="eljqvf0y0r5nb" x="344.2" y="270.5" class="st5" width="2.5" height="2.5"/>
	<rect id="eleti6rle4d5" x="344.2" y="274.7" class="st5" width="2.5" height="2.5"/>
	<rect id="elsomhnj0qohb" x="344.2" y="278.8" class="st5" width="2.5" height="2.5"/>
	<rect id="elx7kjgldfafd" x="344.2" y="283" class="st5" width="2.5" height="2.5"/>
	<rect id="el3n004v5xpns" x="344.2" y="291.4" class="st5" width="2.5" height="2.5"/>
	<rect id="el4i2n9vqa9lj" x="212.6" y="210.3" class="st5" width="2.5" height="2.5"/>
	<rect id="elgkyx2f9uuoq" x="212.6" y="214.5" class="st5" width="2.5" height="2.5"/>
	<rect id="elmjsz12zy4je" x="212.6" y="218.6" class="st5" width="2.5" height="2.5"/>
	<rect id="elk6sy9dydul" x="212.6" y="222.8" class="st5" width="2.5" height="2.5"/>
	<rect id="elns2nnhxbrf" x="212.6" y="227" class="st5" width="2.5" height="2.5"/>
	<rect id="elamcdkg4f9eu" x="212.6" y="231.2" class="st5" width="2.5" height="2.5"/>
	<rect id="el2kviqw2wt9b" x="212.6" y="235.4" class="st5" width="2.5" height="2.5"/>
	<rect id="elbqsl0nfsfng" x="212.6" y="239.5" class="st5" width="2.5" height="2.5"/>
	<rect id="elzmvw6ezh4j" x="212.6" y="243.7" class="st5" width="2.5" height="2.5"/>
	<rect id="el37ywgjpqksh" x="212.6" y="247.9" class="st5" width="2.5" height="2.5"/>
	<rect id="elde10j9zcw" x="212.6" y="252.1" class="st5" width="2.5" height="2.5"/>
	<rect id="ellabkbs8lw18" x="212.6" y="260.4" class="st5" width="2.5" height="2.5"/>
	<rect id="elz8ulcq3vp1" x="212.6" y="264.6" class="st5" width="2.5" height="2.5"/>
	<rect id="el7wojzteuoft" x="212.6" y="268.8" class="st5" width="2.5" height="2.5"/>
	<rect id="elfjayvx28xxd" x="212.6" y="273" class="st5" width="2.5" height="2.5"/>
	<rect id="elhp1nf6zsfxm" x="212.6" y="277.2" class="st5" width="2.5" height="2.5"/>
	<rect id="elk5qpk62jla" x="212.6" y="281.3" class="st5" width="2.5" height="2.5"/>
	<rect id="elrgzh2esgx49" x="212.6" y="285.5" class="st5" width="2.5" height="2.5"/>
	<rect id="elunjslv3rel" x="212.6" y="289.7" class="st5" width="2.5" height="2.5"/>
	<rect id="elibimcrgqko" x="208.7" y="210.3" class="st5" width="2.5" height="2.5"/>
	<rect id="elizvrmf3gpt" x="208.7" y="214.5" class="st5" width="2.5" height="2.5"/>
	<rect id="elgim3ngkjx6j" x="208.7" y="218.6" class="st5" width="2.5" height="2.5"/>
	<rect id="el7pzri5s9pdh" x="208.7" y="222.8" class="st5" width="2.5" height="2.5"/>
	<rect id="eldlmnj63ay6d" x="208.7" y="227" class="st5" width="2.5" height="2.5"/>
	<rect id="elscqjd5oguwj" x="208.7" y="231.2" class="st5" width="2.5" height="2.5"/>
	<rect id="el9dopsg0j216" x="208.7" y="235.4" class="st5" width="2.5" height="2.5"/>
	<rect id="el1767t5665bg" x="208.7" y="239.5" class="st5" width="2.5" height="2.5"/>
	<rect id="ell9iwd1hnwsg" x="208.7" y="243.7" class="st5" width="2.5" height="2.5"/>
	<rect id="elvy2ne4t6brl" x="208.7" y="247.9" class="st5" width="2.5" height="2.5"/>
	<rect id="el3u0l11vnpv" x="208.7" y="252.1" class="st5" width="2.5" height="2.5"/>
	<rect id="el58pmm9ccm8d" x="208.7" y="256.3" class="st5" width="2.5" height="2.5"/>
	<rect id="elugxxt942wuk" x="208.7" y="260.4" class="st5" width="2.5" height="2.5"/>
	<rect id="elg97o4tg9qpu" x="208.7" y="264.6" class="st5" width="2.5" height="2.5"/>
	<rect id="el7k6hz7r99fj" x="208.7" y="268.8" class="st5" width="2.5" height="2.5"/>
	<rect id="elk5bs6sh4nm9" x="208.7" y="273" class="st5" width="2.5" height="2.5"/>
	<rect id="eli3uqa0vw4h" x="208.7" y="277.2" class="st5" width="2.5" height="2.5"/>
	<rect id="elwi1jgsl3ml" x="208.7" y="281.3" class="st5" width="2.5" height="2.5"/>
	<rect id="elm2inysjrwd" x="208.7" y="285.5" class="st5" width="2.5" height="2.5"/>
	<rect id="el9s6v97w7mak" x="208.7" y="289.7" class="st5" width="2.5" height="2.5"/>
	<rect id="elyybwrip586o" x="232.1" y="226.6" class="st5" width="2.5" height="2.5"/>
	<rect id="el4md2atkztm" x="232.1" y="230.7" class="st5" width="2.5" height="2.5"/>
	<rect id="elujqbwr0hidb" x="232.1" y="234.9" class="st5" width="2.5" height="2.5"/>
	<rect id="el68pu8r5dlf5" x="232.1" y="239.1" class="st5" width="2.5" height="2.5"/>
	<rect id="el7yxm6hhjhfh" x="232.1" y="243.3" class="st5" width="2.5" height="2.5"/>
	<rect id="elcumni0pi5yi" x="232.1" y="247.5" class="st5" width="2.5" height="2.5"/>
	<rect id="elk0s7rxfyvq" x="232.1" y="251.6" class="st5" width="2.5" height="2.5"/>
	<rect id="elbi29cmyflma" x="232.1" y="255.8" class="st5" width="2.5" height="2.5"/>
	<rect id="elcvdu1mlfdhb" x="232.1" y="260" class="st5" width="2.5" height="2.5"/>
	<rect id="elf26unlkzuf7" x="232.1" y="264.2" class="st5" width="2.5" height="2.5"/>
	<rect id="el7kjdujtyyst" x="228.2" y="226.6" class="st5" width="2.5" height="2.5"/>
	<rect id="el0z5u9li1ssda" x="228.2" y="230.7" class="st5" width="2.5" height="2.5"/>
	<rect id="el1goe8tq1e8a" x="228.2" y="234.9" class="st5" width="2.5" height="2.5"/>
	<rect id="el010w3vqmlc2c" x="228.2" y="239.1" class="st5" width="2.5" height="2.5"/>
	<rect id="el1654loow9jf" x="228.2" y="243.3" class="st5" width="2.5" height="2.5"/>
	<rect id="elyaotz70ctk" x="228.2" y="247.5" class="st5" width="2.5" height="2.5"/>
	<rect id="ely3fnl0w7o2" x="228.2" y="251.6" class="st5" width="2.5" height="2.5"/>
	<rect id="ely7k4sm3y3et" x="228.2" y="255.8" class="st5" width="2.5" height="2.5"/>
	<rect id="elae95pqxdzk7" x="228.2" y="260" class="st5" width="2.5" height="2.5"/>
	<rect id="elcgt40gsm45f" x="250" y="68" class="st2" width="4.2" height="233.1"/>
	<rect id="eltzctvnoz2ao" x="328.8" y="68" class="st2" width="4.2" height="233.1"/>
	<rect id="elj9afele2a2" x="407.5" y="68" class="st2" width="4.2" height="233.1"/>
	<path id="elqep9g3vza3" class="st5" d="M114.2,278.3h25.8c2.4,0,4.4,2,4.4,4.4l0,0v49.8l0,0h-34.6l0,0v-49.8
		C109.7,280.3,111.7,278.4,114.2,278.3C114.1,278.3,114.1,278.3,114.2,278.3z"/>
	<rect id="el9zgb432lps" x="109.8" y="285.7" class="st4" width="34.6" height="3.9"/>
	<path id="elraj1u8kd3fc" class="st2" d="M129.4,326h8.6c1.3,0,2.4,1.1,2.4,2.4v4.2l0,0H127l0,0v-4.2C127,327.1,128.1,326,129.4,326
		C129.4,326,129.4,326,129.4,326z"/>
	<path id="elo3iux4uvgk" class="st4" d="M140.5,332.6h-9.6c-0.9,0-1.5-0.7-1.5-1.5l0,0l0,0c0-0.8,0.7-1.5,1.5-1.5h9.6
		c0.8,0,1.5,0.7,1.5,1.5l0,0C142,331.9,141.3,332.6,140.5,332.6L140.5,332.6z"/>
	<g id="elmx3p19i9jfh">
		<circle class="st2" cx="288.6" cy="34.1" r="23.5"/>
	</g>
	<g id="elg5evyqvlz6h">
		<circle class="st5" cx="288.6" cy="34.1" r="20"/>
	</g>
	<polyline id="el9hssxmtbuqn" class="st5" points="289.6,20.4 289.6,34.4 298.9,29.1 	"/>
	<path id="elgknglgr96l8" class="st2" d="M289.6,35.3c-0.2,0-0.4,0-0.5-0.1c-0.3-0.2-0.5-0.5-0.5-0.9v-14c0-0.6,0.4-1,1-1s1,0.4,1,1
		v12.3l7.8-4.4c0.5-0.3,1.1-0.1,1.4,0.4c0.3,0.5,0.1,1.1-0.4,1.4l-9.3,5.2C289.9,35.3,289.8,35.3,289.6,35.3z"/>
	<path id="elymmdklwqj1f" class="st2" d="M63.3,264c-1.8-3-4.8-0.4-4.8-0.4c0.4-5.7-4.8-9.6-4.8-9.6s6.1,0,6.9-5.8s-2.1-3.1-4.9-3.1
		s-5.7,8.1-2,12.7c3.7,4.6,2.7,12.4-5.8,19.9c-2,1.9-3.5,4.3-4.4,6.9c0.6-6.9,1-16.6-1-23.1c-3.4-11,3.1-14,5-19.5s-5-10.2-5-10.2
		s6.5-3,3.3-6.4s-9.7-2.9-9.7,1.5s4.4,6.1,4.4,6.1s5.1,5.3,5.1,8s-5.1,8.7-5.1,8.7s2.3-5.1-2.3-5.3s-6.1,5.9-4.2,8.7
		s5.1,0.4,5.1,0.4c0.2,3.2,0.7,6.4,1.4,9.5c0.5,1.6,0.3,7.8-0.1,14.3c-0.9-2.3-2.3-4.4-4.1-6.1c-8.5-7.5-9.4-15.3-5.8-19.9
		c3.7-4.6,0.8-12.7-2-12.6s-5.8-2.7-4.9,3.1s6.9,5.8,6.9,5.8s-5.2,3.9-4.8,9.6c0,0-3-2.6-4.8,0.4c-3.2,5.3,4.2,8.6,5.5,6
		c0,0,15.8,11.2,12,27.3l0.9,1.3c-0.1,1.3-0.2,2.1-0.2,2.1l1.2-0.5l1.4,2.1c0,2.3,0.1,4.7,0.4,7l3.8-5.6c-3.8-16.1,12-27.3,12-27.3
		C59,272.6,66.5,269.3,63.3,264z"/>
	<g id="elt7l0l81k7cs">
		<path class="st6" d="M63.3,264c-1.8-3-4.8-0.4-4.8-0.4c0.4-5.7-4.8-9.6-4.8-9.6s6.1,0,6.9-5.8s-2.1-3.1-4.9-3.1s-5.7,8.1-2,12.7
			c3.7,4.6,2.7,12.4-5.8,19.9c-2,1.9-3.5,4.3-4.4,6.9c0.6-6.9,1-16.6-1-23.1c-3.4-11,3.1-14,5-19.5s-5-10.2-5-10.2s6.5-3,3.3-6.4
			s-9.7-2.9-9.7,1.5s4.4,6.1,4.4,6.1s5.1,5.3,5.1,8s-5.1,8.7-5.1,8.7s2.3-5.1-2.3-5.3s-6.1,5.9-4.2,8.7s5.1,0.4,5.1,0.4
			c0.2,3.2,0.7,6.4,1.4,9.5c0.5,1.6,0.3,7.8-0.1,14.3c-0.9-2.3-2.3-4.4-4.1-6.1c-8.5-7.5-9.4-15.3-5.8-19.9c3.7-4.6,0.8-12.7-2-12.6
			s-5.8-2.7-4.9,3.1s6.9,5.8,6.9,5.8s-5.2,3.9-4.8,9.6c0,0-3-2.6-4.8,0.4c-3.2,5.3,4.2,8.6,5.5,6c0,0,15.8,11.2,12,27.3l0.9,1.3
			c-0.1,1.3-0.2,2.1-0.2,2.1l1.2-0.5l1.4,2.1c0,2.3,0.1,4.7,0.4,7l3.8-5.6c-3.8-16.1,12-27.3,12-27.3C59,272.6,66.5,269.3,63.3,264z
			"/>
	</g>
	<polygon id="el94yfqn68ste" class="st4" points="60.2,332.6 24,332.6 20.1,293 64.1,293 	"/>
	<rect id="elwnrpqipuut" x="18.2" y="288.6" class="st5" width="47.8" height="8.7"/>
</g>
<g id="freepik--Shadow--inject-33">
	<ellipse id="freepik--path--inject-33" class="st3" cx="216.3" cy="366.6" rx="193.9" ry="11.3"/>
</g>
<g id="freepik--Plant--inject-33">
	<path id="elmh6f1imz9ba" class="st7" d="M376.8,335.1c0.1-1,3.6-25.2-3.4-33.5c-1.4-1.8-3.5-2.8-5.8-2.9
		c-14.2-0.3-16.1,11-16.1,11.1l1.7,0.3c0.1-0.4,1.7-10,14.4-9.7c1.8,0,3.5,0.9,4.6,2.3c6.5,7.8,3,31.9,3,32.2L376.8,335.1z"/>
	<path id="elw9v6g312kfp" class="st7" d="M377.6,334l1.7-0.1c0-0.2-0.6-22.2,10.3-26.8c10.6-4.5,15.4,4.7,15.6,5.1l1.5-0.8
		c0-0.1-5.7-11-17.8-5.9C377,310.5,377.6,333,377.6,334z"/>
	<path id="elfk5new57zmo" class="st7" d="M377.6,335.7c0-0.4,0.1-35.2,6.9-45.4c6.5-9.8,17-5.2,17.5-5l0.7-1.5
		c-0.1,0-12.3-5.4-19.6,5.6c-7.1,10.6-7.2,44.9-7.2,46.3L377.6,335.7z"/>
	<path id="el4swtvrilopp" class="st7" d="M365.6,299.5c0,0,6.2,2.3,4.3,7.6s-21.4,14.2-21.4,14.2s-8.2-7.5-0.7-19.7
		S365.4,295.7,365.6,299.5z"/>
	<path id="elzxymk6odrlq" class="st7" d="M384.8,288.5c0,0-4.4-0.5-4-3.1s17.1-9.5,26.9,1.6c0,0-6.3,10.8-15.4,11
		S384.8,288.5,384.8,288.5z"/>
	<path id="el2379w1ng3mb" class="st7" d="M389.3,306.3c0,0-3-2.4,0.2-3.6s19.3-0.9,19.5,15c0,0-18.7,3.1-21-2.9
		S389.3,306.3,389.3,306.3z"/>
	<g id="elwbtutgssuj">
		<path class="st8" d="M365.6,299.5c0,0,6.2,2.3,4.3,7.6s-21.4,14.2-21.4,14.2s-8.2-7.5-0.7-19.7S365.4,295.7,365.6,299.5z"/>
	</g>
	<g id="eltpjltswv54">
		<path class="st8" d="M384.8,288.5c0,0-4.4-0.5-4-3.1s17.1-9.5,26.9,1.6c0,0-6.3,10.8-15.4,11S384.8,288.5,384.8,288.5z"/>
	</g>
	<g id="el0um2l3jw8um9">
		<path class="st8" d="M389.3,306.3c0,0-3-2.4,0.2-3.6s19.3-0.9,19.5,15c0,0-18.7,3.1-21-2.9S389.3,306.3,389.3,306.3z"/>
	</g>
	<polygon id="el4svxi96vare" class="st7" points="362.3,367.4 391.2,367.4 394.4,335.7 359.1,335.7 	"/>
	<g id="elui4k5rvpiu">
		<polygon class="st9" points="362.3,367.4 391.2,367.4 394.4,335.7 359.1,335.7 		"/>
	</g>
	<g id="el9cnb14mtqn8">
		<rect x="357.6" y="332.2" class="st7" width="38.3" height="7"/>
	</g>
	<g id="elwdvbhdp7o3">
		<rect x="357.6" y="332.2" class="st10" width="38.3" height="7"/>
	</g>
</g>
<g id="freepik--Chair--inject-33">
	<path id="el473c79jrp2f" class="st11" d="M329.5,344.7l-28.8-2.8v-40.5h-11.4v40.5l-28.9,2.8c-2.9,0.3-5.1,2.7-5.1,5.6v4.3h79.3
		v-4.3C334.6,347.3,332.3,344.9,329.5,344.7z"/>
	<g id="elo76j3k9p4nl">
		<path class="st10" d="M329.5,344.7l-28.8-2.8v-40.5h-11.4v40.5l-28.9,2.8c-2.9,0.3-5.1,2.7-5.1,5.6v4.3h79.3v-4.3
			C334.6,347.3,332.3,344.9,329.5,344.7z"/>
	</g>
	<circle id="el27lfamnu42c" class="st11" cx="258.3" cy="359.9" r="7.5"/>
	<circle id="eldu4i2p449h" class="st11" cx="331.5" cy="359.9" r="7.5"/>
	<path id="elj1cpl04wh6" class="st11" d="M287.3,274h15.4l0,0v31.9c0,2.3-1.8,4.1-4.1,4.1l0,0h-7.1c-2.3,0-4.1-1.8-4.1-4.1l0,0V274
		L287.3,274z"/>
	<g id="eltc4u81qr9vh">
		<path class="st12" d="M287.3,274h15.4l0,0v31.9c0,2.3-1.8,4.1-4.1,4.1l0,0h-7.1c-2.3,0-4.1-1.8-4.1-4.1l0,0V274L287.3,274z"/>
	</g>
	<path id="eldlh5bors7i8" class="st11" d="M322.2,210.7c0,0,2.2,54-12.9,63.3h17.2c0,0,13.3-18.4,9.5-63.3H322.2z"/>
	<g id="elxru5h2ryhfh">
		<path class="st12" d="M322.2,210.7c0,0,2.2,54-12.9,63.3h17.2c0,0,13.3-18.4,9.5-63.3H322.2z"/>
	</g>
	<g id="el6z8irkd9gr2">
		<path class="st11" d="M255.5,266.4h76.9l0,0v6.7c0,2.8-2.2,5-5,5h-66.9c-2.8,0-5-2.2-5-5V266.4L255.5,266.4z"/>
	</g>
	<g id="elp3s8dkjzbr9">
		<path class="st11" d="M254.3,272.3h79.3c1.1,0,2,0.9,2,2v1.8c0,1.1-0.9,2-2,2h-79.3c-1.1,0-2-0.9-2-2v-1.8
			C252.3,273.2,253.2,272.3,254.3,272.3z"/>
	</g>
	<g id="elf0qvenrwuhd">
		<path class="st13" d="M254.3,272.3h79.3c1.1,0,2,0.9,2,2v1.8c0,1.1-0.9,2-2,2h-79.3c-1.1,0-2-0.9-2-2v-1.8
			C252.3,273.2,253.2,272.3,254.3,272.3z"/>
	</g>
	<path id="elcntjdydxnzh" class="st11" d="M312.8,181.7h27.5c8.1,0,14.6,6.5,14.6,14.6v10.8c0,8.1-6.5,14.6-14.6,14.6h-27.5
		c-8.1,0-14.6-6.5-14.6-14.6v-10.8C298.2,188.3,304.7,181.7,312.8,181.7z"/>
</g>
<g id="freepik--Character--inject-33">
	<path id="el2g5k30z8967" class="st14" d="M229.4,137.6l-5.5-14.5c0,0,2.4-2.2,0.7-4.4s-11.7-8.4-13.6-7.3s-5.9,5.2-3.7,7.5
		s12,6.1,12,6.1l4.9,19L229.4,137.6z"/>
	<path id="eloz4thhb2js" class="st7" d="M267.7,165.1c0,0-25-5.1-27.7-6.4s-12.7-30.7-12.7-30.7l-7.7,3.6c0,0,6.2,29.5,12.5,36.6
		s33.4,13,33.4,13L267.7,165.1z"/>
	<g id="el5rn6fczrxk6">
		<path class="st8" d="M265.5,181.2l-0.5-0.1c-1.4-0.3-5.6-1.3-10.7-2.8c-8.2-2.4-18.6-6-22.2-10.1c-6.3-7-12.5-36.6-12.5-36.6
			l7.7-3.6c0,0,10,29.4,12.8,30.7s27.7,6.4,27.7,6.4L265.5,181.2z"/>
	</g>
	<polygon id="elln1bc9wniv" class="st7" points="227.4,127.5 229,130.6 219.1,134 219.5,130.3 	"/>
	<g id="elb9dq4sghwxq">
		<path class="st8" d="M265.7,180.8c-1.4-0.2-5.7-0.9-10.9-2c3-5.1,11.6-7.7,11.6-7.7L265.7,180.8z"/>
	</g>
	<path id="elrfy94i9t2io" class="st11" d="M302.9,144.7c0,0,1.5,13.8-3.6,17.2s-30.3-0.6-33.2-6.1s7.9-20.7,7.9-20.7L302.9,144.7z"
		/>
	<polygon id="ellmt8f4kr0w" class="st14" points="200.9,326.7 207.5,328.3 210.8,319.2 213.9,311 206.4,307.8 203.5,317.8 	"/>
	<g id="eluk7kwtt0sg7">
		<polygon class="st8" points="203.5,317.8 210.8,319.2 213.9,311 206.4,307.8 		"/>
	</g>
	<path id="elcjngm1eu92" class="st7" d="M204.1,313l9.1,3.4c0,0,24.3-60.8,29.3-61s55.9,23.2,68.7,10.2c12.8-13-5.7-44.3-5.7-44.3
		s-30.7-4.4-33,2.5c-0.6,2-1,4.1-1.3,6.2c-0.4,2.1-0.6,3.9-0.6,3.9l0,0c-1-0.2-31.8-8.2-43.9,0C214.4,242.3,204.1,313,204.1,313z"/>
	<g id="elr2pm7prj0o">
		<path class="st13" d="M204.1,313l9.1,3.4c0,0,24.3-60.8,29.3-61s55.9,23.2,68.7,10.2c12.8-13-5.7-44.3-5.7-44.3s-30.7-4.4-33,2.5
			c-0.6,2-1,4.1-1.3,6.2c-0.4,2.1-0.6,3.9-0.6,3.9l0,0c-1-0.2-31.8-8.2-43.9,0C214.4,242.3,204.1,313,204.1,313z"/>
	</g>
	<polygon id="eljirr9x5dzq" class="st14" points="256.6,352.7 263.2,351 261.9,341.6 260.7,333 252.6,333.7 254.7,343.8 	"/>
	<g id="elu6p9zhur49e">
		<polygon class="st8" points="254.8,344 261.9,341.8 260.7,333.1 252.6,333.8 		"/>
	</g>
	<polygon id="ellg13uoq7ns" class="st7" points="217,313 203.7,308.5 203.2,314 213.3,317.5 	"/>
	<path id="elomn27cpn71" class="st7" d="M289.2,268.7c0,0-2.1,0-34.3-1.5c0,0,4.8,40.2,7.4,70.4l-9.6,1.6c0,0-23-64.5-22.8-74.8
		c0.2-10.3,12-13.3,12-13.3S264.9,264.5,289.2,268.7z"/>
	<g id="elkk09jkzopb">
		<path class="st13" d="M289.2,268.7c0,0-2.1,0-34.3-1.5c0,0,4.8,40.2,7.4,70.4l-9.6,1.6c0,0-23-64.5-22.8-74.8
			c0.2-10.3,12-13.3,12-13.3S264.9,264.5,289.2,268.7z"/>
	</g>
	<g id="elda7qibptmc">
		<path class="st15" d="M289.2,268.7c0,0-2.1,0-34.3-1.5c0,0,4.8,40.2,7.4,70.4l-9.6,1.6c0,0-23-64.5-22.8-74.8
			c0.2-10.3,12-13.3,12-13.3S264.9,264.5,289.2,268.7z"/>
	</g>
	<polygon id="eluhx8ojlleg9" class="st7" points="263.8,334.7 250.6,336.2 253.1,341.4 263.8,340 	"/>
	<g id="elxub6bx8dj6">
		<path class="st15" d="M270.7,234l18,3.7c0,0-9.9-5.5-17.4-7.6C270.9,232.2,270.7,234,270.7,234z"/>
	</g>
	<polygon id="el2fna5ru438g" class="st11" points="304.8,216.6 305.6,221.3 272.6,223.9 271.7,218.2 	"/>
	<g id="eluzfcwczxp6r">
		<polygon class="st8" points="304.8,216.6 305.6,221.3 272.6,223.9 271.7,218.2 		"/>
	</g>
	<g id="elsarvdhc8wk9">
		<rect x="294" y="216.1" class="st7" width="1.6" height="8.4"/>
	</g>
	<g id="elxnwio2rn6k">
		<rect x="279.6" y="218" class="st16" width="7.2" height="5.5"/>
	</g>
	<g id="elvzort4rtr6q">
		<rect x="273.7" y="217" class="st7" width="1.6" height="8.4"/>
	</g>
	<g id="el4p0hvym4v6l">
		<rect x="294" y="216.1" class="st13" width="1.6" height="8.4"/>
	</g>
	<g id="el0jq1s5l06a8a">
		<rect x="273.7" y="217" class="st13" width="1.6" height="8.4"/>
	</g>
	<path id="ell8ubj7de4pf" class="st7" d="M267.1,164.7c6.2,1.7,12.6,2.4,19,2.1c10.6-0.5,23.2,4.6,23.2,4.6l-4.5,45.2l-33.1,1.7
		C271.7,218.2,260.6,180.5,267.1,164.7z"/>
	<path id="eld4g0jkidt9k" class="st11" d="M272.4,139.1c0,0,1.9-21.9,20.2-14c23,10,4.7,36.7-6.5,31.3S272.4,139.1,272.4,139.1z"/>
	<g id="elfzrkrdhjzwn">
		<path class="st8" d="M277.6,168l0.5,12.4l4.1-5.8c0,0-1.5,13.7-0.6,21.2c0,0,0.8-13.4,2.6-21.2l4.4,5.8l6.3-12.3
			C294.9,168.1,284.8,164.4,277.6,168z"/>
	</g>
	<path id="elbx4ykricnb" class="st14" d="M283.3,170.3l9.5-2.7c-5.9-4-2.9-13-2.9-13l-9.4,3.3c0.4,1.3,0.8,2.6,1,4
		c1,5.9-1.7,6.3-1.7,6.3L283.3,170.3z"/>
	<g id="ely0jvq8o60c">
		<path class="st8" d="M280.5,157.9c0.4,1.3,0.8,2.6,1,4c4.5-1.8,8.4-7.3,8.4-7.3L280.5,157.9z"/>
	</g>
	<path id="elekhzmm89hfu" class="st14" d="M286.6,129.8c-8.3-1.8-12,2-14.5,10.5c-3.1,10.6-2.4,18.7,8.5,18.7
		C295.4,159,300.4,132.8,286.6,129.8z"/>
	<path id="eluzvys6qq18" class="st17" d="M277.6,141c-0.9,1.1-2,2.1-3.2,2.9c0.3,0.8,1.1,1.4,2,1.4L277.6,141z"/>
	<path id="elamsax0st27b" class="st11" d="M282.8,141.4c-0.2,0.7,0.1,1.3,0.5,1.4s1-0.4,1.1-1s-0.1-1.3-0.5-1.4
		S283,140.7,282.8,141.4z"/>
	<path id="elcx9d1k3yrxh" class="st11" d="M284.1,140.5l-1.3-0.9C282.8,139.5,283.2,141,284.1,140.5z"/>
	<path id="elrs7dsmph33" class="st11" d="M274.4,139.2c-0.2,0.7,0.1,1.3,0.5,1.4s1-0.4,1.1-1s-0.1-1.3-0.5-1.4
		S274.6,138.5,274.4,139.2z"/>
	<path id="el5lc4n7v5iff" class="st11" d="M275.7,138.2l-1.4-0.9C274.3,137.3,274.8,138.7,275.7,138.2z"/>
	<path id="eleod619gzxto" class="st11" d="M287.5,138.1c-0.1,0-0.3-0.1-0.3-0.2c-0.7-1-1.8-1.7-3-1.9c-0.2,0-0.3-0.2-0.3-0.4
		c0-0.2,0.2-0.3,0.4-0.3c1.5,0.1,2.8,1,3.6,2.3c0.1,0.2,0,0.4-0.2,0.5c0,0,0,0,0,0C287.6,138.1,287.6,138.1,287.5,138.1z"/>
	<path id="elay6c6hg3d6d" class="st11" d="M278.2,134.3c-0.1,0-0.1,0-0.2-0.1c-1-0.5-2.2-0.5-3.1,0c-0.2,0.1-0.4,0-0.5-0.2
		c0,0,0,0,0,0c-0.1-0.2,0-0.4,0.2-0.5c0,0,0,0,0,0c1.2-0.6,2.6-0.5,3.8,0.1c0.2,0.1,0.2,0.3,0.1,0.5c0,0,0,0,0,0
		C278.4,134.3,278.3,134.3,278.2,134.3z"/>
	<path id="elq9f02ent1s" class="st11" d="M292.6,145.8c0,0-2.4-7.7-0.6-12.9c0,0-15-10.4-19.5,6.2c0,0,1.7-15.2,16.1-12.4
		c14.4,2.8,9.7,23.7,0.9,28.3C289.4,155.1,294,150.6,292.6,145.8z"/>
	<path id="elfp24a5m0367" class="st14" d="M290.8,147.3c0.6-2,2.7-3.1,4.7-2.5c2.5,0.9,2.6,6.4-4.1,6.3
		C290.4,151.1,290.1,150.1,290.8,147.3z"/>
	<path id="elzkdxlziv8y" class="st11" d="M274.9,148.5c0.2,1,0.4,2.1,0.4,3.1h0.5c2.5,0.2,3.7-0.5,4.3-1.4c0.3-0.4,0.5-0.9,0.5-1.4
		c0-0.3,0-0.6,0-0.9c-1.6,0.6-3.3,0.8-5,0.6C275.2,148.5,274.9,148.5,274.9,148.5z"/>
	<path id="elbc6ueza2zmq" class="st16" d="M275.7,148.5l0.1,0.9c2.3,0.2,4,0,4.8-0.6c0-0.3,0-0.6,0-0.9
		C279.1,148.5,277.4,148.7,275.7,148.5z"/>
	<path id="el5n46ejfljjx" class="st17" d="M275.9,151.6c2.5,0.2,3.7-0.5,4.3-1.4c-0.9-0.1-1.9,0-2.8,0.3
		C276.8,150.7,276.2,151.1,275.9,151.6z"/>
	<path id="elwlidof1es7c" class="st11" d="M286.6,130.5c0,0,0.3,14.4,9,16.2s-0.8-18.6-0.8-18.6s-12.9-8.4-21.5-2.5
		c-8.6,5.9-0.9,13.6-0.9,13.6S274.3,128.4,286.6,130.5z"/>
	<path id="el39tzlxdq1kl" class="st11" d="M289.9,143.7c-0.1,0-0.1,0-0.2-0.1c-6.2-4.8-3.1-14.1-3.1-14.2c0-0.1,0.2-0.2,0.3-0.2
		c0.1,0,0.2,0.2,0.1,0.3c0,0.1-3,9,2.9,13.6c0.1,0.1,0.1,0.2,0,0.3c0,0,0,0,0,0C290,143.6,290,143.7,289.9,143.7z"/>
	<path id="elnm16zhpq6a" class="st7" d="M298.1,149.6c-1.1,2.9-3.9,4.6-6.3,3.7s-3.4-4-2.3-6.9s3.9-4.6,6.3-3.7
		S299.2,146.7,298.1,149.6z"/>
	<g id="elh59m17zi6m9">
		<path class="st18" d="M298.1,149.6c-1.1,2.9-3.9,4.6-6.3,3.7s-3.4-4-2.3-6.9s3.9-4.6,6.3-3.7S299.2,146.7,298.1,149.6z"/>
	</g>
	<path id="els21nms7jp6r" class="st7" d="M295.3,144.8c0,0,3.6-16.1-4.5-20.3c0.9,0.1,1.8,0.3,2.7,0.5c1,0.3,7.5,6.8,4.2,21.3
		L295.3,144.8z"/>
	<g id="elyogek5wr6q">
		<path class="st8" d="M295.3,144.8c0,0,3.6-16.1-4.5-20.3c0.9,0.1,1.8,0.3,2.7,0.5c1,0.3,7.5,6.8,4.2,21.3L295.3,144.8z"/>
	</g>
	<path id="els7qtqlay8s" class="st7" d="M280.3,154l-0.6-0.1l0.2-1c4.4,0.7,8.9-0.3,12.7-2.7l0.6,0.8
		C289.4,153.5,284.8,154.6,280.3,154z"/>
	<g id="elivutibrikt7">
		<g class="st19">
			<path id="el6x5qpblbv13" d="M280.3,154l-0.6-0.1l0.2-1c4.4,0.7,8.9-0.3,12.7-2.7l0.6,0.8C289.4,153.5,284.8,154.6,280.3,154z"/>
		</g>
	</g>
	<path id="elkk5aitv5r9r" class="st7" d="M297.8,149.2c-0.7,1.9-2.6,3-4.2,2.4s-2.3-2.6-1.5-4.6s2.6-3,4.2-2.4
		S298.5,147.2,297.8,149.2z"/>
	<path id="el40s3dnkmtr3" class="st7" d="M279.4,154.3l-0.8-0.1c-0.6-0.1-1-0.6-0.9-1.2c0,0,0,0,0,0l0,0c0.1-0.6,0.6-1,1.2-0.9
		c0,0,0,0,0,0l0.8,0.1c0.6,0.1,1,0.6,0.9,1.2l0,0C280.5,154,280,154.4,279.4,154.3z"/>
	<g id="ellnxv9zyf75f">
		<path class="st18" d="M279.4,154.3l-0.8-0.1c-0.6-0.1-1-0.6-0.9-1.2c0,0,0,0,0,0l0,0c0.1-0.6,0.6-1,1.2-0.9c0,0,0,0,0,0l0.8,0.1
			c0.6,0.1,1,0.6,0.9,1.2l0,0C280.5,154,280,154.4,279.4,154.3z"/>
	</g>
	<polygon id="elhu9n0jfg0k6" class="st7" points="290.2,164.2 284.3,170 286.6,177.2 294.9,168.1 	"/>
	<polygon id="el82q8xujw5ts" class="st7" points="281.6,165.4 282.6,169.9 279.5,176.2 277.6,168 	"/>
	<path id="el2sj9f5gehte" class="st14" d="M288.9,169.2l3.5-12.6c0,0-1.7-3.1-1.3-3.8s2.2-9.1,3.4-10.1s6.5,0.6,7.1,1.5
		s-5,12.4-5,12.4l-2,13.7L288.9,169.2z"/>
	<path id="ellk5a20rbo2l" class="st7" d="M309.3,171.3c9.5,9.7-9.5,31.7-20.4,30.8s0.3-40.9,0.3-40.9l7,1.1c0,0-2.5,17.3-1.7,18.6
		S306.2,168.1,309.3,171.3z"/>
	<g id="elycu1tcypmp">
		<path class="st8" d="M309.3,171.3c9.5,9.7-9.5,31.7-20.4,30.8s0.3-40.9,0.3-40.9l7,1.1c0,0-2.5,17.3-1.7,18.6
			S306.2,168.1,309.3,171.3z"/>
	</g>
	<polygon id="eli5seuhf3ef" class="st7" points="288.6,160 287.6,163.3 297.3,164.2 297.3,161.3 	"/>
	<g id="elzir2amytq09">
		<path class="st13" d="M269.9,186.1h3.9c0.4,0,0.8,0.4,0.8,0.8v7.4c0,0.4-0.4,0.8-0.8,0.8h-3.9c-0.4,0-0.8-0.4-0.8-0.8v-7.4
			C269.2,186.5,269.5,186.1,269.9,186.1z"/>
	</g>
	<g id="elbl2q36zvyfs">
		<rect x="269.5" y="186.7" class="st8" width="4.5" height="6.1"/>
	</g>
	<rect id="eluk4lkxnputi" x="271.3" y="184" class="st11" width="1" height="3.6"/>
	<path id="el8tphy16l3k6" class="st7" d="M190,339.5c1-0.5,2.1-0.7,3.2-0.8l0,0c0,0,3.8-2.2,7.6-10.9h4.2c1.5,0,2.8,0.9,3.3,2.3
		c0.1,0.2,0.1,0.4,0.1,0.6c-0.1,1-0.2,2-0.3,3c-0.6,3.4-1.4,6.7-2.5,10l-0.7-0.2l1.3-6.3c0.4-2.1-1.8-0.1-2.9,2.1s-2.6,4.4-7.3,3.3
		C190.5,341.3,188.3,340.5,190,339.5z"/>
	<path id="elelw7m5vvvul" class="st14" d="M201.5,325.5c0,0-5.3,11.1-8.3,13.2c0,0,4.1,2.4,8.3-3c5.5-7,6.8-5,6.8-5
		c-0.1-1.2-0.3-2.4-0.7-3.6C206.9,324.8,201.5,325.5,201.5,325.5z"/>
	<path id="elpl4lf8sioa7" class="st7" d="M248.3,365.9c0.9-0.7,1.8-1.2,2.9-1.5l0,0c0,0,3.2-3.1,4.8-12.4l4.1-1
		c1.4-0.3,2.9,0.3,3.7,1.5c0.1,0.2,0.2,0.3,0.3,0.5c0.2,1,0.3,2,0.4,3c0.2,3.4,0.2,6.8,0,10.3h-0.7l-0.2-6.4
		c-0.1-2.2-1.8,0.4-2.3,2.7s-1.5,4.8-6.3,4.9C249.2,367.5,246.8,367.2,248.3,365.9z"/>
	<path id="elfdl8y4mrxmq" class="st14" d="M256.1,349.5c0,0-2.5,12-5,14.8c0,0,4.5,1.4,7.4-4.9c3.7-8.1,5.5-6.5,5.5-6.5
		c-0.4-1.1-0.9-2.3-1.5-3.3C261.2,347.6,256.1,349.5,256.1,349.5z"/>
</g>
<g id="freepik--speech-bubble--inject-33">
	<path id="el0kk1tk3zgoqs" class="st7" d="M314.2,107.5h34.9c2.8,0,5.1,2.3,5.1,5.1v14.9c0,2.8-2.3,5.1-5.1,5.1h-34.9
		c-2.8,0-5.1-2.3-5.1-5.1v-14.9C309.1,109.8,311.4,107.5,314.2,107.5z"/>
	<polygon id="elbpkh9ivs8iq" class="st7" points="321.2,129.7 310.7,144 327.6,130.7 	"/>
	<path id="elz7i9hipp74q" class="st16" d="M321.6,120c0,0.8-0.7,1.5-1.5,1.5s-1.5-0.7-1.5-1.5s0.7-1.5,1.5-1.5c0,0,0,0,0,0
		C320.9,118.5,321.6,119.2,321.6,120L321.6,120z"/>
	<path id="elpevfiotma3" class="st16" d="M329.3,120c0,0.8-0.7,1.5-1.5,1.5s-1.5-0.7-1.5-1.5s0.7-1.5,1.5-1.5c0,0,0,0,0,0
		C328.6,118.5,329.3,119.2,329.3,120L329.3,120z"/>
	<path id="elh0sosb1iaar" class="st16" d="M337,120c0,0.8-0.7,1.5-1.5,1.5s-1.5-0.7-1.5-1.5s0.7-1.5,1.5-1.5c0,0,0,0,0,0
		C336.3,118.5,337,119.2,337,120L337,120z"/>
	<path id="elajaz59sum37" class="st16" d="M344.6,120c0,0.8-0.7,1.5-1.5,1.5s-1.5-0.7-1.5-1.5s0.7-1.5,1.5-1.5c0,0,0,0,0,0
		C344,118.5,344.6,119.2,344.6,120L344.6,120z"/>
</g>
<g id="freepik--Bird--inject-33">
	<g id="elwnnpv5xo158">
		<path class="st7" d="M186.8,87.8h28.3c0.8,0,1.4,0.6,1.4,1.4v16.8c0,0.8-0.6,1.4-1.4,1.4h-28.3c-0.8,0-1.4-0.6-1.4-1.4V89.2
			C185.4,88.4,186,87.8,186.8,87.8z"/>
	</g>
	<g id="elmddaogmwak">
		<path class="st20" d="M186.8,87.8h28.3c0.8,0,1.4,0.6,1.4,1.4v16.8c0,0.8-0.6,1.4-1.4,1.4h-28.3c-0.8,0-1.4-0.6-1.4-1.4V89.2
			C185.4,88.4,186,87.8,186.8,87.8z"/>
	</g>
	<g id="elyg4q1d8wwx">
		<path class="st8" d="M190.6,84l7.8,14.6c0.6,1.1,1.8,1.8,3.1,1.7l16.2-1.6l-16.5,2.4c-1.5,0.2-2.9-0.6-3.6-1.9L190.6,84z"/>
	</g>
	<path id="el0sheirg1ct5" class="st7" d="M171.7,81.3c0.3-5.6,4.4-16.8,9.4-20.2c5-3.4,1.7,1.3,1.7,1.3s4.8-4.6,7.2-4.5s0,3,0,3
		s5.1-3.2,7.5-3s0,2.9,0,2.9s4.2-3,5.9-1.6s-21.9,17-24.5,23.3S171.4,86.9,171.7,81.3z"/>
	<g id="elxym8sja3zp">
		<path class="st21" d="M171.7,81.3c0.3-5.6,4.4-16.8,9.4-20.2c5-3.4,1.7,1.3,1.7,1.3s4.8-4.6,7.2-4.5s0,3,0,3s5.1-3.2,7.5-3
			s0,2.9,0,2.9s4.2-3,5.9-1.6s-21.9,17-24.5,23.3S171.4,86.9,171.7,81.3z"/>
	</g>
	<path id="elxczyzu2opi9" class="st7" d="M192,80.5l3.1,2c0.1,0.1,0.2,0.2,0.1,0.4c-0.1,0.1-0.1,0.1-0.2,0.1l-3.3-0.3l0.3,2.5
		c0,0.2-0.1,0.3-0.2,0.3c-0.1,0-0.2,0-0.3-0.1l-1.9-2.1L192,80.5z"/>
	<g id="el5d0te4pou3o">
		<path class="st12" d="M192,80.5l3.1,2c0.1,0.1,0.2,0.2,0.1,0.4c-0.1,0.1-0.1,0.1-0.2,0.1l-3.3-0.3l0.3,2.5c0,0.2-0.1,0.3-0.2,0.3
			c-0.1,0-0.2,0-0.3-0.1l-1.9-2.1L192,80.5z"/>
	</g>
	<path id="elw1yvmctdgjf" class="st7" d="M147.7,68c0,0,4.4-3,10.9-1.1c0,0,1.9,8.7,7.1,11.6c2.9,1.6,9.8,1.4,15.3-0.3
		c6.6-2.1,9.8-2.1,10.9,0.3c1.2,2.5-0.1,5-5.1,6.2s-9,9.9-18.1,10s-13.9-9-11.6-17C155,73.6,151.7,70.2,147.7,68z"/>
	<g id="el8vjsho7psjl">
		<path class="st9" d="M147.7,68c0,0,4.4-3,10.9-1.1c0,0,1.9,8.7,7.1,11.6c2.9,1.6,9.8,1.4,15.3-0.3c6.6-2.1,9.8-2.1,10.9,0.3
			c1.2,2.5-0.1,5-5.1,6.2s-9,9.9-18.1,10s-13.9-9-11.6-17C155,73.6,151.7,70.2,147.7,68z"/>
	</g>
	<path id="elybp1olwkfdd" class="st11" d="M189.5,80.2c0,0.2-0.2,0.4-0.4,0.4c-0.2,0-0.4-0.2-0.4-0.4c0-0.2,0.2-0.4,0.4-0.4l0,0
		C189.3,79.7,189.5,79.9,189.5,80.2z"/>
	<path id="eljgc3yampm3b" class="st7" d="M166.7,87.5c-5.4,1.5-17.3,1-22.1-2.7s0.7-2,0.7-2s-5.9-3.1-6.5-5.5s2.9-0.9,2.9-0.9
		s-4.6-3.9-5.2-6.2s2.8-0.9,2.8-0.9s-4.2-3.1-3.3-5.2c0.9-2.1,22.9,15.6,29.8,16.1S172.1,86,166.7,87.5z"/>
	<g id="elk4amb767izs">
		<path class="st21" d="M166.7,87.5c-5.4,1.5-17.3,1-22.1-2.7s0.7-2,0.7-2s-5.9-3.1-6.5-5.5s2.9-0.9,2.9-0.9s-4.6-3.9-5.2-6.2
			s2.8-0.9,2.8-0.9s-4.2-3.1-3.3-5.2c0.9-2.1,22.9,15.6,29.8,16.1S172.1,86,166.7,87.5z"/>
	</g>
	<path id="eloqwvlu6wr9j" class="st7" d="M131.5,63.2c0,0-0.1,0-0.1,0c-0.9-0.3-1.9-0.6-2.8-0.9c-0.2-0.1-0.3-0.3-0.2-0.5
		c0.1-0.2,0.3-0.3,0.5-0.2c1,0.3,1.9,0.6,2.9,1c0.2,0.1,0.3,0.3,0.2,0.5C131.8,63.1,131.7,63.2,131.5,63.2L131.5,63.2z"/>
	<path id="elvf8i5r4szh" class="st7" d="M71.1,144.3c-0.2,0-0.4-0.2-0.4-0.4c0-0.2,0.2-0.4,0.4-0.4c2,0,4-0.2,5.9-0.6
		c0.2,0,0.4,0.1,0.4,0.3c0,0.2-0.1,0.4-0.3,0.4c0,0,0,0,0,0C75.1,144.1,73.1,144.3,71.1,144.3z M65.1,144L65.1,144c-2-0.2-4-0.5-6-1
		c-0.2,0-0.3-0.2-0.3-0.4c0-0.2,0.2-0.3,0.4-0.3c1.9,0.4,3.9,0.8,5.9,1c0.2,0,0.3,0.2,0.3,0.4C65.4,143.9,65.3,144,65.1,144
		L65.1,144z M82.8,142c-0.1,0-0.3-0.1-0.3-0.2c-0.1-0.2,0-0.4,0.2-0.5c0,0,0,0,0,0c1.8-0.8,3.5-1.8,5-3.1c0.2-0.1,0.4-0.1,0.5,0.1
		c0.1,0.2,0.1,0.4,0,0.5c-1.6,1.3-3.3,2.4-5.2,3.2C82.9,142,82.9,142,82.8,142L82.8,142z M53.3,141.3c0,0-0.1,0-0.1,0
		c-1.9-0.6-3.8-1.4-5.7-2.2c-0.2-0.1-0.2-0.3-0.1-0.5c0.1-0.2,0.3-0.2,0.5-0.2c1.8,0.8,3.7,1.5,5.6,2.2c0.2,0.1,0.3,0.3,0.2,0.5
		C53.6,141.2,53.5,141.3,53.3,141.3z M42.3,136.5c-0.1,0-0.1,0-0.2,0c-1.8-1-3.5-2.1-5.2-3.2c-0.2-0.1-0.2-0.4-0.1-0.5
		c0.1-0.2,0.4-0.2,0.5-0.1c1.6,1.1,3.3,2.2,5.1,3.2c0.2,0.1,0.2,0.3,0.1,0.5c0,0,0,0,0,0C42.6,136.5,42.4,136.5,42.3,136.5
		L42.3,136.5z M91.8,134.2c-0.1,0-0.1,0-0.2,0c-0.2-0.1-0.2-0.3-0.1-0.5c0,0,0,0,0,0c0.3-0.5,0.6-1.1,0.9-1.7c0.6-1.2,1-2.5,1.3-3.8
		c0.1-0.2,0.3-0.3,0.5-0.3c0.2,0.1,0.3,0.3,0.3,0.5c-0.3,1.4-0.8,2.7-1.3,3.9c-0.3,0.6-0.6,1.2-0.9,1.8
		C92,134.2,91.9,134.2,91.8,134.2L91.8,134.2z M32.5,129.6c-0.1,0-0.2,0-0.2-0.1c-1.5-1.3-2.9-2.8-4.3-4.3c-0.1-0.1-0.1-0.4,0-0.5
		c0.1-0.1,0.4-0.1,0.5,0c1.3,1.5,2.7,2.9,4.2,4.2c0.1,0.1,0.1,0.4,0,0.5C32.6,129.5,32.5,129.6,32.5,129.6L32.5,129.6z M94.7,122.6
		c-0.2,0-0.4-0.2-0.4-0.4c0,0,0,0,0,0c0-2-0.2-4-0.6-5.9c0-0.2,0.1-0.4,0.3-0.4c0.2,0,0.4,0.1,0.4,0.3c0.4,2,0.5,4,0.6,6.1
		C95,122.5,94.9,122.6,94.7,122.6C94.7,122.6,94.7,122.6,94.7,122.6L94.7,122.6z M92.7,110.8c-0.2,0-0.3-0.1-0.4-0.3
		c-0.5-1.8-1.1-3.6-1.9-5.7c-0.1-0.2,0-0.4,0.2-0.5c0,0,0,0,0,0c0.2-0.1,0.4,0,0.5,0.2c0.8,2.1,1.4,4,1.9,5.7
		c0.1,0.2-0.1,0.4-0.2,0.5L92.7,110.8z M88.5,99.4c-0.1,0-0.3-0.1-0.3-0.2c-0.6-1.6-1.5-3.4-2.4-5.4v-0.1c-0.1-0.2,0.1-0.4,0.3-0.5
		c0.2,0,0.3,0,0.4,0.2v0.1c0.9,2,1.8,3.8,2.4,5.4c0.1,0.2,0,0.4-0.2,0.5L88.5,99.4z M83.5,88.4c-0.2,0-0.3-0.1-0.3-0.2
		c-0.9-2.1-1.6-3.9-2.2-5.6c-0.1-0.2,0-0.4,0.2-0.5c0.2-0.1,0.4,0,0.5,0.2c0.6,1.7,1.3,3.5,2.2,5.6c0.1,0.2,0,0.4-0.2,0.5
		c0,0,0,0,0,0C83.6,88.4,83.6,88.4,83.5,88.4L83.5,88.4z M79.9,77c-0.2,0-0.3-0.1-0.4-0.3c-0.2-1.1-0.3-2.2-0.3-3.2
		c0-1,0.1-1.9,0.3-2.9c0.1-0.2,0.3-0.3,0.5-0.2c0.2,0.1,0.3,0.2,0.3,0.4c-0.2,0.9-0.3,1.8-0.2,2.7c0,1,0.1,2.1,0.2,3.1
		C80.2,76.7,80.1,76.9,79.9,77L79.9,77z M82.5,65.6c-0.1,0-0.2,0-0.2-0.1c-0.1-0.1-0.1-0.4,0-0.5c1.3-1.6,3-2.9,4.8-3.8
		c0.2-0.1,0.4,0,0.5,0.2c0.1,0.2,0,0.4-0.2,0.5c-1.7,0.9-3.3,2.1-4.6,3.6C82.7,65.6,82.6,65.6,82.5,65.6L82.5,65.6z M122.8,60.7
		L122.8,60.7c-2-0.4-4-0.7-6-1c-0.2,0-0.3-0.2-0.3-0.4c0,0,0,0,0,0c0-0.2,0.2-0.3,0.4-0.3c0,0,0,0,0,0c2,0.3,4,0.6,6,1
		c0.2,0,0.3,0.3,0.3,0.5C123.1,60.6,123,60.7,122.8,60.7L122.8,60.7z M92.8,59.8c-0.2,0-0.4-0.1-0.4-0.3c0-0.2,0.1-0.4,0.3-0.4
		c2-0.4,4-0.7,6-0.9c0.2,0,0.4,0.1,0.4,0.3c0,0.2-0.1,0.4-0.3,0.4c0,0,0,0,0,0C96.8,59.1,94.8,59.4,92.8,59.8L92.8,59.8z
		 M110.8,59.1L110.8,59.1c-1.7-0.1-3.8-0.2-6-0.3c-0.2,0-0.4-0.2-0.4-0.4c0-0.2,0.2-0.4,0.4-0.4c0,0,0,0,0,0c2.2,0.1,4.3,0.2,6,0.3
		c0.2,0,0.4,0.2,0.4,0.4c0,0,0,0,0,0C111.2,59,111,59.1,110.8,59.1L110.8,59.1z"/>
	<path id="elck2kfrt15tc" class="st7" d="M24.7,120.3c-0.1,0-0.3-0.1-0.3-0.2c-0.5-0.9-1-1.8-1.3-2.7c-0.1-0.2,0-0.4,0.2-0.5
		c0,0,0,0,0,0c0.2-0.1,0.4,0,0.5,0.2c0.4,0.9,0.8,1.8,1.3,2.6c0.1,0.2,0.1,0.4-0.1,0.5C24.8,120.3,24.8,120.3,24.7,120.3L24.7,120.3
		z"/>
</g>
<g id="freepik--Desk--inject-33">
	<rect id="el08j46c0g1g5e" x="108.2" y="199.4" class="st16" width="38" height="7.8"/>
	<g id="elng459kj7dho">
		<rect x="108.2" y="199.4" class="st15" width="38" height="7.8"/>
	</g>
	<g id="elsmjbndwxvft">
		<rect x="108.2" y="199.4" class="st15" width="16" height="7.8"/>
	</g>
	<g id="elglhlzkm7wjs">
		<polygon class="st15" points="108.2,200.5 142,200.5 108.2,201.5 		"/>
	</g>
	<g id="elvab217016gg">
		<polygon class="st15" points="146.1,201.8 116.9,202.6 146.1,202.6 		"/>
	</g>
	<g id="elj58bozmt8s7">
		<polygon class="st15" points="109.7,204 124.2,203.4 145.4,204 124.2,204.4 		"/>
	</g>
	<g id="elcrk4yl90hqm">
		<polygon class="st15" points="108.2,205.7 133.2,205.7 108.2,206.3 		"/>
	</g>
	<g id="elcmns3kau8vp">
		<polygon class="st15" points="146.1,206.3 129.4,206.6 146.1,206.6 		"/>
	</g>
	<rect id="elmckysyebwy9" x="102.9" y="191.6" class="st16" width="38" height="7.8"/>
	<g id="el6h096b2yq9i">
		<rect x="102.9" y="191.6" class="st15" width="38" height="7.8"/>
	</g>
	<g id="el49qe1w0cm3t">
		<rect x="102.9" y="191.6" class="st15" width="16" height="7.8"/>
	</g>
	<g id="elbwrtfesefep">
		<polygon class="st15" points="102.9,192.7 136.7,192.7 102.9,193.7 		"/>
	</g>
	<g id="el0fdyr0wmp8j9">
		<polygon class="st15" points="140.9,194.1 111.6,194.8 140.9,194.8 		"/>
	</g>
	<g id="eldky8r90s4jc">
		<polygon class="st15" points="104.4,196.2 118.9,195.6 140.1,196.2 118.9,196.6 		"/>
	</g>
	<g id="elp459dnnxuuq">
		<polygon class="st15" points="102.9,197.9 127.9,197.9 102.9,198.5 		"/>
	</g>
	<g id="eljpash6b7mb">
		<polygon class="st15" points="140.8,198.5 124.1,198.8 140.9,198.8 		"/>
	</g>
	<rect id="el7uup9eo3mhh" x="107.2" y="183.8" class="st16" width="38" height="7.8"/>
	<g id="el973hyx3m65i">
		<rect x="107.2" y="183.8" class="st15" width="38" height="7.8"/>
	</g>
	<g id="el3yq3iarsnzj">
		<rect x="107.2" y="183.8" class="st15" width="16" height="7.8"/>
	</g>
	<g id="elmkfijue4h9">
		<polygon class="st15" points="107.2,184.9 141,184.9 107.2,185.9 		"/>
	</g>
	<g id="eln0mbn4lt48e">
		<polygon class="st15" points="145.2,186.3 115.9,187 145.2,187 		"/>
	</g>
	<g id="el6kg195qw58c">
		<polygon class="st15" points="108.8,188.5 123.2,187.9 144.5,188.5 123.2,188.8 		"/>
	</g>
	<g id="eluedfqqz3fxb">
		<polygon class="st15" points="107.2,190.1 132.3,190.1 107.2,190.7 		"/>
	</g>
	<g id="elwy8i6eantw">
		<polygon class="st15" points="145.1,190.7 128.4,191 145.2,191 		"/>
	</g>
	<polygon id="eldaxjjwzcfsg" class="st11" points="170.5,207 171.5,203.3 212,203.3 230.7,205.1 231.4,207 	"/>
	<g id="elwzdfov9a31j">
		<polygon class="st18" points="212,203.3 212,207 170.5,207 171.5,203.3 		"/>
	</g>
	<path id="elcqada1lppg" class="st11" d="M203.9,185.4c0.2,1.7-1,3.3-2.8,3.5c-0.1,0-0.3,0-0.4,0h-62.1c-2,0-3.7-1.6-3.9-3.6
		l-3.7-39.8c0-0.4,0-0.8,0.1-1.2c0.4-1.4,1.7-2.4,3.1-2.4h62.2c2,0,3.7,1.6,3.9,3.6L203.9,185.4z"/>
	<g id="eledc2yz4hy2">
		<path class="st18" d="M200.4,189h-61.9c-2,0-3.7-1.6-3.9-3.6l-3.7-39.8c0-0.4,0-0.8,0.1-1.2h61.9c2,0,3.7,1.6,3.9,3.6l3.7,39.8
			C200.6,188.2,200.5,188.6,200.4,189z"/>
	</g>
	<polygon id="elstyklrzkx3r" class="st11" points="157.8,164.6 170.6,164.6 167.2,201.4 187.5,204.4 187.5,207 144.7,207 
		144.7,204.4 153.5,201.4 	"/>
	<g id="elou24ajjhpbb">
		<polygon class="st22" points="170.6,164.6 161.1,206.4 153.5,206.2 157.8,164.6 		"/>
	</g>
	<polygon id="eluibirw6qdj9" class="st11" points="170.5,367.4 164.4,367.4 153.4,214.2 161.5,214.2 	"/>
	<g id="el6rmgdplp19">
		<polygon class="st21" points="170.6,367.4 164.4,367.4 154,221.8 153.4,214.4 161.5,214.4 162,221.8 		"/>
	</g>
	<g id="elci4pi8ebj2o">
		<polygon class="st8" points="162,221.4 154,221.4 153.4,214.4 161.5,214.4 		"/>
	</g>
	<polygon id="el2z4yi5yibst" class="st11" points="215.5,367.4 209.4,367.4 208.4,214.2 216.5,214.2 	"/>
	<g id="elezms0zb25vq">
		<polygon class="st9" points="216.5,214.4 216.4,239.1 215.5,367.4 209.4,367.4 208.5,239.1 208.4,214.4 		"/>
	</g>
	<g id="ell8i2ocbhscf">
		<polygon class="st8" points="216.5,214.4 216.4,239.4 208.5,239.4 208.4,214.4 		"/>
	</g>
	<polygon id="el92xgfgrr0jl" class="st11" points="280.5,367.4 274.4,367.4 263.4,214.2 271.5,214.2 	"/>
	<g id="el7pl64u3unhn">
		<polygon class="st9" points="280.6,367.4 274.4,367.4 264,221.8 263.4,214.4 271.5,214.4 272,221.8 		"/>
	</g>
	<g id="elx5208vwc3ip">
		<polygon class="st8" points="272,221.4 264,221.4 263.4,214.4 271.5,214.4 		"/>
	</g>
	<polygon id="elcqt7ri5qao8" class="st11" points="100.5,367.4 94.3,367.4 103.3,214.2 111.5,214.2 	"/>
	<g id="elu5sht9smay">
		<polygon class="st9" points="111.5,214.4 110.9,221.8 100.5,367.4 94.3,367.4 102.9,221.8 103.3,214.4 		"/>
	</g>
	<g id="elstsimbzlz2">
		<polygon class="st8" points="103.3,214.4 111.5,214.4 110.9,221.4 102.9,221.4 		"/>
	</g>
	<path id="elamqawtge60u" class="st7" d="M96.9,210.3H278l0,0v5.5c0,1.2-1,2.2-2.2,2.2l0,0H99.1c-1.2,0-2.2-1-2.2-2.2l0,0
		L96.9,210.3L96.9,210.3z"/>
	<g id="eladw7akoxfu">
		<path class="st13" d="M96.9,210.3H278l0,0v5.5c0,1.2-1,2.2-2.2,2.2l0,0H99.1c-1.2,0-2.2-1-2.2-2.2l0,0L96.9,210.3L96.9,210.3z"/>
	</g>
	<g id="elpcbm3z3mr9q">
		<rect x="96.9" y="210.3" class="st8" width="181.1" height="3.8"/>
	</g>
	<path id="elruus5ciofma" class="st7" d="M281.8,211.3H93.1c-1.2,0-2.2-1-2.2-2.2l0,0l0,0c0-1.2,1-2.2,2.2-2.2h188.7
		c1.2,0,2.2,1,2.2,2.2l0,0C283.9,210.4,283,211.3,281.8,211.3L281.8,211.3z"/>
	<g id="el4qdxq3jyok5">
		<path class="st13" d="M281.8,211.3H93.1c-1.2,0-2.2-1-2.2-2.2l0,0l0,0c0-1.2,1-2.2,2.2-2.2h188.7c1.2,0,2.2,1,2.2,2.2l0,0
			C283.9,210.4,283,211.3,281.8,211.3L281.8,211.3z"/>
	</g>
	<path id="elzl8jubcz4rf" class="st7" d="M237.1,200.3l2.3-3.5c0.5-0.7,1.2-1.1,2.1-1.1h2.9c0.2,0,0.5,0,0.7,0.1l10.5,3.2
		c0.6,0.2,1.1,0.6,1.4,1.1l1.5,2.5L237.1,200.3z"/>
	<g id="elvne8c1qsjvb">
		<path class="st8" d="M258.6,202.7l-15.3-1.7l-6.2-0.7l2.3-3.5c0.5-0.7,1.2-1.1,2.1-1.1h2.9c0.2,0,0.5,0,0.7,0.1l0.2,0.1l10.2,3.1
			c0.6,0.2,1.1,0.6,1.4,1.1L258.6,202.7z"/>
	</g>
	<g id="el6oxq832xt2x">
		<path class="st8" d="M258.6,202.7l-15.3-1.7l2.1-5.1l10.2,3.1c0.6,0.2,1.1,0.6,1.4,1.1L258.6,202.7z"/>
	</g>
	<path id="elfgto1x4ive9" class="st7" d="M265.9,206.7v0.3h-32.4l1.2-4.7c0.5-1.8,2.1-3,3.9-3h14.4c0.5,0,1,0.1,1.4,0.2l1.8,0.7
		l7.1,2.7C264.9,203.5,265.9,205,265.9,206.7z"/>
	<g id="elf0e34xu5l3s">
		<path class="st8" d="M265.9,206.7v0.3h-13.3l0.7-5.1c0.2-1.2,1.3-2,2.4-1.8c0.1,0,0.3,0.1,0.4,0.1l7.1,2.7
			C264.8,203.5,265.9,205,265.9,206.7z"/>
	</g>
	<path id="elqov9h2ton7a" class="st11" d="M254.6,203.6l4.2-12.7c0.2-0.5,0.7-0.8,1.2-0.6c0.1,0,0.1,0,0.2,0.1l0,0
		c0.4,0.2,0.6,0.7,0.5,1.1l-3.6,13.6C257.1,204.9,254.7,205.9,254.6,203.6z"/>
	<g id="elsn8mnhk0itj">
		<polygon class="st8" points="237.1,205.9 235.3,205.9 235.6,204.1 237.5,204.1 		"/>
	</g>
	<g id="elctlsin6kc3">
		<polygon class="st8" points="239.9,205.9 238.1,205.9 238.4,204 240.3,204 		"/>
	</g>
</g>
</svg>
