<?xml version="1.0" encoding="utf-8"?>
<!-- Generator: Adobe Illustrator 25.1.0, SVG Export Plug-In . SVG Version: 6.00 Build 0)  -->
<!DOCTYPE svg PUBLIC "-//W3C//DTD SVG 1.1//EN" "http://www.w3.org/Graphics/SVG/1.1/DTD/svg11.dtd" [
	<!ENTITY ns_extend "http://ns.adobe.com/Extensibility/1.0/">
	<!ENTITY ns_ai "http://ns.adobe.com/AdobeIllustrator/10.0/">
	<!ENTITY ns_graphs "http://ns.adobe.com/Graphs/1.0/">
	<!ENTITY ns_vars "http://ns.adobe.com/Variables/1.0/">
	<!ENTITY ns_imrep "http://ns.adobe.com/ImageReplacement/1.0/">
	<!ENTITY ns_sfw "http://ns.adobe.com/SaveForWeb/1.0/">
	<!ENTITY ns_custom "http://ns.adobe.com/GenericCustomNamespace/1.0/">
	<!ENTITY ns_adobe_xpath "http://ns.adobe.com/XPath/1.0/">
]>
<svg version="1.1"
	 id="freepik_stories-contact-us" xmlns:x="&ns_extend;" xmlns:i="&ns_ai;" xmlns:graph="&ns_graphs;" xmlns:svgjs="http://svgjs.com/svgjs"
	 xmlns="http://www.w3.org/2000/svg" xmlns:xlink="http://www.w3.org/1999/xlink" x="0px" y="0px" viewBox="0 0 432.4 381.3"
	 style="enable-background:new 0 0 432.4 381.3;" xml:space="preserve">
<style type="text/css">
	.st0{fill:#EBEBEB;}
	.st1{fill:#E0E0E0;}
	.st2{fill:#F5F5F5;}
	.st3{fill:#E6E6E6;}
	.st4{fill:#F0F0F0;}
	.st5{fill:#FCA311;}
	.st6{fill:#CA820E;}
	.st7{fill:#FED188;}
	.st8{fill:#FDB541;}
	.st9{fill:#263238;}
	.st10{fill:#515B60;}
	.st11{fill:#687074;}
	.st12{fill:#A8ADAF;}
	.st13{fill:#E4897B;}
	.st14{fill:#C4C4C4;}
	.st15{fill:#B8B8B8;}
	.st16{fill:#B3B3B3;}
	.st17{fill:#B66E62;}
	.st18{fill:#A2680B;}
	.st19{fill:#FEDAA0;}
	.st20{fill:#CCCCCC;}
	.st21{fill:#E4C490;}
	.st22{fill:#1E282D;}
	.st23{fill:#FFFFFF;}
	.st24{fill:#DE5753;}
	.st25{fill:#97620A;}
	.st26{fill:#CBAE80;}
	.st27{fill:#FEE4B8;}
	.st28{fill:#CBB693;}
	.st29{fill:#FDC870;}
	.st30{fill:#FDBF59;}
	.st31{fill:#E5E5E5;}
	.st32{fill:#CECECE;}
	.st33{fill:#B9B9B9;}
	.st34{fill:#171E22;}
	.st35{fill:#3C474C;}
	.st36{fill:#F3F3F3;}
	.st37{fill:#F9F9F9;}
	.st38{fill:#7D8488;}
	.st39{fill:#646A6D;}
	.st40{fill:#FAFAFA;}
	.st41{fill:#FFEDD0;}
	.st42{fill:#F8F8F8;}
	.st43{fill:#F2C4BD;}
	.st44{fill:#DBB7B1;}
	.st45{fill:#93999C;}
	.st46{fill:#C2C2C2;}
	.st47{fill:#767A7D;}
	.st48{fill:#A8ADB0;}
	.st49{fill:#D4D6D7;}
	.st50{fill:#F2E2C8;}
	.st51{fill:#182024;}
</style>
<metadata>
	<sfw  xmlns="&ns_sfw;">
		<slices></slices>
		<sliceSourceBounds  bottomLeftOrigin="true" height="372.6" width="420.8" x="38.2" y="72.4"></sliceSourceBounds>
	</sfw>
</metadata>
<g>
	<polyline class="st0" points="384.4,348.4 417.6,348.4 417.6,348.6 384.4,348.6 384.4,348.4 	"/>
	<polyline class="st0" points="290.2,351.1 298.9,351.1 298.9,351.3 290.2,351.3 290.2,351.1 	"/>
	<polyline class="st0" points="364.3,339.1 383.4,339.1 383.4,339.3 364.3,339.3 364.3,339.1 	"/>
	<rect x="20.1" y="340.8" class="st0" width="43.2" height="0.2"/>
	<rect x="72.2" y="340.8" class="st0" width="6.3" height="0.2"/>
	<polyline class="st0" points="99.1,345 192.8,345 192.8,345.2 99.1,345.2 99.1,345 	"/>
	<path class="st0" d="M204.7,287.7H11.6c-3.1,0-5.7-2.6-5.7-5.7V10.5c0-3.1,2.6-5.7,5.7-5.7h193.1c3.2,0,5.7,2.6,5.7,5.7V282
		C210.4,285.1,207.8,287.7,204.7,287.7 M11.6,5.1c-3,0-5.5,2.4-5.5,5.5V282c0,3,2.4,5.5,5.5,5.5h193.1c3,0,5.5-2.4,5.5-5.5V10.5
		c0-3-2.4-5.5-5.5-5.5H11.6"/>
	<path class="st0" d="M421,287.7H227.9c-3.2,0-5.7-2.6-5.7-5.7V10.5c0-3.1,2.6-5.7,5.7-5.7H421c3.1,0,5.7,2.5,5.7,5.7V282
		C426.7,285.1,424.1,287.7,421,287.7 M227.9,5.1c-3,0-5.5,2.4-5.5,5.5V282c0,3,2.4,5.5,5.5,5.5H421c3,0,5.5-2.4,5.5-5.5V10.5
		c0-3-2.4-5.5-5.5-5.5H227.9"/>
	<polyline class="st1" points="170.8,67.1 413.1,67.1 413.1,300.6 170.8,300.6 170.8,67.1 	"/>
	<polyline class="st2" points="174.7,71.3 413.1,71.3 413.1,296.5 174.7,296.5 174.7,71.3 	"/>
	<polyline class="st3" points="176.5,242 176.5,174.2 183.5,174.2 183.5,165.3 199.3,157.9 199.3,148.7 202,148.7 202,174.2 
		204.6,174.2 204.6,242 208.1,242 208.1,206.8 216,206.8 216,188.3 218.7,188.3 218.7,242 224.8,242 224.8,221.7 229.2,221.7 
		229.2,216.5 238.9,216.5 238.9,198 244.2,198 244.2,185.7 250.4,185.7 250.4,167.2 253,167.2 253,185.7 259.2,185.7 259.2,198 
		264.4,198 264.4,216.5 274.1,216.5 274.1,221.7 278.5,221.7 278.5,242 283.8,242 283.8,216.5 293.5,216.5 293.5,160.2 296.1,160.2 
		296.1,154 317.2,154 317.2,160.2 321.6,160.2 321.6,200.6 339.2,200.6 339.2,205 345.4,205 345.4,207.7 339.2,207.7 339.2,223.5 
		357.7,223.5 357.7,170.7 361.2,170.7 361.2,160.2 370,160.2 370,119.7 372.6,119.7 372.6,160.2 378.8,160.2 378.8,170.7 
		413.1,170.7 413.1,296.5 174.7,296.5 174.7,242 176.5,242 	"/>
	<rect x="392.3" y="173.5" class="st4" width="2.5" height="2.5"/>
	<rect x="392.3" y="177.7" class="st4" width="2.5" height="2.5"/>
	<rect x="392.3" y="194.4" class="st4" width="2.5" height="2.5"/>
	<rect x="392.3" y="198.5" class="st4" width="2.5" height="2.5"/>
	<rect x="392.3" y="202.7" class="st4" width="2.5" height="2.5"/>
	<rect x="392.3" y="215.3" class="st4" width="2.5" height="2.5"/>
	<rect x="392.3" y="219.4" class="st4" width="2.5" height="2.5"/>
	<rect x="388.3" y="190.2" class="st4" width="2.5" height="2.5"/>
	<rect x="388.3" y="194.4" class="st4" width="2.5" height="2.5"/>
	<rect x="388.3" y="198.5" class="st4" width="2.5" height="2.5"/>
	<rect x="388.3" y="202.7" class="st4" width="2.5" height="2.5"/>
	<rect x="388.3" y="206.9" class="st4" width="2.5" height="2.5"/>
	<rect x="388.3" y="215.3" class="st4" width="2.5" height="2.5"/>
	<rect x="388.3" y="219.4" class="st4" width="2.5" height="2.5"/>
	<rect x="384.4" y="173.5" class="st4" width="2.5" height="2.5"/>
	<rect x="384.4" y="177.7" class="st4" width="2.5" height="2.5"/>
	<rect x="384.4" y="181.8" class="st4" width="2.5" height="2.5"/>
	<rect x="384.4" y="186" class="st4" width="2.5" height="2.5"/>
	<rect x="384.4" y="190.2" class="st4" width="2.5" height="2.5"/>
	<rect x="384.4" y="194.4" class="st4" width="2.5" height="2.5"/>
	<rect x="384.4" y="198.5" class="st4" width="2.5" height="2.5"/>
	<rect x="384.4" y="202.7" class="st4" width="2.5" height="2.5"/>
	<rect x="384.4" y="206.9" class="st4" width="2.5" height="2.5"/>
	<rect x="384.4" y="211.1" class="st4" width="2.5" height="2.5"/>
	<rect x="384.4" y="219.4" class="st4" width="2.5" height="2.5"/>
	<rect x="380.4" y="173.5" class="st4" width="2.5" height="2.5"/>
	<rect x="380.4" y="177.7" class="st4" width="2.5" height="2.5"/>
	<rect x="380.4" y="181.8" class="st4" width="2.5" height="2.5"/>
	<rect x="380.4" y="186" class="st4" width="2.5" height="2.5"/>
	<rect x="380.4" y="190.2" class="st4" width="2.5" height="2.5"/>
	<rect x="380.4" y="194.4" class="st4" width="2.5" height="2.5"/>
	<rect x="380.4" y="198.5" class="st4" width="2.5" height="2.5"/>
	<rect x="380.4" y="236.2" class="st4" width="2.5" height="2.5"/>
	<rect x="376.4" y="173.5" class="st4" width="2.5" height="2.5"/>
	<rect x="376.4" y="177.7" class="st4" width="2.5" height="2.5"/>
	<rect x="376.4" y="181.8" class="st4" width="2.5" height="2.5"/>
	<rect x="376.4" y="186" class="st4" width="2.5" height="2.5"/>
	<rect x="376.4" y="190.2" class="st4" width="2.5" height="2.5"/>
	<rect x="376.4" y="194.4" class="st4" width="2.5" height="2.5"/>
	<rect x="376.4" y="198.5" class="st4" width="2.5" height="2.5"/>
	<rect x="376.4" y="202.7" class="st4" width="2.5" height="2.5"/>
	<rect x="376.4" y="227.8" class="st4" width="2.5" height="2.5"/>
	<rect x="376.4" y="232" class="st4" width="2.5" height="2.5"/>
	<rect x="376.4" y="236.2" class="st4" width="2.5" height="2.5"/>
	<rect x="376.4" y="240.3" class="st4" width="2.5" height="2.5"/>
	<rect x="376.4" y="257.1" class="st4" width="2.5" height="2.5"/>
	<rect x="372.5" y="173.5" class="st4" width="2.5" height="2.5"/>
	<rect x="372.5" y="177.7" class="st4" width="2.5" height="2.5"/>
	<rect x="372.5" y="181.8" class="st4" width="2.5" height="2.5"/>
	<rect x="372.5" y="186" class="st4" width="2.5" height="2.5"/>
	<rect x="372.5" y="190.2" class="st4" width="2.5" height="2.5"/>
	<rect x="372.5" y="194.4" class="st4" width="2.5" height="2.5"/>
	<rect x="372.5" y="198.5" class="st4" width="2.5" height="2.5"/>
	<rect x="372.5" y="202.7" class="st4" width="2.5" height="2.5"/>
	<rect x="372.5" y="206.9" class="st4" width="2.5" height="2.5"/>
	<rect x="372.5" y="211.1" class="st4" width="2.5" height="2.5"/>
	<rect x="372.5" y="223.6" class="st4" width="2.5" height="2.5"/>
	<rect x="372.5" y="227.8" class="st4" width="2.5" height="2.5"/>
	<rect x="372.5" y="232" class="st4" width="2.5" height="2.5"/>
	<rect x="372.5" y="236.2" class="st4" width="2.5" height="2.5"/>
	<rect x="372.5" y="240.3" class="st4" width="2.5" height="2.5"/>
	<rect x="372.5" y="257.1" class="st4" width="2.5" height="2.5"/>
	<rect x="368.5" y="173.5" class="st4" width="2.5" height="2.5"/>
	<rect x="368.5" y="177.7" class="st4" width="2.5" height="2.5"/>
	<rect x="368.5" y="181.8" class="st4" width="2.5" height="2.5"/>
	<rect x="368.5" y="186" class="st4" width="2.5" height="2.5"/>
	<rect x="368.5" y="190.2" class="st4" width="2.5" height="2.5"/>
	<rect x="368.5" y="194.4" class="st4" width="2.5" height="2.5"/>
	<rect x="368.5" y="198.5" class="st4" width="2.5" height="2.5"/>
	<rect x="368.5" y="202.7" class="st4" width="2.5" height="2.5"/>
	<rect x="368.5" y="206.9" class="st4" width="2.5" height="2.5"/>
	<rect x="368.5" y="211.1" class="st4" width="2.5" height="2.5"/>
	<rect x="368.5" y="215.3" class="st4" width="2.5" height="2.5"/>
	<rect x="368.5" y="219.4" class="st4" width="2.5" height="2.5"/>
	<rect x="368.5" y="223.6" class="st4" width="2.5" height="2.5"/>
	<rect x="368.5" y="227.8" class="st4" width="2.5" height="2.5"/>
	<rect x="368.5" y="232" class="st4" width="2.5" height="2.5"/>
	<rect x="368.5" y="236.2" class="st4" width="2.5" height="2.5"/>
	<rect x="368.5" y="240.3" class="st4" width="2.5" height="2.5"/>
	<rect x="368.5" y="244.5" class="st4" width="2.5" height="2.5"/>
	<rect x="364.6" y="173.5" class="st4" width="2.5" height="2.5"/>
	<rect x="364.6" y="177.7" class="st4" width="2.5" height="2.5"/>
	<rect x="364.6" y="181.8" class="st4" width="2.5" height="2.5"/>
	<rect x="364.6" y="186" class="st4" width="2.5" height="2.5"/>
	<rect x="364.6" y="190.2" class="st4" width="2.5" height="2.5"/>
	<rect x="364.6" y="194.4" class="st4" width="2.5" height="2.5"/>
	<rect x="364.6" y="198.5" class="st4" width="2.5" height="2.5"/>
	<rect x="364.6" y="202.7" class="st4" width="2.5" height="2.5"/>
	<rect x="364.6" y="206.9" class="st4" width="2.5" height="2.5"/>
	<rect x="364.6" y="211.1" class="st4" width="2.5" height="2.5"/>
	<rect x="364.6" y="223.6" class="st4" width="2.5" height="2.5"/>
	<rect x="364.6" y="227.8" class="st4" width="2.5" height="2.5"/>
	<rect x="364.6" y="232" class="st4" width="2.5" height="2.5"/>
	<rect x="364.6" y="236.2" class="st4" width="2.5" height="2.5"/>
	<rect x="360.6" y="173.5" class="st4" width="2.5" height="2.5"/>
	<rect x="360.6" y="177.7" class="st4" width="2.5" height="2.5"/>
	<rect x="360.6" y="181.8" class="st4" width="2.5" height="2.5"/>
	<rect x="360.6" y="186" class="st4" width="2.5" height="2.5"/>
	<rect x="360.6" y="190.2" class="st4" width="2.5" height="2.5"/>
	<rect x="360.6" y="194.4" class="st4" width="2.5" height="2.5"/>
	<rect x="360.6" y="198.5" class="st4" width="2.5" height="2.5"/>
	<rect x="360.6" y="202.7" class="st4" width="2.5" height="2.5"/>
	<rect x="360.6" y="206.9" class="st4" width="2.5" height="2.5"/>
	<rect x="360.6" y="211.1" class="st4" width="2.5" height="2.5"/>
	<rect x="360.6" y="223.6" class="st4" width="2.5" height="2.5"/>
	<rect x="360.6" y="227.8" class="st4" width="2.5" height="2.5"/>
	<rect x="360.6" y="232" class="st4" width="2.5" height="2.5"/>
	<rect x="316" y="162.6" class="st4" width="2.5" height="2.5"/>
	<rect x="316" y="166.8" class="st4" width="2.5" height="2.5"/>
	<rect x="316" y="171" class="st4" width="2.5" height="2.5"/>
	<rect x="316" y="175.2" class="st4" width="2.5" height="2.5"/>
	<rect x="316" y="179.3" class="st4" width="2.5" height="2.5"/>
	<rect x="316" y="183.5" class="st4" width="2.5" height="2.5"/>
	<rect x="316" y="187.7" class="st4" width="2.5" height="2.5"/>
	<rect x="316" y="191.9" class="st4" width="2.5" height="2.5"/>
	<rect x="316" y="204.4" class="st4" width="2.5" height="2.5"/>
	<rect x="316" y="208.6" class="st4" width="2.5" height="2.5"/>
	<rect x="312.1" y="162.6" class="st4" width="2.5" height="2.5"/>
	<rect x="312.1" y="166.8" class="st4" width="2.5" height="2.5"/>
	<polyline class="st4" points="312.1,171 314.6,171 314.6,173.5 312.1,173.5 312.1,171 	"/>
	<polyline class="st4" points="312.1,175.2 314.6,175.2 314.6,177.7 312.1,177.7 312.1,175.2 	"/>
	<polyline class="st4" points="312.1,179.3 314.6,179.3 314.6,181.8 312.1,181.8 312.1,179.3 	"/>
	<polyline class="st4" points="312.1,183.5 314.6,183.5 314.6,186 312.1,186 312.1,183.5 	"/>
	<rect x="312.1" y="187.7" class="st4" width="2.5" height="2.5"/>
	<rect x="312.1" y="191.9" class="st4" width="2.5" height="2.5"/>
	<rect x="312.1" y="208.6" class="st4" width="2.5" height="2.5"/>
	<rect x="308.1" y="162.6" class="st4" width="2.5" height="2.5"/>
	<rect x="308.1" y="166.8" class="st4" width="2.5" height="2.5"/>
	<polyline class="st4" points="308.1,171 310.6,171 310.6,173.5 308.1,173.5 308.1,171 	"/>
	<polyline class="st4" points="308.1,175.2 310.6,175.2 310.6,177.7 308.1,177.7 308.1,175.2 	"/>
	<polyline class="st4" points="308.1,179.3 310.6,179.3 310.6,181.8 308.1,181.8 308.1,179.3 	"/>
	<polyline class="st4" points="308.1,183.5 310.6,183.5 310.6,186 308.1,186 308.1,183.5 	"/>
	<polyline class="st4" points="308.1,187.7 310.6,187.7 310.6,190.2 308.1,190.2 308.1,187.7 	"/>
	<rect x="308.1" y="191.9" class="st4" width="2.5" height="2.5"/>
	<rect x="304.1" y="162.6" class="st4" width="2.5" height="2.5"/>
	<rect x="304.1" y="166.8" class="st4" width="2.5" height="2.5"/>
	<polyline class="st4" points="304.1,171 306.6,171 306.6,173.5 304.1,173.5 304.1,171 	"/>
	<polyline class="st4" points="304.1,175.2 306.6,175.2 306.6,177.7 304.1,177.7 304.1,175.2 	"/>
	<polyline class="st4" points="304.1,179.3 306.6,179.3 306.6,181.8 304.1,181.8 304.1,179.3 	"/>
	<polyline class="st4" points="304.1,183.5 306.6,183.5 306.6,186 304.1,186 304.1,183.5 	"/>
	<polyline class="st4" points="304.1,191.9 306.6,191.9 306.6,194.4 304.1,194.4 304.1,191.9 	"/>
	<polyline class="st4" points="304.1,196.1 306.6,196.1 306.6,198.5 304.1,198.5 304.1,196.1 	"/>
	<rect x="304.1" y="208.6" class="st4" width="2.5" height="2.5"/>
	<rect x="304.1" y="212.8" class="st4" width="2.5" height="2.5"/>
	<polyline class="st4" points="304.1,217 306.6,217 306.6,219.4 304.1,219.4 304.1,217 	"/>
	<polyline class="st4" points="304.1,221.1 306.6,221.1 306.6,223.6 304.1,223.6 304.1,221.1 	"/>
	<polyline class="st4" points="304.1,225.3 306.6,225.3 306.6,227.8 304.1,227.8 304.1,225.3 	"/>
	<polyline class="st4" points="304.1,229.5 306.6,229.5 306.6,232 304.1,232 304.1,229.5 	"/>
	<polyline class="st4" points="304.1,233.7 306.6,233.7 306.6,236.2 304.1,236.2 304.1,233.7 	"/>
	<rect x="300.2" y="162.6" class="st4" width="2.5" height="2.5"/>
	<rect x="300.2" y="166.8" class="st4" width="2.5" height="2.5"/>
	<polyline class="st4" points="300.2,171 302.7,171 302.7,173.5 300.2,173.5 300.2,171 	"/>
	<polyline class="st4" points="300.2,175.2 302.7,175.2 302.7,177.7 300.2,177.7 300.2,175.2 	"/>
	<polyline class="st4" points="300.2,179.3 302.7,179.3 302.7,181.8 300.2,181.8 300.2,179.3 	"/>
	<polyline class="st4" points="300.2,183.5 302.7,183.5 302.7,186 300.2,186 300.2,183.5 	"/>
	<polyline class="st4" points="300.2,196.1 302.7,196.1 302.7,198.5 300.2,198.5 300.2,196.1 	"/>
	<rect x="300.2" y="200.2" class="st4" width="2.5" height="2.5"/>
	<rect x="300.2" y="204.4" class="st4" width="2.5" height="2.5"/>
	<rect x="300.2" y="208.6" class="st4" width="2.5" height="2.5"/>
	<rect x="300.2" y="212.8" class="st4" width="2.5" height="2.5"/>
	<polyline class="st4" points="300.2,217 302.7,217 302.7,219.4 300.2,219.4 300.2,217 	"/>
	<polyline class="st4" points="300.2,221.1 302.7,221.1 302.7,223.6 300.2,223.6 300.2,221.1 	"/>
	<polyline class="st4" points="300.2,225.3 302.7,225.3 302.7,227.8 300.2,227.8 300.2,225.3 	"/>
	<polyline class="st4" points="300.2,229.5 302.7,229.5 302.7,232 300.2,232 300.2,229.5 	"/>
	<polyline class="st4" points="300.2,233.7 302.7,233.7 302.7,236.2 300.2,236.2 300.2,233.7 	"/>
	<polyline class="st4" points="300.2,237.8 302.7,237.8 302.7,240.3 300.2,240.3 300.2,237.8 	"/>
	<polyline class="st4" points="300.2,246.2 302.7,246.2 302.7,248.7 300.2,248.7 300.2,246.2 	"/>
	<polyline class="st4" points="296.2,162.6 298.7,162.6 298.7,165.1 296.2,165.1 296.2,162.6 	"/>
	<polyline class="st4" points="296.2,166.8 298.7,166.8 298.7,169.3 296.2,169.3 296.2,166.8 	"/>
	<polyline class="st4" points="296.2,171 298.7,171 298.7,173.5 296.2,173.5 296.2,171 	"/>
	<polyline class="st4" points="296.2,175.2 298.7,175.2 298.7,177.7 296.2,177.7 296.2,175.2 	"/>
	<polyline class="st4" points="296.2,179.3 298.7,179.3 298.7,181.8 296.2,181.8 296.2,179.3 	"/>
	<polyline class="st4" points="296.2,183.5 298.7,183.5 298.7,186 296.2,186 296.2,183.5 	"/>
	<polyline class="st4" points="296.2,196.1 298.7,196.1 298.7,198.5 296.2,198.5 296.2,196.1 	"/>
	<polyline class="st4" points="296.2,200.2 298.7,200.2 298.7,202.7 296.2,202.7 296.2,200.2 	"/>
	<rect x="296.2" y="204.4" class="st4" width="2.5" height="2.5"/>
	<rect x="296.2" y="208.6" class="st4" width="2.5" height="2.5"/>
	<polyline class="st4" points="296.2,221.1 298.7,221.1 298.7,223.6 296.2,223.6 296.2,221.1 	"/>
	<polyline class="st4" points="296.2,225.3 298.7,225.3 298.7,227.8 296.2,227.8 296.2,225.3 	"/>
	<polyline class="st4" points="296.2,229.5 298.7,229.5 298.7,232 296.2,232 296.2,229.5 	"/>
	<polyline class="st4" points="296.2,233.7 298.7,233.7 298.7,236.2 296.2,236.2 296.2,233.7 	"/>
	<polyline class="st4" points="296.2,237.8 298.7,237.8 298.7,240.3 296.2,240.3 296.2,237.8 	"/>
	<polyline class="st4" points="296.2,246.2 298.7,246.2 298.7,248.7 296.2,248.7 296.2,246.2 	"/>
	<polyline class="st4" points="296.2,250.4 298.7,250.4 298.7,252.9 296.2,252.9 296.2,250.4 	"/>
	<polyline class="st4" points="260.3,201.5 262.8,201.5 262.8,204 260.3,204 260.3,201.5 	"/>
	<polyline class="st4" points="260.3,205.7 262.8,205.7 262.8,208.2 260.3,208.2 260.3,205.7 	"/>
	<polyline class="st4" points="260.3,209.8 262.8,209.8 262.8,212.3 260.3,212.3 260.3,209.8 	"/>
	<polyline class="st4" points="260.3,214 262.8,214 262.8,216.5 260.3,216.5 260.3,214 	"/>
	<rect x="260.3" y="218.2" class="st4" width="2.5" height="2.5"/>
	<rect x="260.3" y="222.4" class="st4" width="2.5" height="2.5"/>
	<rect x="260.3" y="226.6" class="st4" width="2.5" height="2.5"/>
	<polyline class="st4" points="260.3,239.1 262.8,239.1 262.8,241.6 260.3,241.6 260.3,239.1 	"/>
	<polyline class="st4" points="260.3,243.3 262.8,243.3 262.8,245.8 260.3,245.8 260.3,243.3 	"/>
	<polyline class="st4" points="260.3,247.5 262.8,247.5 262.8,249.9 260.3,249.9 260.3,247.5 	"/>
	<polyline class="st4" points="256.3,201.5 258.8,201.5 258.8,204 256.3,204 256.3,201.5 	"/>
	<polyline class="st4" points="256.3,205.7 258.8,205.7 258.8,208.2 256.3,208.2 256.3,205.7 	"/>
	<polyline class="st4" points="256.3,209.8 258.8,209.8 258.8,212.3 256.3,212.3 256.3,209.8 	"/>
	<polyline class="st4" points="256.3,214 258.8,214 258.8,216.5 256.3,216.5 256.3,214 	"/>
	<rect x="256.3" y="218.2" class="st4" width="2.5" height="2.5"/>
	<rect x="256.3" y="222.4" class="st4" width="2.5" height="2.5"/>
	<rect x="256.3" y="226.6" class="st4" width="2.5" height="2.5"/>
	<polyline class="st4" points="252.4,201.5 254.9,201.5 254.9,204 252.4,204 252.4,201.5 	"/>
	<polyline class="st4" points="252.4,205.7 254.9,205.7 254.9,208.2 252.4,208.2 252.4,205.7 	"/>
	<polyline class="st4" points="252.4,209.8 254.9,209.8 254.9,212.3 252.4,212.3 252.4,209.8 	"/>
	<polyline class="st4" points="252.4,214 254.9,214 254.9,216.5 252.4,216.5 252.4,214 	"/>
	<rect x="252.4" y="218.2" class="st4" width="2.5" height="2.5"/>
	<rect x="252.4" y="222.4" class="st4" width="2.5" height="2.5"/>
	<rect x="252.4" y="226.6" class="st4" width="2.5" height="2.5"/>
	<polyline class="st4" points="248.4,201.5 250.9,201.5 250.9,204 248.4,204 248.4,201.5 	"/>
	<polyline class="st4" points="248.4,205.7 250.9,205.7 250.9,208.2 248.4,208.2 248.4,205.7 	"/>
	<polyline class="st4" points="248.4,209.8 250.9,209.8 250.9,212.3 248.4,212.3 248.4,209.8 	"/>
	<polyline class="st4" points="248.4,214 250.9,214 250.9,216.5 248.4,216.5 248.4,214 	"/>
	<rect x="248.4" y="218.2" class="st4" width="2.5" height="2.5"/>
	<rect x="248.4" y="222.4" class="st4" width="2.5" height="2.5"/>
	<rect x="248.4" y="226.6" class="st4" width="2.5" height="2.5"/>
	<polyline class="st4" points="248.4,230.7 250.9,230.7 250.9,233.2 248.4,233.2 248.4,230.7 	"/>
	<polyline class="st4" points="248.4,234.9 250.9,234.9 250.9,237.4 248.4,237.4 248.4,234.9 	"/>
	<polyline class="st4" points="248.4,239.1 250.9,239.1 250.9,241.6 248.4,241.6 248.4,239.1 	"/>
	<polyline class="st4" points="248.4,243.3 250.9,243.3 250.9,245.8 248.4,245.8 248.4,243.3 	"/>
	<rect x="244.5" y="201.5" class="st4" width="2.5" height="2.5"/>
	<polyline class="st4" points="244.5,205.7 247,205.7 247,208.2 244.5,208.2 244.5,205.7 	"/>
	<polyline class="st4" points="244.5,209.8 247,209.8 247,212.3 244.5,212.3 244.5,209.8 	"/>
	<polyline class="st4" points="244.5,214 247,214 247,216.5 244.5,216.5 244.5,214 	"/>
	<rect x="244.5" y="218.2" class="st4" width="2.5" height="2.5"/>
	<rect x="244.5" y="222.4" class="st4" width="2.5" height="2.5"/>
	<rect x="244.5" y="226.6" class="st4" width="2.5" height="2.5"/>
	<polyline class="st4" points="244.5,230.7 247,230.7 247,233.2 244.5,233.2 244.5,230.7 	"/>
	<polyline class="st4" points="244.5,234.9 247,234.9 247,237.4 244.5,237.4 244.5,234.9 	"/>
	<polyline class="st4" points="244.5,239.1 247,239.1 247,241.6 244.5,241.6 244.5,239.1 	"/>
	<polyline class="st4" points="244.5,243.3 247,243.3 247,245.8 244.5,245.8 244.5,243.3 	"/>
	<polyline class="st4" points="244.5,247.5 247,247.5 247,249.9 244.5,249.9 244.5,247.5 	"/>
	<polyline class="st4" points="244.5,260 247,260 247,262.5 244.5,262.5 244.5,260 	"/>
	<polyline class="st4" points="244.5,264.2 247,264.2 247,266.7 244.5,266.7 244.5,264.2 	"/>
	<polyline class="st4" points="240.5,201.5 243,201.5 243,204 240.5,204 240.5,201.5 	"/>
	<polyline class="st4" points="240.5,205.7 243,205.7 243,208.2 240.5,208.2 240.5,205.7 	"/>
	<polyline class="st4" points="240.5,209.8 243,209.8 243,212.3 240.5,212.3 240.5,209.8 	"/>
	<rect x="240.5" y="222.4" class="st4" width="2.5" height="2.5"/>
	<rect x="240.5" y="226.6" class="st4" width="2.5" height="2.5"/>
	<polyline class="st4" points="240.5,230.7 243,230.7 243,233.2 240.5,233.2 240.5,230.7 	"/>
	<polyline class="st4" points="240.5,234.9 243,234.9 243,237.4 240.5,237.4 240.5,234.9 	"/>
	<polyline class="st4" points="240.5,239.1 243,239.1 243,241.6 240.5,241.6 240.5,239.1 	"/>
	<polyline class="st4" points="240.5,243.3 243,243.3 243,245.8 240.5,245.8 240.5,243.3 	"/>
	<polyline class="st4" points="240.5,247.5 243,247.5 243,249.9 240.5,249.9 240.5,247.5 	"/>
	<polyline class="st4" points="240.5,260 243,260 243,262.5 240.5,262.5 240.5,260 	"/>
	<polyline class="st4" points="240.5,264.2 243,264.2 243,266.7 240.5,266.7 240.5,264.2 	"/>
	<polyline class="st4" points="240.5,268.3 243,268.3 243,270.8 240.5,270.8 240.5,268.3 	"/>
	<polyline class="st4" points="199,176.4 201.5,176.4 201.5,178.9 199,178.9 199,176.4 	"/>
	<polyline class="st4" points="199,180.6 201.5,180.6 201.5,183.1 199,183.1 199,180.6 	"/>
	<polyline class="st4" points="199,184.8 201.5,184.8 201.5,187.3 199,187.3 199,184.8 	"/>
	<polyline class="st4" points="199,188.9 201.5,188.9 201.5,191.4 199,191.4 199,188.9 	"/>
	<rect x="199" y="193.1" class="st4" width="2.5" height="2.5"/>
	<rect x="199" y="197.3" class="st4" width="2.5" height="2.5"/>
	<polyline class="st4" points="199,201.5 201.5,201.5 201.5,204 199,204 199,201.5 	"/>
	<polyline class="st4" points="199,205.7 201.5,205.7 201.5,208.2 199,208.2 199,205.7 	"/>
	<polyline class="st4" points="199,209.8 201.5,209.8 201.5,212.3 199,212.3 199,209.8 	"/>
	<polyline class="st4" points="199,214 201.5,214 201.5,216.5 199,216.5 199,214 	"/>
	<rect x="199" y="218.2" class="st4" width="2.5" height="2.5"/>
	<rect x="199" y="222.4" class="st4" width="2.5" height="2.5"/>
	<rect x="199" y="226.6" class="st4" width="2.5" height="2.5"/>
	<rect x="199" y="230.7" class="st4" width="2.5" height="2.5"/>
	<rect x="199" y="234.9" class="st4" width="2.5" height="2.5"/>
	<rect x="199" y="239.1" class="st4" width="2.5" height="2.5"/>
	<rect x="199" y="243.3" class="st4" width="2.5" height="2.5"/>
	<rect x="199" y="247.5" class="st4" width="2.5" height="2.5"/>
	<rect x="199" y="251.6" class="st4" width="2.5" height="2.5"/>
	<rect x="199" y="255.8" class="st4" width="2.5" height="2.5"/>
	<rect x="199" y="260" class="st4" width="2.5" height="2.5"/>
	<rect x="199" y="264.2" class="st4" width="2.5" height="2.5"/>
	<rect x="199" y="268.3" class="st4" width="2.5" height="2.5"/>
	<polyline class="st4" points="195.1,176.4 197.5,176.4 197.5,178.9 195.1,178.9 195.1,176.4 	"/>
	<polyline class="st4" points="195.1,180.6 197.5,180.6 197.5,183.1 195.1,183.1 195.1,180.6 	"/>
	<polyline class="st4" points="195.1,184.8 197.5,184.8 197.5,187.3 195.1,187.3 195.1,184.8 	"/>
	<polyline class="st4" points="195.1,188.9 197.5,188.9 197.5,191.4 195.1,191.4 195.1,188.9 	"/>
	<rect x="195.1" y="193.1" class="st4" width="2.5" height="2.5"/>
	<rect x="195.1" y="197.3" class="st4" width="2.5" height="2.5"/>
	<polyline class="st4" points="195.1,201.5 197.5,201.5 197.5,204 195.1,204 195.1,201.5 	"/>
	<polyline class="st4" points="195.1,205.7 197.5,205.7 197.5,208.2 195.1,208.2 195.1,205.7 	"/>
	<polyline class="st4" points="195.1,209.8 197.5,209.8 197.5,212.3 195.1,212.3 195.1,209.8 	"/>
	<polyline class="st4" points="195.1,214 197.5,214 197.5,216.5 195.1,216.5 195.1,214 	"/>
	<rect x="195.1" y="218.2" class="st4" width="2.5" height="2.5"/>
	<rect x="195.1" y="222.4" class="st4" width="2.5" height="2.5"/>
	<rect x="195.1" y="226.6" class="st4" width="2.5" height="2.5"/>
	<rect x="195.1" y="230.7" class="st4" width="2.5" height="2.5"/>
	<rect x="195.1" y="234.9" class="st4" width="2.5" height="2.5"/>
	<rect x="195.1" y="239.1" class="st4" width="2.5" height="2.5"/>
	<rect x="195.1" y="243.3" class="st4" width="2.5" height="2.5"/>
	<rect x="195.1" y="247.5" class="st4" width="2.5" height="2.5"/>
	<rect x="195.1" y="251.6" class="st4" width="2.5" height="2.5"/>
	<polyline class="st4" points="191.1,176.4 193.6,176.4 193.6,178.9 191.1,178.9 191.1,176.4 	"/>
	<polyline class="st4" points="191.1,180.6 193.6,180.6 193.6,183.1 191.1,183.1 191.1,180.6 	"/>
	<polyline class="st4" points="191.1,184.8 193.6,184.8 193.6,187.3 191.1,187.3 191.1,184.8 	"/>
	<polyline class="st4" points="191.1,188.9 193.6,188.9 193.6,191.4 191.1,191.4 191.1,188.9 	"/>
	<rect x="191.1" y="193.1" class="st4" width="2.5" height="2.5"/>
	<rect x="191.1" y="197.3" class="st4" width="2.5" height="2.5"/>
	<polyline class="st4" points="191.1,201.5 193.6,201.5 193.6,204 191.1,204 191.1,201.5 	"/>
	<polyline class="st4" points="191.1,205.7 193.6,205.7 193.6,208.2 191.1,208.2 191.1,205.7 	"/>
	<polyline class="st4" points="191.1,209.8 193.6,209.8 193.6,212.3 191.1,212.3 191.1,209.8 	"/>
	<polyline class="st4" points="191.1,214 193.6,214 193.6,216.5 191.1,216.5 191.1,214 	"/>
	<rect x="191.1" y="218.2" class="st4" width="2.5" height="2.5"/>
	<rect x="191.1" y="222.4" class="st4" width="2.5" height="2.5"/>
	<rect x="191.1" y="226.6" class="st4" width="2.5" height="2.5"/>
	<rect x="191.1" y="230.7" class="st4" width="2.5" height="2.5"/>
	<rect x="191.1" y="234.9" class="st4" width="2.5" height="2.5"/>
	<rect x="191.1" y="239.1" class="st4" width="2.5" height="2.5"/>
	<rect x="191.1" y="243.3" class="st4" width="2.5" height="2.5"/>
	<rect x="191.1" y="247.5" class="st4" width="2.5" height="2.5"/>
	<rect x="191.1" y="251.6" class="st4" width="2.5" height="2.5"/>
	<polyline class="st4" points="187.1,176.4 189.6,176.4 189.6,178.9 187.1,178.9 187.1,176.4 	"/>
	<polyline class="st4" points="187.1,180.6 189.6,180.6 189.6,183.1 187.1,183.1 187.1,180.6 	"/>
	<polyline class="st4" points="187.1,184.8 189.6,184.8 189.6,187.3 187.1,187.3 187.1,184.8 	"/>
	<polyline class="st4" points="187.1,188.9 189.6,188.9 189.6,191.4 187.1,191.4 187.1,188.9 	"/>
	<rect x="187.1" y="193.1" class="st4" width="2.5" height="2.5"/>
	<rect x="187.1" y="197.3" class="st4" width="2.5" height="2.5"/>
	<polyline class="st4" points="187.1,201.5 189.6,201.5 189.6,204 187.1,204 187.1,201.5 	"/>
	<polyline class="st4" points="187.1,205.7 189.6,205.7 189.6,208.2 187.1,208.2 187.1,205.7 	"/>
	<polyline class="st4" points="187.1,209.8 189.6,209.8 189.6,212.3 187.1,212.3 187.1,209.8 	"/>
	<polyline class="st4" points="187.1,214 189.6,214 189.6,216.5 187.1,216.5 187.1,214 	"/>
	<rect x="187.1" y="218.2" class="st4" width="2.5" height="2.5"/>
	<rect x="187.1" y="222.4" class="st4" width="2.5" height="2.5"/>
	<rect x="187.1" y="226.6" class="st4" width="2.5" height="2.5"/>
	<rect x="187.1" y="230.7" class="st4" width="2.5" height="2.5"/>
	<rect x="187.1" y="234.9" class="st4" width="2.5" height="2.5"/>
	<polyline class="st4" points="183.2,176.4 185.7,176.4 185.7,178.9 183.2,178.9 183.2,176.4 	"/>
	<polyline class="st4" points="183.2,180.6 185.7,180.6 185.7,183.1 183.2,183.1 183.2,180.6 	"/>
	<polyline class="st4" points="183.2,184.8 185.7,184.8 185.7,187.3 183.2,187.3 183.2,184.8 	"/>
	<polyline class="st4" points="183.2,188.9 185.7,188.9 185.7,191.4 183.2,191.4 183.2,188.9 	"/>
	<rect x="183.2" y="193.1" class="st4" width="2.5" height="2.5"/>
	<rect x="183.2" y="197.3" class="st4" width="2.5" height="2.5"/>
	<polyline class="st4" points="183.2,201.5 185.7,201.5 185.7,204 183.2,204 183.2,201.5 	"/>
	<polyline class="st4" points="183.2,205.7 185.7,205.7 185.7,208.2 183.2,208.2 183.2,205.7 	"/>
	<polyline class="st4" points="183.2,209.8 185.7,209.8 185.7,212.3 183.2,212.3 183.2,209.8 	"/>
	<polyline class="st4" points="183.2,214 185.7,214 185.7,216.5 183.2,216.5 183.2,214 	"/>
	<rect x="183.2" y="218.2" class="st4" width="2.5" height="2.5"/>
	<rect x="183.2" y="222.4" class="st4" width="2.5" height="2.5"/>
	<rect x="183.2" y="226.6" class="st4" width="2.5" height="2.5"/>
	<polyline class="st4" points="179.2,176.4 181.7,176.4 181.7,178.9 179.2,178.9 179.2,176.4 	"/>
	<polyline class="st4" points="179.2,180.6 181.7,180.6 181.7,183.1 179.2,183.1 179.2,180.6 	"/>
	<polyline class="st4" points="179.2,184.8 181.7,184.8 181.7,187.3 179.2,187.3 179.2,184.8 	"/>
	<polyline class="st4" points="179.2,188.9 181.7,188.9 181.7,191.4 179.2,191.4 179.2,188.9 	"/>
	<rect x="179.2" y="193.1" class="st4" width="2.5" height="2.5"/>
	<rect x="179.2" y="197.3" class="st4" width="2.5" height="2.5"/>
	<polyline class="st4" points="179.2,201.5 181.7,201.5 181.7,204 179.2,204 179.2,201.5 	"/>
	<polyline class="st4" points="179.2,205.7 181.7,205.7 181.7,208.2 179.2,208.2 179.2,205.7 	"/>
	<polyline class="st4" points="179.2,209.8 181.7,209.8 181.7,212.3 179.2,212.3 179.2,209.8 	"/>
	<polyline class="st4" points="179.2,214 181.7,214 181.7,216.5 179.2,216.5 179.2,214 	"/>
	<rect x="179.2" y="218.2" class="st4" width="2.5" height="2.5"/>
	<rect x="179.2" y="222.4" class="st4" width="2.5" height="2.5"/>
	<rect x="410.3" y="175.2" class="st4" width="2.5" height="2.5"/>
	<rect x="410.3" y="179.3" class="st4" width="2.5" height="2.5"/>
	<rect x="410.3" y="183.5" class="st4" width="2.5" height="2.5"/>
	<rect x="410.3" y="187.7" class="st4" width="2.5" height="2.5"/>
	<rect x="410.3" y="191.9" class="st4" width="2.5" height="2.5"/>
	<rect x="410.3" y="196.1" class="st4" width="2.5" height="2.5"/>
	<rect x="410.3" y="200.2" class="st4" width="2.5" height="2.5"/>
	<rect x="410.3" y="204.4" class="st4" width="2.5" height="2.5"/>
	<rect x="410.3" y="208.6" class="st4" width="2.5" height="2.5"/>
	<rect x="410.3" y="212.8" class="st4" width="2.5" height="2.5"/>
	<rect x="410.3" y="217" class="st4" width="2.5" height="2.5"/>
	<rect x="410.3" y="221.1" class="st4" width="2.5" height="2.5"/>
	<rect x="410.3" y="225.3" class="st4" width="2.5" height="2.5"/>
	<rect x="410.3" y="229.5" class="st4" width="2.5" height="2.5"/>
	<rect x="410.3" y="233.7" class="st4" width="2.5" height="2.5"/>
	<rect x="410.3" y="237.8" class="st4" width="2.5" height="2.5"/>
	<rect x="410.3" y="242" class="st4" width="2.5" height="2.5"/>
	<rect x="410.3" y="250.4" class="st4" width="2.5" height="2.5"/>
	<rect x="410.3" y="254.6" class="st4" width="2.5" height="2.5"/>
	<rect x="410.3" y="258.7" class="st4" width="2.5" height="2.5"/>
	<rect x="410.3" y="262.9" class="st4" width="2.5" height="2.5"/>
	<rect x="410.3" y="267.1" class="st4" width="2.5" height="2.5"/>
	<rect x="406.3" y="175.2" class="st4" width="2.5" height="2.5"/>
	<rect x="406.3" y="179.3" class="st4" width="2.5" height="2.5"/>
	<rect x="406.3" y="183.5" class="st4" width="2.5" height="2.5"/>
	<rect x="406.3" y="187.7" class="st4" width="2.5" height="2.5"/>
	<rect x="406.3" y="191.9" class="st4" width="2.5" height="2.5"/>
	<rect x="406.3" y="196.1" class="st4" width="2.5" height="2.5"/>
	<rect x="406.3" y="200.2" class="st4" width="2.5" height="2.5"/>
	<rect x="406.3" y="204.4" class="st4" width="2.5" height="2.5"/>
	<rect x="406.3" y="208.6" class="st4" width="2.5" height="2.5"/>
	<rect x="406.3" y="212.8" class="st4" width="2.5" height="2.5"/>
	<rect x="406.3" y="217" class="st4" width="2.5" height="2.5"/>
	<rect x="406.3" y="221.1" class="st4" width="2.5" height="2.5"/>
	<rect x="406.3" y="225.3" class="st4" width="2.5" height="2.5"/>
	<rect x="406.3" y="229.5" class="st4" width="2.5" height="2.5"/>
	<rect x="406.3" y="233.7" class="st4" width="2.5" height="2.5"/>
	<rect x="406.3" y="237.8" class="st4" width="2.5" height="2.5"/>
	<rect x="406.3" y="262.9" class="st4" width="2.5" height="2.5"/>
	<rect x="406.3" y="267.1" class="st4" width="2.5" height="2.5"/>
	<rect x="402.4" y="175.2" class="st4" width="2.5" height="2.5"/>
	<rect x="402.4" y="179.3" class="st4" width="2.5" height="2.5"/>
	<rect x="402.4" y="183.5" class="st4" width="2.5" height="2.5"/>
	<rect x="402.4" y="187.7" class="st4" width="2.5" height="2.5"/>
	<rect x="402.4" y="191.9" class="st4" width="2.5" height="2.5"/>
	<rect x="402.4" y="196.1" class="st4" width="2.5" height="2.5"/>
	<rect x="402.4" y="200.2" class="st4" width="2.5" height="2.5"/>
	<rect x="402.4" y="204.4" class="st4" width="2.5" height="2.5"/>
	<rect x="402.4" y="208.6" class="st4" width="2.5" height="2.5"/>
	<rect x="402.4" y="212.8" class="st4" width="2.5" height="2.5"/>
	<rect x="402.4" y="217" class="st4" width="2.5" height="2.5"/>
	<rect x="402.4" y="221.1" class="st4" width="2.5" height="2.5"/>
	<rect x="402.4" y="225.3" class="st4" width="2.5" height="2.5"/>
	<rect x="402.4" y="229.5" class="st4" width="2.5" height="2.5"/>
	<rect x="402.4" y="233.7" class="st4" width="2.5" height="2.5"/>
	<rect x="402.4" y="237.8" class="st4" width="2.5" height="2.5"/>
	<rect x="402.4" y="246.2" class="st4" width="2.5" height="2.5"/>
	<rect x="402.4" y="250.4" class="st4" width="2.5" height="2.5"/>
	<rect x="402.4" y="254.6" class="st4" width="2.5" height="2.5"/>
	<rect x="402.4" y="258.7" class="st4" width="2.5" height="2.5"/>
	<rect x="402.4" y="267.1" class="st4" width="2.5" height="2.5"/>
	<rect x="333.3" y="204.4" class="st4" width="2.5" height="2.5"/>
	<polyline class="st4" points="333.3,208.6 335.8,208.6 335.8,211.1 333.3,211.1 333.3,208.6 	"/>
	<polyline class="st4" points="333.3,212.8 335.8,212.8 335.8,215.3 333.3,215.3 333.3,212.8 	"/>
	<polyline class="st4" points="333.3,217 335.8,217 335.8,219.4 333.3,219.4 333.3,217 	"/>
	<polyline class="st4" points="333.3,221.1 335.8,221.1 335.8,223.6 333.3,223.6 333.3,221.1 	"/>
	<polyline class="st4" points="333.3,225.3 335.8,225.3 335.8,227.8 333.3,227.8 333.3,225.3 	"/>
	<polyline class="st4" points="333.3,229.5 335.8,229.5 335.8,232 333.3,232 333.3,229.5 	"/>
	<polyline class="st4" points="333.3,233.7 335.8,233.7 335.8,236.2 333.3,236.2 333.3,233.7 	"/>
	<polyline class="st4" points="333.3,237.8 335.8,237.8 335.8,240.3 333.3,240.3 333.3,237.8 	"/>
	<polyline class="st4" points="333.3,242 335.8,242 335.8,244.5 333.3,244.5 333.3,242 	"/>
	<polyline class="st4" points="333.3,246.2 335.8,246.2 335.8,248.7 333.3,248.7 333.3,246.2 	"/>
	<polyline class="st4" points="333.3,250.4 335.8,250.4 335.8,252.9 333.3,252.9 333.3,250.4 	"/>
	<polyline class="st4" points="333.3,254.6 335.8,254.6 335.8,257.1 333.3,257.1 333.3,254.6 	"/>
	<polyline class="st4" points="333.3,262.9 335.8,262.9 335.8,265.4 333.3,265.4 333.3,262.9 	"/>
	<rect x="333.3" y="267.1" class="st4" width="2.5" height="2.5"/>
	<polyline class="st4" points="333.3,271.3 335.8,271.3 335.8,273.8 333.3,273.8 333.3,271.3 	"/>
	<polyline class="st4" points="333.3,275.5 335.8,275.5 335.8,277.9 333.3,277.9 333.3,275.5 	"/>
	<rect x="333.3" y="283.8" class="st4" width="2.5" height="2.5"/>
	<rect x="333.3" y="288" class="st4" width="2.5" height="2.5"/>
	<rect x="333.3" y="292.2" class="st4" width="2.5" height="2.5"/>
	<rect x="329.4" y="204.4" class="st4" width="2.5" height="2.5"/>
	<polyline class="st4" points="329.4,208.6 331.9,208.6 331.9,211.1 329.4,211.1 329.4,208.6 	"/>
	<polyline class="st4" points="329.4,212.8 331.9,212.8 331.9,215.3 329.4,215.3 329.4,212.8 	"/>
	<polyline class="st4" points="329.4,217 331.9,217 331.9,219.4 329.4,219.4 329.4,217 	"/>
	<polyline class="st4" points="329.4,221.1 331.9,221.1 331.9,223.6 329.4,223.6 329.4,221.1 	"/>
	<polyline class="st4" points="329.4,225.3 331.9,225.3 331.9,227.8 329.4,227.8 329.4,225.3 	"/>
	<polyline class="st4" points="329.4,229.5 331.9,229.5 331.9,232 329.4,232 329.4,229.5 	"/>
	<polyline class="st4" points="329.4,233.7 331.9,233.7 331.9,236.2 329.4,236.2 329.4,233.7 	"/>
	<polyline class="st4" points="329.4,237.8 331.9,237.8 331.9,240.3 329.4,240.3 329.4,237.8 	"/>
	<polyline class="st4" points="329.4,242 331.9,242 331.9,244.5 329.4,244.5 329.4,242 	"/>
	<polyline class="st4" points="329.4,246.2 331.9,246.2 331.9,248.7 329.4,248.7 329.4,246.2 	"/>
	<polyline class="st4" points="329.4,250.4 331.9,250.4 331.9,252.9 329.4,252.9 329.4,250.4 	"/>
	<polyline class="st4" points="329.4,254.6 331.9,254.6 331.9,257.1 329.4,257.1 329.4,254.6 	"/>
	<polyline class="st4" points="329.4,267.1 331.9,267.1 331.9,269.6 329.4,269.6 329.4,267.1 	"/>
	<polyline class="st4" points="329.4,271.3 331.9,271.3 331.9,273.8 329.4,273.8 329.4,271.3 	"/>
	<rect x="329.4" y="279.6" class="st4" width="2.5" height="2.5"/>
	<rect x="329.4" y="283.8" class="st4" width="2.5" height="2.5"/>
	<rect x="329.4" y="288" class="st4" width="2.5" height="2.5"/>
	<rect x="329.4" y="292.2" class="st4" width="2.5" height="2.5"/>
	<rect x="325.4" y="204.4" class="st4" width="2.5" height="2.5"/>
	<polyline class="st4" points="325.4,208.6 327.9,208.6 327.9,211.1 325.4,211.1 325.4,208.6 	"/>
	<polyline class="st4" points="325.4,212.8 327.9,212.8 327.9,215.3 325.4,215.3 325.4,212.8 	"/>
	<polyline class="st4" points="325.4,217 327.9,217 327.9,219.4 325.4,219.4 325.4,217 	"/>
	<polyline class="st4" points="325.4,221.1 327.9,221.1 327.9,223.6 325.4,223.6 325.4,221.1 	"/>
	<polyline class="st4" points="325.4,225.3 327.9,225.3 327.9,227.8 325.4,227.8 325.4,225.3 	"/>
	<polyline class="st4" points="325.4,229.5 327.9,229.5 327.9,232 325.4,232 325.4,229.5 	"/>
	<polyline class="st4" points="325.4,233.7 327.9,233.7 327.9,236.2 325.4,236.2 325.4,233.7 	"/>
	<polyline class="st4" points="325.4,237.8 327.9,237.8 327.9,240.3 325.4,240.3 325.4,237.8 	"/>
	<polyline class="st4" points="325.4,242 327.9,242 327.9,244.5 325.4,244.5 325.4,242 	"/>
	<polyline class="st4" points="325.4,246.2 327.9,246.2 327.9,248.7 325.4,248.7 325.4,246.2 	"/>
	<polyline class="st4" points="325.4,250.4 327.9,250.4 327.9,252.9 325.4,252.9 325.4,250.4 	"/>
	<polyline class="st4" points="325.4,254.6 327.9,254.6 327.9,257.1 325.4,257.1 325.4,254.6 	"/>
	<polyline class="st4" points="325.4,258.7 327.9,258.7 327.9,261.2 325.4,261.2 325.4,258.7 	"/>
	<polyline class="st4" points="325.4,267.1 327.9,267.1 327.9,269.6 325.4,269.6 325.4,267.1 	"/>
	<polyline class="st4" points="325.4,275.5 327.9,275.5 327.9,277.9 325.4,277.9 325.4,275.5 	"/>
	<rect x="325.4" y="279.6" class="st4" width="2.5" height="2.5"/>
	<rect x="325.4" y="283.8" class="st4" width="2.5" height="2.5"/>
	<rect x="325.4" y="288" class="st4" width="2.5" height="2.5"/>
	<rect x="325.4" y="292.2" class="st4" width="2.5" height="2.5"/>
	<rect x="349.5" y="228.2" class="st4" width="2.5" height="2.5"/>
	<rect x="349.5" y="232.4" class="st4" width="2.5" height="2.5"/>
	<rect x="349.5" y="236.6" class="st4" width="2.5" height="2.5"/>
	<rect x="349.5" y="240.8" class="st4" width="2.5" height="2.5"/>
	<rect x="349.5" y="245" class="st4" width="2.5" height="2.5"/>
	<rect x="349.5" y="249.1" class="st4" width="2.5" height="2.5"/>
	<rect x="349.5" y="261.7" class="st4" width="2.5" height="2.5"/>
	<rect x="349.5" y="265.9" class="st4" width="2.5" height="2.5"/>
	<rect x="349.5" y="270" class="st4" width="2.5" height="2.5"/>
	<rect x="349.5" y="274.2" class="st4" width="2.5" height="2.5"/>
	<rect x="349.5" y="278.4" class="st4" width="2.5" height="2.5"/>
	<rect x="349.5" y="282.6" class="st4" width="2.5" height="2.5"/>
	<rect x="349.5" y="286.7" class="st4" width="2.5" height="2.5"/>
	<rect x="345.5" y="228.2" class="st4" width="2.5" height="2.5"/>
	<rect x="345.5" y="232.4" class="st4" width="2.5" height="2.5"/>
	<rect x="345.5" y="236.6" class="st4" width="2.5" height="2.5"/>
	<rect x="345.5" y="240.8" class="st4" width="2.5" height="2.5"/>
	<rect x="345.5" y="245" class="st4" width="2.5" height="2.5"/>
	<rect x="345.5" y="249.1" class="st4" width="2.5" height="2.5"/>
	<rect x="345.5" y="261.7" class="st4" width="2.5" height="2.5"/>
	<rect x="345.5" y="265.9" class="st4" width="2.5" height="2.5"/>
	<rect x="345.5" y="270" class="st4" width="2.5" height="2.5"/>
	<rect x="345.5" y="274.2" class="st4" width="2.5" height="2.5"/>
	<rect x="345.5" y="278.4" class="st4" width="2.5" height="2.5"/>
	<rect x="345.5" y="282.6" class="st4" width="2.5" height="2.5"/>
	<rect x="345.5" y="290.9" class="st4" width="2.5" height="2.5"/>
	<polyline class="st4" points="214,209.8 216.5,209.8 216.5,212.3 214,212.3 214,209.8 	"/>
	<polyline class="st4" points="214,214 216.5,214 216.5,216.5 214,216.5 214,214 	"/>
	<polyline class="st4" points="214,218.2 216.5,218.2 216.5,220.7 214,220.7 214,218.2 	"/>
	<polyline class="st4" points="214,222.4 216.5,222.4 216.5,224.9 214,224.9 214,222.4 	"/>
	<polyline class="st4" points="214,226.6 216.5,226.6 216.5,229 214,229 214,226.6 	"/>
	<polyline class="st4" points="214,230.7 216.5,230.7 216.5,233.2 214,233.2 214,230.7 	"/>
	<polyline class="st4" points="214,234.9 216.5,234.9 216.5,237.4 214,237.4 214,234.9 	"/>
	<polyline class="st4" points="214,239.1 216.5,239.1 216.5,241.6 214,241.6 214,239.1 	"/>
	<polyline class="st4" points="214,243.3 216.5,243.3 216.5,245.8 214,245.8 214,243.3 	"/>
	<polyline class="st4" points="214,247.5 216.5,247.5 216.5,249.9 214,249.9 214,247.5 	"/>
	<polyline class="st4" points="214,251.6 216.5,251.6 216.5,254.1 214,254.1 214,251.6 	"/>
	<polyline class="st4" points="214,260 216.5,260 216.5,262.5 214,262.5 214,260 	"/>
	<polyline class="st4" points="214,264.2 216.5,264.2 216.5,266.7 214,266.7 214,264.2 	"/>
	<polyline class="st4" points="214,268.3 216.5,268.3 216.5,270.8 214,270.8 214,268.3 	"/>
	<polyline class="st4" points="214,272.5 216.5,272.5 216.5,275 214,275 214,272.5 	"/>
	<polyline class="st4" points="214,276.7 216.5,276.7 216.5,279.2 214,279.2 214,276.7 	"/>
	<polyline class="st4" points="214,280.9 216.5,280.9 216.5,283.4 214,283.4 214,280.9 	"/>
	<polyline class="st4" points="214,285.1 216.5,285.1 216.5,287.6 214,287.6 214,285.1 	"/>
	<polyline class="st4" points="214,289.2 216.5,289.2 216.5,291.7 214,291.7 214,289.2 	"/>
	<polyline class="st4" points="210,209.8 212.5,209.8 212.5,212.3 210,212.3 210,209.8 	"/>
	<polyline class="st4" points="210,214 212.5,214 212.5,216.5 210,216.5 210,214 	"/>
	<polyline class="st4" points="210,218.2 212.5,218.2 212.5,220.7 210,220.7 210,218.2 	"/>
	<polyline class="st4" points="210,222.4 212.5,222.4 212.5,224.9 210,224.9 210,222.4 	"/>
	<polyline class="st4" points="210,226.6 212.5,226.6 212.5,229 210,229 210,226.6 	"/>
	<polyline class="st4" points="210,230.7 212.5,230.7 212.5,233.2 210,233.2 210,230.7 	"/>
	<polyline class="st4" points="210,234.9 212.5,234.9 212.5,237.4 210,237.4 210,234.9 	"/>
	<polyline class="st4" points="210,239.1 212.5,239.1 212.5,241.6 210,241.6 210,239.1 	"/>
	<polyline class="st4" points="210,243.3 212.5,243.3 212.5,245.8 210,245.8 210,243.3 	"/>
	<polyline class="st4" points="210,247.5 212.5,247.5 212.5,249.9 210,249.9 210,247.5 	"/>
	<polyline class="st4" points="210,251.6 212.5,251.6 212.5,254.1 210,254.1 210,251.6 	"/>
	<polyline class="st4" points="210,255.8 212.5,255.8 212.5,258.3 210,258.3 210,255.8 	"/>
	<polyline class="st4" points="210,260 212.5,260 212.5,262.5 210,262.5 210,260 	"/>
	<polyline class="st4" points="210,264.2 212.5,264.2 212.5,266.7 210,266.7 210,264.2 	"/>
	<polyline class="st4" points="210,268.3 212.5,268.3 212.5,270.8 210,270.8 210,268.3 	"/>
	<polyline class="st4" points="210,272.5 212.5,272.5 212.5,275 210,275 210,272.5 	"/>
	<polyline class="st4" points="210,276.7 212.5,276.7 212.5,279.2 210,279.2 210,276.7 	"/>
	<polyline class="st4" points="210,280.9 212.5,280.9 212.5,283.4 210,283.4 210,280.9 	"/>
	<polyline class="st4" points="210,285.1 212.5,285.1 212.5,287.6 210,287.6 210,285.1 	"/>
	<polyline class="st4" points="210,289.2 212.5,289.2 212.5,291.7 210,291.7 210,289.2 	"/>
	<rect x="233.5" y="226.1" class="st4" width="2.5" height="2.5"/>
	<polyline class="st4" points="233.5,230.3 236,230.3 236,232.8 233.5,232.8 233.5,230.3 	"/>
	<polyline class="st4" points="233.5,234.5 236,234.5 236,237 233.5,237 233.5,234.5 	"/>
	<polyline class="st4" points="233.5,238.7 236,238.7 236,241.1 233.5,241.1 233.5,238.7 	"/>
	<polyline class="st4" points="233.5,242.8 236,242.8 236,245.3 233.5,245.3 233.5,242.8 	"/>
	<polyline class="st4" points="233.5,247 236,247 236,249.5 233.5,249.5 233.5,247 	"/>
	<polyline class="st4" points="233.5,251.2 236,251.2 236,253.7 233.5,253.7 233.5,251.2 	"/>
	<polyline class="st4" points="233.5,255.4 236,255.4 236,257.9 233.5,257.9 233.5,255.4 	"/>
	<polyline class="st4" points="233.5,259.5 236,259.5 236,262 233.5,262 233.5,259.5 	"/>
	<polyline class="st4" points="233.5,263.7 236,263.7 236,266.2 233.5,266.2 233.5,263.7 	"/>
	<rect x="229.5" y="226.1" class="st4" width="2.5" height="2.5"/>
	<polyline class="st4" points="229.5,230.3 232,230.3 232,232.8 229.5,232.8 229.5,230.3 	"/>
	<polyline class="st4" points="229.5,234.5 232,234.5 232,237 229.5,237 229.5,234.5 	"/>
	<polyline class="st4" points="229.5,238.7 232,238.7 232,241.1 229.5,241.1 229.5,238.7 	"/>
	<polyline class="st4" points="229.5,242.8 232,242.8 232,245.3 229.5,245.3 229.5,242.8 	"/>
	<polyline class="st4" points="229.5,247 232,247 232,249.5 229.5,249.5 229.5,247 	"/>
	<polyline class="st4" points="229.5,251.2 232,251.2 232,253.7 229.5,253.7 229.5,251.2 	"/>
	<polyline class="st4" points="229.5,255.4 232,255.4 232,257.9 229.5,257.9 229.5,255.4 	"/>
	<polyline class="st4" points="229.5,259.5 232,259.5 232,262 229.5,262 229.5,259.5 	"/>
	<polyline class="st1" points="251.4,67.5 255.6,67.5 255.6,300.6 251.4,300.6 251.4,67.5 	"/>
	<polyline class="st1" points="330.1,67.5 334.3,67.5 334.3,300.6 330.1,300.6 330.1,67.5 	"/>
	<polyline class="st1" points="408.8,67.5 413,67.5 413,300.6 408.8,300.6 408.8,67.5 	"/>
	<path class="st4" d="M115.5,277.9h25.8c2.4,0,4.4,2,4.4,4.4v49.8h-34.6v-49.8C111.1,279.9,113,277.9,115.5,277.9L115.5,277.9z"/>
	<rect x="111.1" y="285.3" class="st3" width="34.6" height="3.9"/>
	<path class="st1" d="M130.8,325.6h8.6c1.3,0,2.4,1.1,2.4,2.4v4.2h-13.4V328C128.4,326.7,129.4,325.6,130.8,325.6L130.8,325.6z"/>
	<path class="st3" d="M141.8,332.2h-9.6c-0.9,0-1.5-0.7-1.5-1.5c0-0.8,0.7-1.5,1.5-1.5h9.6c0.8,0,1.5,0.7,1.5,1.5
		C143.3,331.5,142.6,332.2,141.8,332.2z"/>
	<circle class="st1" cx="290" cy="33.7" r="23.5"/>
	<circle class="st4" cx="290" cy="33.7" r="20"/>
	<polyline class="st4" points="290.9,19.9 290.9,33.9 300.2,28.7 	"/>
	<path class="st1" d="M290.9,34.9c-0.2,0-0.4,0-0.5-0.1c-0.3-0.2-0.5-0.5-0.5-0.9v-14c0-0.6,0.4-1,1-1s1,0.4,1,1v12.3l7.8-4.4
		c0.5-0.3,1.1-0.1,1.4,0.4c0.3,0.5,0.1,1.1-0.4,1.4l-9.3,5.2C291.3,34.9,291.1,34.9,290.9,34.9z"/>
	<path class="st1" d="M64.6,263.5c-1.8-3-4.8-0.4-4.8-0.4c0.4-5.7-4.8-9.6-4.8-9.6s6.1,0,6.9-5.8c0.6-4.4-0.9-3.9-2.9-3.4
		c-0.6,0.2-1.3,0.3-2,0.3c-2.8,0-5.7,8.1-2,12.7c3.7,4.6,2.7,12.4-5.8,19.9c-2,1.9-3.5,4.3-4.4,6.9c0.6-6.9,1-16.6-1-23.1
		c-3.4-11,3.1-14,5-19.5c1.9-5.5-5-10.2-5-10.2s6.5-3,3.3-6.3c-3.2-3.4-9.7-2.9-9.7,1.5c0,4.4,4.5,6.1,4.5,6.1s5.1,5.3,5.1,8
		c0,2.7-5.1,8.7-5.1,8.7s2.3-5.1-2.3-5.3c-4.7-0.2-6.1,5.9-4.2,8.7c1.9,2.7,5.1,0.4,5.1,0.4c0.2,3.2,0.7,6.4,1.4,9.5
		c0.5,1.6,0.3,7.8-0.1,14.3c-0.9-2.3-2.3-4.4-4.1-6.1c-8.5-7.5-9.4-15.3-5.8-19.9c3.7-4.6,0.8-12.7-2-12.6c-0.7,0-1.4-0.1-2-0.3
		c-2-0.5-3.5-1-2.9,3.4c0.8,5.8,6.9,5.8,6.9,5.8s-5.2,3.9-4.8,9.6c0,0-3-2.6-4.8,0.4c-3.2,5.3,4.2,8.6,5.5,6c0,0,15.8,11.2,12,27.3
		l0.9,1.3c-0.1,1.3-0.2,2.1-0.2,2.1l1.2-0.5l1.4,2.1c0,2.3,0.1,4.7,0.4,7l3.8-5.6c-3.8-16.1,12-27.3,12-27.3
		C60.4,272.1,67.8,268.8,64.6,263.5"/>
	<path class="st1" d="M41.9,222.8c-2.4,0-4.4,1.2-4.4,3.7c0,4.4,4.5,6.1,4.5,6.1s5.1,5.3,5.1,8l0,0l0,0c0,2.7-5.1,8.7-5.1,8.7l0,0
		l0,0c0,0,0.6-1.3,0.6-2.6c0-1.3-0.6-2.6-2.9-2.7c-0.1,0-0.2,0-0.2,0c-3.2,0-4.8,3-4.8,5.7c0,1.1,0.3,2.2,0.8,2.9
		c0.7,1,1.6,1.3,2.4,1.3c1.4,0,2.7-0.9,2.7-0.9c0.2,3.2,0.7,6.4,1.4,9.5c0.2,0.6,0.3,2,0.3,3.9c0,2.7-0.2,6.5-0.4,10.4
		c-0.9-2.3-2.3-4.4-4.1-6.1c-5.5-4.8-7.8-9.8-7.8-13.9c0-2.3,0.7-4.3,2-5.9c1.2-1.5,1.7-3.5,1.7-5.4c0-3.7-1.9-7.3-3.7-7.3
		c0,0,0,0,0,0c0,0,0,0-0.1,0c-0.7,0-1.3-0.1-1.9-0.3c-0.6-0.1-1.2-0.3-1.7-0.3c-0.8,0-1.4,0.4-1.4,2c0,0.5,0,1,0.1,1.7
		c0.8,5.8,6.9,5.8,6.9,5.8l0,0l0,0c0,0-4.8,3.6-4.8,8.9c0,0.2,0,0.4,0,0.7l0,0l0,0c0,0-1.2-1-2.5-1c-0.8,0-1.6,0.3-2.2,1.4
		c-0.6,0.9-0.8,1.8-0.8,2.6c0,2.6,2.7,4.3,4.6,4.3c0.8,0,1.4-0.3,1.7-0.9c0,0,12.6,8.9,12.6,22.3c0,1.6-0.2,3.3-0.6,5l0.9,1.3l0,0
		c-0.1,1.3-0.2,2.1-0.2,2.1l1.2-0.5l1.4,2.1l0,0c0,0.3,0,0.7,0,1c0,2,0.1,4,0.4,6l3.8-5.6c-0.4-1.7-0.6-3.4-0.6-5
		c0-13.4,12.6-22.3,12.6-22.3c0.3,0.6,0.9,0.9,1.7,0.9c1.9,0,4.5-1.7,4.5-4.3c0-0.8-0.2-1.6-0.8-2.6c-0.7-1.1-1.5-1.4-2.2-1.4
		c-1.3,0-2.5,1.1-2.5,1.1l0,0l0,0c0-0.2,0-0.4,0-0.7c0-5.3-4.8-8.9-4.8-8.9l0,0l0,0c0,0,6.1,0,6.9-5.8c0.1-0.7,0.1-1.2,0.1-1.7
		c0-1.6-0.5-2-1.4-2c-0.5,0-1.1,0.1-1.7,0.3c-0.6,0.1-1.3,0.3-1.9,0.3c0,0,0,0-0.1,0c0,0,0,0,0,0c-1.8,0-3.7,3.5-3.7,7.3
		c0,1.9,0.5,3.9,1.7,5.4c1.3,1.6,2,3.7,2,5.9c0,4.1-2.4,9.1-7.8,13.9c-2,1.9-3.5,4.3-4.4,6.9l0,0l0,0c0.3-3,0.5-6.5,0.5-10.1
		c0-4.6-0.4-9.3-1.5-13c-0.7-2.2-1-4.1-1-5.8c0-6.5,4.5-9.3,6-13.7c0.2-0.7,0.3-1.3,0.3-1.9c0-4.6-5.3-8.2-5.3-8.2l0,0l0,0
		c0,0,4.2-1.9,4.2-4.4c0-0.6-0.3-1.3-0.9-1.9C45.8,223.5,43.7,222.8,41.9,222.8"/>
	<polygon class="st3" points="61.5,332.2 25.3,332.2 21.4,292.6 65.4,292.6 	"/>
	<rect x="19.5" y="288.2" class="st4" width="47.8" height="8.7"/>
	<path class="st2" d="M217.7,354.8c107.1,0,193.9,5.1,193.9,11.3c0,6.3-86.8,11.3-193.9,11.3c-107.1,0-193.9-5.1-193.9-11.3
		C23.8,359.9,110.6,354.8,217.7,354.8"/>
	<path class="st5" d="M378.1,334.6c0.1-1,3.6-25.2-3.4-33.5c-1.4-1.8-3.5-2.8-5.8-2.9c-14.2-0.3-16.1,11-16.1,11.2l1.7,0.3
		c0.1-0.4,1.7-10,14.4-9.7c1.8,0,3.5,0.9,4.6,2.3c6.5,7.8,3,31.9,3,32.2L378.1,334.6"/>
	<path class="st5" d="M379,333.5l1.7-0.1c0-0.2-0.6-22.3,10.3-26.8c10.6-4.5,15.4,4.7,15.6,5.1l1.5-0.8c0-0.1-5.7-11-17.8-5.9
		C378.4,310.1,378.9,332.5,379,333.5"/>
	<path class="st5" d="M378.9,335.2c0-0.3,0.1-35.2,6.9-45.4c6.5-9.8,17-5.2,17.5-5l0.7-1.5c-0.1,0-12.3-5.4-19.6,5.6
		c-7.1,10.6-7.2,44.9-7.2,46.3L378.9,335.2"/>
	<path class="st5" d="M366.9,299.1c0,0,6.2,2.3,4.3,7.7c-1.8,5.4-21.4,14.2-21.4,14.2s-8.2-7.5-0.7-19.7
		C356.7,289,366.7,295.2,366.9,299.1"/>
	<path class="st5" d="M386.1,288c0,0-4.4-0.5-4-3.1c0.4-2.7,17.1-9.5,26.9,1.6c0,0-6.3,10.8-15.4,11
		C384.5,297.6,386.1,288,386.1,288"/>
	<path class="st5" d="M390.7,305.9c0,0-3-2.4,0.2-3.6c3.2-1.2,19.3-0.9,19.5,15c0,0-18.7,3.1-21-2.9
		C387,308.3,390.7,305.9,390.7,305.9"/>
	<path class="st6" d="M359.6,294.1c-3.2,0-7,1.8-10.4,7.2c-2.4,3.8-3.2,7.2-3.2,10c0,6.1,3.8,9.7,3.8,9.7s19.5-8.9,21.4-14.2
		c0.2-0.7,0.3-1.3,0.3-1.9c0-2.4-1.7-4-3.1-4.9c-0.9-0.6-1.6-0.8-1.6-0.8c0-0.3-0.1-0.5-0.2-0.8C366,296.3,363.2,294.1,359.6,294.1"
		/>
	<path class="st6" d="M394.9,280.3c-6.7,0-12.5,3-12.8,4.6c0,0.1,0,0.2,0,0.3c0,2.4,4,2.8,4,2.8l0,0l0,0c0,0-0.1,0.7-0.1,1.7
		c0,2.7,0.9,7.8,7.4,7.8c0.1,0,0.1,0,0.2,0c9.1-0.2,15.4-11,15.4-11c-0.1-0.1-0.2-0.2-0.2-0.3C404.7,281.8,399.6,280.3,394.9,280.3"
		/>
	<path class="st6" d="M394.2,301.8c-1.5,0-2.7,0.2-3.3,0.4c-1.1,0.4-1.5,1-1.5,1.6c0,1,1.3,2.1,1.3,2.1l0,0l0,0c0,0-2.1,1.4-2.1,4.6
		c0,1.1,0.2,2.3,0.8,3.8c1.1,3,6.3,3.7,11.2,3.7c5,0,9.8-0.8,9.8-0.8C410.2,304.6,400,301.8,394.2,301.8"/>
	<polyline class="st5" points="363.6,367 392.6,367 395.7,335.2 360.5,335.2 363.6,367 	"/>
	<polyline class="st7" points="395.3,338.7 360.8,338.7 363.6,367 392.6,367 395.3,338.7 	"/>
	<polyline class="st5" points="358.9,331.7 397.2,331.7 397.2,338.7 358.9,338.7 358.9,331.7 	"/>
	<polyline class="st8" points="397.2,331.7 379,331.7 377.3,331.7 358.9,331.7 358.9,338.7 397.2,338.7 397.2,331.7 	"/>
	<path class="st9" d="M330.8,344.2l-28.8-2.8v-40.5h-11.4v40.5l-28.9,2.8c-2.9,0.3-5.1,2.7-5.1,5.6v4.3h79.3v-4.3
		C335.9,346.9,333.7,344.5,330.8,344.2"/>
	<path class="st10" d="M274,343l-10.4,1l0.9,6.5l-6.6,1.7l-0.9-4.5c-0.2,0.6-0.4,1.3-0.4,2v4.3h18.2L274,343 M290.6,309v32.4
		l-10.1,1l0.7,11.8h54.8v-4.3c0-2.9-2.2-5.3-5.1-5.6l-28.8-2.8V309c-0.6,0.4-1.4,0.6-2.2,0.6h-7.1
		C291.9,309.6,291.2,309.4,290.6,309"/>
	<path class="st9" d="M259.6,352c4.1,0,7.5,3.3,7.5,7.5c0,4.1-3.3,7.5-7.5,7.5c-4.1,0-7.5-3.3-7.5-7.5
		C252.1,355.4,255.5,352,259.6,352z"/>
	<path class="st9" d="M332.8,352c4.1,0,7.5,3.3,7.5,7.5c0,4.1-3.3,7.5-7.5,7.5c-4.1,0-7.5-3.3-7.5-7.5
		C325.3,355.4,328.7,352,332.8,352z"/>
	<path class="st9" d="M288.6,273.5h15.4v31.9c0,2.3-1.8,4.1-4.1,4.1h-7.1c-2.3,0-4.1-1.8-4.1-4.1V273.5"/>
	<path class="st11" d="M303.9,277.7h-15.4v27.8c0,2.3,1.8,4.1,4.1,4.1h7.1c2.3,0,4.1-1.8,4.1-4.1V277.7"/>
	<path class="st9" d="M323.6,210.2c0,0,2.2,54-12.9,63.3h17.2c0,0,13.3-18.4,9.5-63.3H323.6"/>
	<path class="st11" d="M338,221.2h-14.4c-0.2,12.6-1.4,33.1-6.9,44.8h14.9c2.9-7.4,6.4-20.4,6.4-40.2
		C338.1,224.3,338.1,222.8,338,221.2"/>
	<path class="st9" d="M256.8,266h76.9v6.7c0,2.8-2.2,5-5,5h-66.9c-2.8,0-5-2.2-5-5V266"/>
	<path class="st9" d="M255.6,271.8h79.3c1.1,0,2,0.9,2,2v1.8c0,1.1-0.9,2-2,2h-79.3c-1.1,0-2-0.9-2-2v-1.8
		C253.6,272.7,254.5,271.8,255.6,271.8"/>
	<path class="st12" d="M268.9,271.8h-12c0.2,1.6,0.4,3.6,0.7,5.8h11.8L268.9,271.8 M334.9,271.8h-1.2h-57.4l0.3,5.8h58.3
		c1.1,0,2-0.9,2-2v-1.8C336.9,272.7,336,271.8,334.9,271.8"/>
	<path class="st9" d="M314.1,181.3h27.5c8.1,0,14.6,6.5,14.6,14.6v10.8c0,8.1-6.5,14.6-14.6,14.6h-27.5c-8.1,0-14.6-6.5-14.6-14.6
		v-10.8C299.5,187.8,306.1,181.3,314.1,181.3"/>
	<path class="st13" d="M230.7,137.2l-5.5-14.5c0,0,2.4-2.2,0.7-4.4c-1.6-2.2-11.7-8.4-13.6-7.3c-1.8,1.1-6,5.2-3.7,7.5
		c2.2,2.3,12,6.1,12,6.1l4.9,19L230.7,137.2"/>
	<path class="st5" d="M269,164.7c0,0-25-5.1-27.7-6.4c-2.7-1.2-12.7-30.7-12.7-30.7l-7.7,3.6c0,0,6.2,29.5,12.5,36.6
		c6.3,7,33.4,13,33.4,13L269,164.7"/>
	<path class="st14" d="M222.2,130.6l-1.3,0.6c0,0,6.2,29.6,12.5,36.6c2.9,3.2,10,6.1,16.9,8.4v0c-6.9-2.3-14-5.2-16.9-8.4
		c-6.3-7-12.5-36.6-12.5-36.6L222.2,130.6L222.2,130.6 M228.6,127.7l-1.3,0.6l0,0L228.6,127.7C228.6,127.7,228.6,127.7,228.6,127.7"
		/>
	<path class="st15" d="M250.4,176.2L250.4,176.2c0.3,0.1,0.7,0.2,1,0.3v0C251,176.5,250.7,176.3,250.4,176.2"/>
	<path class="st16" d="M251.4,176.6L251.4,176.6c0.1,0,0.2,0.1,0.2,0.1C251.5,176.6,251.5,176.6,251.4,176.6"/>
	<path class="st14" d="M255.6,161.8L255.6,161.8c5.5,1.2,10.9,2.3,12.8,2.7l0,0C266.4,164.1,261,163,255.6,161.8 M241.4,158.3
		L241.4,158.3c1,0.5,5.2,1.5,10,2.6v0C246.6,159.8,242.4,158.8,241.4,158.3L241.4,158.3"/>
	<path class="st16" d="M251.4,160.9L251.4,160.9c1.4,0.3,2.8,0.6,4.2,0.9v0C254.2,161.5,252.7,161.2,251.4,160.9"/>
	<polyline class="st17" points="227.3,128.3 222.2,130.6 222.2,130.7 227.3,128.3 227.3,128.3 	"/>
	<path class="st6" d="M261.1,179.4c2.5,0.7,4.4,1.1,5.3,1.3l0.1,0c0-0.1,0-0.3,0-0.4C265.3,180.1,263.4,179.8,261.1,179.4
		 M228.6,127.7l-1.3,0.6l-5.1,2.4l-1.3,0.6c0,0,6.2,29.5,12.5,36.6c2.9,3.2,9.9,6.1,16.9,8.4c0.3,0.1,0.7,0.2,1,0.3
		c0.1,0,0.2,0,0.2,0.1c1.4,0.4,2.8,0.9,4.1,1.2c0.2,0.1,0.4,0.1,0.6,0.2c2.5-3.9,8.2-6.3,10.4-7.1c0.3-2.4,0.8-4.6,1.6-6.5
		c-1.9-0.4-7.3-1.5-12.8-2.7c-1.4-0.3-2.8-0.6-4.2-0.9c-4.8-1.1-9-2.1-10-2.6l0,0C238.7,157.1,228.9,128.6,228.6,127.7"/>
	<polygon class="st5" points="228.7,127.1 230.3,130.1 220.4,133.6 220.8,129.8 	"/>
	<path class="st14" d="M256.3,178.1c-0.1,0.1-0.1,0.2-0.2,0.3c1.7,0.4,3.3,0.7,4.8,1C259.5,179,258,178.6,256.3,178.1"/>
	<path class="st6" d="M256.3,178.1C256.3,178.1,256.3,178.1,256.3,178.1c1.7,0.5,3.2,0.9,4.6,1.3c0.1,0,0.1,0,0.2,0
		C259.7,179,258.1,178.6,256.3,178.1"/>
	<path class="st18" d="M266.8,171c-2.3,0.8-8,3.2-10.4,7.1c1.7,0.5,3.4,0.9,4.8,1.3c2.3,0.4,4.2,0.7,5.3,0.9
		C266.3,177,266.4,173.9,266.8,171"/>
	<path class="st9" d="M304.2,144.3c0,0,1.5,13.8-3.7,17.2c-5.1,3.4-30.3-0.6-33.2-6.1c-2.9-5.6,7.9-20.7,7.9-20.7L304.2,144.3"/>
	<polyline class="st13" points="202.3,326.3 208.8,327.9 212.2,318.8 215.2,310.5 207.7,307.3 204.8,317.4 202.3,326.3 	"/>
	<polyline class="st17" points="205.8,314 204.8,317.4 210.4,318.4 210.4,315.6 205.8,314 	"/>
	<path class="st5" d="M205.5,312.6l9.1,3.4c0,0,24.3-60.8,29.3-61c2-0.1,11,3.5,22.1,7.1c17.1,5.5,38.9,11,46.6,3.1
		c12.8-13-5.7-44.3-5.7-44.3s-30.7-4.4-33,2.5c-0.6,2-1,4.1-1.3,6.2c-0.4,2.1-0.6,3.9-0.6,3.9c-0.9-0.2-31.8-8.2-43.9,0
		C215.8,241.9,205.5,312.6,205.5,312.6"/>
	<path class="st19" d="M210.2,285.7c-1.9,9.5-3.3,18-4.1,22.8l4.2,1.4L210.2,285.7 M245,229.9c-3.1,0-6.2,0.2-9,0.7
		c-0.9,0.2-1.7,0.4-2.5,0.6c-0.5,0.1-1,0.3-1.5,0.5c-0.9,0.3-1.7,0.7-2.5,1.1c-0.5,0.3-1,0.5-1.4,0.8c-3.8,2.6-7.4,11-10.5,21.4
		l-0.4,54.5c3.5-8.6,10-24,15.7-36.3c-1-4.1-1.6-7.3-1.6-9l0,0c0-0.1,0-0.1,0-0.2c0.3-10.2,12-13.2,12-13.2s10.5,6.1,24.9,11.3
		l-2.1-29.9c-2.9-0.6-6.5-1.2-10.5-1.7c-1.4-0.2-2.8-0.3-4.2-0.4C249.3,230,247.1,229.9,245,229.9 M306.9,220.9l-9.9,0.8v2.4h-1.6
		v-2.3l-18.6,1.4v1.7h-1.6v-1.6l-1.2,0.1l0,0c-0.1,0.5-0.3,1-0.4,1.4l0.3,5.2c7.3,2.4,16.1,7.3,16.1,7.3l-15.9-3.3l1.8,30.7
		c4.7,1.4,9.7,2.7,14.7,3.6l0,0l0,0l0,0l0,0c0,0,0,0,0,0c0,0-0.1,0-0.3,0c3.4,0.5,6.6,0.9,9.5,0.9c5.5,0,10.1-1.1,12.9-3.9
		c3.3-3.3,4.5-7.9,4.5-12.8C317.1,238.2,306.9,220.9,306.9,220.9L306.9,220.9"/>
	<polyline class="st13" points="257.9,352.2 264.5,350.6 263.2,341.1 262.1,332.5 254,333.3 256.1,343.3 257.9,352.2 	"/>
	<polyline class="st20" points="262.7,337.3 262.7,337.3 263.2,341.1 263.3,341.3 263.3,341.3 262.7,337.3 	"/>
	<polyline class="st17" points="262.7,337.3 255.1,338.6 256.1,343.5 263.3,341.3 263.2,341.1 262.7,337.3 	"/>
	<polyline class="st5" points="218.4,312.6 205.1,308.1 204.5,313.5 214.6,317.1 218.4,312.6 	"/>
	<path class="st5" d="M290.6,268.2c0,0-2.1,0-34.3-1.5c0,0,4.8,40.2,7.4,70.4l-9.6,1.6c0,0-23-64.5-22.8-74.8
		c0.3-10.2,12-13.2,12-13.2S266.3,264,290.6,268.2"/>
	<path class="st21" d="M275.9,264.7l0.2,3c12.3,0.5,14.2,0.6,14.5,0.6c0,0,0,0,0,0C285.5,267.4,280.6,266.1,275.9,264.7
		 M243.3,250.8c0,0-11.8,3-12,13.2c0,0.1,0,0.1,0,0.2c0,10.8,22.8,74.6,22.8,74.6l9.6-1.6c-1.8-20.4-4.6-45.5-6.2-59.5
		c-0.3-2.3-0.5-4.2-0.7-5.8l0,0c0-0.2-0.1-0.5-0.1-0.7c-0.3-2.8-0.5-4.3-0.5-4.3l0,0l0,0l0,0l0,0c4.7,0.2,8.8,0.4,12.3,0.6l-0.4-5.3
		C253.9,256.9,243.3,250.8,243.3,250.8"/>
	<polygon class="st5" points="265.1,334.2 251.9,335.8 254.5,340.9 265.2,339.6 	"/>
	<path class="st21" d="M273.8,230l0.2,3.9l15.9,3.3C290,237.3,281.1,232.4,273.8,230"/>
	<polyline class="st9" points="306.2,216.1 306.9,220.9 273.9,223.4 273,217.8 306.2,216.1 	"/>
	<polyline class="st22" points="306.2,216.1 297,216.6 297,221.7 306.9,220.9 306.2,216.1 	"/>
	<polyline class="st22" points="295.3,216.7 276.7,217.6 276.7,223.2 295.3,221.8 295.3,216.7 	"/>
	<polyline class="st22" points="275.1,217.7 273.1,217.8 273.2,218.7 273.9,223.4 275.1,223.3 275.1,217.7 	"/>
	<polyline class="st5" points="295.3,215.7 297,215.7 297,224 295.3,224 295.3,215.7 	"/>
	<rect x="280.9" y="217.5" class="st23" width="7.2" height="5.5"/>
	<polyline class="st5" points="275.1,216.6 276.7,216.6 276.7,224.9 275.1,224.9 275.1,216.6 	"/>
	<polyline class="st19" points="297,216.6 295.3,216.6 295.3,224 297,224 297,221.7 297,216.6 297,216.6 	"/>
	<polyline class="st19" points="276.7,217.6 275.1,217.7 275.1,224.9 276.7,224.9 276.7,223.2 276.7,217.6 276.7,217.6 	"/>
	<path class="st5" d="M268.4,164.2c6.2,1.7,12.6,2.4,19,2.1c10.6-0.5,23.2,4.6,23.2,4.6l-4.5,45.2l-33.1,1.7
		C273,217.8,261.9,180,268.4,164.2"/>
	<path class="st9" d="M273.8,138.7c0,0,1.9-21.9,20.2-14c23,10,4.7,36.7-6.5,31.3C276.2,150.5,273.8,138.7,273.8,138.7"/>
	<path class="st14" d="M282.6,166.3c-0.1,0-0.1,0-0.2,0C282.5,166.4,282.5,166.4,282.6,166.3C282.6,166.4,282.6,166.3,282.6,166.3"
		/>
	<path class="st6" d="M282.4,166.4c-1.2,0.2-2.4,0.6-3.5,1.2l0.5,12.4l4.1-5.8c0,0-1.5,13.7-0.6,21.2c0,0,0.8-13.4,2.6-21.2l1.5,2
		c0.1-0.5,0.2-0.9,0.2-1.4l-1.7-5.1l-1,0.3l-3.5-2c0,0,0.9-0.2,1.5-1.5C282.5,166.4,282.5,166.4,282.4,166.4"/>
	<path class="st13" d="M284.6,169.9l9.5-2.7c-5.8-4-2.9-13-2.9-13l-9.4,3.3c0.4,1.3,0.8,2.6,1,4c1,5.9-1.7,6.3-1.7,6.3L284.6,169.9"
		/>
	<path class="st17" d="M290.8,154.6C290.8,154.6,290.8,154.6,290.8,154.6c-2.3,2.3-5.2,3.8-8.7,3.9c0.3,1,0.5,2,0.7,3
		C286.5,160,289.7,156,290.8,154.6"/>
	<path class="st13" d="M287.9,129.3c-8.3-1.8-12,2-14.5,10.5c-3.1,10.5-2.4,18.7,8.5,18.7C296.7,158.5,301.7,132.4,287.9,129.3"/>
	<path class="st24" d="M278.9,140.5c-0.9,1.1-2,2.1-3.2,2.9c0.3,0.8,1.1,1.4,2,1.4L278.9,140.5z"/>
	<path class="st9" d="M284.2,141c-0.2,0.7,0.1,1.3,0.5,1.4s1-0.4,1.1-1s-0.1-1.3-0.5-1.4S284.3,140.3,284.2,141z"/>
	<path class="st9" d="M285.5,140l-1.3-0.9C284.1,139.1,284.6,140.5,285.5,140z"/>
	<path class="st9" d="M275.7,138.7c-0.2,0.7,0.1,1.3,0.5,1.4c0.5,0.1,1-0.3,1.1-1c0.1-0.6-0.1-1.3-0.5-1.4
		C276.4,137.6,275.9,138.1,275.7,138.7z"/>
	<path class="st9" d="M277,137.8l-1.4-0.9C275.7,136.9,276.1,138.3,277,137.8z"/>
	<path class="st9" d="M288.8,137.7c-0.1,0-0.3-0.1-0.3-0.2c-0.7-1-1.8-1.7-3-1.9c-0.2,0-0.3-0.2-0.3-0.4c0-0.2,0.2-0.3,0.4-0.3
		c1.5,0.1,2.8,1,3.6,2.3c0.1,0.2,0,0.4-0.2,0.5l0,0L288.8,137.7z"/>
	<path class="st9" d="M279.5,133.9l-0.2-0.1c-1-0.5-2.2-0.5-3.1,0c-0.2,0.1-0.4,0-0.5-0.2l0,0c-0.1-0.2,0-0.4,0.2-0.5l0,0
		c1.2-0.6,2.6-0.5,3.8,0.1c0.2,0.1,0.2,0.3,0.1,0.5l0,0C279.8,133.8,279.7,133.9,279.5,133.9z"/>
	<path class="st9" d="M293.9,145.4c0,0-2.4-7.7-0.6-12.9c0,0-15-10.4-19.5,6.2c0,0,1.7-15.2,16.1-12.4c14.4,2.8,9.7,23.8,0.9,28.3
		C290.7,154.7,295.4,150.2,293.9,145.4"/>
	<path class="st13" d="M292.2,146.9c0.6-2,2.7-3.1,4.7-2.5c2.5,0.9,2.6,6.4-4.1,6.3C291.7,150.6,291.4,149.6,292.2,146.9"/>
	<path class="st9" d="M276.2,148c0.2,1,0.4,2.1,0.4,3.1h0.5c2.5,0.2,3.7-0.5,4.3-1.4c0.3-0.4,0.5-0.9,0.5-1.4c0-0.3,0-0.6,0-0.9
		c-1.6,0.6-3.3,0.8-5,0.6C276.5,148.1,276.2,148,276.2,148z"/>
	<path class="st23" d="M277.1,148.1l0.1,0.9c2.3,0.2,4,0,4.8-0.6c0-0.3,0-0.6,0-0.9C280.4,148,278.7,148.2,277.1,148.1z"/>
	<path class="st24" d="M277.2,151.2c2.5,0.2,3.7-0.5,4.3-1.4c-0.9-0.1-1.9,0-2.8,0.3C278.1,150.3,277.6,150.7,277.2,151.2"/>
	<path class="st9" d="M288,130c0,0,0.3,14.4,9,16.2c8.7,1.7-0.8-18.6-0.8-18.6s-12.9-8.4-21.5-2.5c-8.6,5.9-0.9,13.6-0.9,13.6
		S275.6,128,288,130"/>
	<path class="st9" d="M291.3,143.2l-0.2-0.1c-6.2-4.8-3.1-14.1-3.1-14.2c0-0.1,0.2-0.2,0.3-0.2c0.1,0,0.2,0.2,0.2,0.3
		c0,0.1-3,9,2.9,13.6c0.1,0.1,0.1,0.2,0,0.3l0,0L291.3,143.2z"/>
	<path class="st5" d="M299.5,149.1c-1.1,2.9-3.9,4.6-6.3,3.7c-2.4-0.9-3.4-4-2.3-6.9c1.1-2.9,3.9-4.6,6.3-3.7
		C299.5,143.1,300.6,146.2,299.5,149.1"/>
	<path class="st25" d="M292.6,151.6c-0.3,0.1-0.5,0.3-0.8,0.4c0.2,0.2,0.3,0.3,0.5,0.4c0,0,0-0.1,0-0.1
		C292.5,152.3,292.5,152,292.6,151.6 M295.8,142c-2,0-4.1,1.5-5,3.9c-0.3,0.8-0.4,1.6-0.4,2.4c0,1.1,0.3,2.1,0.8,2.9
		c0.6-0.3,1.2-0.6,1.8-0.9c0.7-2.8,1.9-7.3,2.8-8c0.2-0.1,0.5-0.2,0.8-0.3C296.3,142,296.1,142,295.8,142"/>
	<path class="st5" d="M296.7,144.3c0,0,3.6-16.1-4.5-20.3c0.9,0.1,1.8,0.3,2.7,0.5c1,0.3,7.5,6.8,4.2,21.3L296.7,144.3"/>
	<path class="st6" d="M292.2,124c4.3,2.2,5.3,7.8,5.3,12.5c0,2.1-0.2,4.1-0.4,5.5c0,0,0,0,0.1,0c0.8,0,1.7,0.2,2.6,0.4
		c0.2-1.5,0.3-2.9,0.3-4.2c0-9.1-4.3-13.4-5.1-13.6C294,124.3,293.1,124.2,292.2,124"/>
	<path class="st5" d="M281.7,153.5l-0.6-0.1l0.2-1c4.4,0.7,8.9-0.3,12.7-2.7l0.6,0.8C290.7,153.1,286.2,154.1,281.7,153.5"/>
	<path class="st6" d="M293,150.3c-2.8,1.6-5.9,2.4-9,2.4c-0.7,0-1.4,0-2.1-0.1c0,0.1,0,0.2,0,0.3c0,0,0,0.1,0,0.1
		c0,0.2-0.1,0.4-0.3,0.6c0.8,0.1,1.6,0.2,2.4,0.2c3,0,5.9-0.7,8.6-2.1C292.7,151.3,292.9,150.8,293,150.3"/>
	<path class="st5" d="M299.1,148.7c-0.7,1.9-2.6,3-4.2,2.4s-2.3-2.6-1.5-4.6c0.7-1.9,2.6-3,4.2-2.4S299.9,146.8,299.1,148.7z"/>
	<path class="st5" d="M280.7,153.9l-0.8-0.1c-0.6-0.1-1-0.6-0.9-1.2l0,0c0.1-0.6,0.6-1,1.2-0.9l0,0l0.8,0.1c0.6,0.1,1,0.6,0.9,1.2
		C281.9,153.5,281.3,154,280.7,153.9"/>
	<path class="st25" d="M280.1,151.6c-0.5,0-1,0.4-1.1,1l0,0c0,0,0,0.1,0,0.1c0,0.5,0.4,1,0.9,1.1l0.8,0.1c0,0,0.1,0,0.1,0
		c0.5,0,1-0.4,1.1-0.9c0,0,0-0.1,0-0.1c0-0.5-0.4-1-0.9-1.1l-0.8-0.1l0,0C280.1,151.6,280.1,151.6,280.1,151.6"/>
	<polyline class="st5" points="291.5,163.7 285.6,169.6 288,176.7 296.2,167.6 291.5,163.7 	"/>
	<polygon class="st5" points="282.9,165 283.9,169.4 280.8,175.8 278.9,167.5 	"/>
	<path class="st13" d="M290.3,168.8l3.5-12.6c0,0-1.7-3.1-1.3-3.8c0.4-0.7,2.2-9.1,3.4-10.1c1.3-0.9,6.6,0.6,7.1,1.5
		c0.5,0.9-5,12.3-5,12.3l-2,13.7L290.3,168.8"/>
	<path class="st5" d="M310.7,170.9c9.5,9.7-9.5,31.7-20.4,30.8c-10.9-0.9,0.3-40.9,0.3-40.9l7,1.1c0,0-2.5,17.3-1.7,18.6
		c0.4,0.6,3-2.2,6-5.1C305.2,172.4,309,169.2,310.7,170.9"/>
	<path class="st6" d="M290.5,160.8c0,0-5.1,18-5.1,30.2c0,5.9,1.2,10.4,4.8,10.7c0.2,0,0.5,0,0.7,0c8.9,0,22.3-13.9,22.3-24.2
		c0-0.8-0.1-1.6-0.3-2.3c-0.1-0.6-0.3-1.1-0.6-1.7c-0.1-0.2-0.2-0.5-0.4-0.7c-0.4-0.7-0.8-1.3-1.4-1.9c-0.3-0.3-0.7-0.5-1.2-0.5
		c0,0,0,0-0.1,0c-1.9,0.1-4.9,2.6-7.6,5.1c-2.7,2.6-5.1,5.1-5.8,5.1c-0.1,0-0.1,0-0.2-0.1c-0.1-0.2-0.1-0.7-0.1-1.3
		c0-4.4,1.8-17.3,1.8-17.3l-0.5-0.1l-4.7-0.8L290.5,160.8"/>
	<polygon class="st5" points="290,159.6 288.9,162.9 298.7,163.7 298.7,160.9 	"/>
	<path class="st19" d="M270.8,192.4v-6.1h4.5v6.1H270.8 M275.2,185.7h-3.9c-0.4,0-0.8,0.4-0.8,0.8v7.4c0,0.4,0.4,0.8,0.8,0.8h3.9
		c0.4,0,0.8-0.4,0.8-0.8v-7.4C276,186,275.7,185.7,275.2,185.7"/>
	<polyline class="st26" points="275.3,186.3 270.8,186.3 270.8,192.4 275.3,192.4 275.3,186.3 	"/>
	<rect x="272.7" y="183.5" class="st9" width="1" height="3.6"/>
	<path class="st5" d="M191.4,339.1c1-0.5,2.1-0.7,3.2-0.8c0,0,3.8-2.2,7.6-10.9h4.2c1.5,0,2.8,0.9,3.3,2.3c0.1,0.2,0.1,0.4,0.1,0.6
		c0,1-0.2,2-0.3,3.1c-0.6,3.4-1.4,6.7-2.5,10l-0.7-0.2l1.3-6.3c0.4-2.1-1.8-0.1-2.9,2.1c-1,2.2-2.7,4.3-7.3,3.3
		C191.9,340.8,189.7,340,191.4,339.1"/>
	<path class="st13" d="M202.9,325.1c0,0-5.3,11.1-8.3,13.2c0,0,4.1,2.4,8.3-3c5.5-7,6.8-5.1,6.8-5.1c-0.1-1.2-0.3-2.4-0.7-3.6
		C208.2,324.4,202.9,325.1,202.9,325.1"/>
	<path class="st5" d="M249.6,365.4c0.9-0.7,1.8-1.2,2.9-1.5c0,0,3.2-3.1,4.7-12.4l4.1-1c1.4-0.3,2.9,0.3,3.7,1.5
		c0.1,0.2,0.2,0.3,0.3,0.5c0.2,1,0.3,2,0.4,3c0.2,3.4,0.2,6.8,0,10.3h-0.7l-0.2-6.4c-0.1-2.2-1.8,0.4-2.3,2.7
		c-0.5,2.3-1.5,4.8-6.3,4.9C250.5,367,248.2,366.8,249.6,365.4z"/>
	<path class="st13" d="M257.4,349.1c0,0-2.5,12-5,14.8c0,0,4.5,1.4,7.4-4.9c3.7-8.1,5.5-6.5,5.5-6.5c-0.4-1.1-0.9-2.3-1.5-3.3
		C262.5,347.2,257.4,349.1,257.4,349.1z"/>
	<path class="st5" d="M315.5,107h34.9c2.8,0,5.1,2.3,5.1,5.1V127c0,2.8-2.3,5.1-5.1,5.1h-34.9c-2.8,0-5.1-2.3-5.1-5.1v-14.9
		C310.4,109.3,312.7,107,315.5,107z"/>
	<polygon class="st5" points="322.5,129.2 312,143.5 329,130.2 	"/>
	<path class="st23" d="M322.9,119.6c0,0.8-0.7,1.5-1.5,1.5c-0.8,0-1.5-0.7-1.5-1.5c0-0.8,0.7-1.5,1.5-1.5h0
		C322.2,118.1,322.9,118.8,322.9,119.6z"/>
	<path class="st23" d="M330.6,119.6c0,0.8-0.7,1.5-1.5,1.5s-1.5-0.7-1.5-1.5c0-0.8,0.7-1.5,1.5-1.5h0
		C329.9,118.1,330.6,118.8,330.6,119.6z"/>
	<path class="st23" d="M338.3,119.6c0,0.8-0.7,1.5-1.5,1.5s-1.5-0.7-1.5-1.5s0.7-1.5,1.5-1.5h0C337.6,118.1,338.3,118.8,338.3,119.6
		z"/>
	<path class="st23" d="M346,119.6c0,0.8-0.7,1.5-1.5,1.5s-1.5-0.7-1.5-1.5c0-0.8,0.7-1.5,1.5-1.5h0C345.3,118.1,346,118.8,346,119.6
		z"/>
	<path class="st5" d="M188.1,87.3h28.3c0.8,0,1.4,0.6,1.4,1.4v16.8c0,0.8-0.6,1.4-1.4,1.4h-28.3c-0.8,0-1.4-0.6-1.4-1.4V88.7
		C186.7,88,187.4,87.3,188.1,87.3"/>
	<path class="st27" d="M193.7,87.3h-5.5c-0.8,0-1.4,0.6-1.4,1.4v16.8c0,0.8,0.6,1.4,1.4,1.4h28.3c0.8,0,1.4-0.6,1.4-1.4v-7.1
		l-15.3,2.3c-0.2,0-0.3,0-0.5,0c-1.3,0-2.5-0.8-3.1-2L193.7,87.3 M216.4,87.3h-22.5l5.7,10.8c0.6,1,1.6,1.7,2.8,1.7
		c0.1,0,0.2,0,0.3,0l15-1.5v-9.6C217.8,88,217.2,87.3,216.4,87.3"/>
	<path class="st14" d="M219,98.2l-1.2,0.1v0.1L219,98.2 M192.4,84.6l1.3,2.7h0.3l-1.3-2.5L192.4,84.6"/>
	<path class="st28" d="M193.9,87.3h-0.3l5.3,11.4c0.6,1.2,1.8,2,3.1,2c0.2,0,0.3,0,0.5,0l15.3-2.3v-0.1l-15,1.5c-0.1,0-0.2,0-0.3,0
		c-1.2,0-2.2-0.6-2.8-1.7L193.9,87.3"/>
	<path class="st5" d="M173,80.9c0.3-5.6,4.4-16.8,9.4-20.2c5-3.4,1.7,1.3,1.7,1.3s4.7-4.6,7.2-4.5c2.5,0.1,0,3,0,3s5.1-3.2,7.5-3
		c2.4,0.2,0,2.9,0,2.9s4.2-3,5.9-1.6c1.7,1.4-21.9,17-24.5,23.3C177.7,88.5,172.7,86.5,173,80.9"/>
	<path class="st29" d="M198.7,57.5c-2.4,0-7.3,3-7.3,3l0,0l0,0c0,0,1.1-1.3,1.1-2.2c0-0.4-0.3-0.8-1.1-0.8c0,0-0.1,0-0.1,0
		c-2.5,0-7.1,4.5-7.1,4.5l0,0l0,0c0,0,1.1-1.5,1.1-2.2c0-0.2-0.1-0.3-0.3-0.3c-0.4,0-1.1,0.3-2.4,1.2c-4.5,3.1-8.3,12.6-9.2,18.5
		c2.9,0,6.3-0.5,9.2-1.4c0.7-0.2,1.3-0.4,1.9-0.6c7.1-6.9,20.6-16.3,20.6-18.1c0-0.1,0-0.1-0.1-0.2c-0.3-0.3-0.7-0.4-1.2-0.4
		c-2,0-4.7,2-4.7,2l0,0l0,0c0,0,1.1-1.2,1.1-2.1c0-0.4-0.3-0.8-1.1-0.8C198.8,57.5,198.8,57.5,198.7,57.5"/>
	<path class="st5" d="M193.3,80l3.1,2c0.1,0.1,0.2,0.2,0.1,0.4c-0.1,0.1-0.1,0.1-0.2,0.1l-3.3-0.3l0.3,2.5c0,0.2-0.1,0.3-0.2,0.3
		c-0.1,0-0.2,0-0.3-0.1l-1.9-2.1L193.3,80"/>
	<path class="st30" d="M193.7,80.3c-0.2,1.1-1,2.1-2.6,2.9l1.6,1.8c0.1,0.1,0.1,0.1,0.2,0.1c0,0,0,0,0,0c0.1,0,0.2-0.1,0.2-0.3
		c0,0,0,0,0,0l-0.3-2.5l3.3,0.3c0,0,0,0,0,0c0.1,0,0.2,0,0.2-0.1c0,0,0-0.1,0-0.1c0-0.1,0-0.2-0.1-0.2L193.7,80.3"/>
	<path class="st5" d="M149,67.5c0,0,4.4-3,10.9-1.1c0,0,1.9,8.7,7.1,11.6c2.9,1.6,9.8,1.5,15.3-0.3c6.5-2.1,9.8-2.1,10.9,0.3
		c1.2,2.5-0.1,5-5.1,6.2c-5,1.2-9,9.9-18.1,10c-9.1,0.1-13.9-9-11.6-17C156.4,73.2,153.1,69.8,149,67.5"/>
	<path class="st7" d="M155.6,65.8c-4.1,0-6.5,1.7-6.5,1.7c3.4,1.9,6.3,4.7,8.5,8c3.9,2.3,7.4,4.1,9.5,4.2c3.5,0.3,5.1,1.8,5.1,3.4
		c0,1.5-1.4,3.1-4.1,3.9c-1.8,0.5-4.4,0.8-7.2,0.8c-0.4,0-0.9,0-1.3,0c1.9,3.8,5.6,6.5,10.5,6.5c0.1,0,0.1,0,0.2,0
		c9.1-0.1,13.1-8.8,18.1-10c3.9-0.9,5.6-2.7,5.5-4.5c0-0.5-0.1-1.1-0.4-1.6c-0.6-1.3-1.8-1.9-3.7-1.9c-1.4,0-3.1,0.3-5.4,1
		c-0.6,0.2-1.2,0.4-1.9,0.6c-2.9,0.9-6.3,1.4-9.2,1.4l0,0c0,0,0,0,0,0c-0.8,0-1.6,0-2.4-0.1c-1.5-0.2-2.8-0.5-3.7-1
		c-5.2-2.9-7.1-11.6-7.1-11.6C158.4,66,156.9,65.8,155.6,65.8"/>
	<path class="st9" d="M190.8,79.7c0,0.2-0.2,0.5-0.5,0.5s-0.5-0.2-0.5-0.5s0.2-0.4,0.5-0.4S190.8,79.5,190.8,79.7z"/>
	<path class="st5" d="M168,87c-5.4,1.5-17.3,1-22.1-2.7s0.7-2,0.7-2s-5.9-3.1-6.5-5.5c-0.7-2.4,2.9-0.9,2.9-0.9s-4.6-3.9-5.2-6.2
		c-0.6-2.3,2.8-0.9,2.8-0.9s-4.2-3.1-3.3-5.1c0.9-2.1,22.9,15.6,29.8,16.1C173.8,80.3,173.5,85.6,168,87"/>
	<path class="st29" d="M137.6,63.5c-0.2,0-0.3,0.1-0.3,0.2c-0.1,0.2-0.1,0.4-0.1,0.6c0,2,3.5,4.6,3.5,4.6l0,0l0,0c0,0-1-0.4-1.8-0.4
		c-0.5,0-1,0.2-1,0.8c0,0.1,0,0.3,0.1,0.5c0.6,2.3,5.2,6.2,5.2,6.2l0,0l0,0c0,0-1.1-0.4-1.9-0.4c-0.6,0-1,0.2-1,0.9
		c0,0.2,0,0.3,0.1,0.5c0.6,2.4,6.5,5.5,6.5,5.5l0,0l0,0c0,0-1.3-0.4-2.1-0.4c-0.4,0-0.6,0.1-0.6,0.3c0,0.3,0.5,1,2,2.1
		c3.2,2.4,9.4,3.5,14.9,3.5c2.8,0,5.4-0.3,7.2-0.8c2.6-0.7,4.1-2.3,4.1-3.9c0-1.6-1.6-3.1-5.1-3.4c-2.1-0.2-5.6-1.9-9.5-4.2
		C149.4,70.7,139.5,63.5,137.6,63.5"/>
	<path class="st5" d="M132.8,62.7h-0.1c-0.9-0.3-1.9-0.6-2.8-0.9c-0.2-0.1-0.3-0.3-0.2-0.5c0.1-0.2,0.3-0.3,0.5-0.2
		c1,0.3,1.9,0.6,2.9,1c0.2,0.1,0.3,0.3,0.2,0.5C133.1,62.7,133,62.8,132.8,62.7L132.8,62.7z"/>
	<path class="st5" d="M72.4,143.9c-0.2,0-0.4-0.2-0.4-0.4c0-0.2,0.2-0.4,0.4-0.4c2,0,4-0.2,5.9-0.6c0.2,0,0.4,0.1,0.4,0.3
		c0,0.2-0.1,0.4-0.3,0.4l0,0C76.4,143.7,74.4,143.9,72.4,143.9z M66.4,143.6L66.4,143.6c-2-0.2-4-0.5-6-1c-0.2,0-0.3-0.2-0.3-0.5
		c0-0.2,0.2-0.3,0.4-0.3c1.9,0.4,3.9,0.8,5.9,1c0.2,0,0.3,0.2,0.3,0.4C66.7,143.4,66.6,143.6,66.4,143.6L66.4,143.6z M84.2,141.6
		c-0.1,0-0.3-0.1-0.3-0.2c-0.1-0.2,0-0.4,0.2-0.5l0,0c1.8-0.8,3.5-1.8,5-3.1c0.2-0.1,0.4-0.1,0.5,0.1c0.1,0.2,0.1,0.4,0,0.5
		c-1.6,1.3-3.3,2.4-5.2,3.2L84.2,141.6L84.2,141.6z M54.7,140.9h-0.1c-1.9-0.6-3.8-1.4-5.7-2.2c-0.2-0.1-0.2-0.3-0.1-0.5
		c0.1-0.2,0.3-0.2,0.5-0.2c1.8,0.8,3.7,1.5,5.6,2.2c0.2,0.1,0.3,0.3,0.2,0.5C55,140.8,54.8,140.9,54.7,140.9z M43.7,136h-0.2
		c-1.8-1-3.5-2.1-5.1-3.2c-0.2-0.1-0.2-0.4-0.1-0.5s0.4-0.2,0.5-0.1c1.6,1.1,3.3,2.2,5.1,3.2c0.2,0.1,0.2,0.3,0.1,0.5l0,0
		C43.9,136,43.8,136.1,43.7,136L43.7,136z M93.1,133.7h-0.2c-0.2-0.1-0.2-0.3-0.1-0.5l0,0c0.3-0.5,0.6-1.1,0.9-1.7
		c0.6-1.2,1-2.5,1.3-3.8c0.1-0.2,0.3-0.3,0.5-0.3c0.2,0.1,0.3,0.3,0.3,0.5c-0.3,1.4-0.8,2.7-1.3,3.9c-0.3,0.6-0.6,1.2-0.9,1.8
		C93.3,133.7,93.2,133.8,93.1,133.7L93.1,133.7z M33.8,129.1l-0.2-0.1c-1.5-1.3-2.9-2.8-4.3-4.3c-0.1-0.1-0.1-0.4,0-0.5
		c0.1-0.1,0.4-0.1,0.5,0c1.3,1.5,2.7,2.9,4.2,4.2c0.1,0.1,0.1,0.4,0,0.5C34,129,33.9,129.1,33.8,129.1L33.8,129.1z M96,122.2
		c-0.2,0-0.4-0.2-0.4-0.4l0,0c0-2-0.2-4-0.6-5.9c0-0.2,0.1-0.4,0.3-0.4c0.2,0,0.4,0.1,0.4,0.3c0.4,2,0.5,4,0.6,6.1
		C96.4,122,96.2,122.2,96,122.2z M94,110.3c-0.2,0-0.3-0.1-0.4-0.3c-0.5-1.8-1.1-3.6-1.9-5.7c-0.1-0.2,0-0.4,0.2-0.5l0,0
		c0.2-0.1,0.4,0,0.5,0.2c0.8,2.1,1.4,4,1.9,5.7c0.1,0.2-0.1,0.4-0.2,0.5L94,110.3z M89.8,99c-0.1,0-0.3-0.1-0.3-0.2
		c-0.6-1.6-1.5-3.4-2.4-5.4v-0.1c-0.1-0.2,0.1-0.4,0.3-0.5c0.2,0,0.3,0,0.4,0.2V93c0.9,2,1.8,3.8,2.4,5.4c0.1,0.2,0,0.4-0.2,0.5
		L89.8,99z M84.8,88c-0.2,0-0.3-0.1-0.4-0.2c-0.9-2.1-1.6-3.9-2.2-5.6c-0.1-0.2,0-0.4,0.2-0.5c0.2-0.1,0.4,0,0.5,0.2
		c0.6,1.7,1.3,3.5,2.2,5.6c0.1,0.2,0,0.4-0.2,0.5l0,0L84.8,88L84.8,88z M81.2,76.5c-0.2,0-0.3-0.1-0.4-0.3c-0.2-1.1-0.3-2.2-0.3-3.2
		c0-1,0.1-1.9,0.3-2.9c0.1-0.2,0.3-0.3,0.5-0.2c0.2,0.1,0.3,0.2,0.3,0.4c-0.2,0.9-0.3,1.8-0.2,2.7c0,1,0.1,2.1,0.2,3.1
		C81.6,76.3,81.4,76.5,81.2,76.5L81.2,76.5z M83.8,65.1l-0.2-0.1c-0.1-0.1-0.1-0.4,0-0.5c1.3-1.6,3-2.9,4.8-3.8
		c0.2-0.1,0.4,0,0.5,0.2c0.1,0.2,0,0.4-0.2,0.5c-1.7,0.9-3.3,2.1-4.6,3.6C84.1,65.1,83.9,65.2,83.8,65.1L83.8,65.1z M124.1,60.2
		L124.1,60.2c-2-0.4-4-0.7-6-1c-0.2,0-0.3-0.2-0.3-0.4l0,0c0-0.2,0.2-0.3,0.4-0.3l0,0c2,0.3,4,0.6,6,1c0.2,0,0.3,0.3,0.3,0.5
		C124.5,60.1,124.3,60.3,124.1,60.2L124.1,60.2z M94.1,59.4c-0.2,0-0.4-0.1-0.4-0.3c0-0.2,0.1-0.4,0.3-0.4c2-0.4,4-0.7,6-0.9
		c0.2,0,0.4,0.1,0.4,0.4c0,0.2-0.1,0.4-0.3,0.4l0,0C98.1,58.7,96.1,59,94.1,59.4L94.1,59.4z M112.1,58.7L112.1,58.7
		c-1.7-0.1-3.8-0.2-6-0.3c-0.2,0-0.4-0.2-0.4-0.4c0-0.2,0.2-0.4,0.4-0.4h0c2.2,0,4.3,0.2,6,0.3c0.2,0,0.4,0.2,0.4,0.4l0,0
		C112.5,58.5,112.4,58.7,112.1,58.7L112.1,58.7z"/>
	<path class="st5" d="M26,119.9c-0.1,0-0.3-0.1-0.3-0.2c-0.5-0.9-1-1.8-1.3-2.7c-0.1-0.2,0-0.4,0.2-0.5l0,0c0.2-0.1,0.4,0,0.5,0.2
		c0.4,0.9,0.8,1.8,1.3,2.6c0.1,0.2,0.1,0.4-0.1,0.5L26,119.9z"/>
	<polyline class="st23" points="109.5,198.9 147.5,198.9 147.5,206.7 109.5,206.7 109.5,198.9 	"/>
	<path class="st31" d="M147.5,202.1h-22v0.9l21.2,0.6l-21.2,0.3v1.3h9l-9,0.2v1.1h22v0H146v-0.4h-15.3l15.3-0.3V204l1.4-0.5V202.1
		 M147.5,198.9h-22v1.1h17.8l-17.8,0.5v1.4l22-0.5V198.9"/>
	<polyline class="st32" points="125.5,198.9 109.5,198.9 109.5,206.6 125.5,206.6 125.5,205.4 109.5,205.8 109.5,205.2 125.5,205.2 
		125.5,203.9 111.1,203.6 125.5,203 125.5,202.1 118.2,202.1 125.5,201.9 125.5,200.6 109.5,201 109.5,200 125.5,200 125.5,198.9 	
		"/>
	<polyline class="st32" points="143.3,200 125.5,200 125.5,200.6 143.3,200 	"/>
	<polyline class="st33" points="125.5,200 109.5,200 109.5,201 125.5,200.6 125.5,200 	"/>
	<polyline class="st32" points="147.5,201.4 125.5,201.9 125.5,202.1 147.5,202.1 147.5,201.4 	"/>
	<polyline class="st33" points="125.5,201.9 118.2,202.1 125.5,202.1 125.5,201.9 	"/>
	<polyline class="st32" points="125.5,203 125.5,203 125.5,203.9 146.7,203.6 125.5,203 	"/>
	<polyline class="st33" points="125.5,203 111.1,203.6 125.5,203.9 125.5,203 	"/>
	<polyline class="st32" points="134.5,205.2 125.5,205.2 125.5,205.4 134.5,205.2 	"/>
	<polyline class="st33" points="125.5,205.2 109.5,205.2 109.5,205.8 125.5,205.4 125.5,205.2 	"/>
	<polyline class="st32" points="146,205.8 130.7,206.1 146,206.1 146,205.8 	"/>
	<polyline class="st23" points="104.2,191.1 142.2,191.1 142.2,198.9 104.2,198.9 104.2,191.1 	"/>
	<path class="st31" d="M104.2,191.1L104.2,191.1v7.8h38v-0.6h-16.8l16.7-0.3l0.1,0.3v-4h-22v0.9l21.2,0.6l-21.2,0.3v1.3h9l-9,0.2
		v1.3h-16V191.1 M142.2,191.1h-22v1.1H138l-17.8,0.5v1.4l22-0.5V191.1"/>
	<polyline class="st32" points="120.2,191.1 104.2,191.1 104.2,198.9 120.2,198.9 120.2,197.7 104.2,198 104.2,197.4 120.2,197.4 
		120.2,196.1 120.2,196.1 105.8,195.8 120.2,195.2 120.2,195.2 120.2,194.3 112.9,194.3 120.2,194.2 120.2,192.8 104.2,193.2 
		104.2,192.3 120.2,192.3 120.2,191.1 	"/>
	<polyline class="st32" points="138,192.3 120.2,192.3 120.2,192.8 138,192.3 	"/>
	<polyline class="st33" points="120.2,192.3 104.2,192.3 104.2,193.2 120.2,192.8 120.2,192.3 	"/>
	<polyline class="st32" points="142.2,193.6 120.2,194.2 120.2,194.3 142.2,194.3 142.2,193.6 	"/>
	<polyline class="st33" points="120.2,194.2 112.9,194.3 120.2,194.3 120.2,194.2 	"/>
	<polyline class="st32" points="120.2,195.2 120.2,196.1 141.4,195.8 120.2,195.2 	"/>
	<polyline class="st33" points="120.2,195.2 105.8,195.8 120.2,196.1 120.2,196.1 120.2,195.2 120.2,195.2 	"/>
	<polyline class="st32" points="129.3,197.4 120.2,197.4 120.2,197.7 129.3,197.4 	"/>
	<polyline class="st33" points="120.2,197.4 104.2,197.4 104.2,198 120.2,197.7 120.2,197.4 	"/>
	<polyline class="st32" points="142.1,198 125.4,198.3 142.2,198.3 142.1,198 	"/>
	<polyline class="st23" points="108.6,183.4 146.5,183.4 146.5,191.1 108.6,191.1 108.6,183.4 	"/>
	<path class="st31" d="M136.5,186.6h-11.9v0.9l13.1,0.4C137.2,187.5,136.8,187,136.5,186.6 M135.9,184.7l-11.4,0.3v1.4l11.7-0.3
		c-0.1-0.3-0.2-0.7-0.3-1.1L135.9,184.7 M108.6,183.4L108.6,183.4v7.8h38v-0.6h-16.8l16.7-0.3l0,0.3v-2h-6.7c-0.6,0-1.2-0.2-1.7-0.4
		l-13.6,0.2v1.3h9l-9,0.2v1.3h-16V183.4 M135.8,183.4h-11.3v1.1h11.4L135.8,183.4"/>
	<polyline class="st32" points="124.6,183.4 108.6,183.4 108.6,191.1 124.6,191.1 124.6,189.9 108.6,190.2 108.6,189.7 124.6,189.7 
		124.6,188.3 110.1,188 124.6,187.4 124.6,186.6 117.2,186.6 124.6,186.4 124.6,185 108.6,185.4 108.6,184.5 124.6,184.5 
		124.6,183.4 	"/>
	<polyline class="st32" points="135.9,184.5 124.6,184.5 124.6,185 135.9,184.7 135.9,184.5 	"/>
	<polyline class="st33" points="124.6,184.5 108.6,184.5 108.6,185.4 124.6,185 124.6,184.5 	"/>
	<path class="st32" d="M136.3,186.1l-11.7,0.3v0.2h11.9C136.4,186.4,136.3,186.2,136.3,186.1"/>
	<polyline class="st33" points="124.6,186.4 117.2,186.6 124.6,186.6 124.6,186.4 	"/>
	<path class="st32" d="M124.6,187.4L124.6,187.4v0.9l13.6-0.2c-0.2-0.1-0.4-0.2-0.6-0.3L124.6,187.4"/>
	<polyline class="st33" points="124.6,187.4 110.1,188 124.6,188.3 124.6,187.4 	"/>
	<polyline class="st32" points="133.6,189.7 124.6,189.7 124.6,189.9 133.6,189.7 	"/>
	<polyline class="st33" points="124.6,189.7 108.6,189.7 108.6,190.2 124.6,189.9 124.6,189.7 	"/>
	<polyline class="st32" points="146.5,190.2 129.8,190.6 146.5,190.6 146.5,190.2 	"/>
	<polyline class="st9" points="171.8,206.5 172.8,202.8 213.4,202.8 232,204.7 232.7,206.5 171.8,206.5 	"/>
	<polyline class="st34" points="213.4,202.8 201.5,202.8 199,202.8 197.5,202.8 195.1,202.8 193.6,202.8 191.1,202.8 189.6,202.8 
		187.1,202.8 185.7,202.8 183.2,202.8 181.7,202.8 181,202.8 188.8,204 188.8,206.5 171.8,206.5 213.4,206.5 213.4,202.8 	"/>
	<path class="st9" d="M205.2,185c0.2,1.7-1,3.3-2.8,3.5c-0.1,0-0.3,0-0.4,0h-62.1c-2,0-3.7-1.6-3.9-3.6l-3.7-39.8
		c0-0.4,0-0.8,0.1-1.2c0.4-1.4,1.7-2.4,3.1-2.4h62.2c2,0,3.7,1.6,3.9,3.6L205.2,185"/>
	<path class="st34" d="M194.3,144h-61.9l0,0c-0.1,0.3-0.1,0.5-0.1,0.8c0,0.1,0,0.2,0,0.3L136,185c0.2,2,1.9,3.5,3.9,3.6h16.4
		l2.8-24.4h12.9l-2.3,24.4h32.1c0.1-0.4,0.1-0.8,0.1-1.2l-3.7-39.8C197.9,145.6,196.3,144.1,194.3,144"/>
	<polyline class="st9" points="159.1,164.1 171.9,164.1 168.5,200.9 188.8,204 188.8,206.5 146,206.5 146,204 154.8,200.9 
		159.1,164.1 	"/>
	<polyline class="st35" points="171.9,164.1 159.1,164.1 154.8,205.7 162.4,206 171.9,164.1 	"/>
	<polyline class="st9" points="171.9,367 165.8,367 154.7,213.7 162.9,213.7 171.9,367 	"/>
	<path class="st23" d="M164.2,345.2L164.2,345.2l0.7,10h0L164.2,345.2 M160.1,287.7L160.1,287.7l4.1,57.3h0L160.1,287.7 M155,217.6
		L155,217.6l0.3,3.8l4.8,66.1h0L155,217.6"/>
	<polyline class="st36" points="164.2,345 164.2,345 164.2,345.2 164.2,345.2 164.2,345 	"/>
	<polyline class="st36" points="160,287.4 160,287.4 160.1,287.7 160.1,287.7 160,287.4 	"/>
	<polyline class="st37" points="164.9,355.2 164.9,355.2 165.8,367 164.9,355.2 	"/>
	<path class="st23" d="M170.6,345.2L170.6,345.2l0.6,9.9c0,0,0,0,0,0L170.6,345.2 M167.2,287.7L167.2,287.7l3.4,57.3h0L167.2,287.7
		 M167,283.7l0.2,3.8h0L167,283.7"/>
	<polyline class="st36" points="170.6,345 170.6,345 170.6,345.2 170.6,345.2 170.6,345 	"/>
	<polyline class="st36" points="167.2,287.4 167.2,287.4 167.2,287.7 167.2,287.7 167.2,287.4 	"/>
	<path class="st37" d="M171.2,355.1C171.2,355.1,171.2,355.1,171.2,355.1l0.7,11.8h0L171.2,355.1"/>
	<polyline class="st38" points="155,217.6 155,217.6 160,287.4 160.1,287.7 164.2,345 164.2,345.2 164.9,355.2 165.8,367 171.9,367 
		171.2,355.1 170.6,345.2 170.6,345 167.2,287.7 167.2,287.4 167,283.7 163.3,221.3 163.3,221 155.3,221 155,217.6 	"/>
	<polyline class="st20" points="163.1,217.6 163.1,217.6 163.3,221 163.3,221 163.1,217.6 	"/>
	<polyline class="st22" points="163.1,217.6 163.1,217.6 163.3,221 163.3,221 163.1,217.6 	"/>
	<polyline class="st39" points="163.1,217.6 155,217.6 155.3,221 163.3,221 163.1,217.6 	"/>
	<polyline class="st9" points="216.8,367 210.7,367 209.7,213.7 217.8,213.7 216.8,367 	"/>
	<path class="st23" d="M217.2,314L217.2,314l-0.3,40.8h0L217.2,314 M217.2,309.5C217.2,309.5,217.2,309.5,217.2,309.5l0,2.7l0,0
		L217.2,309.5"/>
	<path class="st36" d="M217.7,239L217.7,239l-0.1,16c0,0,0,0,0,0L217.7,239"/>
	<polyline class="st40" points="216.9,354.8 216.9,354.8 216.8,367 216.8,367 216.9,354.8 	"/>
	<path class="st41" d="M217.6,255C217.6,255,217.6,255,217.6,255l-0.4,54.6c0,0,0,0,0,0L217.6,255"/>
	<polyline class="st7" points="217.2,312.2 217.2,314 217.2,314 217.2,312.2 217.2,312.2 	"/>
	<polyline class="st23" points="210.4,323.5 210.4,323.5 210.6,354.8 210.6,354.8 210.4,323.5 	"/>
	<path class="st36" d="M210.2,283.4L210.2,283.4l0,1.7h0L210.2,283.4 M210.1,279.2L210.1,279.2l0,1.7h0L210.1,279.2 M210.1,275
		L210.1,275l0,1.7h0L210.1,275 M210.1,270.8L210.1,270.8l0,1.7h0L210.1,270.8 M210.1,266.7L210.1,266.7l0,1.7h0L210.1,266.7
		 M210,262.5L210,262.5l0,1.7h0L210,262.5 M209.9,239L209.9,239l0.1,21.1V260h0L209.9,239"/>
	<polyline class="st42" points="210,260 210,260 210,260.1 210,262.5 210,262.5 210,260 	"/>
	<polyline class="st42" points="210,264.2 210,264.2 210.1,266.7 210.1,266.7 210,264.2 	"/>
	<polyline class="st42" points="210.1,268.3 210.1,268.3 210.1,270.8 210.1,270.8 210.1,268.3 	"/>
	<polyline class="st42" points="210.1,272.5 210.1,272.5 210.1,275 210.1,275 210.1,272.5 	"/>
	<polyline class="st42" points="210.1,276.7 210.1,276.7 210.1,279.2 210.1,279.2 210.1,276.7 	"/>
	<polyline class="st42" points="210.2,280.9 210.2,280.9 210.2,283.4 210.2,283.4 210.2,280.9 	"/>
	<path class="st42" d="M210.2,285.1L210.2,285.1l0,0.6c0,0,0,0,0,0L210.2,285.1"/>
	<polyline class="st40" points="210.6,354.8 210.6,354.8 210.7,367 210.6,354.8 	"/>
	<polyline class="st43" points="210.4,318.4 210.4,323.5 210.4,323.5 210.4,318.4 210.4,318.4 	"/>
	<polyline class="st44" points="210.4,315.6 210.4,318.4 210.4,318.4 210.4,315.6 210.4,315.6 	"/>
	<path class="st41" d="M210.2,285.7C210.2,285.7,210.2,285.7,210.2,285.7l0.2,24.2l0,0L210.2,285.7"/>
	<polyline class="st7" points="210.3,309.9 210.4,315.6 210.4,315.6 210.3,309.9 210.3,309.9 	"/>
	<polyline class="st45" points="217.7,239 209.9,239 210,260 210,262.5 210,264.2 210.1,266.7 210.1,268.3 210.1,270.8 210.1,272.5 
		210.1,275 210.1,276.7 210.1,279.2 210.2,280.9 210.2,283.4 210.2,285.1 210.2,285.7 210.3,309.9 210.4,315.6 210.4,318.4 
		210.4,323.5 210.6,354.8 210.7,367 216.8,367 216.9,354.8 217.2,314 217.2,312.2 217.2,309.5 217.6,255 217.7,239 	"/>
	<path class="st15" d="M209.7,217.6L209.7,217.6l0.1,21.4h0l0-0.3L209.7,217.6 M217.8,217.6L217.8,217.6l-0.1,21.1l0,0.3h0
		L217.8,217.6"/>
	<path class="st46" d="M209.7,217.6L209.7,217.6l0.1,21.1l0,0.3h0L209.7,217.6 M217.8,217.6L217.8,217.6l-0.2,21.4h0l0-0.3
		L217.8,217.6"/>
	<polyline class="st47" points="217.8,217.6 209.7,217.6 209.9,239 217.7,239 217.8,217.6 	"/>
	<polyline class="st9" points="281.9,367 275.8,367 264.7,213.7 272.9,213.7 281.9,367 	"/>
	<path class="st23" d="M274.8,354.1L274.8,354.1l0.1,1.2l0,0L274.8,354.1 M271,300.6L271,300.6l3,42.4l0,0L271,300.6"/>
	<polyline class="st4" points="270.7,296.5 270.7,296.5 271,300.6 271,300.6 270.7,296.5 	"/>
	<path class="st36" d="M269.3,277.7L269.3,277.7l1.4,18.9h0L269.3,277.7 M265,217.6L265,217.6l0.3,3.8l0.8,10.9c0,0,0,0,0,0
		L265,217.6"/>
	<polyline class="st40" points="274.9,355.3 275.8,367 274.9,355.3 274.9,355.3 	"/>
	<polyline class="st48" points="274,343 274,343 274.8,354.1 274.8,354.1 274,343 	"/>
	<polyline class="st45" points="268.6,267.4 268.9,271.8 268.9,271.8 268.6,267.4 268.6,267.4 	"/>
	<polyline class="st49" points="268.9,271.8 268.9,271.8 269.3,277.7 269.3,277.7 268.9,271.8 	"/>
	<polyline class="st41" points="266.1,232.2 268.2,262.1 268.2,262.1 266.1,232.2 266.1,232.2 	"/>
	<polyline class="st50" points="268.2,262.1 268.6,267.4 268.6,267.4 268.2,262.1 268.2,262.1 	"/>
	<path class="st23" d="M281.1,354.1L281.1,354.1l0.1,1.3l0,0L281.1,354.1 M278,300.6L278,300.6l2.5,41.8l0,0L278,300.6"/>
	<polyline class="st4" points="277.7,296.5 277.7,296.5 278,300.6 278,300.6 277.7,296.5 	"/>
	<polyline class="st36" points="276.9,282.5 277.7,296.5 277.7,296.5 276.9,282.5 	"/>
	<polyline class="st40" points="281.2,355.4 281.9,367 281.9,367 281.2,355.4 281.2,355.4 	"/>
	<polyline class="st48" points="280.4,342.4 280.4,342.4 281.1,354.1 281.1,354.1 280.4,342.4 	"/>
	<polyline class="st45" points="265,217.6 265,217.6 266.1,232.2 268.2,262.1 268.6,267.4 268.9,271.8 269.3,277.7 270.7,296.5 
		271,300.6 274,343 274.8,354.1 274.9,355.3 275.8,367 281.9,367 281.2,355.4 281.1,354.1 280.4,342.4 278,300.6 277.7,296.5 
		276.9,282.5 273.3,221.3 273.3,221 265.3,221 265,217.6 	"/>
	<path class="st15" d="M273.2,218.6l0.1,2.3h0L273.2,218.6L273.2,218.6 M273.1,217.8L273.1,217.8L273.1,217.8L273.1,217.8
		L273.1,217.8"/>
	<polyline class="st51" points="273.1,217.8 273.1,217.8 273.2,218.6 273.2,218.7 273.1,217.8 	"/>
	<polyline class="st6" points="273.1,217.6 273.1,217.6 273.1,217.8 273.1,217.8 273.1,217.6 	"/>
	<polyline class="st22" points="273.1,217.6 273.1,217.6 273.3,221 273.3,221 273.2,218.6 273.1,217.8 273.1,217.8 273.1,217.6 	"/>
	<polyline class="st47" points="273.1,217.6 265,217.6 265.3,221 273.3,221 273.1,217.6 	"/>
	<polyline class="st9" points="101.8,367 95.7,367 104.7,213.7 112.8,213.7 101.8,367 	"/>
	<path class="st23" d="M103.4,345.2L103.4,345.2l-0.8,11.8l0,0L103.4,345.2 M107.5,287.7L107.5,287.7l-4.1,57.3h0L107.5,287.7
		 M112.5,217.6L112.5,217.6l-5,69.9h0l4.8-66.1L112.5,217.6"/>
	<polyline class="st2" points="103.4,345 103.4,345 103.4,345.2 103.4,345.2 103.4,345 	"/>
	<polyline class="st2" points="107.5,287.4 107.5,287.4 107.5,287.7 107.5,287.7 107.5,287.4 	"/>
	<polyline class="st40" points="102.5,357 102.5,357 101.8,367 102.5,357 	"/>
	<polyline class="st45" points="112.5,217.6 112.5,217.6 112.3,221 104.3,221 104.2,221.3 95.7,367 101.8,367 102.5,357 
		103.4,345.2 103.4,345 107.5,287.7 107.5,287.4 112.5,217.6 	"/>
	<polyline class="st20" points="104.5,217.6 104.5,217.6 104.2,221 104.3,221 104.5,217.6 	"/>
	<polyline class="st22" points="104.5,217.6 104.5,217.6 104.3,221 104.3,221 104.5,217.6 	"/>
	<polyline class="st47" points="112.5,217.6 104.5,217.6 104.3,221 112.3,221 112.5,217.6 	"/>
	<path class="st5" d="M98.2,209.9h181.1v5.5c0,1.2-1,2.2-2.2,2.2H100.4c-1.2,0-2.2-1-2.2-2.2V209.9"/>
	<path class="st19" d="M98.2,210.9L98.2,210.9v4.5c0,1.2,1,2.2,2.2,2.2h176.8c1.2,0,2.2-1,2.2-2.2v-1.7H98.2V210.9"/>
	<polyline class="st26" points="279.3,210.9 98.2,210.9 98.2,213.7 279.3,213.7 279.3,210.9 	"/>
	<path class="st5" d="M283.1,210.9H94.4c-1.2,0-2.2-1-2.2-2.2c0-1.2,1-2.2,2.2-2.2h188.7c1.2,0,2.2,1,2.2,2.2
		C285.3,209.9,284.3,210.9,283.1,210.9"/>
	<path class="st19" d="M283.1,206.6h-20.3h-2.5h-1.5h-2.5h-0.8h-4.2h-0.5h-2.5H247h-2.5H243h-2.5h-21.8H216h-14.5H199h-1.5h-2.5
		h-1.5h-2.5h-1.5h-2.5h-1.5h-2.5h-1.5h-2.5h-53.7h-16H94.4c-1.2,0-2.2,1-2.2,2.2c0,1.2,1,2.2,2.2,2.2h188.7c1.2,0,2.2-1,2.2-2.2
		C285.3,207.5,284.3,206.6,283.1,206.6"/>
	<path class="st5" d="M238.5,199.9l2.3-3.5c0.5-0.7,1.2-1.1,2.1-1.1h2.9c0.2,0,0.5,0,0.7,0.1l10.5,3.2c0.6,0.2,1.1,0.6,1.4,1.1
		l1.5,2.5L238.5,199.9"/>
	<path class="st14" d="M242.9,195.3c-0.8,0-1.6,0.4-2.1,1.1l-1.1,1.6h0l1.1-1.6C241.3,195.7,242,195.3,242.9,195.3L242.9,195.3
		C242.9,195.3,242.9,195.3,242.9,195.3"/>
	<path class="st15" d="M239.7,198L239.7,198l-0.6,0.9c0,0,0,0,0,0L239.7,198"/>
	<path class="st6" d="M245.8,195.3h-2.9l0,0h0c-0.8,0-1.6,0.4-2.1,1.1l-1.1,1.6l-0.6,0.9c0.2,0,0.5-0.1,0.8-0.1c0,0,0,0,0,0h5.5
		l1.4-3.4l-0.2-0.1C246.3,195.3,246,195.3,245.8,195.3"/>
	<path class="st18" d="M246.8,195.5l-1.4,3.4h8.9c0,0,0,0,0,0c0.5,0,0.9,0.1,1.4,0.2l1.8,0.7l1.3,0.5l-0.3-0.6
		c-0.3-0.5-0.8-0.9-1.4-1.1L246.8,195.5"/>
	<path class="st5" d="M267.2,206.2v0.3h-32.4l1.2-4.7c0.5-1.8,2.1-3,3.9-3h14.4c0.5,0,1,0.1,1.4,0.2l1.8,0.7l7.1,2.7
		C266.2,203,267.2,204.5,267.2,206.2"/>
	<path class="st6" d="M256.7,199.7c-1,0-2,0.8-2.1,1.8l-0.7,5.1h13.3v-0.3l0,0c0-1.7-1-3.2-2.6-3.8l-7.1-2.7
		c-0.1-0.1-0.3-0.1-0.4-0.1C256.9,199.7,256.8,199.7,256.7,199.7"/>
	<path class="st9" d="M256,203.1l4.2-12.7c0.2-0.5,0.7-0.8,1.2-0.6l0.2,0.1c0.4,0.2,0.6,0.7,0.5,1.1l-3.6,13.6
		C258.4,204.5,256.1,205.5,256,203.1z"/>
	<polyline class="st6" points="238.8,203.6 237,203.6 236.6,205.5 238.5,205.5 238.8,203.6 	"/>
	<polyline class="st6" points="241.6,203.6 239.8,203.6 239.4,205.4 241.3,205.4 241.6,203.6 	"/>
</g>
</svg>
