<?xml version="1.0" encoding="utf-8"?>
<!-- Generator: Adobe Illustrator 25.1.0, SVG Export Plug-In . SVG Version: 6.00 Build 0)  -->
<!DOCTYPE svg PUBLIC "-//W3C//DTD SVG 1.1//EN" "http://www.w3.org/Graphics/SVG/1.1/DTD/svg11.dtd" [
	<!ENTITY ns_extend "http://ns.adobe.com/Extensibility/1.0/">
	<!ENTITY ns_ai "http://ns.adobe.com/AdobeIllustrator/10.0/">
	<!ENTITY ns_graphs "http://ns.adobe.com/Graphs/1.0/">
	<!ENTITY ns_vars "http://ns.adobe.com/Variables/1.0/">
	<!ENTITY ns_imrep "http://ns.adobe.com/ImageReplacement/1.0/">
	<!ENTITY ns_sfw "http://ns.adobe.com/SaveForWeb/1.0/">
	<!ENTITY ns_custom "http://ns.adobe.com/GenericCustomNamespace/1.0/">
	<!ENTITY ns_adobe_xpath "http://ns.adobe.com/XPath/1.0/">
]>
<svg version="1.1"
	 id="freepik_stories-contact-us" xmlns:x="&ns_extend;" xmlns:i="&ns_ai;" xmlns:graph="&ns_graphs;" xmlns:svgjs="http://svgjs.com/svgjs"
	 xmlns="http://www.w3.org/2000/svg" xmlns:xlink="http://www.w3.org/1999/xlink" x="0px" y="0px" viewBox="0 0 429.3 382.7"
	 style="enable-background:new 0 0 429.3 382.7;" xml:space="preserve">
<style type="text/css">
	.st0{display:none;fill:#EBEBEB;}
	.st1{fill:#EBEBEB;}
	.st2{fill:#E0E0E0;}
	.st3{fill:#F5F5F5;}
	.st4{fill:#E6E6E6;}
	.st5{fill:#F0F0F0;}
	.st6{display:none;fill:#F0F0F0;}
	.st7{opacity:0.2;fill:#E0E0E0;enable-background:new    ;}
	.st8{fill:#FCA311;}
	.st9{opacity:0.2;enable-background:new    ;}
	.st10{opacity:0.5;fill:#FFFFFF;enable-background:new    ;}
	.st11{opacity:0.2;fill:#FFFFFF;enable-background:new    ;}
	.st12{fill:#263238;}
	.st13{opacity:0.3;fill:#FFFFFF;enable-background:new    ;}
	.st14{opacity:0.6;fill:#FFFFFF;enable-background:new    ;}
	.st15{fill:#E4897B;}
	.st16{opacity:0.1;enable-background:new    ;}
	.st17{fill:#FFFFFF;}
	.st18{fill:#DE5753;}
	.st19{opacity:0.4;enable-background:new    ;}
	.st20{opacity:0.2;}
	.st21{opacity:0.7;fill:#FFFFFF;enable-background:new    ;}
	.st22{opacity:0.4;fill:#FFFFFF;enable-background:new    ;}
	.st23{opacity:0.1;fill:#FFFFFF;enable-background:new    ;}
</style>
<metadata>
	<sfw  xmlns="&ns_sfw;">
		<slices></slices>
		<sliceSourceBounds  bottomLeftOrigin="true" height="372.6" width="500" x="0" y="72.4"></sliceSourceBounds>
	</sfw>
</metadata>
<g id="freepik--background-complete--inject-1">
	<rect id="eldykbksmnle" x="-33.7" y="331" class="st0" width="500" height="0.2"/>
	<rect id="elp1hcxpsc36f" x="383.1" y="347" class="st1" width="33.1" height="0.2"/>
	<rect id="elh8ruc3viti" x="288.9" y="349.8" class="st1" width="8.7" height="0.2"/>
	<rect id="elhy598e2z7ae" x="362.9" y="337.8" class="st1" width="19.2" height="0.2"/>
	<rect id="elot2w6kokbtm" x="18.8" y="339.4" class="st1" width="43.2" height="0.2"/>
	<rect id="elhxgi813ryt4" x="70.9" y="339.4" class="st1" width="6.3" height="0.2"/>
	<rect id="elwpd9f93340n" x="97.8" y="343.7" class="st1" width="93.7" height="0.2"/>
	<path id="elyr3u94wtpcc" class="st1" d="M203.3,286.4H10.2c-3.1,0-5.7-2.6-5.7-5.7V9.2c0-3.1,2.6-5.7,5.7-5.7h193.1
		c3.2,0,5.7,2.6,5.7,5.7c0,0,0,0,0,0v271.4C209,283.8,206.5,286.4,203.3,286.4z M10.2,3.8c-3,0-5.5,2.4-5.5,5.5v271.4
		c0,3,2.4,5.5,5.5,5.5h193.1c3,0,5.5-2.4,5.5-5.5V9.2c0-3-2.4-5.5-5.5-5.5H10.2z"/>
	<path id="elcjoaa3rzj6j" class="st1" d="M419.6,286.4H226.5c-3.2,0-5.7-2.6-5.7-5.7V9.2c0-3.1,2.6-5.7,5.7-5.7h193.1
		c3.1,0,5.7,2.5,5.7,5.7v271.4C425.3,283.8,422.8,286.3,419.6,286.4z M226.5,3.8c-3,0-5.5,2.4-5.5,5.5v271.4c0,3,2.4,5.5,5.5,5.5
		h193.1c3,0,5.5-2.4,5.5-5.5V9.2c0-3-2.4-5.5-5.5-5.5H226.5z"/>
	<rect id="elx8plpveu4wn" x="169.5" y="65.7" class="st2" width="242.3" height="233.5"/>
	<rect id="elrjziworhdok" x="173.4" y="70" class="st3" width="238.4" height="225.2"/>
	<polygon id="el1ew5tkwfc24" class="st4" points="175.1,240.7 175.1,172.9 182.2,172.9 182.2,164 198,156.6 198,147.4 200.6,147.4 
		200.6,172.9 203.3,172.9 203.3,240.7 206.8,240.7 206.8,205.5 214.7,205.5 214.7,187 217.4,187 217.4,240.7 223.5,240.7 
		223.5,220.4 227.9,220.4 227.9,215.1 237.6,215.1 237.6,196.7 242.9,196.7 242.9,184.3 249,184.3 249,165.9 251.7,165.9 
		251.7,184.3 257.8,184.3 257.8,196.7 263.1,196.7 263.1,215.1 272.8,215.1 272.8,220.4 277.2,220.4 277.2,240.7 282.5,240.7 
		282.5,215.1 292.1,215.1 292.1,158.8 294.8,158.8 294.8,152.7 315.9,152.7 315.9,158.8 320.3,158.8 320.3,199.3 337.9,199.3 
		337.9,203.7 344,203.7 344,206.3 337.9,206.3 337.9,222.2 356.4,222.2 356.4,169.4 359.9,169.4 359.9,158.8 368.7,158.8 
		368.7,118.4 371.3,118.4 371.3,158.8 377.5,158.8 377.5,169.4 411.8,169.4 411.8,295.2 173.4,295.2 173.4,240.7 	"/>
	<rect id="elhow33pagjib" x="390.9" y="172.1" class="st5" width="2.5" height="2.5"/>
	<rect id="elr474ogkralh" x="390.9" y="176.3" class="st5" width="2.5" height="2.5"/>
	<rect id="elczl3gjtcim5" x="390.9" y="193" class="st5" width="2.5" height="2.5"/>
	<rect id="el09zxjclzv69m" x="390.9" y="197.2" class="st5" width="2.5" height="2.5"/>
	<rect id="el2ibja7mtc2" x="390.9" y="201.4" class="st5" width="2.5" height="2.5"/>
	<rect id="elced3x3jfhcb" x="390.9" y="213.9" class="st5" width="2.5" height="2.5"/>
	<rect id="elsed3inoqnvc" x="390.9" y="218.1" class="st5" width="2.5" height="2.5"/>
	<rect id="el7wpt40ixf6f" x="387" y="188.9" class="st5" width="2.5" height="2.5"/>
	<rect id="elk8kx33qd9ln" x="387" y="193" class="st5" width="2.5" height="2.5"/>
	<rect id="elck5sitikiuu" x="387" y="197.2" class="st5" width="2.5" height="2.5"/>
	<rect id="ele506rlidsd" x="387" y="201.4" class="st5" width="2.5" height="2.5"/>
	<rect id="elrzgi0yam3vr" x="387" y="205.6" class="st5" width="2.5" height="2.5"/>
	<rect id="el7sqrvy75bci" x="387" y="213.9" class="st5" width="2.5" height="2.5"/>
	<rect id="elvo9hywkgstd" x="387" y="218.1" class="st5" width="2.5" height="2.5"/>
	<rect id="elh6ruevuvlqq" x="383" y="172.1" class="st5" width="2.5" height="2.5"/>
	<rect id="elwq5gmm7g4n" x="383" y="176.3" class="st5" width="2.5" height="2.5"/>
	<rect id="el94ufui4p8zl" x="383" y="180.5" class="st5" width="2.5" height="2.5"/>
	<rect id="elg4m62nhsy44" x="383" y="184.7" class="st5" width="2.5" height="2.5"/>
	<rect id="elr28aul9tug8" x="383" y="188.9" class="st5" width="2.5" height="2.5"/>
	<rect id="elq2izvqmspei" x="383" y="193" class="st5" width="2.5" height="2.5"/>
	<rect id="elo2n4k5qri8" x="383" y="197.2" class="st5" width="2.5" height="2.5"/>
	<rect id="el5p5iq2ujzl7" x="383" y="201.4" class="st5" width="2.5" height="2.5"/>
	<rect id="el9t55cr32uz" x="383" y="205.6" class="st5" width="2.5" height="2.5"/>
	<rect id="el5prpfmc5qd7" x="383" y="209.8" class="st5" width="2.5" height="2.5"/>
	<rect id="el2exxdsrngqx" x="383" y="218.1" class="st5" width="2.5" height="2.5"/>
	<rect id="elqim8p1yhtyl" x="379.1" y="172.1" class="st5" width="2.5" height="2.5"/>
	<rect id="eldr60rcnbei" x="379.1" y="176.3" class="st5" width="2.5" height="2.5"/>
	<rect id="elzho9mzhiqj" x="379.1" y="180.5" class="st5" width="2.5" height="2.5"/>
	<rect id="elwl7d025hk4q" x="379.1" y="184.7" class="st5" width="2.5" height="2.5"/>
	<rect id="elp0gfr7ijzu" x="379.1" y="188.9" class="st5" width="2.5" height="2.5"/>
	<rect id="ela8176sqlrqo" x="379.1" y="193" class="st5" width="2.5" height="2.5"/>
	<rect id="el8533yo74og3" x="379.1" y="197.2" class="st5" width="2.5" height="2.5"/>
	<rect id="elmh0bjcut63a" x="379.1" y="234.8" class="st5" width="2.5" height="2.5"/>
	<rect id="elnbddc3ita7" x="375.1" y="172.1" class="st5" width="2.5" height="2.5"/>
	<rect id="elxqljdodxojr" x="375.1" y="176.3" class="st5" width="2.5" height="2.5"/>
	<rect id="elh98lbiwvs7a" x="375.1" y="180.5" class="st5" width="2.5" height="2.5"/>
	<rect id="elfhgan2auwcf" x="375.1" y="184.7" class="st5" width="2.5" height="2.5"/>
	<rect id="elom4d0jht4oo" x="375.1" y="188.9" class="st5" width="2.5" height="2.5"/>
	<rect id="elc4b1a2mwfqt" x="375.1" y="193" class="st5" width="2.5" height="2.5"/>
	<rect id="el0878s5tmjl6v" x="375.1" y="197.2" class="st5" width="2.5" height="2.5"/>
	<rect id="ele39mm4ah18a" x="375.1" y="201.4" class="st5" width="2.5" height="2.5"/>
	<rect id="elfxcrpww82b5" x="375.1" y="226.5" class="st5" width="2.5" height="2.5"/>
	<rect id="eldnm8wi6s8mw" x="375.1" y="230.7" class="st5" width="2.5" height="2.5"/>
	<rect id="elbpqjin0qirm" x="375.1" y="234.8" class="st5" width="2.5" height="2.5"/>
	<rect id="elqdk8wrcpdxo" x="375.1" y="239" class="st5" width="2.5" height="2.5"/>
	<rect id="eln4o700dahae" x="375.1" y="255.7" class="st5" width="2.5" height="2.5"/>
	<rect id="eltd6fo4g649" x="371.1" y="172.1" class="st5" width="2.5" height="2.5"/>
	<rect id="eljwanmiicaz9" x="371.1" y="176.3" class="st5" width="2.5" height="2.5"/>
	<rect id="elvhwj5som7gk" x="371.1" y="180.5" class="st5" width="2.5" height="2.5"/>
	<rect id="elg11w4dwctvr" x="371.1" y="184.7" class="st5" width="2.5" height="2.5"/>
	<rect id="elhsvt5sccf3p" x="371.1" y="188.9" class="st5" width="2.5" height="2.5"/>
	<rect id="el9vajsrrojdo" x="371.1" y="193" class="st5" width="2.5" height="2.5"/>
	<rect id="elzr4lziuenkm" x="371.1" y="197.2" class="st5" width="2.5" height="2.5"/>
	<rect id="elygx7ya6jvt" x="371.1" y="201.4" class="st5" width="2.5" height="2.5"/>
	<rect id="elfeklppqd5ss" x="371.1" y="205.6" class="st5" width="2.5" height="2.5"/>
	<rect id="el97l2uwa936" x="371.1" y="209.8" class="st5" width="2.5" height="2.5"/>
	<rect id="elj4hmpvdacyh" x="371.1" y="222.3" class="st5" width="2.5" height="2.5"/>
	<rect id="elrr6vjrd726q" x="371.1" y="226.5" class="st5" width="2.5" height="2.5"/>
	<rect id="eldgnwo4cgti" x="371.1" y="230.7" class="st5" width="2.5" height="2.5"/>
	<rect id="elox2wit5f3" x="371.1" y="234.8" class="st5" width="2.5" height="2.5"/>
	<rect id="elwf7tred04yj" x="371.1" y="239" class="st5" width="2.5" height="2.5"/>
	<rect id="el9rszghujhcf" x="371.1" y="255.7" class="st5" width="2.5" height="2.5"/>
	<rect id="el9flul7315a6" x="367.2" y="172.1" class="st5" width="2.5" height="2.5"/>
	<rect id="eltvq2s45letr" x="367.2" y="176.3" class="st5" width="2.5" height="2.5"/>
	<rect id="elq7okfxkudg" x="367.2" y="180.5" class="st5" width="2.5" height="2.5"/>
	<rect id="elk74z96jteik" x="367.2" y="184.7" class="st5" width="2.5" height="2.5"/>
	<rect id="elq3fg3ldbcej" x="367.2" y="188.9" class="st5" width="2.5" height="2.5"/>
	<rect id="ellp4ujhs0ia" x="367.2" y="193" class="st5" width="2.5" height="2.5"/>
	<rect id="elzf11bbo78d" x="367.2" y="197.2" class="st5" width="2.5" height="2.5"/>
	<rect id="elx9l5uwhlpu" x="367.2" y="201.4" class="st5" width="2.5" height="2.5"/>
	<rect id="elekqxbs20dmt" x="367.2" y="205.6" class="st5" width="2.5" height="2.5"/>
	<rect id="elhm38nr7n5ut" x="367.2" y="209.8" class="st5" width="2.5" height="2.5"/>
	<rect id="elnifgljejep" x="367.2" y="213.9" class="st5" width="2.5" height="2.5"/>
	<rect id="el7hwt4glrbnd" x="367.2" y="218.1" class="st5" width="2.5" height="2.5"/>
	<rect id="eld9bjo7x8kf6" x="367.2" y="222.3" class="st5" width="2.5" height="2.5"/>
	<rect id="elqx2ao9jsbme" x="367.2" y="226.5" class="st5" width="2.5" height="2.5"/>
	<rect id="el0rm4xzb2se8j" x="367.2" y="230.7" class="st5" width="2.5" height="2.5"/>
	<rect id="elkhhgmxjgnj" x="367.2" y="234.8" class="st5" width="2.5" height="2.5"/>
	<rect id="elicpyeu37xp" x="367.2" y="239" class="st5" width="2.5" height="2.5"/>
	<rect id="elhln7avkrny" x="367.2" y="243.2" class="st5" width="2.5" height="2.5"/>
	<rect id="elc54xpi82cmn" x="363.2" y="172.1" class="st5" width="2.5" height="2.5"/>
	<rect id="elaxt9bshiuqm" x="363.2" y="176.3" class="st5" width="2.5" height="2.5"/>
	<rect id="elhxpoxpdncb" x="363.2" y="180.5" class="st5" width="2.5" height="2.5"/>
	<rect id="elisr0khga7do" x="363.2" y="184.7" class="st5" width="2.5" height="2.5"/>
	<rect id="eliylw32hvlh" x="363.2" y="188.9" class="st5" width="2.5" height="2.5"/>
	<rect id="elq5i7dd7q0ym" x="363.2" y="193" class="st5" width="2.5" height="2.5"/>
	<rect id="elgnijzhsm6z9" x="363.2" y="197.2" class="st5" width="2.5" height="2.5"/>
	<rect id="elx33jw3fdckr" x="363.2" y="201.4" class="st5" width="2.5" height="2.5"/>
	<rect id="eli1lsyx9b2yb" x="363.2" y="205.6" class="st5" width="2.5" height="2.5"/>
	<rect id="elp3nk2ez2wuh" x="363.2" y="209.8" class="st5" width="2.5" height="2.5"/>
	<rect id="elh1axqpxel5b" x="363.2" y="222.3" class="st5" width="2.5" height="2.5"/>
	<rect id="elka5mk7t4tiq" x="363.2" y="226.5" class="st5" width="2.5" height="2.5"/>
	<rect id="elacwbsuadppf" x="363.2" y="230.7" class="st5" width="2.5" height="2.5"/>
	<rect id="elm3wknestxo8" x="363.2" y="234.8" class="st5" width="2.5" height="2.5"/>
	<rect id="elwtcz2qvpe5" x="359.3" y="172.1" class="st5" width="2.5" height="2.5"/>
	<rect id="eldgpmcmzziq" x="359.3" y="176.3" class="st5" width="2.5" height="2.5"/>
	<rect id="el6uu4b9lixvn" x="359.3" y="180.5" class="st5" width="2.5" height="2.5"/>
	<rect id="elerfalrngeaw" x="359.3" y="184.7" class="st5" width="2.5" height="2.5"/>
	<rect id="elpmv3k946fq" x="359.3" y="188.9" class="st5" width="2.5" height="2.5"/>
	<rect id="elvubmgkhzamb" x="359.3" y="193" class="st5" width="2.5" height="2.5"/>
	<rect id="el642zsuj6xwv" x="359.3" y="197.2" class="st5" width="2.5" height="2.5"/>
	<rect id="elk8cg3k9mav" x="359.3" y="201.4" class="st5" width="2.5" height="2.5"/>
	<rect id="elkmh450ynw5c" x="359.3" y="205.6" class="st5" width="2.5" height="2.5"/>
	<rect id="elai1o9pultq" x="359.3" y="209.8" class="st5" width="2.5" height="2.5"/>
	<rect id="el9jjpc9qfb4c" x="359.3" y="222.3" class="st5" width="2.5" height="2.5"/>
	<rect id="el4ec2lxb0ld1" x="359.3" y="226.5" class="st5" width="2.5" height="2.5"/>
	<rect id="el8gi6z9qyt6" x="359.3" y="230.7" class="st5" width="2.5" height="2.5"/>
	<rect id="ela56ywbckhou" x="314.7" y="161.3" class="st5" width="2.5" height="2.5"/>
	<rect id="ely5yayneptt" x="314.7" y="165.5" class="st5" width="2.5" height="2.5"/>
	<rect id="elro630z01la" x="314.7" y="169.7" class="st5" width="2.5" height="2.5"/>
	<rect id="el38jxe8o55qx" x="314.7" y="173.8" class="st5" width="2.5" height="2.5"/>
	<rect id="elnhrhkfytyp" x="314.7" y="178" class="st5" width="2.5" height="2.5"/>
	<rect id="elovprw6x9krh" x="314.7" y="182.2" class="st5" width="2.5" height="2.5"/>
	<rect id="eluqr3qdect7q" x="314.7" y="186.4" class="st5" width="2.5" height="2.5"/>
	<rect id="el80qxjbbci7" x="314.7" y="190.5" class="st5" width="2.5" height="2.5"/>
	<rect id="elra1oig3nt6f" x="314.7" y="203.1" class="st5" width="2.5" height="2.5"/>
	<rect id="elc25kjuxlvlb" x="314.7" y="207.3" class="st5" width="2.5" height="2.5"/>
	<rect id="ell0xp1avojnk" x="310.7" y="161.3" class="st5" width="2.5" height="2.5"/>
	<rect id="elco9mnr1yxvu" x="310.7" y="165.5" class="st5" width="2.5" height="2.5"/>
	<rect id="elpn9xh1tidhq" x="310.7" y="169.7" class="st5" width="2.5" height="2.5"/>
	<rect id="eljb5j7didwdi" x="310.7" y="173.8" class="st5" width="2.5" height="2.5"/>
	<rect id="elf05a0iq740r" x="310.7" y="178" class="st5" width="2.5" height="2.5"/>
	<rect id="el5n5gif5ku9v" x="310.7" y="182.2" class="st5" width="2.5" height="2.5"/>
	<rect id="el50wlpl8s3cn" x="310.7" y="186.4" class="st5" width="2.5" height="2.5"/>
	<rect id="el7t3aiy3xien" x="310.7" y="190.5" class="st5" width="2.5" height="2.5"/>
	<rect id="elhv8hbi1iakg" x="310.7" y="207.3" class="st5" width="2.5" height="2.5"/>
	<rect id="elyqr3t6ow46m" x="306.8" y="161.3" class="st5" width="2.5" height="2.5"/>
	<rect id="el29vseqw1lqx" x="306.8" y="165.5" class="st5" width="2.5" height="2.5"/>
	<rect id="elpu57hcg74jm" x="306.8" y="169.7" class="st5" width="2.5" height="2.5"/>
	<rect id="elxy3bfner4f" x="306.8" y="173.8" class="st5" width="2.5" height="2.5"/>
	<rect id="elv5kechw9td" x="306.8" y="178" class="st5" width="2.5" height="2.5"/>
	<rect id="elkgc42lerzqn" x="306.8" y="182.2" class="st5" width="2.5" height="2.5"/>
	<rect id="elbzquijljvn" x="306.8" y="186.4" class="st5" width="2.5" height="2.5"/>
	<rect id="eljlhxwq4734m" x="306.8" y="190.5" class="st5" width="2.5" height="2.5"/>
	<rect id="el49dg52fj0js" x="302.8" y="161.3" class="st5" width="2.5" height="2.5"/>
	<rect id="elyd2gqff1nr" x="302.8" y="165.5" class="st5" width="2.5" height="2.5"/>
	<rect id="elu04ypu4hwrj" x="302.8" y="169.7" class="st5" width="2.5" height="2.5"/>
	<rect id="el8x2gqlbd07l" x="302.8" y="173.8" class="st5" width="2.5" height="2.5"/>
	<rect id="elp0x669nwtji" x="302.8" y="178" class="st5" width="2.5" height="2.5"/>
	<rect id="elv3cput0xj4r" x="302.8" y="182.2" class="st5" width="2.5" height="2.5"/>
	<rect id="elju6lpvhmu0k" x="302.8" y="190.5" class="st5" width="2.5" height="2.5"/>
	<rect id="elxixxdcgzhho" x="302.8" y="194.7" class="st5" width="2.5" height="2.5"/>
	<rect id="elofllhx1qyo" x="302.8" y="207.3" class="st5" width="2.5" height="2.5"/>
	<rect id="elxx419v2julq" x="302.8" y="211.4" class="st5" width="2.5" height="2.5"/>
	<rect id="elfz2sn4qydlp" x="302.8" y="215.6" class="st5" width="2.5" height="2.5"/>
	<rect id="elbkljx2x9k9v" x="302.8" y="219.8" class="st5" width="2.5" height="2.5"/>
	<rect id="el8iphcizf2nh" x="302.8" y="224" class="st5" width="2.5" height="2.5"/>
	<rect id="el7xsxfnnbgg" x="302.8" y="228.2" class="st5" width="2.5" height="2.5"/>
	<rect id="el65zxjd0dc5q" x="302.8" y="232.3" class="st5" width="2.5" height="2.5"/>
	<rect id="elp0gfjsd8kco" x="298.9" y="161.3" class="st5" width="2.5" height="2.5"/>
	<rect id="eld2ojriwnceu" x="298.9" y="165.5" class="st5" width="2.5" height="2.5"/>
	<rect id="elsp0m0kynroj" x="298.9" y="169.7" class="st5" width="2.5" height="2.5"/>
	<rect id="elbr4a8k2modw" x="298.9" y="173.8" class="st5" width="2.5" height="2.5"/>
	<rect id="elveku8zv42el" x="298.9" y="178" class="st5" width="2.5" height="2.5"/>
	<rect id="el0m9dug6kzkh" x="298.9" y="182.2" class="st5" width="2.5" height="2.5"/>
	<rect id="el7kqrv3j57jp" x="298.9" y="194.7" class="st5" width="2.5" height="2.5"/>
	<rect id="elomlihlione" x="298.9" y="198.9" class="st5" width="2.5" height="2.5"/>
	<rect id="eld950egr85rb" x="298.9" y="203.1" class="st5" width="2.5" height="2.5"/>
	<rect id="el849mde995sj" x="298.9" y="207.3" class="st5" width="2.5" height="2.5"/>
	<rect id="elnr2x23jo7gq" x="298.9" y="211.4" class="st5" width="2.5" height="2.5"/>
	<rect id="el66n06lypx8r" x="298.9" y="215.6" class="st5" width="2.5" height="2.5"/>
	<rect id="el6mdcd8clnzy" x="298.9" y="219.8" class="st5" width="2.5" height="2.5"/>
	<rect id="ell44smfcn04q" x="298.9" y="224" class="st5" width="2.5" height="2.5"/>
	<rect id="el7jtd13cwq3" x="298.9" y="228.2" class="st5" width="2.5" height="2.5"/>
	<rect id="el2v1p6546hqb" x="298.9" y="232.3" class="st5" width="2.5" height="2.5"/>
	<rect id="el4ctkogxirju" x="298.9" y="236.5" class="st5" width="2.5" height="2.5"/>
	<rect id="elybl1actjdi" x="298.9" y="244.9" class="st5" width="2.5" height="2.5"/>
	<rect id="el75uuoon76i7" x="294.9" y="161.3" class="st5" width="2.5" height="2.5"/>
	<rect id="eleperir477oj" x="294.9" y="165.5" class="st5" width="2.5" height="2.5"/>
	<rect id="elc88nuytew" x="294.9" y="169.7" class="st5" width="2.5" height="2.5"/>
	<rect id="elfcjuqtusu4r" x="294.9" y="173.8" class="st5" width="2.5" height="2.5"/>
	<rect id="ellouaayhhll" x="294.9" y="178" class="st5" width="2.5" height="2.5"/>
	<rect id="elnwtdya9oheb" x="294.9" y="182.2" class="st5" width="2.5" height="2.5"/>
	<rect id="elzy9hto9bgab" x="294.9" y="194.7" class="st5" width="2.5" height="2.5"/>
	<rect id="elm7dx8qntd7n" x="294.9" y="198.9" class="st5" width="2.5" height="2.5"/>
	<rect id="elyurwuvh6c3g" x="294.9" y="203.1" class="st5" width="2.5" height="2.5"/>
	<rect id="el50gr1r7q5i3" x="294.9" y="207.3" class="st5" width="2.5" height="2.5"/>
	<rect id="elhhjicmhn1qu" x="294.9" y="219.8" class="st5" width="2.5" height="2.5"/>
	<rect id="el1o2d2cq6kqh" x="294.9" y="224" class="st5" width="2.5" height="2.5"/>
	<rect id="el5ra6grj04k" x="294.9" y="228.2" class="st5" width="2.5" height="2.5"/>
	<rect id="el2sq42kbryn1" x="294.9" y="232.3" class="st5" width="2.5" height="2.5"/>
	<rect id="ellgnej5y02y" x="294.9" y="236.5" class="st5" width="2.5" height="2.5"/>
	<rect id="el673c14yqhx3" x="294.9" y="244.9" class="st5" width="2.5" height="2.5"/>
	<rect id="elxas5yobbec" x="294.9" y="249.1" class="st5" width="2.5" height="2.5"/>
	<rect id="el40e88lha7g3" x="259" y="200.2" class="st5" width="2.5" height="2.5"/>
	<rect id="el5z7gjmvidie" x="259" y="204.3" class="st5" width="2.5" height="2.5"/>
	<rect id="elawonp13m2j" x="259" y="208.5" class="st5" width="2.5" height="2.5"/>
	<rect id="elpqsja50jfn" x="259" y="212.7" class="st5" width="2.5" height="2.5"/>
	<rect id="elntcsaaiimjh" x="259" y="216.9" class="st5" width="2.5" height="2.5"/>
	<rect id="eljmm2ld76e9" x="259" y="221" class="st5" width="2.5" height="2.5"/>
	<rect id="elrcdv2unovos" x="259" y="225.2" class="st5" width="2.5" height="2.5"/>
	<rect id="eliwbz0ujoa89" x="259" y="237.8" class="st5" width="2.5" height="2.5"/>
	<rect id="el1u0cqu8rpkf" x="259" y="241.9" class="st5" width="2.5" height="2.5"/>
	<rect id="elod6t8pxri29" x="259" y="246.1" class="st5" width="2.5" height="2.5"/>
	<rect id="el932po5mdnq" x="255" y="200.2" class="st5" width="2.5" height="2.5"/>
	<rect id="elruhczodcouh" x="255" y="204.3" class="st5" width="2.5" height="2.5"/>
	<rect id="el7jkxbg7y7mk" x="255" y="208.5" class="st5" width="2.5" height="2.5"/>
	<rect id="elyo7lqzsp18" x="255" y="212.7" class="st5" width="2.5" height="2.5"/>
	<rect id="el93zbblgo5y4" x="255" y="216.9" class="st5" width="2.5" height="2.5"/>
	<rect id="el3kpyai8myn3" x="255" y="221" class="st5" width="2.5" height="2.5"/>
	<rect id="elnepqtjdm69" x="255" y="225.2" class="st5" width="2.5" height="2.5"/>
	<rect id="eltupz8ginwqd" x="251.1" y="200.2" class="st5" width="2.5" height="2.5"/>
	<rect id="elspp950jcr8b" x="251.1" y="204.3" class="st5" width="2.5" height="2.5"/>
	<rect id="eluornmf80z3" x="251.1" y="208.5" class="st5" width="2.5" height="2.5"/>
	<rect id="elzddkbeb6y2" x="251.1" y="212.7" class="st5" width="2.5" height="2.5"/>
	<rect id="elgp3yxembsua" x="251.1" y="216.9" class="st5" width="2.5" height="2.5"/>
	<rect id="elzu00iqxivc" x="251.1" y="221" class="st5" width="2.5" height="2.5"/>
	<rect id="elwn2gi7telu" x="251.1" y="225.2" class="st5" width="2.5" height="2.5"/>
	<rect id="elsjk1dpf8tb" x="247.1" y="200.2" class="st5" width="2.5" height="2.5"/>
	<rect id="el4ay4c75cuqc" x="247.1" y="204.3" class="st5" width="2.5" height="2.5"/>
	<rect id="elje180bssp2n" x="247.1" y="208.5" class="st5" width="2.5" height="2.5"/>
	<rect id="elu9387bt9z9f" x="247.1" y="212.7" class="st5" width="2.5" height="2.5"/>
	<rect id="elx1bdlirdoqb" x="247.1" y="216.9" class="st5" width="2.5" height="2.5"/>
	<rect id="elo5bl8a8glu" x="247.1" y="221" class="st5" width="2.5" height="2.5"/>
	<rect id="elugyq6nbcztl" x="247.1" y="225.2" class="st5" width="2.5" height="2.5"/>
	<rect id="elsr3izc8jbjp" x="247.1" y="229.4" class="st5" width="2.5" height="2.5"/>
	<rect id="eldv34f6i8mhn" x="247.1" y="233.6" class="st5" width="2.5" height="2.5"/>
	<rect id="elvqx4atc196" x="247.1" y="237.8" class="st5" width="2.5" height="2.5"/>
	<rect id="el1nd4hchj42k" x="247.1" y="241.9" class="st5" width="2.5" height="2.5"/>
	<rect id="elxkaqeo4ih5j" x="243.1" y="200.2" class="st6" width="2.5" height="2.5"/>
	<rect id="elj17g9h9egwg" x="243.1" y="204.3" class="st5" width="2.5" height="2.5"/>
	<rect id="elznfgc9wul68" x="243.1" y="208.5" class="st5" width="2.5" height="2.5"/>
	<rect id="eljubgqe62bw" x="243.1" y="212.7" class="st5" width="2.5" height="2.5"/>
	<rect id="el38su0fqwkqp" x="243.1" y="216.9" class="st5" width="2.5" height="2.5"/>
	<rect id="el1raku3i57om" x="243.1" y="221" class="st5" width="2.5" height="2.5"/>
	<rect id="eli2py3j8rm5s" x="243.1" y="225.2" class="st5" width="2.5" height="2.5"/>
	<rect id="el8qcmfmyc4t6" x="243.1" y="229.4" class="st5" width="2.5" height="2.5"/>
	<rect id="elfk46i0dzy9s" x="243.1" y="233.6" class="st5" width="2.5" height="2.5"/>
	<rect id="elzm0bvuo423s" x="243.1" y="237.8" class="st5" width="2.5" height="2.5"/>
	<rect id="elw0ohe558qvs" x="243.1" y="241.9" class="st5" width="2.5" height="2.5"/>
	<rect id="el45onsuh79z3" x="243.1" y="246.1" class="st5" width="2.5" height="2.5"/>
	<rect id="elj845rzt3h9f" x="243.1" y="258.7" class="st5" width="2.5" height="2.5"/>
	<rect id="eldh8vgqbkmcs" x="243.1" y="262.8" class="st5" width="2.5" height="2.5"/>
	<rect id="el9bud6bkkft6" x="239.2" y="200.2" class="st5" width="2.5" height="2.5"/>
	<rect id="elv010hc4wnv9" x="239.2" y="204.3" class="st5" width="2.5" height="2.5"/>
	<rect id="elx7bsxmdxk8p" x="239.2" y="208.5" class="st5" width="2.5" height="2.5"/>
	<rect id="el577anlkg00g" x="239.2" y="221" class="st5" width="2.5" height="2.5"/>
	<rect id="elmas6x29p30m" x="239.2" y="225.2" class="st5" width="2.5" height="2.5"/>
	<rect id="elwujumufz8pm" x="239.2" y="229.4" class="st5" width="2.5" height="2.5"/>
	<rect id="el4ce5vy47q2" x="239.2" y="233.6" class="st5" width="2.5" height="2.5"/>
	<rect id="elpgt0rufcsye" x="239.2" y="237.8" class="st5" width="2.5" height="2.5"/>
	<rect id="elkfdayfl0mx" x="239.2" y="241.9" class="st5" width="2.5" height="2.5"/>
	<rect id="elk9etqqqv8j" x="239.2" y="246.1" class="st5" width="2.5" height="2.5"/>
	<rect id="elm8chm42491i" x="239.2" y="258.7" class="st5" width="2.5" height="2.5"/>
	<rect id="elyvskf60376" x="239.2" y="262.8" class="st5" width="2.5" height="2.5"/>
	<rect id="elxr1tzp8vaof" x="239.2" y="267" class="st5" width="2.5" height="2.5"/>
	<rect id="el6ikfpcmojtd" x="197.7" y="175.1" class="st5" width="2.5" height="2.5"/>
	<rect id="elbt89a3kr7tt" x="197.7" y="179.3" class="st5" width="2.5" height="2.5"/>
	<rect id="els0nzcavxtlq" x="197.7" y="183.4" class="st5" width="2.5" height="2.5"/>
	<rect id="elqx7lcv0ma9" x="197.7" y="187.6" class="st5" width="2.5" height="2.5"/>
	<rect id="elozfk2zwwj0o" x="197.7" y="191.8" class="st5" width="2.5" height="2.5"/>
	<rect id="elxb23vhc62c" x="197.7" y="196" class="st5" width="2.5" height="2.5"/>
	<rect id="elkgrc3ofp0yk" x="197.7" y="200.2" class="st5" width="2.5" height="2.5"/>
	<rect id="elrgi9vm3abqp" x="197.7" y="204.3" class="st5" width="2.5" height="2.5"/>
	<rect id="elwfvb1rrsza" x="197.7" y="208.5" class="st5" width="2.5" height="2.5"/>
	<rect id="el1fhzbd2ebja" x="197.7" y="212.7" class="st5" width="2.5" height="2.5"/>
	<rect id="eljjic0p9hkpl" x="197.7" y="216.9" class="st5" width="2.5" height="2.5"/>
	<rect id="el6lw49pokfqs" x="197.7" y="221" class="st5" width="2.5" height="2.5"/>
	<rect id="elxsthq3q1vek" x="197.7" y="225.2" class="st5" width="2.5" height="2.5"/>
	<rect id="eldh3webhx83p" x="197.7" y="229.4" class="st5" width="2.5" height="2.5"/>
	<rect id="elgrio5dyj9e6" x="197.7" y="233.6" class="st5" width="2.5" height="2.5"/>
	<rect id="elcus9k16w0gm" x="197.7" y="237.8" class="st5" width="2.5" height="2.5"/>
	<rect id="elkedw0qk74" x="197.7" y="241.9" class="st5" width="2.5" height="2.5"/>
	<rect id="elknxtpfzzqo" x="197.7" y="246.1" class="st5" width="2.5" height="2.5"/>
	<rect id="elmzabsl7ce9" x="197.7" y="250.3" class="st5" width="2.5" height="2.5"/>
	<rect id="el31yhk1ssuqr" x="197.7" y="254.5" class="st5" width="2.5" height="2.5"/>
	<rect id="eln49cjvp5qrj" x="197.7" y="258.7" class="st5" width="2.5" height="2.5"/>
	<rect id="el7clphcs9sdd" x="197.7" y="262.8" class="st5" width="2.5" height="2.5"/>
	<rect id="el7w2tz6lq11g" x="197.7" y="267" class="st5" width="2.5" height="2.5"/>
	<rect id="elvhn28n4zx9" x="193.7" y="175.1" class="st5" width="2.5" height="2.5"/>
	<rect id="eljpwl67zy6zk" x="193.7" y="179.3" class="st5" width="2.5" height="2.5"/>
	<rect id="elqllqxz8jcg" x="193.7" y="183.4" class="st5" width="2.5" height="2.5"/>
	<rect id="eld2o39y7oh58" x="193.7" y="187.6" class="st5" width="2.5" height="2.5"/>
	<rect id="el6s8gkhr5nw8" x="193.7" y="191.8" class="st5" width="2.5" height="2.5"/>
	<rect id="elmynfi1ivv9o" x="193.7" y="196" class="st5" width="2.5" height="2.5"/>
	<rect id="el5yk7z4awaio" x="193.7" y="200.2" class="st5" width="2.5" height="2.5"/>
	<rect id="el4384ipoa866" x="193.7" y="204.3" class="st5" width="2.5" height="2.5"/>
	<rect id="elnddekkhenjr" x="193.7" y="208.5" class="st5" width="2.5" height="2.5"/>
	<rect id="elczumg8vjgpo" x="193.7" y="212.7" class="st5" width="2.5" height="2.5"/>
	<rect id="el7b53zzih43b" x="193.7" y="216.9" class="st5" width="2.5" height="2.5"/>
	<rect id="el1kz0k29lzmm" x="193.7" y="221" class="st5" width="2.5" height="2.5"/>
	<rect id="eld1uhv83iog8" x="193.7" y="225.2" class="st5" width="2.5" height="2.5"/>
	<rect id="el6gtyfl5hw8g" x="193.7" y="229.4" class="st5" width="2.5" height="2.5"/>
	<rect id="elvdvjphzmnui" x="193.7" y="233.6" class="st5" width="2.5" height="2.5"/>
	<rect id="elpxaao2vrawq" x="193.7" y="237.8" class="st5" width="2.5" height="2.5"/>
	<rect id="el8rwg8c85mba" x="193.7" y="241.9" class="st5" width="2.5" height="2.5"/>
	<rect id="el0gwdemlc8ke" x="193.7" y="246.1" class="st5" width="2.5" height="2.5"/>
	<rect id="el8qi94jribaf" x="193.7" y="250.3" class="st5" width="2.5" height="2.5"/>
	<rect id="elyc2ecmwxbkn" x="189.8" y="175.1" class="st5" width="2.5" height="2.5"/>
	<rect id="elzjwzj6mndb" x="189.8" y="179.3" class="st5" width="2.5" height="2.5"/>
	<rect id="elzi928x9h99" x="189.8" y="183.4" class="st5" width="2.5" height="2.5"/>
	<rect id="el2vf06ltfwel" x="189.8" y="187.6" class="st5" width="2.5" height="2.5"/>
	<rect id="eldmz16cijsas" x="189.8" y="191.8" class="st5" width="2.5" height="2.5"/>
	<rect id="ellzcibeq2vy" x="189.8" y="196" class="st5" width="2.5" height="2.5"/>
	<rect id="elqs697nb64lg" x="189.8" y="200.2" class="st5" width="2.5" height="2.5"/>
	<rect id="elif70c406h5" x="189.8" y="204.3" class="st5" width="2.5" height="2.5"/>
	<rect id="elg1uepwzn1t" x="189.8" y="208.5" class="st5" width="2.5" height="2.5"/>
	<rect id="el3vg0eelex8m" x="189.8" y="212.7" class="st5" width="2.5" height="2.5"/>
	<rect id="el6kum9lwmx0w" x="189.8" y="216.9" class="st5" width="2.5" height="2.5"/>
	<rect id="elfyr2duptcp4" x="189.8" y="221" class="st5" width="2.5" height="2.5"/>
	<rect id="elt635ut5udus" x="189.8" y="225.2" class="st5" width="2.5" height="2.5"/>
	<rect id="el5vfudwf8e1" x="189.8" y="229.4" class="st5" width="2.5" height="2.5"/>
	<rect id="elp3510eg8b4p" x="189.8" y="233.6" class="st5" width="2.5" height="2.5"/>
	<rect id="elr4ri8gpp7q" x="189.8" y="237.8" class="st5" width="2.5" height="2.5"/>
	<rect id="eldwnm1ad57g" x="189.8" y="241.9" class="st5" width="2.5" height="2.5"/>
	<rect id="elrg4a8jwc5c" x="189.8" y="246.1" class="st5" width="2.5" height="2.5"/>
	<rect id="elz2bjn0fjvpo" x="189.8" y="250.3" class="st5" width="2.5" height="2.5"/>
	<rect id="el7c3x2ecb665" x="185.8" y="175.1" class="st5" width="2.5" height="2.5"/>
	<rect id="elz9s5iptgomj" x="185.8" y="179.3" class="st5" width="2.5" height="2.5"/>
	<rect id="eliorl9cim0o9" x="185.8" y="183.4" class="st5" width="2.5" height="2.5"/>
	<rect id="elftyoqrcgj7s" x="185.8" y="187.6" class="st5" width="2.5" height="2.5"/>
	<rect id="elwqic2zjxe" x="185.8" y="191.8" class="st5" width="2.5" height="2.5"/>
	<rect id="elyl8bh3z60ng" x="185.8" y="196" class="st5" width="2.5" height="2.5"/>
	<rect id="el9ohg25v95rc" x="185.8" y="200.2" class="st5" width="2.5" height="2.5"/>
	<rect id="el7yq1mam8v9h" x="185.8" y="204.3" class="st5" width="2.5" height="2.5"/>
	<rect id="elogc26a17op" x="185.8" y="208.5" class="st5" width="2.5" height="2.5"/>
	<rect id="eldrzjznlqc8w" x="185.8" y="212.7" class="st5" width="2.5" height="2.5"/>
	<rect id="elc3xrjjxbjnb" x="185.8" y="216.9" class="st5" width="2.5" height="2.5"/>
	<rect id="elspeaxy0ymp7" x="185.8" y="221" class="st5" width="2.5" height="2.5"/>
	<rect id="elugrd0mge67m" x="185.8" y="225.2" class="st5" width="2.5" height="2.5"/>
	<rect id="el7xmhjgtof9p" x="185.8" y="229.4" class="st5" width="2.5" height="2.5"/>
	<rect id="el0y2is4fo3a8d" x="185.8" y="233.6" class="st5" width="2.5" height="2.5"/>
	<rect id="ela0t9azjm73" x="181.8" y="175.1" class="st5" width="2.5" height="2.5"/>
	<rect id="elj4q1a84skfn" x="181.8" y="179.3" class="st5" width="2.5" height="2.5"/>
	<rect id="elos46qbsac1a" x="181.8" y="183.4" class="st5" width="2.5" height="2.5"/>
	<rect id="elikb6u3dl31q" x="181.8" y="187.6" class="st5" width="2.5" height="2.5"/>
	<rect id="elirrl4idhapa" x="181.8" y="191.8" class="st5" width="2.5" height="2.5"/>
	<rect id="elxmyrotb4q6c" x="181.8" y="196" class="st5" width="2.5" height="2.5"/>
	<rect id="elr0ga6zqeza" x="181.8" y="200.2" class="st5" width="2.5" height="2.5"/>
	<rect id="elt1vz6ih47ng" x="181.8" y="204.3" class="st5" width="2.5" height="2.5"/>
	<rect id="elesgwen24cee" x="181.8" y="208.5" class="st5" width="2.5" height="2.5"/>
	<rect id="elhgr2mwiyoq7" x="181.8" y="212.7" class="st5" width="2.5" height="2.5"/>
	<rect id="elfka9oj7wn7" x="181.8" y="216.9" class="st5" width="2.5" height="2.5"/>
	<rect id="elkcvudoha7ue" x="181.8" y="221" class="st5" width="2.5" height="2.5"/>
	<rect id="el0c8fh9ys55yg" x="181.8" y="225.2" class="st5" width="2.5" height="2.5"/>
	<rect id="elb9x4aojmomc" x="177.9" y="175.1" class="st5" width="2.5" height="2.5"/>
	<rect id="elbuhvfdh6dar" x="177.9" y="179.3" class="st5" width="2.5" height="2.5"/>
	<rect id="elhotg5emowrt" x="177.9" y="183.4" class="st5" width="2.5" height="2.5"/>
	<rect id="eln6lzvuufzst" x="177.9" y="187.6" class="st5" width="2.5" height="2.5"/>
	<rect id="el9e24o7fpz9" x="177.9" y="191.8" class="st5" width="2.5" height="2.5"/>
	<rect id="elutn5uf6nm2l" x="177.9" y="196" class="st5" width="2.5" height="2.5"/>
	<rect id="eloaygzpe2bss" x="177.9" y="200.2" class="st5" width="2.5" height="2.5"/>
	<rect id="elo5vhw57lw9a" x="177.9" y="204.3" class="st5" width="2.5" height="2.5"/>
	<rect id="eldmqfsuvph6" x="177.9" y="208.5" class="st5" width="2.5" height="2.5"/>
	<rect id="eleej0vsld3ok" x="177.9" y="212.7" class="st5" width="2.5" height="2.5"/>
	<rect id="el4gsbn9m6ka7" x="177.9" y="216.9" class="st5" width="2.5" height="2.5"/>
	<rect id="elfwv8s7ym9sq" x="177.9" y="221" class="st5" width="2.5" height="2.5"/>
	<rect id="ellwh3bsn5kwn" x="409" y="173.8" class="st5" width="2.5" height="2.5"/>
	<rect id="elrwgxhxa02hk" x="409" y="178" class="st5" width="2.5" height="2.5"/>
	<rect id="elnhrg2jssy0a" x="409" y="182.2" class="st5" width="2.5" height="2.5"/>
	<rect id="el5i0i3iiyehq" x="409" y="186.4" class="st5" width="2.5" height="2.5"/>
	<rect id="el13kdxvzjs56e" x="409" y="190.5" class="st5" width="2.5" height="2.5"/>
	<rect id="el62jy2qha00j" x="409" y="194.7" class="st5" width="2.5" height="2.5"/>
	<rect id="ellfnlw4cs83" x="409" y="198.9" class="st5" width="2.5" height="2.5"/>
	<rect id="elghdnwxkskhg" x="409" y="203.1" class="st5" width="2.5" height="2.5"/>
	<rect id="elqy6klwa47mq" x="409" y="207.3" class="st5" width="2.5" height="2.5"/>
	<rect id="eldvsqatbpkyl" x="409" y="211.4" class="st5" width="2.5" height="2.5"/>
	<rect id="el71kwgapm63p" x="409" y="215.6" class="st5" width="2.5" height="2.5"/>
	<rect id="els26pc3ed5y" x="409" y="219.8" class="st5" width="2.5" height="2.5"/>
	<rect id="elat87hnquc4j" x="409" y="224" class="st5" width="2.5" height="2.5"/>
	<rect id="elpmjtrldadl" x="409" y="228.2" class="st5" width="2.5" height="2.5"/>
	<rect id="elndkagk3ads" x="409" y="232.3" class="st5" width="2.5" height="2.5"/>
	<rect id="el9j6zq0027fu" x="409" y="236.5" class="st5" width="2.5" height="2.5"/>
	<rect id="el8e1uw2x37l7" x="409" y="240.7" class="st5" width="2.5" height="2.5"/>
	<rect id="el020jft4w5dii" x="409" y="249.1" class="st5" width="2.5" height="2.5"/>
	<rect id="elrlgyzh1fpm" x="409" y="253.2" class="st5" width="2.5" height="2.5"/>
	<rect id="elexpuqfht184" x="409" y="257.4" class="st5" width="2.5" height="2.5"/>
	<rect id="el2p5252mw76o" x="409" y="261.6" class="st5" width="2.5" height="2.5"/>
	<rect id="el9bku667254b" x="409" y="265.8" class="st5" width="2.5" height="2.5"/>
	<rect id="elueebtimxr2j" x="405" y="173.8" class="st5" width="2.5" height="2.5"/>
	<rect id="el0lfb8pbiael" x="405" y="178" class="st5" width="2.5" height="2.5"/>
	<rect id="elb53q7wemn5" x="405" y="182.2" class="st5" width="2.5" height="2.5"/>
	<rect id="elx778sfzfuvf" x="405" y="186.4" class="st5" width="2.5" height="2.5"/>
	<rect id="el4am8cuq677f" x="405" y="190.5" class="st5" width="2.5" height="2.5"/>
	<rect id="el4hj93sr6tp9" x="405" y="194.7" class="st5" width="2.5" height="2.5"/>
	<rect id="elhot7xy9u3tk" x="405" y="198.9" class="st5" width="2.5" height="2.5"/>
	<rect id="el96aifaaxlu6" x="405" y="203.1" class="st5" width="2.5" height="2.5"/>
	<rect id="elgdt801i64gi" x="405" y="207.3" class="st5" width="2.5" height="2.5"/>
	<rect id="el0ksznezravk" x="405" y="211.4" class="st5" width="2.5" height="2.5"/>
	<rect id="elzts70v0g5i8" x="405" y="215.6" class="st5" width="2.5" height="2.5"/>
	<rect id="elied9waikzl" x="405" y="219.8" class="st5" width="2.5" height="2.5"/>
	<rect id="el42orhrne1u7" x="405" y="224" class="st5" width="2.5" height="2.5"/>
	<rect id="elwcovyf9umjf" x="405" y="228.2" class="st5" width="2.5" height="2.5"/>
	<rect id="elnig85k0ltpa" x="405" y="232.3" class="st5" width="2.5" height="2.5"/>
	<rect id="elgoss8yz8vqr" x="405" y="236.5" class="st5" width="2.5" height="2.5"/>
	<rect id="elhr73vc2myjb" x="405" y="261.6" class="st5" width="2.5" height="2.5"/>
	<rect id="elnxtsvviz8hg" x="405" y="265.8" class="st5" width="2.5" height="2.5"/>
	<rect id="elp113xwdgefm" x="401.1" y="173.8" class="st5" width="2.5" height="2.5"/>
	<rect id="elqxdsi4jq5nf" x="401.1" y="178" class="st5" width="2.5" height="2.5"/>
	<rect id="ell3ld8l9q42j" x="401.1" y="182.2" class="st5" width="2.5" height="2.5"/>
	<rect id="elbvelg54xwrv" x="401.1" y="186.4" class="st5" width="2.5" height="2.5"/>
	<rect id="el0qf86fydfoqb" x="401.1" y="190.5" class="st5" width="2.5" height="2.5"/>
	<rect id="eljzjvd3xbbk" x="401.1" y="194.7" class="st5" width="2.5" height="2.5"/>
	<rect id="elmjpyckt3vw9" x="401.1" y="198.9" class="st5" width="2.5" height="2.5"/>
	<rect id="elqg0vprgn9ud" x="401.1" y="203.1" class="st5" width="2.5" height="2.5"/>
	<rect id="elqtfdbhr10w" x="401.1" y="207.3" class="st5" width="2.5" height="2.5"/>
	<rect id="elm7u1nycsvsl" x="401.1" y="211.4" class="st5" width="2.5" height="2.5"/>
	<rect id="elvv8zx3bhftp" x="401.1" y="215.6" class="st5" width="2.5" height="2.5"/>
	<rect id="el3pagba5gt1h" x="401.1" y="219.8" class="st5" width="2.5" height="2.5"/>
	<rect id="eljxlf7y8o49" x="401.1" y="224" class="st5" width="2.5" height="2.5"/>
	<rect id="elts5r2598xbj" x="401.1" y="228.2" class="st5" width="2.5" height="2.5"/>
	<rect id="elxqjp9z0dhrp" x="401.1" y="232.3" class="st5" width="2.5" height="2.5"/>
	<rect id="elvgv2ikx3fp" x="401.1" y="236.5" class="st5" width="2.5" height="2.5"/>
	<rect id="ely5iqks8a7g8" x="401.1" y="244.9" class="st5" width="2.5" height="2.5"/>
	<rect id="elte5sqodtri" x="401.1" y="249.1" class="st5" width="2.5" height="2.5"/>
	<rect id="eltl9jim29zoi" x="401.1" y="253.2" class="st5" width="2.5" height="2.5"/>
	<rect id="eldy1z55gggnm" x="401.1" y="257.4" class="st5" width="2.5" height="2.5"/>
	<rect id="el4k8wsr5aie" x="401.1" y="265.8" class="st5" width="2.5" height="2.5"/>
	<rect id="el3ja7xb13kc4" x="332" y="203.1" class="st5" width="2.5" height="2.5"/>
	<rect id="elfb81eltm57h" x="332" y="207.3" class="st5" width="2.5" height="2.5"/>
	<rect id="el27av0h3x472g" x="332" y="211.4" class="st5" width="2.5" height="2.5"/>
	<rect id="elqbjcet1zn0h" x="332" y="215.6" class="st5" width="2.5" height="2.5"/>
	<rect id="elrueax70hyy" x="332" y="219.8" class="st5" width="2.5" height="2.5"/>
	<rect id="elhsjsb8xeahm" x="332" y="224" class="st5" width="2.5" height="2.5"/>
	<rect id="el5k84st0y2d8" x="332" y="228.2" class="st5" width="2.5" height="2.5"/>
	<rect id="el3fym8z5o9wk" x="332" y="232.3" class="st5" width="2.5" height="2.5"/>
	<rect id="elnls8o862l8" x="332" y="236.5" class="st5" width="2.5" height="2.5"/>
	<rect id="elqkidym6v80i" x="332" y="240.7" class="st5" width="2.5" height="2.5"/>
	<rect id="elof2h3ooqmdg" x="332" y="244.9" class="st5" width="2.5" height="2.5"/>
	<rect id="elzycoz8c51nr" x="332" y="249.1" class="st5" width="2.5" height="2.5"/>
	<rect id="el0efsd9fimr6o" x="332" y="253.2" class="st5" width="2.5" height="2.5"/>
	<rect id="eler5xqhi9c1j" x="332" y="261.6" class="st5" width="2.5" height="2.5"/>
	<rect id="elkuc4l4z34lj" x="332" y="265.8" class="st5" width="2.5" height="2.5"/>
	<rect id="elovxc25nm03c" x="332" y="269.9" class="st5" width="2.5" height="2.5"/>
	<rect id="el9p9qcinco8s" x="332" y="274.1" class="st5" width="2.5" height="2.5"/>
	<rect id="elm63n3l5l" x="332" y="282.5" class="st5" width="2.5" height="2.5"/>
	<rect id="elr239vjewokn" x="332" y="286.7" class="st5" width="2.5" height="2.5"/>
	<rect id="elg9cf9294ufu" x="332" y="290.8" class="st5" width="2.5" height="2.5"/>
	<rect id="ellk2b10n1ah" x="328" y="203.1" class="st5" width="2.5" height="2.5"/>
	<rect id="eluwjshf5vns" x="328" y="207.3" class="st5" width="2.5" height="2.5"/>
	<rect id="elrzgkjcs6o2o" x="328" y="211.4" class="st5" width="2.5" height="2.5"/>
	<rect id="elhpsvrpip6jc" x="328" y="215.6" class="st5" width="2.5" height="2.5"/>
	<rect id="el183tlz9tdlb" x="328" y="219.8" class="st5" width="2.5" height="2.5"/>
	<rect id="ele1x2j75wpm" x="328" y="224" class="st5" width="2.5" height="2.5"/>
	<rect id="el7ptnkqlpj1r" x="328" y="228.2" class="st5" width="2.5" height="2.5"/>
	<rect id="el1nbse7ga2vx" x="328" y="232.3" class="st5" width="2.5" height="2.5"/>
	<rect id="el04ktjgjlq8yq" x="328" y="236.5" class="st5" width="2.5" height="2.5"/>
	<rect id="elzmudd0aqmie" x="328" y="240.7" class="st5" width="2.5" height="2.5"/>
	<rect id="el4txd0azyzva" x="328" y="244.9" class="st5" width="2.5" height="2.5"/>
	<rect id="el3kpevywyrht" x="328" y="249.1" class="st5" width="2.5" height="2.5"/>
	<rect id="el9mekg5y9esm" x="328" y="253.2" class="st5" width="2.5" height="2.5"/>
	<rect id="el0sd0bq9yevz" x="328" y="265.8" class="st5" width="2.5" height="2.5"/>
	<rect id="eldsuwask0g3i" x="328" y="269.9" class="st5" width="2.5" height="2.5"/>
	<rect id="elchzv0s2q5pf" x="328" y="278.3" class="st5" width="2.5" height="2.5"/>
	<rect id="el0ke8278dk0x" x="328" y="282.5" class="st5" width="2.5" height="2.5"/>
	<rect id="el828lqa3ptmp" x="328" y="286.7" class="st5" width="2.5" height="2.5"/>
	<rect id="elp15vyuyc7w" x="328" y="290.8" class="st5" width="2.5" height="2.5"/>
	<rect id="el7okufjo2p3w" x="324.1" y="203.1" class="st5" width="2.5" height="2.5"/>
	<rect id="elzczangcwsvj" x="324.1" y="207.3" class="st5" width="2.5" height="2.5"/>
	<rect id="elyqjbzowzj3" x="324.1" y="211.4" class="st5" width="2.5" height="2.5"/>
	<rect id="elo24brh5vc3" x="324.1" y="215.6" class="st5" width="2.5" height="2.5"/>
	<rect id="elk8hnf50yiu" x="324.1" y="219.8" class="st5" width="2.5" height="2.5"/>
	<rect id="el8zcc267lr53" x="324.1" y="224" class="st5" width="2.5" height="2.5"/>
	<rect id="el1xo0s6tw8dw" x="324.1" y="228.2" class="st5" width="2.5" height="2.5"/>
	<rect id="elvxyop4awpcq" x="324.1" y="232.3" class="st5" width="2.5" height="2.5"/>
	<rect id="el0iqzlbot12oh" x="324.1" y="236.5" class="st5" width="2.5" height="2.5"/>
	<rect id="el0a18fysdl1gb" x="324.1" y="240.7" class="st5" width="2.5" height="2.5"/>
	<rect id="el5uyzm8us953" x="324.1" y="244.9" class="st5" width="2.5" height="2.5"/>
	<rect id="eln3dmk4ul28s" x="324.1" y="249.1" class="st5" width="2.5" height="2.5"/>
	<rect id="el80nbv6hbs1" x="324.1" y="253.2" class="st5" width="2.5" height="2.5"/>
	<rect id="els8dlj9tctcs" x="324.1" y="257.4" class="st5" width="2.5" height="2.5"/>
	<rect id="elaljj228828w" x="324.1" y="265.8" class="st5" width="2.5" height="2.5"/>
	<rect id="elck5l3k9sz4c" x="324.1" y="274.1" class="st5" width="2.5" height="2.5"/>
	<rect id="elibx4xqp2ln" x="324.1" y="278.3" class="st5" width="2.5" height="2.5"/>
	<rect id="el9kbz8tt0woo" x="324.1" y="282.5" class="st5" width="2.5" height="2.5"/>
	<rect id="elronyuu77pcs" x="324.1" y="286.7" class="st5" width="2.5" height="2.5"/>
	<rect id="elkhv05z92f7" x="324.1" y="290.8" class="st5" width="2.5" height="2.5"/>
	<rect id="el8qqljo7w4wu" x="348.1" y="226.9" class="st5" width="2.5" height="2.5"/>
	<rect id="elk2678ufy8a8" x="348.1" y="231.1" class="st5" width="2.5" height="2.5"/>
	<rect id="elpz2mffyi93e" x="348.1" y="235.3" class="st5" width="2.5" height="2.5"/>
	<rect id="el4ys7qzvkb8v" x="348.1" y="239.4" class="st5" width="2.5" height="2.5"/>
	<rect id="el5ly0c2fc2kw" x="348.1" y="243.6" class="st5" width="2.5" height="2.5"/>
	<rect id="ellr68icy5bzo" x="348.1" y="247.8" class="st5" width="2.5" height="2.5"/>
	<rect id="el2g94c4qgjd9" x="348.1" y="260.3" class="st5" width="2.5" height="2.5"/>
	<rect id="elu2r863cx27s" x="348.1" y="264.5" class="st5" width="2.5" height="2.5"/>
	<rect id="elz7x0ll6tdwm" x="348.1" y="268.7" class="st5" width="2.5" height="2.5"/>
	<rect id="elj7thzdmiyv" x="348.1" y="272.9" class="st5" width="2.5" height="2.5"/>
	<rect id="el9ruxkdcq7qm" x="348.1" y="277.1" class="st5" width="2.5" height="2.5"/>
	<rect id="elxo25q9586m" x="348.1" y="281.2" class="st5" width="2.5" height="2.5"/>
	<rect id="el55blegqxrte" x="348.1" y="285.4" class="st5" width="2.5" height="2.5"/>
	<rect id="elxal01800f6d" x="344.2" y="226.9" class="st5" width="2.5" height="2.5"/>
	<rect id="el81rt5nuckq4" x="344.2" y="231.1" class="st5" width="2.5" height="2.5"/>
	<rect id="el6uay7iumw2r" x="344.2" y="235.3" class="st5" width="2.5" height="2.5"/>
	<rect id="el2ascmsd0iiz" x="344.2" y="239.4" class="st5" width="2.5" height="2.5"/>
	<rect id="elyn4ex789p7" x="344.2" y="243.6" class="st5" width="2.5" height="2.5"/>
	<rect id="elh0a5baxep4p" x="344.2" y="247.8" class="st5" width="2.5" height="2.5"/>
	<rect id="el130vjsxz40uh" x="344.2" y="260.3" class="st5" width="2.5" height="2.5"/>
	<rect id="eljsrtvco4hmn" x="344.2" y="264.5" class="st5" width="2.5" height="2.5"/>
	<rect id="elj4of0m3mhu" x="344.2" y="268.7" class="st5" width="2.5" height="2.5"/>
	<rect id="el3t3abk9sxe" x="344.2" y="272.9" class="st5" width="2.5" height="2.5"/>
	<rect id="elgrmwj3f85hu" x="344.2" y="277.1" class="st5" width="2.5" height="2.5"/>
	<rect id="elbg4f24x5gz7" x="344.2" y="281.2" class="st5" width="2.5" height="2.5"/>
	<rect id="el63r0tqlzzi9" x="344.2" y="289.6" class="st5" width="2.5" height="2.5"/>
	<rect id="elzzga3qot5y" x="212.6" y="208.5" class="st5" width="2.5" height="2.5"/>
	<rect id="elrsgpf4efv2h" x="212.6" y="212.7" class="st5" width="2.5" height="2.5"/>
	<rect id="elzto7wkvlv38" x="212.6" y="216.9" class="st5" width="2.5" height="2.5"/>
	<rect id="eliu537guorjo" x="212.6" y="221" class="st5" width="2.5" height="2.5"/>
	<rect id="elpcvbqafc81l" x="212.6" y="225.2" class="st5" width="2.5" height="2.5"/>
	<rect id="elmo44g861h6" x="212.6" y="229.4" class="st5" width="2.5" height="2.5"/>
	<rect id="elh79vhx1rdyj" x="212.6" y="233.6" class="st5" width="2.5" height="2.5"/>
	<rect id="el5409d8xgwcc" x="212.6" y="237.8" class="st5" width="2.5" height="2.5"/>
	<rect id="elrswvduo9om" x="212.6" y="241.9" class="st5" width="2.5" height="2.5"/>
	<rect id="eleonhuqu4twv" x="212.6" y="246.1" class="st5" width="2.5" height="2.5"/>
	<rect id="el2s9zq6a10xi" x="212.6" y="250.3" class="st5" width="2.5" height="2.5"/>
	<rect id="elka7dqu7osdk" x="212.6" y="258.7" class="st5" width="2.5" height="2.5"/>
	<rect id="elvkg7uy84yr" x="212.6" y="262.8" class="st5" width="2.5" height="2.5"/>
	<rect id="elrbwsjsdu91" x="212.6" y="267" class="st5" width="2.5" height="2.5"/>
	<rect id="el3421fqerf1e" x="212.6" y="271.2" class="st5" width="2.5" height="2.5"/>
	<rect id="el818dd4twxds" x="212.6" y="275.4" class="st5" width="2.5" height="2.5"/>
	<rect id="eljbh5xewsbxp" x="212.6" y="279.6" class="st5" width="2.5" height="2.5"/>
	<rect id="elg80r8dd0v1h" x="212.6" y="283.7" class="st5" width="2.5" height="2.5"/>
	<rect id="elbngbuxi4qvr" x="212.6" y="287.9" class="st5" width="2.5" height="2.5"/>
	<rect id="elv4f3cgmkan8" x="208.7" y="208.5" class="st5" width="2.5" height="2.5"/>
	<rect id="el71tx6hrtkf" x="208.7" y="212.7" class="st5" width="2.5" height="2.5"/>
	<rect id="el6izwnime695" x="208.7" y="216.9" class="st5" width="2.5" height="2.5"/>
	<rect id="eltxeu1gj7qyp" x="208.7" y="221" class="st5" width="2.5" height="2.5"/>
	<rect id="elkveku46s7sp" x="208.7" y="225.2" class="st5" width="2.5" height="2.5"/>
	<rect id="elzg2r83a0xxk" x="208.7" y="229.4" class="st5" width="2.5" height="2.5"/>
	<rect id="elrj1qkskdrl" x="208.7" y="233.6" class="st5" width="2.5" height="2.5"/>
	<rect id="elt6lfh0mf2c" x="208.7" y="237.8" class="st5" width="2.5" height="2.5"/>
	<rect id="elmkzpiauf2e" x="208.7" y="241.9" class="st5" width="2.5" height="2.5"/>
	<rect id="ell7fdinombk" x="208.7" y="246.1" class="st5" width="2.5" height="2.5"/>
	<rect id="elcyn5zm25jct" x="208.7" y="250.3" class="st5" width="2.5" height="2.5"/>
	<rect id="eluhvv0v3lrw" x="208.7" y="254.5" class="st5" width="2.5" height="2.5"/>
	<rect id="eleu5c5y3uoyj" x="208.7" y="258.7" class="st5" width="2.5" height="2.5"/>
	<rect id="elw693x1zahln" x="208.7" y="262.8" class="st5" width="2.5" height="2.5"/>
	<rect id="eldvlzokzvb0a" x="208.7" y="267" class="st5" width="2.5" height="2.5"/>
	<rect id="el75nek02cis8" x="208.7" y="271.2" class="st5" width="2.5" height="2.5"/>
	<rect id="elohf572f0gcr" x="208.7" y="275.4" class="st5" width="2.5" height="2.5"/>
	<rect id="elm5tcl92pflc" x="208.7" y="279.6" class="st5" width="2.5" height="2.5"/>
	<rect id="eljo61oyjogjp" x="208.7" y="283.7" class="st5" width="2.5" height="2.5"/>
	<rect id="elnq21y59430c" x="208.7" y="287.9" class="st5" width="2.5" height="2.5"/>
	<rect id="eltyoojcxxz8s" x="232.1" y="224.8" class="st5" width="2.5" height="2.5"/>
	<rect id="elq2673ubldm7" x="232.1" y="229" class="st5" width="2.5" height="2.5"/>
	<rect id="elk9almlaiho" x="232.1" y="233.1" class="st5" width="2.5" height="2.5"/>
	<rect id="el1fo2cpfnfum" x="232.1" y="237.3" class="st5" width="2.5" height="2.5"/>
	<rect id="el5iazm6ijr0x" x="232.1" y="241.5" class="st5" width="2.5" height="2.5"/>
	<rect id="el04j728p34bl3" x="232.1" y="245.7" class="st5" width="2.5" height="2.5"/>
	<rect id="elavglhqx5784" x="232.1" y="249.9" class="st5" width="2.5" height="2.5"/>
	<rect id="eljxxf5zwoi79" x="232.1" y="254" class="st5" width="2.5" height="2.5"/>
	<rect id="ela5ve41lomcw" x="232.1" y="258.2" class="st5" width="2.5" height="2.5"/>
	<rect id="el7w3k2n4ek98" x="232.1" y="262.4" class="st5" width="2.5" height="2.5"/>
	<rect id="elifiho05qzhg" x="228.2" y="224.8" class="st5" width="2.5" height="2.5"/>
	<rect id="elpvqpyfkccra" x="228.2" y="229" class="st5" width="2.5" height="2.5"/>
	<rect id="el9evpg34rvhr" x="228.2" y="233.1" class="st5" width="2.5" height="2.5"/>
	<rect id="el3d6nxapscqo" x="228.2" y="237.3" class="st5" width="2.5" height="2.5"/>
	<rect id="el9mm62l1u0ok" x="228.2" y="241.5" class="st5" width="2.5" height="2.5"/>
	<rect id="els35n5hft08f" x="228.2" y="245.7" class="st5" width="2.5" height="2.5"/>
	<rect id="elaczpdcldlgv" x="228.2" y="249.9" class="st5" width="2.5" height="2.5"/>
	<rect id="el5u7rlxlituo" x="228.2" y="254" class="st5" width="2.5" height="2.5"/>
	<rect id="elviumxzemrkf" x="228.2" y="258.2" class="st5" width="2.5" height="2.5"/>
	<rect id="eloms3pngm04i" x="250" y="66.2" class="st2" width="4.2" height="233.1"/>
	<rect id="eld1b6wnu02rq" x="328.8" y="66.2" class="st2" width="4.2" height="233.1"/>
	<rect id="el31e2odnu25s" x="407.5" y="66.2" class="st2" width="4.2" height="233.1"/>
	<path id="elkvgcsm9zpw8" class="st5" d="M114.2,276.6h25.8c2.4,0,4.4,2,4.4,4.4l0,0v49.8l0,0h-34.6l0,0V281
		C109.7,278.6,111.7,276.6,114.2,276.6C114.1,276.6,114.1,276.6,114.2,276.6z"/>
	<rect id="elsyj0coldc3a" x="109.8" y="283.9" class="st4" width="34.6" height="3.9"/>
	<path id="el8du02pbk0gp" class="st2" d="M129.4,324.3h8.6c1.3,0,2.4,1.1,2.4,2.4v4.2l0,0H127l0,0v-4.2
		C127,325.3,128.1,324.3,129.4,324.3C129.4,324.3,129.4,324.3,129.4,324.3z"/>
	<path id="eltuf4xr9oyr" class="st4" d="M140.5,330.8h-9.6c-0.9,0-1.5-0.7-1.5-1.5l0,0l0,0c0-0.8,0.7-1.5,1.5-1.5h9.6
		c0.8,0,1.5,0.7,1.5,1.5l0,0C142,330.1,141.3,330.8,140.5,330.8L140.5,330.8z"/>
	<g id="elpbf7x9qk7bg">
		<circle class="st2" cx="288.6" cy="32.3" r="23.5"/>
	</g>
	<g id="elc2vlwymohwq">
		<circle class="st5" cx="288.6" cy="32.3" r="20"/>
	</g>
	<polyline id="elgn2ksqvk6br" class="st5" points="289.6,18.6 289.6,32.6 298.9,27.3 	"/>
	<path id="el37gft37ygen" class="st2" d="M289.6,33.6c-0.2,0-0.4,0-0.5-0.1c-0.3-0.2-0.5-0.5-0.5-0.9v-14c0-0.6,0.4-1,1-1s1,0.4,1,1
		v12.3l7.8-4.4c0.5-0.3,1.1-0.1,1.4,0.4c0.3,0.5,0.1,1.1-0.4,1.4l-9.3,5.3C289.9,33.5,289.8,33.6,289.6,33.6z"/>
	<path id="elrfvyjurgmgn" class="st2" d="M63.3,262.2c-1.8-3-4.8-0.4-4.8-0.4c0.4-5.7-4.8-9.6-4.8-9.6s6.1,0,6.9-5.8
		s-2.1-3.1-4.9-3.1s-5.7,8.1-2,12.6c3.7,4.6,2.7,12.4-5.8,19.9c-2,1.9-3.5,4.3-4.4,6.9c0.6-6.9,1-16.6-1-23.1c-3.4-11,3.1-14,5-19.5
		s-5-10.2-5-10.2s6.5-3,3.3-6.4s-9.7-2.9-9.7,1.5s4.4,6.1,4.4,6.1s5.1,5.3,5.1,8s-5.1,8.7-5.1,8.7s2.3-5.1-2.3-5.3s-6.1,5.9-4.2,8.7
		s5.1,0.4,5.1,0.4c0.2,3.2,0.7,6.4,1.4,9.5c0.5,1.6,0.3,7.8-0.1,14.3c-0.9-2.3-2.3-4.4-4.1-6.1c-8.5-7.5-9.4-15.3-5.8-19.9
		c3.7-4.6,0.8-12.7-2-12.6s-5.8-2.7-4.9,3.1s6.9,5.8,6.9,5.8s-5.2,3.9-4.8,9.6c0,0-3-2.6-4.8,0.4c-3.2,5.3,4.2,8.6,5.5,6
		c0,0,15.8,11.2,12,27.3l0.9,1.3c-0.1,1.3-0.2,2.1-0.2,2.1l1.2-0.5l1.4,2.1c0,2.3,0.1,4.7,0.4,7l3.8-5.6c-3.8-16.1,12-27.3,12-27.3
		C59,270.8,66.5,267.5,63.3,262.2z"/>
	<g id="ello540njssvg">
		<path class="st7" d="M63.3,262.2c-1.8-3-4.8-0.4-4.8-0.4c0.4-5.7-4.8-9.6-4.8-9.6s6.1,0,6.9-5.8s-2.1-3.1-4.9-3.1s-5.7,8.1-2,12.6
			c3.7,4.6,2.7,12.4-5.8,19.9c-2,1.9-3.5,4.3-4.4,6.9c0.6-6.9,1-16.6-1-23.1c-3.4-11,3.1-14,5-19.5s-5-10.2-5-10.2s6.5-3,3.3-6.4
			s-9.7-2.9-9.7,1.5s4.4,6.1,4.4,6.1s5.1,5.3,5.1,8s-5.1,8.7-5.1,8.7s2.3-5.1-2.3-5.3s-6.1,5.9-4.2,8.7s5.1,0.4,5.1,0.4
			c0.2,3.2,0.7,6.4,1.4,9.5c0.5,1.6,0.3,7.8-0.1,14.3c-0.9-2.3-2.3-4.4-4.1-6.1c-8.5-7.5-9.4-15.3-5.8-19.9c3.7-4.6,0.8-12.7-2-12.6
			s-5.8-2.7-4.9,3.1s6.9,5.8,6.9,5.8s-5.2,3.9-4.8,9.6c0,0-3-2.6-4.8,0.4c-3.2,5.3,4.2,8.6,5.5,6c0,0,15.8,11.2,12,27.3l0.9,1.3
			c-0.1,1.3-0.2,2.1-0.2,2.1l1.2-0.5l1.4,2.1c0,2.3,0.1,4.7,0.4,7l3.8-5.6c-3.8-16.1,12-27.3,12-27.3
			C59,270.8,66.5,267.5,63.3,262.2z"/>
	</g>
	<polygon id="elf6k2yim3f67" class="st4" points="60.2,330.8 24,330.8 20.1,291.2 64.1,291.2 	"/>
	<rect id="ell12cava8n7p" x="18.2" y="286.9" class="st5" width="47.8" height="8.7"/>
</g>
<g id="freepik--Shadow--inject-1">
	<ellipse id="freepik--path--inject-1" class="st3" cx="216.3" cy="364.8" rx="193.9" ry="11.3"/>
</g>
<g id="freepik--Plant--inject-1">
	<path id="el2pafzw9i0oz" class="st8" d="M376.8,333.3c0.1-1,3.6-25.2-3.4-33.5c-1.4-1.8-3.5-2.8-5.8-2.9
		c-14.2-0.3-16.1,11-16.1,11.1l1.7,0.3c0.1-0.4,1.7-10,14.4-9.7c1.8,0,3.5,0.9,4.6,2.3c6.5,7.8,3,31.9,3,32.2L376.8,333.3z"/>
	<path id="elzy8g43y4ayi" class="st8" d="M377.6,332.2l1.7-0.1c0-0.2-0.6-22.2,10.3-26.8c10.6-4.5,15.4,4.7,15.6,5.1l1.5-0.8
		c0-0.1-5.7-11-17.8-5.9C377,308.8,377.6,331.2,377.6,332.2z"/>
	<path id="elhuhk99aen5f" class="st8" d="M377.6,333.9c0-0.4,0.1-35.2,6.9-45.4c6.5-9.8,17-5.2,17.5-5l0.7-1.5
		c-0.1,0-12.3-5.4-19.6,5.6c-7.1,10.6-7.2,44.9-7.2,46.3L377.6,333.9z"/>
	<path id="elow11e0ywwc" class="st8" d="M365.6,297.7c0,0,6.2,2.3,4.3,7.6s-21.4,14.2-21.4,14.2s-8.2-7.5-0.7-19.7
		S365.4,293.9,365.6,297.7z"/>
	<path id="eli1ffy776ae" class="st8" d="M384.8,286.7c0,0-4.4-0.5-4-3.1s17.1-9.5,26.9,1.6c0,0-6.3,10.8-15.4,11
		S384.8,286.7,384.8,286.7z"/>
	<path id="el8bo2ud5wjly" class="st8" d="M389.3,304.6c0,0-3-2.4,0.2-3.6s19.3-0.9,19.5,15c0,0-18.7,3.1-21-2.9
		S389.3,304.6,389.3,304.6z"/>
	<g id="el58eh46tedyf">
		<path class="st9" d="M365.6,297.7c0,0,6.2,2.3,4.3,7.6s-21.4,14.2-21.4,14.2s-8.2-7.5-0.7-19.7S365.4,293.9,365.6,297.7z"/>
	</g>
	<g id="elwgzy5i5as0b">
		<path class="st9" d="M384.8,286.7c0,0-4.4-0.5-4-3.1s17.1-9.5,26.9,1.6c0,0-6.3,10.8-15.4,11S384.8,286.7,384.8,286.7z"/>
	</g>
	<g id="el27wjyhbkqdvi">
		<path class="st9" d="M389.3,304.6c0,0-3-2.4,0.2-3.6s19.3-0.9,19.5,15c0,0-18.7,3.1-21-2.9S389.3,304.6,389.3,304.6z"/>
	</g>
	<polygon id="el38fne901ap1" class="st8" points="362.3,365.6 391.2,365.6 394.4,333.9 359.1,333.9 	"/>
	<g id="el5pm6e64f267">
		<polygon class="st10" points="362.3,365.6 391.2,365.6 394.4,333.9 359.1,333.9 		"/>
	</g>
	<g id="elgzo5jvf8245">
		<rect x="357.6" y="330.4" class="st8" width="38.3" height="7"/>
	</g>
	<g id="el8rued4tdtth">
		<rect x="357.6" y="330.4" class="st11" width="38.3" height="7"/>
	</g>
</g>
<g id="freepik--Chair--inject-1">
	<path id="elh1qbcvii5s" class="st12" d="M329.5,342.9l-28.8-2.8v-40.5h-11.4V340l-28.9,2.8c-2.9,0.3-5.1,2.7-5.1,5.6v4.3h79.3v-4.3
		C334.6,345.6,332.3,343.1,329.5,342.9z"/>
	<g id="el8by5xvsrho">
		<path class="st11" d="M329.5,342.9l-28.8-2.8v-40.5h-11.4V340l-28.9,2.8c-2.9,0.3-5.1,2.7-5.1,5.6v4.3h79.3v-4.3
			C334.6,345.6,332.3,343.1,329.5,342.9z"/>
	</g>
	<circle id="el1u50jf61z1v" class="st12" cx="258.3" cy="358.2" r="7.5"/>
	<circle id="elulfi6h1pugk" class="st12" cx="331.5" cy="358.2" r="7.5"/>
	<path id="elyprugfbkupb" class="st12" d="M287.3,272.2h15.4l0,0v31.9c0,2.3-1.8,4.1-4.1,4.1l0,0h-7.1c-2.3,0-4.1-1.8-4.1-4.1l0,0
		V272.2L287.3,272.2z"/>
	<g id="el8m3ghngh8m6">
		<path class="st13" d="M287.3,272.2h15.4l0,0v31.9c0,2.3-1.8,4.1-4.1,4.1l0,0h-7.1c-2.3,0-4.1-1.8-4.1-4.1l0,0V272.2L287.3,272.2z"
			/>
	</g>
	<path id="el4w9b831ad69" class="st12" d="M322.2,208.9c0,0,2.2,54-12.9,63.3h17.2c0,0,13.3-18.4,9.5-63.3H322.2z"/>
	<g id="eljhyle545dqh">
		<path class="st13" d="M322.2,208.9c0,0,2.2,54-12.9,63.3h17.2c0,0,13.3-18.4,9.5-63.3H322.2z"/>
	</g>
	<g id="elnmypofxfihl">
		<path class="st12" d="M255.5,264.6h76.9l0,0v6.7c0,2.8-2.2,5-5,5h-66.9c-2.8,0-5-2.2-5-5V264.6L255.5,264.6z"/>
	</g>
	<g id="elpyey6jks8ij">
		<path class="st12" d="M254.3,270.5h79.3c1.1,0,2,0.9,2,2v1.8c0,1.1-0.9,2-2,2h-79.3c-1.1,0-2-0.9-2-2v-1.8
			C252.3,271.4,253.2,270.5,254.3,270.5z"/>
	</g>
	<g id="elv13p9diqyn">
		<path class="st14" d="M254.3,270.5h79.3c1.1,0,2,0.9,2,2v1.8c0,1.1-0.9,2-2,2h-79.3c-1.1,0-2-0.9-2-2v-1.8
			C252.3,271.4,253.2,270.5,254.3,270.5z"/>
	</g>
	<path id="eliglqunhzuj" class="st12" d="M312.8,180h27.5c8.1,0,14.6,6.5,14.6,14.6v10.8c0,8.1-6.5,14.6-14.6,14.6h-27.5
		c-8.1,0-14.6-6.5-14.6-14.6v-10.8C298.2,186.5,304.7,180,312.8,180z"/>
</g>
<g id="freepik--Character--inject-1">
	<path id="elevfqpf86lie" class="st15" d="M229.4,135.8l-5.5-14.5c0,0,2.4-2.2,0.7-4.4s-11.7-8.4-13.6-7.3s-5.9,5.2-3.7,7.5
		s12,6.1,12,6.1l4.9,19L229.4,135.8z"/>
	<path id="ellvpewf27j7j" class="st8" d="M267.7,163.3c0,0-25-5.1-27.7-6.4s-12.7-30.7-12.7-30.7l-7.7,3.6c0,0,6.2,29.5,12.5,36.6
		s33.4,13,33.4,13L267.7,163.3z"/>
	<g id="el9vho66ybkhs">
		<path class="st9" d="M265.5,179.5l-0.5-0.1c-1.4-0.3-5.6-1.3-10.7-2.8c-8.2-2.4-18.6-6-22.2-10.1c-6.3-7-12.5-36.6-12.5-36.6
			l7.7-3.6c0,0,10,29.4,12.8,30.7s27.7,6.4,27.7,6.4L265.5,179.5z"/>
	</g>
	<polygon id="elor9fgv9d05c" class="st8" points="227.4,125.7 229,128.8 219.1,132.2 219.5,128.5 	"/>
	<g id="el9x05s4yd7ko">
		<path class="st9" d="M265.7,179c-1.4-0.2-5.7-0.9-10.9-2c3-5.1,11.6-7.7,11.6-7.7L265.7,179z"/>
	</g>
	<path id="el588rxcw8klg" class="st12" d="M302.9,143c0,0,1.5,13.8-3.6,17.2s-30.3-0.6-33.2-6.1s7.9-20.7,7.9-20.7L302.9,143z"/>
	<polygon id="elkoqq7678pac" class="st15" points="200.9,324.9 207.5,326.5 210.8,317.5 213.9,309.2 206.4,306 203.5,316 	"/>
	<g id="el9p6jzysh68q">
		<polygon class="st9" points="203.5,316 210.8,317.5 213.9,309.2 206.4,306 		"/>
	</g>
	<path id="eli090u28d59n" class="st8" d="M204.1,311.2l9.1,3.4c0,0,24.3-60.8,29.3-61s55.9,23.2,68.7,10.2
		c12.8-13-5.7-44.3-5.7-44.3s-30.7-4.4-33,2.5c-0.6,2-1,4.1-1.3,6.2c-0.4,2.1-0.6,3.9-0.6,3.9l0,0c-1-0.2-31.8-8.2-43.9,0
		C214.4,240.6,204.1,311.2,204.1,311.2z"/>
	<g id="elhx9pyezhkj">
		<path class="st14" d="M204.1,311.2l9.1,3.4c0,0,24.3-60.8,29.3-61s55.9,23.2,68.7,10.2c12.8-13-5.7-44.3-5.7-44.3
			s-30.7-4.4-33,2.5c-0.6,2-1,4.1-1.3,6.2c-0.4,2.1-0.6,3.9-0.6,3.9l0,0c-1-0.2-31.8-8.2-43.9,0
			C214.4,240.6,204.1,311.2,204.1,311.2z"/>
	</g>
	<polygon id="el2gx9rpiglg1" class="st15" points="256.6,350.9 263.2,349.2 261.9,339.8 260.7,331.2 252.6,331.9 254.7,342 	"/>
	<g id="elqgwqgjaqdz">
		<polygon class="st9" points="254.8,342.2 261.9,340 260.7,331.3 252.6,332 		"/>
	</g>
	<polygon id="elp4coqpgfz6" class="st8" points="217,311.2 203.7,306.7 203.2,312.2 213.3,315.7 	"/>
	<path id="el5muoqtuonn2" class="st8" d="M289.2,266.9c0,0-2.1,0-34.3-1.5c0,0,4.8,40.2,7.4,70.4l-9.6,1.6c0,0-23-64.5-22.8-74.8
		c0.2-10.2,12-13.2,12-13.2S264.9,262.7,289.2,266.9z"/>
	<g id="el4pjq6h1nz1k">
		<path class="st14" d="M289.2,266.9c0,0-2.1,0-34.3-1.5c0,0,4.8,40.2,7.4,70.4l-9.6,1.6c0,0-23-64.5-22.8-74.8
			c0.2-10.2,12-13.2,12-13.2S264.9,262.7,289.2,266.9z"/>
	</g>
	<g id="eltfn39yqpo9">
		<path class="st16" d="M289.2,266.9c0,0-2.1,0-34.3-1.5c0,0,4.8,40.2,7.4,70.4l-9.6,1.6c0,0-23-64.5-22.8-74.8
			c0.2-10.2,12-13.2,12-13.2S264.9,262.7,289.2,266.9z"/>
	</g>
	<polygon id="elmaxfjswk4op" class="st8" points="263.8,332.9 250.6,334.4 253.1,339.6 263.8,338.2 	"/>
	<g id="elqg1o0un5vw">
		<path class="st16" d="M270.7,232.2l18,3.7c0,0-9.9-5.5-17.4-7.6C270.9,230.4,270.7,232.2,270.7,232.2z"/>
	</g>
	<polygon id="elzxkstyf2yzf" class="st12" points="304.8,214.8 305.6,219.6 272.6,222.1 271.7,216.5 	"/>
	<g id="el094n71wfd7cw">
		<polygon class="st9" points="304.8,214.8 305.6,219.6 272.6,222.1 271.7,216.5 		"/>
	</g>
	<g id="elwebi27b7f1n">
		<rect x="294" y="214.4" class="st8" width="1.6" height="8.4"/>
	</g>
	<g id="elv4wnb2afojo">
		<rect x="279.6" y="216.2" class="st17" width="7.2" height="5.5"/>
	</g>
	<g id="el6nzmm5wx74g">
		<rect x="273.7" y="215.3" class="st8" width="1.6" height="8.4"/>
	</g>
	<g id="elgflegepuo87">
		<rect x="294" y="214.4" class="st14" width="1.6" height="8.4"/>
	</g>
	<g id="el7dtyntcgj8u">
		<rect x="273.7" y="215.3" class="st14" width="1.6" height="8.4"/>
	</g>
	<path id="elkl6maci3pc" class="st8" d="M267.1,162.9c6.2,1.7,12.6,2.4,19,2.1c10.6-0.5,23.2,4.6,23.2,4.6l-4.5,45.2l-33.1,1.7
		C271.7,216.4,260.6,178.7,267.1,162.9z"/>
	<path id="elmmeblh8m4" class="st12" d="M272.4,137.4c0,0,1.9-21.9,20.2-14c23,10,4.7,36.7-6.5,31.3S272.4,137.4,272.4,137.4z"/>
	<g id="elav1eain1zu6">
		<path class="st9" d="M277.6,166.2l0.5,12.4l4.1-5.8c0,0-1.5,13.7-0.6,21.2c0,0,0.8-13.4,2.6-21.2l4.4,5.8l6.3-12.3
			C294.9,166.3,284.8,162.6,277.6,166.2z"/>
	</g>
	<path id="elqglqb7xyt8" class="st15" d="M283.3,168.6l9.5-2.7c-5.9-4-2.9-13-2.9-13l-9.4,3.3c0.4,1.3,0.8,2.6,1,4
		c1,5.9-1.7,6.3-1.7,6.3L283.3,168.6z"/>
	<g id="elz2onibhtwr">
		<path class="st9" d="M280.5,156.1c0.4,1.3,0.8,2.6,1,4c4.5-1.8,8.4-7.3,8.4-7.3L280.5,156.1z"/>
	</g>
	<path id="el6ct7qpijvlk" class="st15" d="M286.6,128c-8.3-1.8-12,2-14.5,10.5c-3.1,10.6-2.4,18.7,8.5,18.7
		C295.4,157.2,300.4,131.1,286.6,128z"/>
	<path id="el2isf9ibhwhg" class="st18" d="M277.6,139.2c-0.9,1.1-2,2.1-3.2,2.9c0.3,0.8,1.1,1.4,2,1.4L277.6,139.2z"/>
	<path id="eltozn5s6svc" class="st12" d="M282.8,139.6c-0.2,0.7,0.1,1.3,0.5,1.4s1-0.4,1.1-1s-0.1-1.3-0.5-1.4S283,139,282.8,139.6z
		"/>
	<path id="elnu5y36chge8" class="st12" d="M284.1,138.7l-1.3-0.9C282.8,137.7,283.2,139.2,284.1,138.7z"/>
	<path id="elrci3mbmjlq" class="st12" d="M274.4,137.4c-0.2,0.7,0.1,1.3,0.5,1.4s1-0.4,1.1-1s-0.1-1.3-0.5-1.4
		S274.6,136.7,274.4,137.4z"/>
	<path id="elooja5fzlp6h" class="st12" d="M275.7,136.5l-1.4-0.9C274.3,135.6,274.8,136.9,275.7,136.5z"/>
	<path id="elxt2vyp3w8sg" class="st12" d="M287.5,136.3c-0.1,0-0.3-0.1-0.3-0.2c-0.7-1-1.8-1.7-3-1.9c-0.2,0-0.3-0.2-0.3-0.4
		c0-0.2,0.2-0.3,0.4-0.3c1.5,0.1,2.8,1,3.6,2.3c0.1,0.2,0,0.4-0.2,0.5c0,0,0,0,0,0C287.6,136.3,287.6,136.3,287.5,136.3z"/>
	<path id="eltv7ldihbnyg" class="st12" d="M278.2,132.6c-0.1,0-0.1,0-0.2-0.1c-1-0.5-2.2-0.5-3.1,0c-0.2,0.1-0.4,0-0.5-0.2
		c0,0,0,0,0,0c-0.1-0.2,0-0.4,0.2-0.5c0,0,0,0,0,0c1.2-0.6,2.6-0.5,3.8,0.1c0.2,0.1,0.2,0.3,0.1,0.5c0,0,0,0,0,0
		C278.4,132.5,278.3,132.6,278.2,132.6z"/>
	<path id="elif0mhcc82dq" class="st12" d="M292.6,144c0,0-2.4-7.7-0.6-12.9c0,0-15-10.4-19.5,6.2c0,0,1.7-15.2,16.1-12.4
		s9.7,23.8,0.9,28.4C289.4,153.3,294,148.9,292.6,144z"/>
	<path id="el17t2b372bnv" class="st15" d="M290.8,145.6c0.6-2,2.7-3.1,4.7-2.5c2.5,0.9,2.6,6.4-4.1,6.3
		C290.4,149.3,290.1,148.3,290.8,145.6z"/>
	<path id="el339dyh9grqk" class="st12" d="M274.9,146.7c0.2,1,0.4,2.1,0.4,3.1h0.5c2.5,0.2,3.7-0.5,4.3-1.4c0.3-0.4,0.5-0.9,0.5-1.4
		c0-0.3,0-0.6,0-0.9c-1.6,0.6-3.3,0.8-5,0.6C275.2,146.7,274.9,146.7,274.9,146.7z"/>
	<path id="el7trc37l6vnp" class="st17" d="M275.7,146.8l0.1,0.9c2.3,0.2,4,0,4.8-0.6c0-0.3,0-0.6,0-0.9
		C279.1,146.7,277.4,146.9,275.7,146.8z"/>
	<path id="elut46f5vgt9s" class="st18" d="M275.9,149.8c2.5,0.2,3.7-0.5,4.3-1.4c-0.9-0.1-1.9,0-2.8,0.3
		C276.8,149,276.2,149.3,275.9,149.8z"/>
	<path id="elrdrfjvqbjrr" class="st12" d="M286.6,128.7c0,0,0.3,14.4,9,16.2s-0.8-18.6-0.8-18.6s-12.9-8.4-21.5-2.5
		s-0.9,13.6-0.9,13.6S274.3,126.6,286.6,128.7z"/>
	<path id="elxhoed7dbzwk" class="st12" d="M289.9,141.9c-0.1,0-0.1,0-0.2-0.1c-6.2-4.8-3.1-14.1-3.1-14.2c0-0.1,0.2-0.2,0.3-0.2
		c0.1,0,0.2,0.2,0.1,0.3c0,0.1-3,9,2.9,13.6c0.1,0.1,0.1,0.2,0,0.3c0,0,0,0,0,0C290,141.8,290,141.9,289.9,141.9z"/>
	<path id="elt71lx3b4y0m" class="st8" d="M298.1,147.8c-1.1,2.9-3.9,4.6-6.3,3.7s-3.4-4-2.3-6.9s3.9-4.6,6.3-3.7
		S299.2,144.9,298.1,147.8z"/>
	<g id="elwx3ig70k3g">
		<path class="st19" d="M298.1,147.8c-1.1,2.9-3.9,4.6-6.3,3.7s-3.4-4-2.3-6.9s3.9-4.6,6.3-3.7S299.2,144.9,298.1,147.8z"/>
	</g>
	<path id="elc73hqau6nvu" class="st8" d="M295.3,143c0,0,3.6-16.1-4.5-20.3c0.9,0.1,1.8,0.3,2.7,0.5c1,0.3,7.5,6.8,4.2,21.3
		L295.3,143z"/>
	<g id="elxf3j2dehgr">
		<path class="st9" d="M295.3,143c0,0,3.6-16.1-4.5-20.3c0.9,0.1,1.8,0.3,2.7,0.5c1,0.3,7.5,6.8,4.2,21.3L295.3,143z"/>
	</g>
	<path id="elmx0p6a91vz" class="st8" d="M280.3,152.2l-0.6-0.1l0.2-1c4.4,0.7,8.9-0.3,12.7-2.7l0.6,0.8
		C289.4,151.7,284.8,152.8,280.3,152.2z"/>
	<g id="eluq1r9cau5k">
		<g class="st20">
			<path id="el2pzox5sfqyb" d="M280.3,152.2l-0.6-0.1l0.2-1c4.4,0.7,8.9-0.3,12.7-2.7l0.6,0.8C289.4,151.7,284.8,152.8,280.3,152.2z
				"/>
		</g>
	</g>
	<path id="el1k108z7easp" class="st8" d="M297.8,147.4c-0.7,1.9-2.6,3-4.2,2.4s-2.3-2.6-1.5-4.6s2.6-3,4.2-2.4
		S298.5,145.5,297.8,147.4z"/>
	<path id="ely55sokw552" class="st8" d="M279.4,152.6l-0.8-0.1c-0.6-0.1-1-0.6-0.9-1.2c0,0,0,0,0,0l0,0c0.1-0.6,0.6-1,1.2-0.9
		c0,0,0,0,0,0l0.8,0.1c0.6,0.1,1,0.6,0.9,1.2l0,0C280.5,152.2,280,152.6,279.4,152.6z"/>
	<g id="eljw1qrc9oaq">
		<path class="st19" d="M279.4,152.6l-0.8-0.1c-0.6-0.1-1-0.6-0.9-1.2c0,0,0,0,0,0l0,0c0.1-0.6,0.6-1,1.2-0.9c0,0,0,0,0,0l0.8,0.1
			c0.6,0.1,1,0.6,0.9,1.2l0,0C280.5,152.2,280,152.6,279.4,152.6z"/>
	</g>
	<polygon id="el9yxk3tlh9qj" class="st8" points="290.2,162.4 284.3,168.2 286.6,175.4 294.9,166.3 	"/>
	<polygon id="el3pba1537n4i" class="st8" points="281.6,163.6 282.6,168.1 279.5,174.5 277.6,166.2 	"/>
	<path id="eljypp4lrqms" class="st15" d="M288.9,167.5l3.5-12.6c0,0-1.7-3.1-1.3-3.8s2.2-9.1,3.4-10.1s6.5,0.6,7.1,1.5
		s-5,12.4-5,12.4l-2,13.7L288.9,167.5z"/>
	<path id="elxzus81pm8cj" class="st8" d="M309.3,169.6c9.5,9.7-9.5,31.7-20.4,30.8s0.3-40.9,0.3-40.9l7,1.1c0,0-2.5,17.3-1.7,18.6
		S306.2,166.3,309.3,169.6z"/>
	<g id="el3uah0vhsryf">
		<path class="st9" d="M309.3,169.6c9.5,9.7-9.5,31.7-20.4,30.8s0.3-40.9,0.3-40.9l7,1.1c0,0-2.5,17.3-1.7,18.6
			S306.2,166.3,309.3,169.6z"/>
	</g>
	<polygon id="el6cto8gmsgy4" class="st8" points="288.6,158.2 287.6,161.5 297.3,162.4 297.3,159.5 	"/>
	<g id="elann29ygg6ap">
		<path class="st14" d="M269.9,184.4h3.9c0.4,0,0.8,0.4,0.8,0.8v7.4c0,0.4-0.4,0.8-0.8,0.8h-3.9c-0.4,0-0.8-0.4-0.8-0.8v-7.4
			C269.2,184.7,269.5,184.4,269.9,184.4z"/>
	</g>
	<g id="elppanoznnwhj">
		<rect x="269.5" y="185" class="st9" width="4.5" height="6.1"/>
	</g>
	<rect id="el68ylsngo1hh" x="271.3" y="182.2" class="st12" width="1" height="3.6"/>
	<path id="elg9bryz27tcg" class="st8" d="M190,337.7c1-0.5,2.1-0.7,3.2-0.8l0,0c0,0,3.8-2.2,7.6-10.9h4.2c1.5,0,2.8,0.9,3.3,2.3
		c0.1,0.2,0.1,0.4,0.1,0.6c-0.1,1-0.2,2-0.3,3c-0.6,3.4-1.4,6.7-2.5,10l-0.7-0.2l1.3-6.3c0.4-2.1-1.8-0.1-2.9,2.1s-2.6,4.4-7.3,3.3
		C190.5,339.5,188.3,338.7,190,337.7z"/>
	<path id="elcyclha1rhcr" class="st15" d="M201.5,323.7c0,0-5.3,11.1-8.3,13.2c0,0,4.1,2.4,8.3-3c5.5-7,6.8-5,6.8-5
		c-0.1-1.2-0.3-2.4-0.7-3.6C206.9,323.1,201.5,323.7,201.5,323.7z"/>
	<path id="elm9i7x8ff9dr" class="st8" d="M248.3,364.1c0.9-0.7,1.8-1.2,2.9-1.5l0,0c0,0,3.2-3.1,4.8-12.4l4.1-1
		c1.4-0.3,2.9,0.3,3.7,1.5c0.1,0.2,0.2,0.3,0.3,0.5c0.2,1,0.3,2,0.4,3c0.2,3.4,0.2,6.8,0,10.3h-0.7l-0.2-6.4
		c-0.1-2.2-1.8,0.4-2.3,2.7s-1.5,4.8-6.3,4.9C249.2,365.7,246.8,365.4,248.3,364.1z"/>
	<path id="eliwx6kr06n" class="st15" d="M256.1,347.7c0,0-2.5,12-5,14.8c0,0,4.5,1.4,7.4-4.9c3.7-8.1,5.5-6.5,5.5-6.5
		c-0.4-1.1-0.9-2.3-1.5-3.3C261.2,345.8,256.1,347.7,256.1,347.7z"/>
</g>
<g id="freepik--speech-bubble--inject-1">
	<path id="elvgw9xxmxkt" class="st8" d="M314.2,105.7h34.9c2.8,0,5.1,2.3,5.1,5.1v14.9c0,2.8-2.3,5.1-5.1,5.1h-34.9
		c-2.8,0-5.1-2.3-5.1-5.1v-14.9C309.1,108,311.4,105.7,314.2,105.7z"/>
	<polygon id="elavkll5wwlkq" class="st8" points="321.2,127.9 310.7,142.2 327.6,128.9 	"/>
	<path id="el9yur43005r" class="st17" d="M321.6,118.2c0,0.8-0.7,1.5-1.5,1.5s-1.5-0.7-1.5-1.5s0.7-1.5,1.5-1.5c0,0,0,0,0,0
		C320.9,116.8,321.6,117.4,321.6,118.2L321.6,118.2z"/>
	<path id="elsoku3ljpszp" class="st17" d="M329.3,118.2c0,0.8-0.7,1.5-1.5,1.5s-1.5-0.7-1.5-1.5s0.7-1.5,1.5-1.5c0,0,0,0,0,0
		C328.6,116.8,329.3,117.4,329.3,118.2L329.3,118.2z"/>
	<path id="elyzwwqsmzdp" class="st17" d="M337,118.2c0,0.8-0.7,1.5-1.5,1.5s-1.5-0.7-1.5-1.5s0.7-1.5,1.5-1.5c0,0,0,0,0,0
		C336.3,116.8,337,117.4,337,118.2L337,118.2z"/>
	<path id="elrui8l0smolf" class="st17" d="M344.6,118.2c0,0.8-0.7,1.5-1.5,1.5s-1.5-0.7-1.5-1.5s0.7-1.5,1.5-1.5c0,0,0,0,0,0
		C344,116.8,344.6,117.4,344.6,118.2L344.6,118.2z"/>
</g>
<g id="freepik--Bird--inject-1">
	<g id="elcc1gqz254ds">
		<path class="st8" d="M186.8,86h28.3c0.8,0,1.4,0.6,1.4,1.4v16.8c0,0.8-0.6,1.4-1.4,1.4h-28.3c-0.8,0-1.4-0.6-1.4-1.4V87.4
			C185.4,86.6,186,86,186.8,86z"/>
	</g>
	<g id="elbxcwykesdi">
		<path class="st21" d="M186.8,86h28.3c0.8,0,1.4,0.6,1.4,1.4v16.8c0,0.8-0.6,1.4-1.4,1.4h-28.3c-0.8,0-1.4-0.6-1.4-1.4V87.4
			C185.4,86.6,186,86,186.8,86z"/>
	</g>
	<g id="eleft2aoi58dl">
		<path class="st9" d="M190.6,82.2l7.8,14.6c0.6,1.1,1.8,1.8,3.1,1.7l16.2-1.6l-16.5,2.4c-1.5,0.2-2.9-0.6-3.6-1.9L190.6,82.2z"/>
	</g>
	<path id="el2rcjui3d563" class="st8" d="M171.7,79.6c0.3-5.6,4.4-16.8,9.4-20.2s1.7,1.3,1.7,1.3s4.8-4.6,7.2-4.5s0,3,0,3
		s5.1-3.2,7.5-3s0,2.9,0,2.9s4.2-3,5.9-1.6s-21.9,17-24.5,23.3S171.4,85.2,171.7,79.6z"/>
	<g id="elduifwofp5a9">
		<path class="st22" d="M171.7,79.6c0.3-5.6,4.4-16.8,9.4-20.2s1.7,1.3,1.7,1.3s4.8-4.6,7.2-4.5s0,3,0,3s5.1-3.2,7.5-3s0,2.9,0,2.9
			s4.2-3,5.9-1.6s-21.9,17-24.5,23.3S171.4,85.2,171.7,79.6z"/>
	</g>
	<path id="elg6bc6sdjq1o" class="st8" d="M192,78.7l3.1,2c0.1,0.1,0.2,0.2,0.1,0.4c-0.1,0.1-0.1,0.1-0.2,0.1l-3.3-0.3l0.3,2.5
		c0,0.2-0.1,0.3-0.2,0.3c-0.1,0-0.2,0-0.3-0.1l-1.9-2.1L192,78.7z"/>
	<g id="el7vd8fptyahm">
		<path class="st13" d="M192,78.7l3.1,2c0.1,0.1,0.2,0.2,0.1,0.4c-0.1,0.1-0.1,0.1-0.2,0.1l-3.3-0.3l0.3,2.5c0,0.2-0.1,0.3-0.2,0.3
			c-0.1,0-0.2,0-0.3-0.1l-1.9-2.1L192,78.7z"/>
	</g>
	<path id="elsdez55hjwu" class="st8" d="M147.7,66.2c0,0,4.4-3,10.9-1.1c0,0,1.9,8.7,7.1,11.6c2.9,1.6,9.8,1.4,15.3-0.3
		c6.6-2.1,9.8-2.1,10.9,0.3c1.2,2.5-0.1,5-5.1,6.2s-9,9.9-18.1,10s-13.9-9-11.6-17C155,71.8,151.7,68.5,147.7,66.2z"/>
	<g id="elzw1q0uw0s7b">
		<path class="st10" d="M147.7,66.2c0,0,4.4-3,10.9-1.1c0,0,1.9,8.7,7.1,11.6c2.9,1.6,9.8,1.4,15.3-0.3c6.6-2.1,9.8-2.1,10.9,0.3
			c1.2,2.5-0.1,5-5.1,6.2s-9,9.9-18.1,10s-13.9-9-11.6-17C155,71.8,151.7,68.5,147.7,66.2z"/>
	</g>
	<path id="elk3e5qxxnglp" class="st12" d="M189.5,78.4c0,0.2-0.2,0.4-0.4,0.4c-0.2,0-0.4-0.2-0.4-0.4c0-0.2,0.2-0.4,0.4-0.4l0,0
		C189.3,77.9,189.5,78.1,189.5,78.4z"/>
	<path id="ela0cjz3hy0ca" class="st8" d="M166.7,85.7c-5.4,1.5-17.3,1-22.1-2.7s0.7-2,0.7-2s-5.9-3.1-6.5-5.5s2.9-0.9,2.9-0.9
		s-4.6-3.9-5.2-6.2s2.8-0.9,2.8-0.9s-4.2-3.1-3.3-5.2s22.9,15.6,29.8,16.1S172.1,84.2,166.7,85.7z"/>
	<g id="el58jmzjqmyv4">
		<path class="st22" d="M166.7,85.7c-5.4,1.5-17.3,1-22.1-2.7s0.7-2,0.7-2s-5.9-3.1-6.5-5.5s2.9-0.9,2.9-0.9s-4.6-3.9-5.2-6.2
			s2.8-0.9,2.8-0.9s-4.2-3.1-3.3-5.2s22.9,15.6,29.8,16.1S172.1,84.2,166.7,85.7z"/>
	</g>
	<path id="elzevu1ywqp1" class="st8" d="M131.5,61.4c0,0-0.1,0-0.1,0c-0.9-0.3-1.9-0.6-2.8-0.9c-0.2-0.1-0.3-0.3-0.2-0.5
		c0.1-0.2,0.3-0.3,0.5-0.2c1,0.3,1.9,0.6,2.9,1c0.2,0.1,0.3,0.3,0.2,0.5C131.8,61.4,131.7,61.5,131.5,61.4L131.5,61.4z"/>
	<path id="elgcj90elfp9o" class="st8" d="M71.1,142.6c-0.2,0-0.4-0.2-0.4-0.4c0-0.2,0.2-0.4,0.4-0.4c2,0,4-0.2,5.9-0.6
		c0.2,0,0.4,0.1,0.4,0.3c0,0.2-0.1,0.4-0.3,0.4c0,0,0,0,0,0C75.1,142.3,73.1,142.5,71.1,142.6z M65.1,142.2L65.1,142.2
		c-2-0.2-4-0.5-6-1c-0.2,0-0.3-0.2-0.3-0.4c0-0.2,0.2-0.3,0.4-0.3c1.9,0.4,3.9,0.8,5.9,1c0.2,0,0.3,0.2,0.3,0.4
		C65.4,142.1,65.3,142.2,65.1,142.2L65.1,142.2z M82.8,140.2c-0.1,0-0.3-0.1-0.3-0.2c-0.1-0.2,0-0.4,0.2-0.5c0,0,0,0,0,0
		c1.8-0.8,3.5-1.8,5-3.1c0.2-0.1,0.4-0.1,0.5,0.1c0.1,0.2,0.1,0.4,0,0.5c-1.6,1.3-3.3,2.4-5.2,3.2C82.9,140.2,82.9,140.3,82.8,140.2
		L82.8,140.2z M53.3,139.6c0,0-0.1,0-0.1,0c-1.9-0.6-3.8-1.4-5.7-2.2c-0.2-0.1-0.2-0.3-0.1-0.5c0.1-0.2,0.3-0.2,0.5-0.2
		c1.8,0.8,3.7,1.5,5.6,2.2c0.2,0.1,0.3,0.3,0.2,0.5C53.6,139.5,53.5,139.6,53.3,139.6z M42.3,134.7c-0.1,0-0.1,0-0.2,0
		c-1.8-1-3.5-2.1-5.2-3.2c-0.2-0.1-0.2-0.4-0.1-0.5c0.1-0.2,0.4-0.2,0.5-0.1c1.6,1.1,3.3,2.2,5.1,3.2c0.2,0.1,0.2,0.3,0.1,0.5
		c0,0,0,0,0,0C42.6,134.7,42.4,134.8,42.3,134.7L42.3,134.7z M91.8,132.4c-0.1,0-0.1,0-0.2,0c-0.2-0.1-0.2-0.3-0.1-0.5c0,0,0,0,0,0
		c0.3-0.5,0.6-1.1,0.9-1.7c0.6-1.2,1-2.5,1.3-3.8c0.1-0.2,0.3-0.3,0.5-0.3c0.2,0.1,0.3,0.3,0.3,0.5c-0.3,1.4-0.8,2.7-1.3,3.9
		c-0.3,0.6-0.6,1.2-0.9,1.8C92,132.4,91.9,132.5,91.8,132.4L91.8,132.4z M32.5,127.8c-0.1,0-0.2,0-0.2-0.1c-1.5-1.3-2.9-2.8-4.3-4.3
		c-0.1-0.1-0.1-0.4,0-0.5c0.1-0.1,0.4-0.1,0.5,0c1.3,1.5,2.7,2.9,4.2,4.2c0.1,0.1,0.1,0.4,0,0.5C32.6,127.7,32.5,127.8,32.5,127.8
		L32.5,127.8z M94.7,120.8c-0.2,0-0.4-0.2-0.4-0.4c0,0,0,0,0,0c0-2-0.2-4-0.6-5.9c0-0.2,0.1-0.4,0.3-0.4c0.2,0,0.4,0.1,0.4,0.3
		c0.4,2,0.5,4,0.6,6.1C95,120.7,94.9,120.8,94.7,120.8C94.7,120.8,94.7,120.8,94.7,120.8L94.7,120.8z M92.7,109
		c-0.2,0-0.3-0.1-0.4-0.3c-0.5-1.8-1.1-3.6-1.9-5.7c-0.1-0.2,0-0.4,0.2-0.5c0,0,0,0,0,0c0.2-0.1,0.4,0,0.5,0.2
		c0.8,2.1,1.4,4,1.9,5.7c0.1,0.2-0.1,0.4-0.2,0.5L92.7,109z M88.5,97.6c-0.1,0-0.3-0.1-0.3-0.2c-0.6-1.6-1.5-3.4-2.4-5.4v-0.1
		c-0.1-0.2,0.1-0.4,0.3-0.5c0.2,0,0.3,0,0.4,0.2v0.1c0.9,2,1.8,3.8,2.4,5.4c0.1,0.2,0,0.4-0.2,0.5L88.5,97.6z M83.5,86.6
		c-0.2,0-0.3-0.1-0.3-0.2c-0.9-2.1-1.6-3.9-2.2-5.6c-0.1-0.2,0-0.4,0.2-0.5c0.2-0.1,0.4,0,0.5,0.2c0.6,1.7,1.3,3.5,2.2,5.6
		c0.1,0.2,0,0.4-0.2,0.5c0,0,0,0,0,0C83.6,86.6,83.6,86.7,83.5,86.6L83.5,86.6z M79.9,75.2c-0.2,0-0.3-0.1-0.4-0.3
		c-0.2-1.1-0.3-2.2-0.3-3.2c0-1,0.1-1.9,0.3-2.9c0.1-0.2,0.3-0.3,0.5-0.2c0.2,0.1,0.3,0.2,0.3,0.4c-0.2,0.9-0.3,1.8-0.2,2.7
		c0,1,0.1,2.1,0.2,3.1C80.2,74.9,80.1,75.1,79.9,75.2L79.9,75.2z M82.5,63.8c-0.1,0-0.2,0-0.2-0.1c-0.1-0.1-0.1-0.4,0-0.5
		c1.3-1.6,3-2.9,4.8-3.8c0.2-0.1,0.4,0,0.5,0.2c0.1,0.2,0,0.4-0.2,0.5c-1.7,0.9-3.3,2.1-4.6,3.6C82.7,63.8,82.6,63.9,82.5,63.8
		L82.5,63.8z M122.8,58.9L122.8,58.9c-2-0.4-4-0.7-6-1c-0.2,0-0.3-0.2-0.3-0.4c0,0,0,0,0,0c0-0.2,0.2-0.3,0.4-0.3c0,0,0,0,0,0
		c2,0.3,4,0.6,6,1c0.2,0,0.3,0.3,0.3,0.5C123.1,58.8,123,58.9,122.8,58.9L122.8,58.9z M92.8,58.1c-0.2,0-0.4-0.1-0.4-0.3
		c0-0.2,0.1-0.4,0.3-0.4c2-0.4,4-0.7,6-0.9c0.2,0,0.4,0.1,0.4,0.3c0,0.2-0.1,0.4-0.3,0.4c0,0,0,0,0,0C96.8,57.3,94.8,57.6,92.8,58.1
		L92.8,58.1z M110.8,57.4L110.8,57.4c-1.7-0.1-3.8-0.2-6-0.3c-0.2,0-0.4-0.2-0.4-0.4c0-0.2,0.2-0.4,0.4-0.4c0,0,0,0,0,0
		c2.2,0.1,4.3,0.2,6,0.3c0.2,0,0.4,0.2,0.4,0.4c0,0,0,0,0,0C111.2,57.2,111,57.4,110.8,57.4L110.8,57.4z"/>
	<path id="elnxkieryip9g" class="st8" d="M24.7,118.6c-0.1,0-0.3-0.1-0.3-0.2c-0.5-0.9-1-1.8-1.3-2.7c-0.1-0.2,0-0.4,0.2-0.5
		c0,0,0,0,0,0c0.2-0.1,0.4,0,0.5,0.2c0.4,0.9,0.8,1.8,1.3,2.6c0.1,0.2,0.1,0.4-0.1,0.5C24.8,118.5,24.8,118.6,24.7,118.6L24.7,118.6
		z"/>
</g>
<g id="freepik--Desk--inject-1">
	<rect id="el8k89jsjphi4" x="108.2" y="197.6" class="st17" width="38" height="7.8"/>
	<g id="el1ywabkcqwhl">
		<rect x="108.2" y="197.6" class="st16" width="38" height="7.8"/>
	</g>
	<g id="eltec7zdwukn">
		<rect x="108.2" y="197.6" class="st16" width="16" height="7.8"/>
	</g>
	<g id="el8r0pndiqwa">
		<polygon class="st16" points="108.2,198.7 142,198.7 108.2,199.7 		"/>
	</g>
	<g id="elndc428y10qs">
		<polygon class="st16" points="146.1,200.1 116.9,200.8 146.1,200.8 		"/>
	</g>
	<g id="elae8csfe327f">
		<polygon class="st16" points="109.7,202.2 124.2,201.7 145.4,202.2 124.2,202.6 		"/>
	</g>
	<g id="elryaqkeo97wp">
		<polygon class="st16" points="108.2,203.9 133.2,203.9 108.2,204.5 		"/>
	</g>
	<g id="elewl6q67p2uh">
		<polygon class="st16" points="146.1,204.5 129.4,204.8 146.1,204.8 		"/>
	</g>
	<rect id="eldplzvx892uu" x="102.9" y="189.8" class="st17" width="38" height="7.8"/>
	<g id="el8il1duanup4">
		<rect x="102.9" y="189.8" class="st16" width="38" height="7.8"/>
	</g>
	<g id="elw503kh1x6g">
		<rect x="102.9" y="189.8" class="st16" width="16" height="7.8"/>
	</g>
	<g id="elb30d5ucv749">
		<polygon class="st16" points="102.9,190.9 136.7,190.9 102.9,191.9 		"/>
	</g>
	<g id="elo7ne4bwfbr">
		<polygon class="st16" points="140.9,192.3 111.6,193 140.9,193 		"/>
	</g>
	<g id="elxm8q216vbka">
		<polygon class="st16" points="104.4,194.5 118.9,193.9 140.1,194.5 118.9,194.8 		"/>
	</g>
	<g id="el1504e7eb67y">
		<polygon class="st16" points="102.9,196.1 127.9,196.1 102.9,196.7 		"/>
	</g>
	<g id="el3oqd0l3kp0k">
		<polygon class="st16" points="140.8,196.7 124.1,197 140.9,197 		"/>
	</g>
	<rect id="elngno78wrf8k" x="107.2" y="182" class="st17" width="38" height="7.8"/>
	<g id="elen695frrs17">
		<rect x="107.2" y="182" class="st16" width="38" height="7.8"/>
	</g>
	<g id="elvg6rrji6eok">
		<rect x="107.2" y="182" class="st16" width="16" height="7.8"/>
	</g>
	<g id="el09z8q8wvx5a7">
		<polygon class="st16" points="107.2,183.1 141,183.1 107.2,184.1 		"/>
	</g>
	<g id="elhl2npjntsgc">
		<polygon class="st16" points="145.2,184.5 115.9,185.2 145.2,185.2 		"/>
	</g>
	<g id="elt5xm9avqly">
		<polygon class="st16" points="108.8,186.7 123.2,186.1 144.5,186.7 123.2,187 		"/>
	</g>
	<g id="elrcr7j7qxfi">
		<polygon class="st16" points="107.2,188.3 132.3,188.3 107.2,188.9 		"/>
	</g>
	<g id="elik09yg01qk">
		<polygon class="st16" points="145.1,188.9 128.4,189.2 145.2,189.2 		"/>
	</g>
	<polygon id="el0l1ltd5bt4h8" class="st12" points="170.5,205.2 171.5,201.5 212,201.5 230.7,203.4 231.4,205.2 	"/>
	<g id="elrvax7icgndh">
		<polygon class="st19" points="212,201.5 212,205.2 170.5,205.2 171.5,201.5 		"/>
	</g>
	<path id="eljtzmiqqo4fc" class="st12" d="M203.9,183.6c0.2,1.7-1,3.3-2.8,3.5c-0.1,0-0.3,0-0.4,0h-62.1c-2,0-3.7-1.6-3.9-3.6
		l-3.7-39.8c0-0.4,0-0.8,0.1-1.2c0.4-1.4,1.7-2.4,3.1-2.4h62.2c2,0,3.7,1.6,3.9,3.6L203.9,183.6z"/>
	<g id="elt2gpjtqyuo">
		<path class="st19" d="M200.4,187.2h-61.9c-2,0-3.7-1.6-3.9-3.6l-3.7-39.8c0-0.4,0-0.8,0.1-1.2h61.9c2,0,3.7,1.6,3.9,3.6l3.7,39.8
			C200.6,186.4,200.5,186.8,200.4,187.2z"/>
	</g>
	<polygon id="el0yzlec1yhb8g" class="st12" points="157.8,162.8 170.6,162.8 167.2,199.6 187.5,202.7 187.5,205.2 144.7,205.2 
		144.7,202.7 153.5,199.6 	"/>
	<g id="el48wantevo7x">
		<polygon class="st23" points="170.6,162.8 161.1,204.6 153.5,204.4 157.8,162.8 		"/>
	</g>
	<polygon id="eloftnekdrfv" class="st12" points="170.5,365.6 164.4,365.6 153.4,212.4 161.5,212.4 	"/>
	<g id="eld01xr63xbm">
		<polygon class="st22" points="170.6,365.6 164.4,365.6 154,220 153.4,212.6 161.5,212.6 162,220 		"/>
	</g>
	<g id="elxnu77bni7b">
		<polygon class="st9" points="162,219.6 154,219.6 153.4,212.6 161.5,212.6 		"/>
	</g>
	<polygon id="eltil9anmsbxj" class="st12" points="215.5,365.6 209.4,365.6 208.4,212.4 216.5,212.4 	"/>
	<g id="elu5nbwkdwf4q">
		<polygon class="st10" points="216.5,212.6 216.4,237.4 215.5,365.6 209.4,365.6 208.5,237.4 208.4,212.6 		"/>
	</g>
	<g id="elcmq1cssz3d">
		<polygon class="st9" points="216.5,212.6 216.4,237.6 208.5,237.6 208.4,212.6 		"/>
	</g>
	<polygon id="elunmsofwomvp" class="st12" points="280.5,365.6 274.4,365.6 263.4,212.4 271.5,212.4 	"/>
	<g id="elx51cdm3pah">
		<polygon class="st10" points="280.6,365.6 274.4,365.6 264,220 263.4,212.6 271.5,212.6 272,220 		"/>
	</g>
	<g id="el04ch6x2al3t8">
		<polygon class="st9" points="272,219.6 264,219.6 263.4,212.6 271.5,212.6 		"/>
	</g>
	<polygon id="el7n8haizsjey" class="st12" points="100.5,365.6 94.3,365.6 103.3,212.4 111.5,212.4 	"/>
	<g id="elzigbwr54ypl">
		<polygon class="st10" points="111.5,212.6 110.9,220 100.5,365.6 94.3,365.6 102.9,220 103.3,212.6 		"/>
	</g>
	<g id="ellbt3eegxar">
		<polygon class="st9" points="103.3,212.6 111.5,212.6 110.9,219.6 102.9,219.6 		"/>
	</g>
	<path id="el4sboqyp0rpf" class="st8" d="M96.9,208.6H278l0,0v5.5c0,1.2-1,2.2-2.2,2.2l0,0H99.1c-1.2,0-2.2-1-2.2-2.2l0,0
		L96.9,208.6L96.9,208.6z"/>
	<g id="elng195xcsibn">
		<path class="st14" d="M96.9,208.6H278l0,0v5.5c0,1.2-1,2.2-2.2,2.2l0,0H99.1c-1.2,0-2.2-1-2.2-2.2l0,0L96.9,208.6L96.9,208.6z"/>
	</g>
	<g id="el5g80ju9b7xl">
		<rect x="96.9" y="208.5" class="st9" width="181.1" height="3.8"/>
	</g>
	<path id="el9l6zqer0ejq" class="st8" d="M281.8,209.6H93.1c-1.2,0-2.2-1-2.2-2.2l0,0l0,0c0-1.2,1-2.2,2.2-2.2h188.7
		c1.2,0,2.2,1,2.2,2.2l0,0C283.9,208.6,283,209.6,281.8,209.6L281.8,209.6z"/>
	<g id="elljt7mejzi9">
		<path class="st14" d="M281.8,209.6H93.1c-1.2,0-2.2-1-2.2-2.2l0,0l0,0c0-1.2,1-2.2,2.2-2.2h188.7c1.2,0,2.2,1,2.2,2.2l0,0
			C283.9,208.6,283,209.6,281.8,209.6L281.8,209.6z"/>
	</g>
	<path id="eloawlk9taftm" class="st8" d="M237.1,198.6l2.3-3.5c0.5-0.7,1.2-1.1,2.1-1.1h2.9c0.2,0,0.5,0,0.7,0.1l10.5,3.2
		c0.6,0.2,1.1,0.6,1.4,1.1l1.5,2.5L237.1,198.6z"/>
	<g id="elzbfn1x77vo">
		<path class="st9" d="M258.6,200.9l-15.3-1.7l-6.2-0.7l2.3-3.5c0.5-0.7,1.2-1.1,2.1-1.1h2.9c0.2,0,0.5,0,0.7,0.1l0.2,0.1l10.2,3.1
			c0.6,0.2,1.1,0.6,1.4,1.1L258.6,200.9z"/>
	</g>
	<g id="el128wdbdiv2uk">
		<path class="st9" d="M258.6,200.9l-15.3-1.7l2.1-5.1l10.2,3.1c0.6,0.2,1.1,0.6,1.4,1.1L258.6,200.9z"/>
	</g>
	<path id="el24qwrvfwndq" class="st8" d="M265.9,204.9v0.3h-32.4l1.2-4.7c0.5-1.8,2.1-3,3.9-3h14.4c0.5,0,1,0.1,1.4,0.2l1.8,0.7
		l7.1,2.7C264.9,201.7,265.9,203.2,265.9,204.9z"/>
	<g id="elhq2sdzp6o5a">
		<path class="st9" d="M265.9,204.9v0.3h-13.3l0.7-5.1c0.2-1.2,1.3-2,2.4-1.8c0.1,0,0.3,0.1,0.4,0.1l7.1,2.7
			C264.8,201.7,265.9,203.2,265.9,204.9z"/>
	</g>
	<path id="elbp436hlzc99" class="st12" d="M254.6,201.8l4.2-12.7c0.2-0.5,0.7-0.8,1.2-0.6c0.1,0,0.1,0,0.2,0.1l0,0
		c0.4,0.2,0.6,0.7,0.5,1.1l-3.6,13.6C257.1,203.2,254.7,204.1,254.6,201.8z"/>
	<g id="elm4pnbc3w8wn">
		<polygon class="st9" points="237.1,204.2 235.3,204.2 235.6,202.3 237.5,202.3 		"/>
	</g>
	<g id="el8u7bwy5ptb6">
		<polygon class="st9" points="239.9,204.1 238.1,204.1 238.4,202.2 240.3,202.2 		"/>
	</g>
</g>
</svg>
