<svg xmlns="http://www.w3.org/2000/svg" viewBox="0 0 750 500"><g id="freepik--background-simple--inject-68"><path d="M177.08,111C278.45,22.65,387.2,178.65,503,176c74.61-1.7,153.18,41.59,134.89,131.87-26.6,131.3-237.64,115.33-349,78.23S87.31,189.26,177.08,111Z" style="fill:#f0f0f0"></path></g><g id="freepik--Plant--inject-68"><path d="M152.11,406c12.48-8.17,15.65-23.82,15.52-38,0-2.36.3-4.84-.79-6.94s-3.7-3.57-5.87-2.63c-1.79.78-2.61,2.8-3.65,4.46a13.9,13.9,0,0,1-5.73,5.15c-1.54.74-3.43,1.17-4.91.32-2-1.17-2.21-4-2.14-6.33q.21-6.56.4-13.11a21.49,21.49,0,0,0-.54-7,7.34,7.34,0,0,0-4.51-5c-2.25-.68-5.07.54-5.61,2.82a21.8,21.8,0,0,0-.14,2.92,2.47,2.47,0,0,1-1.52,2.29,2.9,2.9,0,0,1-2.58-1.14,31.28,31.28,0,0,1-5.46-8.59,43,43,0,0,0-5.08-8.84c-2.16-2.64-5.19-4.76-8.59-5s-7.07,1.72-8,5,.93,6.69,3,9.41a52.67,52.67,0,0,0,10.79,10.66,4.34,4.34,0,0,1,1.8,2c.47,1.58-1.07,3.09-2.64,3.57-1.79.54-3.71.31-5.56.48s-3.89.93-4.63,2.64c-1,2.38.94,4.94,2.89,6.63a45.75,45.75,0,0,0,13.26,8,15.39,15.39,0,0,1,4.94,2.52c1.38,1.24,2.18,3.37,1.29,5s-3.09,2.11-4.92,1.73A32.23,32.23,0,0,1,118,377c-3.24-1.29-7.46-1.17-9.62,1.57a7.34,7.34,0,0,0-1,6.54,17.11,17.11,0,0,0,3.46,5.88,45.62,45.62,0,0,0,19.17,14c7.51,2.78,14.52,3.65,22.11,1.11" style="fill:#FCA311"></path><path d="M106.41,323.29l.23.23.69.63c.61.56,1.5,1.38,2.63,2.47a88.89,88.89,0,0,1,8.84,9.89c1.71,2.21,3.49,4.72,5.35,7.44s3.81,5.66,5.76,8.81a104.59,104.59,0,0,1,5.61,10.16c.88,1.81,1.65,3.71,2.43,5.64s1.58,3.89,2.38,5.88a212.11,212.11,0,0,1,7.91,22.76,103.69,103.69,0,0,1,3.49,19.34,74.83,74.83,0,0,1-.1,13.25c-.16,1.55-.31,2.76-.44,3.58-.06.39-.1.7-.14.93a2.54,2.54,0,0,0,0,.32,2.35,2.35,0,0,0,.08-.31c0-.23.1-.54.17-.93.16-.81.34-2,.53-3.57a71.9,71.9,0,0,0,.24-13.29,101.28,101.28,0,0,0-3.41-19.42,209.06,209.06,0,0,0-7.89-22.83q-1.22-3-2.38-5.87c-.79-1.93-1.57-3.84-2.45-5.67a105.3,105.3,0,0,0-5.66-10.19c-2-3.15-3.94-6.07-5.8-8.79s-3.67-5.22-5.41-7.43a84.32,84.32,0,0,0-9-9.82c-1.15-1.07-2.07-1.88-2.7-2.41l-.71-.61C106.5,323.35,106.42,323.28,106.41,323.29Z" style="fill:#263238"></path><path d="M135.79,362.71a4.82,4.82,0,0,0,.25-1c.14-.65.32-1.58.51-2.75.39-2.33.83-5.56,1.29-9.12s.94-6.78,1.37-9.1c.21-1.15.39-2.09.52-2.74a4.56,4.56,0,0,0,.16-1,4.21,4.21,0,0,0-.33,1c-.18.63-.41,1.56-.66,2.71-.5,2.31-1,5.53-1.49,9.1s-.86,6.7-1.16,9.14c-.15,1.09-.28,2-.37,2.76A4.34,4.34,0,0,0,135.79,362.71Z" style="fill:#263238"></path><path d="M105.38,356.35a6.52,6.52,0,0,0,1.21.17c.78.09,1.92.21,3.31.41,2.79.36,6.63,1,10.83,1.88s8,1.87,10.67,2.64c1.36.38,2.45.72,3.2.95a6,6,0,0,0,1.19.31,8.72,8.72,0,0,0-1.13-.47c-.74-.28-1.82-.66-3.17-1.08-2.69-.86-6.46-1.88-10.67-2.77a109.19,109.19,0,0,0-10.88-1.77c-1.41-.16-2.55-.23-3.33-.26A6.11,6.11,0,0,0,105.38,356.35Z" style="fill:#263238"></path><path d="M148.27,396.53a1.62,1.62,0,0,0,.22-.36l.55-1.08c.47-.94,1.12-2.31,1.9-4,1.56-3.42,3.56-8.21,5.69-13.52s4.1-10.12,5.58-13.56l1.77-4.08.48-1.11c.1-.26.15-.4.13-.4a2,2,0,0,0-.21.36l-.55,1.08c-.48.94-1.12,2.31-1.9,4-1.56,3.42-3.56,8.21-5.7,13.52s-4.09,10.12-5.58,13.56c-.72,1.68-1.32,3.06-1.77,4.08l-.47,1.11A1.64,1.64,0,0,0,148.27,396.53Z" style="fill:#263238"></path><path d="M108,382.65s.13.08.39.18l1.17.41,4.32,1.5c3.64,1.26,8.65,3.06,14.18,5.06s10.56,3.75,14.23,4.94c1.84.6,3.32,1.06,4.36,1.36l1.19.34c.28.08.43.11.43.09a2.11,2.11,0,0,0-.4-.17l-1.17-.42-4.31-1.49c-3.64-1.26-8.65-3.06-14.18-5.06s-10.57-3.76-14.23-4.95c-1.84-.59-3.33-1.06-4.36-1.36l-1.2-.34A2.16,2.16,0,0,0,108,382.65Z" style="fill:#263238"></path></g><g id="freepik--Mobile--inject-68"><path d="M557.92,300.48l-60.33-.28A13.11,13.11,0,0,1,484.51,287l.64-150.83a13.12,13.12,0,0,1,13.2-13.05l60.33.27a13.14,13.14,0,0,1,13.09,13.16l-.64,150.84A13.13,13.13,0,0,1,557.92,300.48Z" style="fill:#455a64"></path><path d="M558.6,128.64l-11.7,0a2.89,2.89,0,0,0-2.85,2.94v2.12a2.92,2.92,0,0,1-2.85,2.95l-22.81-.11a2.89,2.89,0,0,1-2.82-3V131.4a2.9,2.9,0,0,0-2.82-3l-4.12,0-10.24,0a9.19,9.19,0,0,0-9.24,9.14l-.63,147.23a9.2,9.2,0,0,0,9.17,9.22l60.21.28a9.21,9.21,0,0,0,9.25-9.14l.62-147.23A9.19,9.19,0,0,0,558.6,128.64Z" style="fill:#fff"></path><rect x="498.03" y="228.82" width="59.58" height="3.99" style="fill:#455a64"></rect><path d="M555.49,244.51c0,.14-12.72.26-28.4.26s-28.41-.12-28.41-.26,12.72-.26,28.41-.26S555.49,244.37,555.49,244.51Z" style="fill:#455a64"></path><path d="M555.49,150c0,.15-12.72.26-28.4.26s-28.41-.11-28.41-.26,12.72-.26,28.41-.26S555.49,149.83,555.49,150Z" style="fill:#455a64"></path><path d="M555.49,251.77c0,.14-12.72.26-28.4.26s-28.41-.12-28.41-.26,12.72-.26,28.41-.26S555.49,251.62,555.49,251.77Z" style="fill:#455a64"></path><path d="M555.49,259c0,.14-12.72.26-28.4.26s-28.41-.12-28.41-.26,12.72-.26,28.41-.26S555.49,258.88,555.49,259Z" style="fill:#455a64"></path><path d="M555.49,266.28c0,.14-12.72.26-28.4.26s-28.41-.12-28.41-.26,12.72-.26,28.41-.26S555.49,266.13,555.49,266.28Z" style="fill:#455a64"></path><path d="M555.49,273.53c0,.15-12.72.26-28.4.26s-28.41-.11-28.41-.26,12.72-.26,28.41-.26S555.49,273.39,555.49,273.53Z" style="fill:#455a64"></path><path d="M556.3,281.76c0,.14-12.72.26-28.4.26s-28.41-.12-28.41-.26,12.72-.26,28.41-.26S556.3,281.61,556.3,281.76Z" style="fill:#455a64"></path><rect x="498.68" y="158.25" width="59.73" height="57.79" style="fill:#e0e0e0"></rect><polygon points="503.31 211.09 519.84 181.35 533.35 200.36 541.56 190.26 553.78 211.09 503.31 211.09" style="fill:#FCA311"></polygon><path d="M539.11,175.57a4.3,4.3,0,1,1-4.3-4.3A4.31,4.31,0,0,1,539.11,175.57Z" style="fill:#FCA311"></path><path d="M553.78,211.25s0-.08,0-.24,0-.39,0-.67c0-.62,0-1.48,0-2.6,0-2.29,0-5.61-.07-9.82,0-8.44-.07-20.46-.12-34.89l.24.24-50.46,0c-.07.06.53-.54.28-.28h0v13c0,4.25,0,8.41,0,12.45,0,8.1,0,15.75,0,22.79l-.25-.25,36.49.13,10.3.06,2.73,0h.7l.25,0h-.22l-.68,0-2.68,0-10.24.06-36.65.13h-.25v-.25c0-7,0-14.69,0-22.79,0-4,0-8.2,0-12.45v-13h0c-.26.25.34-.36.29-.29l50.46,0H554V163c-.06,14.5-.1,26.57-.13,35.05,0,4.18,0,7.48-.06,9.76q0,1.65,0,2.55c0,.27,0,.48,0,.65A.85.85,0,0,1,553.78,211.25Z" style="fill:#455a64"></path></g><g id="freepik--Tablet--inject-68"><rect x="278.45" y="26.42" width="156.32" height="224.34" rx="11.55" transform="translate(218.02 495.2) rotate(-90)" style="fill:#455a64"></rect><rect x="280.23" y="44.91" width="146.46" height="187.35" transform="translate(214.87 492.05) rotate(-90)" style="fill:#fff"></rect><path d="M457.5,132.59a6,6,0,1,1-6,6A6,6,0,0,1,457.5,132.59Z" style="fill:#263238"></path><rect x="228.6" y="137.35" width="47.08" height="2.48" rx="1.22" transform="translate(113.55 390.73) rotate(-90)" style="fill:#263238"></rect><rect x="345.24" y="76.36" width="59.58" height="3.99" style="fill:#455a64"></rect><rect x="267.63" y="144.89" width="59.58" height="3.99" style="fill:#455a64"></rect><path d="M419.33,91.2c0,.15-16.58.26-37,.26s-37.05-.11-37.05-.26,16.58-.26,37.05-.26S419.33,91.06,419.33,91.2Z" style="fill:#455a64"></path><path d="M419.33,99.91c0,.14-16.58.26-37,.26s-37.05-.12-37.05-.26,16.58-.26,37.05-.26S419.33,99.76,419.33,99.91Z" style="fill:#455a64"></path><path d="M419.33,108.61c0,.14-16.58.26-37,.26s-37.05-.12-37.05-.26,16.58-.26,37.05-.26S419.33,108.47,419.33,108.61Z" style="fill:#455a64"></path><path d="M419.33,117.31c0,.15-16.58.26-37,.26s-37.05-.11-37.05-.26,16.58-.26,37.05-.26S419.33,117.17,419.33,117.31Z" style="fill:#455a64"></path><path d="M419.33,126c0,.14-16.58.26-37,.26s-37.05-.12-37.05-.26,16.58-.26,37.05-.26S419.33,125.87,419.33,126Z" style="fill:#455a64"></path><path d="M403.08,134.72c0,.14-12.95.26-28.92.26s-28.92-.12-28.92-.26,12.94-.26,28.92-.26S403.08,134.58,403.08,134.72Z" style="fill:#455a64"></path><path d="M365.48,160.58c0,.14-21.76.26-48.6.26s-48.6-.12-48.6-.26,21.76-.26,48.6-.26S365.48,160.43,365.48,160.58Z" style="fill:#455a64"></path><path d="M365.48,167.83c0,.15-21.76.26-48.6.26s-48.6-.11-48.6-.26,21.76-.26,48.6-.26S365.48,167.69,365.48,167.83Z" style="fill:#455a64"></path><path d="M365.48,175.09c0,.14-21.76.26-48.6.26s-48.6-.12-48.6-.26,21.76-.26,48.6-.26S365.48,174.94,365.48,175.09Z" style="fill:#455a64"></path><path d="M365.48,182.34c0,.15-21.76.26-48.6.26s-48.6-.11-48.6-.26,21.76-.26,48.6-.26S365.48,182.2,365.48,182.34Z" style="fill:#455a64"></path><path d="M365.48,189.6c0,.14-21.76.26-48.6.26s-48.6-.12-48.6-.26,21.76-.26,48.6-.26S365.48,189.46,365.48,189.6Z" style="fill:#455a64"></path><rect x="268.28" y="74.31" width="59.73" height="57.79" style="fill:#FCA311"></rect><polygon points="272.91 127.16 289.44 97.42 302.95 116.42 311.16 106.33 323.38 127.16 272.91 127.16" style="fill:#e0e0e0"></polygon><path d="M308.71,91.63a4.3,4.3,0,1,1-4.3-4.29A4.3,4.3,0,0,1,308.71,91.63Z" style="fill:#e0e0e0"></path><path d="M323.38,127.32s0-.09,0-.24,0-.39,0-.67c0-.62,0-1.49,0-2.6,0-2.3,0-5.61-.06-9.82,0-8.44-.07-20.46-.12-34.89l.24.24-50.46,0c-.07.06.53-.53.28-.27h0v6.53c0,2.16,0,4.31,0,6.43v12.45c0,8.1,0,15.75,0,22.79l-.25-.25,36.49.12,10.29.07,2.73,0h.71l.25,0h-.22l-.68,0-2.68,0-10.24.07-36.65.12h-.25v-.25c0-7,0-14.69,0-22.79q0-6.07,0-12.45v-13h0c-.26.25.34-.36.29-.3l50.46,0h.25v.25c-.05,14.49-.09,26.57-.12,35.05,0,4.18-.05,7.48-.06,9.76,0,1.09,0,2,0,2.55,0,.27,0,.48,0,.65A.67.67,0,0,1,323.38,127.32Z" style="fill:#455a64"></path><rect x="378.89" y="152.55" width="42.27" height="40.9" style="fill:#FCA311"></rect><polygon points="382.17 189.95 393.86 168.91 403.43 182.36 409.24 175.21 417.88 189.95 382.17 189.95" style="fill:#e0e0e0"></polygon><path d="M407.5,164.81a3,3,0,1,1-3-3A3,3,0,0,1,407.5,164.81Z" style="fill:#e0e0e0"></path><path d="M417.88,190.06s0-.06,0-.16,0-.28,0-.48c0-.44,0-1,0-1.84,0-1.62,0-4,0-7,0-6-.05-14.48-.09-24.69l.17.17-35.71,0c-.05,0,.38-.38.2-.19h0v9.18q0,4.5,0,8.81c0,5.73,0,11.14,0,16.12l-.17-.17L408,190l7.28,0,1.94,0h.67s-.05,0-.15,0h-.48l-1.9,0-7.25.05-25.93.09H382v-.18c0-5,0-10.39,0-16.12V156h0c-.18.17.25-.26.21-.21l35.71,0h.18v.17c0,10.26-.07,18.8-.09,24.8,0,3,0,5.3-.05,6.91,0,.78,0,1.38,0,1.81,0,.19,0,.34,0,.46S417.89,190.07,417.88,190.06Z" style="fill:#455a64"></path></g><g id="freepik--Computer--inject-68"><rect x="152.57" y="232.55" width="313.59" height="207.37" rx="14.57" style="fill:#263238"></rect><path d="M139.46,424.59H479.21a0,0,0,0,1,0,0v.35a17.8,17.8,0,0,1-17.8,17.8H157.26a17.8,17.8,0,0,1-17.8-17.8v-.35A0,0,0,0,1,139.46,424.59Z" style="fill:#263238"></path><rect x="160.99" y="240.79" width="295.88" height="175.12" style="fill:#e0e0e0"></rect><polygon points="278.45 424.59 282.67 431.3 341.99 431.3 345.91 424.59 278.45 424.59" style="fill:#455a64"></polygon><rect x="170.86" y="252.46" width="272.41" height="163.39" style="fill:#fafafa"></rect><path d="M182.49,260.51a2.29,2.29,0,1,1-2.29-2.28A2.29,2.29,0,0,1,182.49,260.51Z" style="fill:#455a64"></path><path d="M191.81,260.51a2.29,2.29,0,1,1-2.28-2.28A2.28,2.28,0,0,1,191.81,260.51Z" style="fill:#455a64"></path><path d="M201.14,260.51a2.29,2.29,0,1,1-2.29-2.28A2.28,2.28,0,0,1,201.14,260.51Z" style="fill:#455a64"></path><path d="M443.27,270.51c0,.15-61,.26-136.2.26s-136.21-.11-136.21-.26,61-.26,136.21-.26S443.27,270.37,443.27,270.51Z" style="fill:#455a64"></path><rect x="152.57" y="424.73" width="313.59" height="1" style="fill:#455a64"></rect><rect x="193.19" y="349.9" width="59.58" height="3.99" style="fill:#455a64"></rect><rect x="270.15" y="294.56" width="59.58" height="3.99" style="fill:#455a64"></rect><path d="M418.35,309.41c0,.14-33.18.26-74.1.26s-74.1-.12-74.1-.26,33.17-.27,74.1-.27S418.35,309.26,418.35,309.41Z" style="fill:#455a64"></path><path d="M418.35,318.11c0,.14-33.18.26-74.1.26s-74.1-.12-74.1-.26,33.17-.26,74.1-.26S418.35,318,418.35,318.11Z" style="fill:#455a64"></path><path d="M418.35,326.81c0,.15-33.18.26-74.1.26s-74.1-.11-74.1-.26,33.17-.26,74.1-.26S418.35,326.67,418.35,326.81Z" style="fill:#455a64"></path><path d="M418.35,335.52c0,.14-33.18.26-74.1.26s-74.1-.12-74.1-.26,33.17-.27,74.1-.27S418.35,335.37,418.35,335.52Z" style="fill:#455a64"></path><path d="M418.35,344.22c0,.14-33.18.26-74.1.26s-74.1-.12-74.1-.26,33.17-.26,74.1-.26S418.35,344.07,418.35,344.22Z" style="fill:#455a64"></path><path d="M328,352.92c0,.14-12.95.26-28.92.26s-28.93-.12-28.93-.26,13-.26,28.93-.26S328,352.78,328,352.92Z" style="fill:#455a64"></path><path d="M417.26,369.81c0,.15-21.81.26-48.7.26s-48.7-.11-48.7-.26,21.8-.26,48.7-.26S417.26,369.67,417.26,369.81Z" style="fill:#455a64"></path><path d="M417.26,379.05c0,.14-21.81.26-48.7.26s-48.7-.12-48.7-.26,21.8-.26,48.7-.26S417.26,378.91,417.26,379.05Z" style="fill:#455a64"></path><path d="M417.26,388.29c0,.14-21.81.26-48.7.26s-48.7-.12-48.7-.26,21.8-.26,48.7-.26S417.26,388.14,417.26,388.29Z" style="fill:#455a64"></path><path d="M417.26,397.53c0,.14-21.81.26-48.7.26s-48.7-.12-48.7-.26,21.8-.26,48.7-.26S417.26,397.38,417.26,397.53Z" style="fill:#455a64"></path><path d="M252.92,368.93c0,.14-13,.26-29,.26s-29-.12-29-.26,13-.26,29-.26S252.92,368.78,252.92,368.93Z" style="fill:#455a64"></path><path d="M252.92,376.18c0,.15-13,.26-29,.26s-29-.11-29-.26,13-.26,29-.26S252.92,376,252.92,376.18Z" style="fill:#455a64"></path><path d="M252.92,383.44c0,.14-13,.26-29,.26s-29-.12-29-.26,13-.26,29-.26S252.92,383.3,252.92,383.44Z" style="fill:#455a64"></path><path d="M252.92,390.69c0,.15-13,.26-29,.26s-29-.11-29-.26,13-.26,29-.26S252.92,390.55,252.92,390.69Z" style="fill:#455a64"></path><path d="M252.92,398c0,.14-13,.26-29,.26s-29-.12-29-.26,13-.26,29-.26S252.92,397.81,252.92,398Z" style="fill:#455a64"></path><rect x="193.19" y="281.54" width="59.73" height="57.79" style="fill:#e0e0e0"></rect><polygon points="197.82 334.38 214.35 304.64 227.86 323.65 236.08 313.56 248.29 334.38 197.82 334.38" style="fill:#FCA311"></polygon><path d="M233.62,298.86a4.3,4.3,0,1,1-4.3-4.3A4.3,4.3,0,0,1,233.62,298.86Z" style="fill:#FCA311"></path><path d="M248.29,334.54a2.07,2.07,0,0,1,0-.23c0-.18,0-.4,0-.68,0-.61,0-1.48,0-2.6,0-2.29,0-5.6-.07-9.81,0-8.44-.07-20.46-.12-34.9l.24.25-50.46,0c-.07.06.53-.54.28-.28v13c0,4.24,0,8.4,0,12.45,0,8.09,0,15.74,0,22.78l-.25-.24,36.49.12,10.3.07,2.73,0h.95s-.07,0-.22,0h-.68l-2.68,0-10.24.07-36.65.12h-.24v-.25c0-7,0-14.69,0-22.78,0-4.05,0-8.21,0-12.45v-13l.29-.29,50.46,0h.25v.24c0,14.5-.1,26.57-.13,35.05,0,4.19,0,7.48-.06,9.76,0,1.1,0,1.95,0,2.56,0,.27,0,.48,0,.64S248.3,334.55,248.29,334.54Z" style="fill:#455a64"></path><rect x="270.11" y="365.4" width="42.27" height="40.9" style="fill:#e0e0e0"></rect><polygon points="273.39 402.8 285.08 381.76 294.65 395.21 300.46 388.06 309.11 402.8 273.39 402.8" style="fill:#FCA311"></polygon><path d="M298.72,377.66a3,3,0,1,1-3-3A3,3,0,0,1,298.72,377.66Z" style="fill:#FCA311"></path><path d="M309.11,402.92a1.33,1.33,0,0,1,0-.17c0-.12,0-.28,0-.48,0-.43,0-1,0-1.84,0-1.62,0-4-.05-6.95,0-6,0-14.48-.08-24.69l.17.17-35.72,0s.38-.38.2-.19h0v18c0,5.73,0,11.14,0,16.13l-.18-.18,25.83.09,7.28.05,1.93,0h0l-1.9,0-7.24,0-25.94.09h-.17v-.17c0-5,0-10.4,0-16.13,0-2.86,0-5.81,0-8.81v-9.16h0c-.18.17.24-.26.2-.21l35.72,0h.17v.17c0,10.26-.07,18.8-.09,24.81,0,3,0,5.29,0,6.9,0,.78,0,1.38,0,1.81,0,.19,0,.34,0,.46A.85.85,0,0,1,309.11,402.92Z" style="fill:#455a64"></path></g></svg>