<svg xmlns="http://www.w3.org/2000/svg" viewBox="0 0 500 500"><g id="freepik--background-simple--inject-63"><path d="M436.55,101.46,434,97.24c-21.56-35.54-60.56-57-101.67-54.37A107.16,107.16,0,0,0,316.58,45c-37.38,8-69.9,36.26-83.39,72.47-7.92,21.29-10.14,45.8-25.19,62.7-19.58,22-52.82,22.68-82,21.77s-62.5-.13-82,22c-12.21,13.83-16.09,33.49-15.1,52,2.6,49,36.77,92.88,80.22,114.67s94.61,23.74,142.16,14.16c66.62-13.43,130-50.31,168.05-107.27S467,162.93,436.55,101.46Z" style="fill:#f5f5f5"></path></g><g id="freepik--Hand--inject-63"><path d="M243.43,174.12,245,107.47s14.84-2.88,28.06-23c8.75-13.35,5.53-27.5,7.21-33.36,1-3.58,9.47-2.86,13.18-2.43,3.5.41,9.3,2.36,11.74,7.91,4.51,10.28-1.81,34.89-1.81,34.89s-2.75,5,4.26,5h25a13.61,13.61,0,0,1,8.9,3.19,10.11,10.11,0,0,1,3.66,8.84c-.75,9.53-5.76,13.79-5.76,15.79s2.75,5.51.75,11.28-3.26,5.26-3.26,8-.5,9.77-2.25,14a20.47,20.47,0,0,1-3.76,6.26s.75,9-1.76,14.29-13,8-16.54,8-28.56-5-35.58-6.76S250.2,170.86,243.43,174.12Z" style="fill:#263238"></path><path d="M234.47,174.88V107.47s14.85-2.88,28.07-23c8.75-13.35,12.7-24.14,14.38-30a7.65,7.65,0,0,1,8.16-5.57c3.5.41,7.72,1.78,10.16,7.33,4.51,10.29-2.38,35.25-2.38,35.25s-2.76,5,4.26,5h25a13.63,13.63,0,0,1,8.9,3.19,10.11,10.11,0,0,1,3.66,8.84c-.75,9.53-5.77,13.79-5.77,15.79s2.76,5.51.76,11.28-3.26,5.26-3.26,8-.5,9.77-2.26,14a20.35,20.35,0,0,1-3.75,6.26s.75,9-1.76,14.29-13,8-16.54,8-28.56-5-35.58-6.76S241.24,171.62,234.47,174.88Z" style="fill:#455a64"></path><path d="M264.11,49.6a44.68,44.68,0,0,1-5.57-4.14,45.92,45.92,0,0,1-5.24-4.55,46.34,46.34,0,0,1,5.57,4.15A47.6,47.6,0,0,1,264.11,49.6Z" style="fill:#263238"></path><path d="M274.77,42a18.45,18.45,0,0,1-1.95-2.5c-1.14-1.6-2.66-3.85-4.22-6.4s-2.88-4.92-3.78-6.66a17.17,17.17,0,0,1-1.35-2.87,19.48,19.48,0,0,1,1.67,2.7c1,1.69,2.35,4,3.9,6.56s3,4.82,4.08,6.46A21.26,21.26,0,0,1,274.77,42Z" style="fill:#263238"></path><path d="M284.55,15.31a89.06,89.06,0,0,1,.26,9.72,89.18,89.18,0,0,1-.26,9.73,92.31,92.31,0,0,1-.26-9.73A92.2,92.2,0,0,1,284.55,15.31Z" style="fill:#263238"></path><path d="M307.11,30.53a39.66,39.66,0,0,1-4.33,4.7,37.2,37.2,0,0,1-4.7,4.32,40.07,40.07,0,0,1,4.33-4.69A38.77,38.77,0,0,1,307.11,30.53Z" style="fill:#263238"></path><path d="M314.15,42.37a24.37,24.37,0,0,1-3.48,3.85,24.37,24.37,0,0,1-3.85,3.48,26.82,26.82,0,0,1,3.48-3.85A26.82,26.82,0,0,1,314.15,42.37Z" style="fill:#263238"></path><path d="M305.68,78a11.54,11.54,0,0,1-1.59,2c-1,1.19-2.51,2.8-4.22,4.51s-3.31,3.18-4.51,4.22a12.44,12.44,0,0,1-2,1.58,13.16,13.16,0,0,1,1.76-1.85l4.39-4.32c1.62-1.65,3.09-3.13,4.32-4.39A14.07,14.07,0,0,1,305.68,78Z" style="fill:#455a64"></path><path d="M307,69a8.67,8.67,0,0,1-1.45,1.83,51.31,51.31,0,0,1-4.06,3.9c-1.66,1.43-3.2,2.67-4.32,3.58a11.55,11.55,0,0,1-1.87,1.39,51.88,51.88,0,0,1,5.85-5.37c1.65-1.43,3.11-2.76,4.14-3.76A13.73,13.73,0,0,1,307,69Z" style="fill:#455a64"></path><path d="M306.34,60.83a5.78,5.78,0,0,1-1.16,1.51,23.28,23.28,0,0,1-3.42,3.07c-2.91,2.07-5.12,3.9-5.22,3.8A23.62,23.62,0,0,1,301.45,65C304.3,62.9,306.21,60.71,306.34,60.83Z" style="fill:#455a64"></path><path d="M303.58,54.05a21.18,21.18,0,0,1-3.43,3.28,21.93,21.93,0,0,1-3.77,2.88,21.39,21.39,0,0,1,3.43-3.27A21.7,21.7,0,0,1,303.58,54.05Z" style="fill:#455a64"></path><path d="M298.5,50.05a7.83,7.83,0,0,1-2.19,1.76,7.61,7.61,0,0,1-2.47,1.32A7.75,7.75,0,0,1,296,51.38,7.74,7.74,0,0,1,298.5,50.05Z" style="fill:#455a64"></path><path d="M303.72,89.86a23.5,23.5,0,0,1-3.64,3.46,24.16,24.16,0,0,1-4,3.07,25,25,0,0,1,3.64-3.47A24.7,24.7,0,0,1,303.72,89.86Z" style="fill:#455a64"></path><path d="M344.45,113.36a81.66,81.66,0,0,1-7.51,5.46,84,84,0,0,1-7.82,5,83.34,83.34,0,0,1,7.52-5.47A81.76,81.76,0,0,1,344.45,113.36Z" style="fill:#455a64"></path><path d="M344.06,101.93a30.14,30.14,0,0,1-4.42,3.36,29.71,29.71,0,0,1-4.71,2.92,29.07,29.07,0,0,1,4.42-3.35A29.36,29.36,0,0,1,344.06,101.93Z" style="fill:#455a64"></path><path d="M340.63,129.72c.07.13-2.57,1.69-5.68,3.82s-5.54,4-5.64,3.9.5-.6,1.46-1.4,2.31-1.85,3.88-2.93,3.05-2,4.14-2.55A7.18,7.18,0,0,1,340.63,129.72Z" style="fill:#455a64"></path><path d="M337.71,142.15a50.2,50.2,0,0,1-5.65,4.56,48.84,48.84,0,0,1-6,4.15,102.59,102.59,0,0,1,11.61-8.71Z" style="fill:#455a64"></path><path d="M334.05,158.07a9.19,9.19,0,0,1-1.67,1.62c-1.08.94-2.63,2.19-4.41,3.47s-3.46,2.34-4.7,3.07a8.91,8.91,0,0,1-2.07,1.06,11.28,11.28,0,0,1,1.88-1.37c1.18-.8,2.81-1.91,4.59-3.19s3.34-2.46,4.48-3.32A10.81,10.81,0,0,1,334.05,158.07Z" style="fill:#455a64"></path><path d="M330.84,171a12.71,12.71,0,0,1-2,1.86c-1.28,1.08-3.1,2.51-5.17,4s-4,2.76-5.45,3.62a12.16,12.16,0,0,1-2.39,1.28,16.6,16.6,0,0,1,2.19-1.59c1.38-.94,3.28-2.25,5.34-3.73s3.92-2.86,5.25-3.87A16.52,16.52,0,0,1,330.84,171Z" style="fill:#455a64"></path><path d="M324.67,64.08a26.72,26.72,0,0,1-5.21-.26,50.4,50.4,0,0,1,10.42,0A26.64,26.64,0,0,1,324.67,64.08Z" style="fill:#263238"></path></g><g id="freepik--character-1--inject-63"><path d="M108,118.54a78.28,78.28,0,0,1-4-13,27.53,27.53,0,0,1,.51-13.47c.21-.65,2.08-5.06,2.76-5,.49,0-.6,4.11-.33,4.53a23.26,23.26,0,0,1,3.19,13.49A61,61,0,0,1,108,118.54" style="fill:#263238"></path><path d="M134.4,142.61c-.1-3.2-.17-5.73-.14-5.73s10.94-1.57,11.2-12.49c.13-5.28-.49-16.16-1.17-26a20.35,20.35,0,0,0-20.07-19h-1c-11.38.53-17.28,10.48-16.43,21.83l1.69,39.81,8.11,8.87a10.28,10.28,0,0,0,17.86-7.33Z" style="fill:#bd8c83"></path><path d="M134.32,136.87a26.31,26.31,0,0,1-14.17-4.37s3.26,8.37,14.17,7.51Z" style="fill:#896360"></path><path d="M141.52,107.34a1.55,1.55,0,0,1-1.52,1.55,1.5,1.5,0,0,1-1.6-1.42,1.57,1.57,0,0,1,1.52-1.56A1.5,1.5,0,0,1,141.52,107.34Z" style="fill:#263238"></path><path d="M142,102.89c-.19.2-1.36-.69-3-.71s-2.92.81-3.1.61.11-.46.65-.85a4.31,4.31,0,0,1,2.49-.73,4.13,4.13,0,0,1,2.42.81C141.89,102.43,142.06,102.8,142,102.89Z" style="fill:#263238"></path><path d="M125.88,107.51a1.55,1.55,0,0,1-1.52,1.55,1.49,1.49,0,0,1-1.59-1.42,1.56,1.56,0,0,1,1.52-1.56A1.49,1.49,0,0,1,125.88,107.51Z" style="fill:#263238"></path><path d="M125.51,103.37c-.19.2-1.36-.68-3-.7s-2.92.81-3.1.6.11-.45.65-.84a4.31,4.31,0,0,1,2.49-.73,4.13,4.13,0,0,1,2.42.81C125.44,102.91,125.61,103.28,125.51,103.37Z" style="fill:#263238"></path><path d="M131.39,116.34a10.89,10.89,0,0,1,2.73-.46c.43,0,.83-.12.91-.41a2.22,2.22,0,0,0-.27-1.27c-.39-1-.8-2.14-1.23-3.28-1.71-4.67-2.94-8.51-2.75-8.57s1.72,3.66,3.43,8.33l1.18,3.29a2.51,2.51,0,0,1,.2,1.69,1.08,1.08,0,0,1-.71.62,3,3,0,0,1-.73.09A10.66,10.66,0,0,1,131.39,116.34Z" style="fill:#263238"></path><path d="M126,97.71c-.17.45-1.85.22-3.82.44s-3.57.74-3.82.32c-.12-.19.16-.62.81-1.06a6.44,6.44,0,0,1,2.84-1,6.34,6.34,0,0,1,3,.38C125.69,97.13,126.05,97.49,126,97.71Z" style="fill:#263238"></path><path d="M141.35,97.23c-.29.39-1.45,0-2.84,0s-2.56.29-2.84-.11c-.12-.19.06-.58.57-.94a4.12,4.12,0,0,1,4.58.09C141.31,96.66,141.48,97.05,141.35,97.23Z" style="fill:#263238"></path><path d="M107.6,109.36c-.19-.09-7.48-2.31-7.33,5.16s7.62,5.78,7.63,5.56S107.6,109.36,107.6,109.36Z" style="fill:#bd8c83"></path><path d="M105.56,117.3s-.13.09-.34.2a1.32,1.32,0,0,1-1,0,3.26,3.26,0,0,1-1.55-2.86,4.33,4.33,0,0,1,.33-1.87,1.51,1.51,0,0,1,1-1,.65.65,0,0,1,.77.34c.11.21.06.36.1.37s.16-.13.1-.44a.9.9,0,0,0-.31-.46,1,1,0,0,0-.72-.17,1.84,1.84,0,0,0-1.34,1.18,4.57,4.57,0,0,0-.41,2.09c.08,1.51.88,2.9,2,3.19a1.37,1.37,0,0,0,1.18-.22C105.55,117.48,105.59,117.31,105.56,117.3Z" style="fill:#896360"></path><path d="M139.16,86.15c1.19-.7-2.55-4.51-5.56-5.77-4.55-1.91-11.44-3-15.55-1.67-4.94,1.56-9,4.16-11.38,8.77a29.44,29.44,0,0,0-2.86,15.09A8.84,8.84,0,0,0,105,107.1c1.09,1.62,3.12,2.61,3.1,4.89a3.1,3.1,0,0,0,.84,2.25c1.41,1.42,3,0,3.77-1.39,1.56-3,1.64-6.47,1.68-9.83a21.55,21.55,0,0,0-.68-7.08c-.4-1.24-1-2.4-1.35-3.65a4.5,4.5,0,0,1,.42-3.75,5.14,5.14,0,0,1,.59-.63,7.79,7.79,0,0,1,7.68-1.69c4.25,1.36,11.5,3.38,13.33,1.89a11.54,11.54,0,0,0,3.25-3.49Z" style="fill:#263238"></path><path d="M133.67,121.54c0,.12-.27.39-.89.57a4.47,4.47,0,0,1-4.52-1.57c-.38-.53-.45-.93-.34-1s1.14.95,2.71,1.47S133.56,121.26,133.67,121.54Z" style="fill:#263238"></path><path d="M140.48,436.09l-4.17,22.36s21.32,11.75,20.95,16l-43.64-6.54,5.08-35.11Z" style="fill:#FCA311"></path><g style="opacity:0.30000000000000004"><path d="M140.48,436.09l-4.17,22.36s21.32,11.75,20.95,16l-43.64-6.54,5.08-35.11Z"></path></g><path d="M123.09,454.53a1.8,1.8,0,0,0-1.53,1.85,1.73,1.73,0,0,0,1.82,1.54,1.89,1.89,0,0,0,1.61-2,1.8,1.8,0,0,0-2.07-1.4" style="fill:#e0e0e0"></path><path d="M113.62,467.87l.65-3.52,41.6,7.59s1.82,1.14,1.39,2.47Z" style="fill:#263238"></path><path d="M137.05,458.33c0,.21-1.12.15-2.27.68s-1.85,1.34-2,1.23.32-1.3,1.72-1.92S137.12,458.14,137.05,458.33Z" style="fill:#263238"></path><path d="M141.34,460.91c0,.22-1,.44-1.82,1.23s-1.21,1.72-1.42,1.68-.16-1.27.92-2.24S141.37,460.71,141.34,460.91Z" style="fill:#263238"></path><path d="M143.12,466.78c-.2,0-.34-1.09.39-2.18s1.78-1.4,1.85-1.21-.65.73-1.23,1.63S143.34,466.79,143.12,466.78Z" style="fill:#263238"></path><path d="M137.43,453.13c-.11.18-1.05-.26-2.26-.36s-2.22.14-2.3-.06.93-.82,2.36-.68S137.56,453,137.43,453.13Z" style="fill:#263238"></path><path d="M126.23,441.44l-.4,22.74s23,8.05,23.32,12.26l-44.13.8-.82-35.46Z" style="fill:#FCA311"></path><path d="M112.15,462.52a1.81,1.81,0,0,0-1.21,2.08,1.73,1.73,0,0,0,2,1.21,1.89,1.89,0,0,0,1.27-2.21,1.78,1.78,0,0,0-2.27-1" style="fill:#e0e0e0"></path><path d="M105,477.24l.06-3.58,42.29.57s2,.82,1.78,2.21Z" style="fill:#263238"></path><path d="M126.54,463.94c0,.22-1.08.34-2.12,1.05s-1.6,1.63-1.8,1.54.1-1.33,1.38-2.17S126.59,463.74,126.54,463.94Z" style="fill:#263238"></path><path d="M131.21,465.77c0,.21-.88.59-1.59,1.52s-.91,1.89-1.13,1.89-.37-1.23.54-2.36S131.2,465.57,131.21,465.77Z" style="fill:#263238"></path><path d="M133.94,471.26c-.2.05-.52-1,0-2.21s1.53-1.68,1.63-1.5-.52.82-.94,1.81S134.15,471.24,133.94,471.26Z" style="fill:#263238"></path><path d="M126.06,458.75c-.09.2-1.08-.08-2.3,0s-2.16.51-2.27.33.78-1,2.22-1.07S126.16,458.58,126.06,458.75Z" style="fill:#263238"></path><path d="M95.11,264.84l.58,22.51,6.65,69.85s-2.12,34-3.46,53.24c-1.17,16.68,2.2,45.6,2.2,45.6l28.08-.73,7.53-96.92,4.67-60.45,9.48-31.59Z" style="fill:#263238"></path><path d="M164.51,270l1.77,91.36A38.35,38.35,0,0,1,164,375L139.91,442.2l-1.19,4.44L121.84,443,130,264.84Z" style="fill:#263238"></path><path d="M141,286.1s0,.15,0,.44,0,.74,0,1.29c0,1.16,0,2.82,0,4.95,0,4.29-.12,10.51-.32,18.19-.45,15.36-1.48,36.56-3.34,59.92s-4,44.46-5.51,59.73c-.8,7.61-1.45,13.77-1.9,18.07-.23,2.11-.41,3.76-.53,4.91-.07.54-.12,1-.16,1.28a3.15,3.15,0,0,1-.07.43,2.91,2.91,0,0,1,0-.44c0-.32.06-.74.1-1.28.1-1.16.25-2.81.44-4.92.41-4.31,1-10.48,1.73-18.1,1.47-15.27,3.54-36.37,5.36-59.73s2.94-44.54,3.49-59.88c.25-7.68.43-13.89.49-18.19.05-2.12.09-3.78.11-4.94,0-.55,0-1,0-1.29A3,3,0,0,1,141,286.1Z" style="fill:#455a64"></path><path d="M116.47,270.61a3.86,3.86,0,0,1-.09,1,16.53,16.53,0,0,1-.73,2.74A18,18,0,0,1,102,286a15.25,15.25,0,0,1-2.82.26,3.46,3.46,0,0,1-1-.08c0-.1,1.48,0,3.78-.55a18.6,18.6,0,0,0,13.42-11.37C116.18,272.07,116.37,270.59,116.47,270.61Z" style="fill:#455a64"></path><path d="M142.45,274.2a1.45,1.45,0,1,1-1.49-1.41A1.45,1.45,0,0,1,142.45,274.2Z" style="fill:#455a64"></path><path d="M165.23,285a9,9,0,0,1-2-1.8,22.37,22.37,0,0,1-5.61-11.7,9.23,9.23,0,0,1-.13-2.71c.08,0,.17,1,.5,2.64a25.88,25.88,0,0,0,5.52,11.52C164.54,284.22,165.29,284.93,165.23,285Z" style="fill:#455a64"></path><polygon points="69.87 310.56 122.3 290.54 140.4 331.54 84.98 350.85 69.87 310.56" style="fill:#455a64"></polygon><path d="M108.34,311.87c-2.08-1.91-4.83-4.52-4.86-5s-.75-3.65-1.39-6.42a2.63,2.63,0,0,1,2.94-3.31l3.55-1.37a22.89,22.89,0,0,0-3.23-4.84c-1.7-1.73-6.46-4.22-6.46-4.22l-.54-6.19-14.18,2.84,2,14.24s3.52,13.37,5.09,14.64,6,1.9,6,1.9c1.77,2,5.36,1.17,5.36,1.17,4,2.34,3.81-.6,3.81-.6a.85.85,0,0,0,.42.22C108.56,315.3,109.59,313,108.34,311.87Z" style="fill:#bd8c83"></path><path d="M98,302a8.1,8.1,0,0,0,.06,2.43A12.64,12.64,0,0,0,99.8,310a11.25,11.25,0,0,0,4.51,3.66,7.67,7.67,0,0,0,2.22.88,11,11,0,0,0-2-1.27,12.65,12.65,0,0,1-4.2-3.63,14.34,14.34,0,0,1-1.84-5.31A10.8,10.8,0,0,0,98,302Z" style="fill:#896360"></path><path d="M95,303.59a4.54,4.54,0,0,0-.07,2.23,16,16,0,0,0,.46,2.37,7.32,7.32,0,0,0,1.26,2.72,12.77,12.77,0,0,0,2.21,1.93l1.91,1.36a7.44,7.44,0,0,0,1.86,1.13,7.46,7.46,0,0,0-1.59-1.49c-.51-.43-1.13-.93-1.83-1.47a14.34,14.34,0,0,1-2.08-1.87A7.23,7.23,0,0,1,95.89,308a22.27,22.27,0,0,1-.58-2.26C95.05,304.43,95,303.6,95,303.59Z" style="fill:#896360"></path><path d="M91.58,305.75c-.25.06.37,2.45,1.3,5.26a2.4,2.4,0,0,0,.68,1,7.89,7.89,0,0,0,.78.68,8.91,8.91,0,0,0,1.45.95c.88.46,1.5.57,1.52.49s-.51-.33-1.29-.87a14.93,14.93,0,0,1-1.31-1,8.84,8.84,0,0,1-.71-.67,1.89,1.89,0,0,1-.52-.76c-.46-1.44-.93-2.69-1.27-3.61A7.17,7.17,0,0,0,91.58,305.75Z" style="fill:#896360"></path><path d="M146.14,154.68s12.28,6.15,17.1,13.11,13.14,19.58,13.14,19.58l11.1-28.82,16.63,7.38s-9.5,34.42-11.25,38.19c-2.44,5.22-8.23,9.89-17.3,9.34s-6.17-.31-12.13-5.89l-8-9.38Z" style="fill:#FCA311"></path><g style="opacity:0.30000000000000004"><path d="M153.77,181.53a90.2,90.2,0,0,0,10.29,26.58,65.07,65.07,0,0,1-5.24-5.92c-1.37-1.61-3.31-3.86-3.31-3.86-.53-5.65-1.74-16.8-1.74-16.8"></path></g><path d="M178.34,200.59a7.54,7.54,0,0,1-.51-2c-.25-1.26-.53-3-.77-5s-.38-3.71-.45-5a7.92,7.92,0,0,1,0-2.07,70.33,70.33,0,0,1,1,7C178.05,197.44,178.48,200.57,178.34,200.59Z" style="fill:#263238"></path><path d="M106.66,142.8l-.62-6a2,2,0,0,1,2.34-1.9c7.1,1.51,27.88,6,28.12,7.12.15.65,0,5-.06,8.62l-29.78-7.89" style="fill:#FCA311"></path><path d="M81.3,158.55s-7.36,5.22-8.62,19.29c-.78,8.64-1.85,64.66-1.85,64.66l12,46.67,19.08-4.83-6.77-49.16.66-42.7Z" style="fill:#FCA311"></path><path d="M82.8,289.17a1.38,1.38,0,0,1,.33-.12l1-.28,3.79-1,13.93-3.62-.15.23c-1.44-9.84-3.34-22.88-5.42-37.16-.49-3.4-1-6.72-1.42-9.91v0c.23-13.41.44-25.2.58-33.69.1-4.2.18-7.57.23-9.94,0-1.14.07-2,.09-2.68l0-.69a1.48,1.48,0,0,1,0-.24.75.75,0,0,1,0,.24c0,.19,0,.41,0,.69,0,.65,0,1.55,0,2.68,0,2.37,0,5.75-.07,9.94-.1,8.49-.24,20.29-.4,33.7v-.05l1.43,9.91c2,14.29,3.88,27.34,5.28,37.18l0,.19-.19,0L88,288l-3.82.91-1,.22A1.45,1.45,0,0,1,82.8,289.17Z" style="fill:#263238"></path><path d="M107.88,141.25s-22,10.86-26.58,17.3c-5.58,7.8,9.86,32.75,11,38.94.57,3,4.25,25.31,2.52,42.93a301.93,301.93,0,0,0-1.32,35.26l71-5.72c0-12.38-3.2-21.93-5.33-37.65L153.85,181l-7.71-26.35-11-4.63Z" style="fill:#FCA311"></path><path d="M152.55,172.38a2,2,0,0,1,.12.54c.07.42.15.94.25,1.57.21,1.36.48,3.33.8,5.77.64,4.88,1.45,11.63,2.24,19.1s1.39,14.24,1.77,19.14c.2,2.46.34,4.44.42,5.82l.08,1.58a2.11,2.11,0,0,1,0,.55,2,2,0,0,1-.1-.54c-.05-.42-.11-.94-.19-1.57-.14-1.46-.34-3.42-.59-5.8-.5-5-1.18-11.69-1.94-19.13s-1.53-14.14-2.07-19.1c-.26-2.39-.47-4.35-.62-5.8l-.15-1.57A1.83,1.83,0,0,1,152.55,172.38Z" style="fill:#263238"></path><path d="M99.1,177.6c-.11,0,0-1.47-.49-3.77a18.52,18.52,0,0,0-11.07-13.51c-2.16-.91-3.62-1.13-3.6-1.23a3.6,3.6,0,0,1,1,.1,15.52,15.52,0,0,1,2.71.76A17.78,17.78,0,0,1,99,173.76a15.23,15.23,0,0,1,.21,2.81A3.69,3.69,0,0,1,99.1,177.6Z" style="fill:#263238"></path><path d="M146.85,237.24a6.41,6.41,0,0,1-1.39-.19,35.94,35.94,0,0,1-3.7-.93,44.06,44.06,0,0,1-5.31-2,49.18,49.18,0,0,1-6.08-3.35,47.94,47.94,0,0,1-5.49-4.25,41.83,41.83,0,0,1-3.95-4.07,31.56,31.56,0,0,1-2.32-3,6.88,6.88,0,0,1-.74-1.19c.09-.06,1.22,1.58,3.35,4a50.23,50.23,0,0,0,4,3.95,52.46,52.46,0,0,0,5.45,4.17,54.32,54.32,0,0,0,6,3.35,51.35,51.35,0,0,0,5.21,2.09C144.91,236.76,146.87,237.14,146.85,237.24Z" style="fill:#263238"></path><g style="opacity:0.30000000000000004"><path d="M95.77,192.48c-4.57,27.21-2.25,56,4.77,82.63l1.82-.14C103.84,247.43,101.11,219.54,95.77,192.48Z"></path></g><g style="opacity:0.30000000000000004"><path d="M127.46,238.94a63,63,0,0,0,23.43,4.76c-1.22,1.84-3.53,2.31-5.73,2.44a18.2,18.2,0,0,1-6.45-.62c-4-1.24-8.8-3.13-11.25-6.58"></path></g><path d="M136.24,150.53a4.63,4.63,0,0,1-1.22.22,17.65,17.65,0,0,1-3.38,0A42.16,42.16,0,0,1,120.87,148c-4.07-1.47-7.82-2.68-10.4-3.94a16.69,16.69,0,0,1-2.92-1.71,5.25,5.25,0,0,1-.69-.62c-.14-.15-.21-.23-.2-.25s.35.28,1,.7a21.13,21.13,0,0,0,3,1.55c2.58,1.16,6.33,2.31,10.41,3.78a47.91,47.91,0,0,0,10.63,2.9A39.19,39.19,0,0,0,136.24,150.53Z" style="fill:#263238"></path><path d="M110.72,135.53a23.28,23.28,0,0,1,0,4.19,23.71,23.71,0,0,1-.23,4.18,13.36,13.36,0,0,1-.29-4.2A13.77,13.77,0,0,1,110.72,135.53Z" style="fill:#263238"></path><path d="M121.17,137.85a30.88,30.88,0,0,1,.31,4.94,31.81,31.81,0,0,1,0,5,19.2,19.2,0,0,1-.55-4.93A19.27,19.27,0,0,1,121.17,137.85Z" style="fill:#263238"></path><path d="M133.77,141a16.12,16.12,0,0,1,.43,4.86,15.47,15.47,0,0,1-.57,4.84,42.73,42.73,0,0,1,.05-4.85A41,41,0,0,1,133.77,141Z" style="fill:#263238"></path><g style="opacity:0.30000000000000004"><path d="M107.76,142.2c1.53,2.3,3.91,3.44,6.39,4.68a47.18,47.18,0,0,0,10.06,4,19,19,0,0,0,10.7-.26c-4.71-.09-9.29-1.49-13.7-3.14s-9.08-3.58-13.4-5.29"></path></g><path d="M206.15,144.75l-6.24.88-.72-8.45-1.12-7.44.48-13-6.34,7.58a5.78,5.78,0,0,0-.93,2.73l-.65,22.87-.11,9.79,11.09,7L201.38,155l2.57-2.76C206.53,149.49,206.15,144.75,206.15,144.75Z" style="fill:#bd8c83"></path><rect x="204.8" y="105.95" width="25.76" height="69.22" style="fill:#263238"></rect><rect x="197.85" y="105.95" width="25.76" height="69.22" style="fill:#455a64"></rect><path d="M215.87,122.71a5.81,5.81,0,1,1-5.81-5.81A5.81,5.81,0,0,1,215.87,122.71Z" style="fill:#fff"></path><path d="M230.52,116.36a34.5,34.5,0,0,1-3.26,5.14,35.37,35.37,0,0,1-3.68,4.85,35.53,35.53,0,0,1,3.26-5.14A35.37,35.37,0,0,1,230.52,116.36Z" style="fill:#455a64"></path><path d="M230.52,124a35.09,35.09,0,0,1-3.26,5.14,35.37,35.37,0,0,1-3.68,4.85,35.91,35.91,0,0,1,3.26-5.15A35.62,35.62,0,0,1,230.52,124Z" style="fill:#455a64"></path><path d="M230.52,131.68a35.71,35.71,0,0,1-3.26,5.14,34.13,34.13,0,0,1-3.68,4.84,36.81,36.81,0,0,1,3.26-5.14A35.62,35.62,0,0,1,230.52,131.68Z" style="fill:#455a64"></path><path d="M230.52,139.34a35.71,35.71,0,0,1-3.26,5.14,34.86,34.86,0,0,1-3.68,4.84,36.81,36.81,0,0,1,3.26-5.14A34.86,34.86,0,0,1,230.52,139.34Z" style="fill:#455a64"></path><path d="M230.52,147a35.71,35.71,0,0,1-3.26,5.14,35.62,35.62,0,0,1-3.68,4.84,36.81,36.81,0,0,1,3.26-5.14A34.13,34.13,0,0,1,230.52,147Z" style="fill:#455a64"></path><path d="M230.52,154.65a34.5,34.5,0,0,1-3.26,5.14,35.37,35.37,0,0,1-3.68,4.85,36.81,36.81,0,0,1,3.26-5.14A35.37,35.37,0,0,1,230.52,154.65Z" style="fill:#455a64"></path><path d="M230.52,162.31a34.5,34.5,0,0,1-3.26,5.14,35.37,35.37,0,0,1-3.68,4.85,35.53,35.53,0,0,1,3.26-5.14A35.37,35.37,0,0,1,230.52,162.31Z" style="fill:#455a64"></path><path d="M230.45,109.61a35.71,35.71,0,0,1-3.26,5.14,34.86,34.86,0,0,1-3.68,4.84,35.71,35.71,0,0,1,3.26-5.14A35.62,35.62,0,0,1,230.45,109.61Z" style="fill:#455a64"></path><path d="M227.82,106a12.39,12.39,0,0,1-1.84,3.1,12.47,12.47,0,0,1-2.26,2.81,12.39,12.39,0,0,1,1.84-3.1A12.47,12.47,0,0,1,227.82,106Z" style="fill:#455a64"></path><path d="M192.59,134.6a47.51,47.51,0,0,1,5-7.18,6.68,6.68,0,0,1,2.13-1.87,2.53,2.53,0,0,1,2.7.2,2.66,2.66,0,0,1,.45,3,10.39,10.39,0,0,1-1.94,2.59,5.27,5.27,0,0,0-1.52,2.82,8.68,8.68,0,0,0,.55,3,9.82,9.82,0,0,1-2.56,9.18" style="fill:#bd8c83"></path><path d="M197.4,146.33s.33-.41.86-1.18a9.94,9.94,0,0,0,1.53-3.58,9.66,9.66,0,0,0,.19-2.68,13.39,13.39,0,0,0-.65-3,4.79,4.79,0,0,1-.18-1.79,4.19,4.19,0,0,1,.69-1.76c.68-1.07,1.68-1.89,2.36-2.91a3.56,3.56,0,0,0,.64-1.63,2,2,0,0,0-3.21-1.87,8.72,8.72,0,0,0-2.22,2.1c-.63.76-1.2,1.48-1.7,2.15-1,1.34-1.77,2.47-2.28,3.25a8.27,8.27,0,0,1-.84,1.21,6.81,6.81,0,0,1,.65-1.32,38.08,38.08,0,0,1,2.15-3.37c.49-.69,1-1.44,1.67-2.21a8.76,8.76,0,0,1,2.32-2.25,3.26,3.26,0,0,1,1.78-.45,2.26,2.26,0,0,1,1.74.87,3.35,3.35,0,0,1-.24,3.83c-.75,1.11-1.74,1.92-2.37,2.9a3.79,3.79,0,0,0-.61,1.53,4.09,4.09,0,0,0,.15,1.59,13.2,13.2,0,0,1,.61,3.14,9.52,9.52,0,0,1-.27,2.79,9.41,9.41,0,0,1-1.74,3.63,5.31,5.31,0,0,1-.73.81Q197.42,146.34,197.4,146.33Z" style="fill:#896360"></path></g><g id="freepik--character-3--inject-63"><path d="M361.64,237.78c-1.44.8-14.86.95-14.86.95l.54,10.77L374,252.1Z" style="fill:#FCA311"></path><path d="M289.94,229.38a4.51,4.51,0,0,0-.92,2.09c0,.84,23.34,17.95,28.12,21.45a3.27,3.27,0,0,0,1.91.62l32.05,0,.17-2.55S322,230.12,321.44,230.18,289.94,229.38,289.94,229.38Z" style="fill:#263238"></path><path d="M321.38,231.33c-.43,0-28.29-.39-28.29-.39s21.16,15.9,24.89,18.63a2.54,2.54,0,0,0,1.48.48l29.58.57Z" style="fill:#fafafa"></path><path d="M346.84,240.3H344.6s-8.13-6-9-6.16c-.36-.08-6.62-.93-6.62-.93l-7,2.7s-.37,1.58,2.43,1.87a13.89,13.89,0,0,0,6-1.21s6.25,6.19,8.91,7.67,7.81,3.8,7.81,3.8Z" style="fill:#ffbe9d"></path><g style="opacity:0.30000000000000004"><path d="M361.64,237.78c-1.44.8-14.86.95-14.86.95l.54,10.77L374,252.1Z"></path></g><path d="M387.87,376.86l12.8,31L362.18,424c-1.32-3.77,15.5-19.49,15.5-19.49l-9-19.53Z" style="fill:#FCA311"></path><g style="opacity:0.6000000000000001"><path d="M388.89,397.84a1.69,1.69,0,0,1,1.83,1.34,1.63,1.63,0,0,1-1.31,1.83,1.8,1.8,0,0,1-1.94-1.43c0-.83.75-1.83,1.58-1.75" style="fill:#fff"></path></g><path d="M400.67,407.86l-1.3-3.13-36.49,16.66s-1.4,1.46-.7,2.59Z" style="fill:#fff"></path><path d="M377,404.56c.08.18,1.06-.13,2.24.09s2,.8,2.14.65-.59-1.11-2-1.35S376.86,404.4,377,404.56Z" style="fill:#263238"></path><path d="M373.64,407.92c0,.2,1,.17,1.95.7s1.51,1.29,1.69,1.21-.14-1.2-1.36-1.84S373.57,407.73,373.64,407.92Z" style="fill:#263238"></path><path d="M373.37,413.71c.19,0,.06-1.08-.86-1.91s-2-.87-2-.68.77.51,1.51,1.2S373.18,413.77,373.37,413.71Z" style="fill:#263238"></path><path d="M375.42,399.88c.15.14.9-.48,2-.86s2.06-.38,2.09-.58-1-.54-2.32-.09S375.26,399.77,375.42,399.88Z" style="fill:#263238"></path><path d="M374.42,394.93a3.93,3.93,0,0,0,1.92-.82,9.3,9.3,0,0,0,2.62-2.52,2.46,2.46,0,0,0,.39-.69.88.88,0,0,0-.33-1,1.12,1.12,0,0,0-1-.08,2.71,2.71,0,0,0-.68.4,7,7,0,0,0-1,.91A7.93,7.93,0,0,0,375,393a3.67,3.67,0,0,0-.48,2c.12,0,.3-.74.93-1.8a8.15,8.15,0,0,1,1.31-1.69,8.54,8.54,0,0,1,1-.81c.37-.27.71-.42.89-.29s.09.08.05.24a2,2,0,0,1-.29.51c-.25.36-.51.7-.77,1a11.19,11.19,0,0,1-1.57,1.49A15.19,15.19,0,0,0,374.42,394.93Z" style="fill:#263238"></path><path d="M374.78,395.09a3.3,3.3,0,0,0-.27-2.07,6.71,6.71,0,0,0-1.15-2,6.92,6.92,0,0,0-1-1,1.72,1.72,0,0,0-1.64-.45,1,1,0,0,0-.58.87,2.71,2.71,0,0,0,.1.79,4.74,4.74,0,0,0,.54,1.3,4.91,4.91,0,0,0,1.66,1.65,2.68,2.68,0,0,0,2,.5,16.62,16.62,0,0,1-1.76-.92,4.82,4.82,0,0,1-1.37-1.56,4.14,4.14,0,0,1-.43-1.13c-.11-.43-.1-.83.07-.85a1.21,1.21,0,0,1,.94.35,6.82,6.82,0,0,1,.92.85,7.35,7.35,0,0,1,1.17,1.76C374.57,394.32,374.66,395.11,374.78,395.09Z" style="fill:#263238"></path><path d="M345.14,389.46l11.27,31.59-39.22,14.22c-1.13-3.83,16.43-18.71,16.43-18.71l-8.05-19.94Z" style="fill:#FCA311"></path><g style="opacity:0.6000000000000001"><path d="M345.14,410.46a1.71,1.71,0,0,1,1.77,1.43,1.65,1.65,0,0,1-1.4,1.77,1.81,1.81,0,0,1-1.87-1.52c0-.84.83-1.8,1.66-1.68" style="fill:#fff"></path></g><path d="M356.41,421.05l-1.13-3.19L318,432.72s-1.47,1.4-.83,2.55Z" style="fill:#fff"></path><path d="M332.92,416.59c.07.19,1.06-.07,2.23.2s2,.9,2.1.76-.53-1.14-1.95-1.45S332.81,416.43,332.92,416.59Z" style="fill:#263238"></path><path d="M329.42,419.79c0,.2,1,.22,1.91.8s1.45,1.36,1.63,1.28-.08-1.2-1.27-1.89S329.36,419.6,329.42,419.79Z" style="fill:#263238"></path><path d="M328.87,425.56c.19,0,.11-1.08-.77-1.95s-1.92-1-1.94-.77.74.55,1.44,1.27S328.67,425.61,328.87,425.56Z" style="fill:#263238"></path><path d="M331.58,411.84c.15.15.93-.43,2-.75s2.08-.29,2.12-.49-1-.59-2.32-.19S331.44,411.73,331.58,411.84Z" style="fill:#263238"></path><path d="M330.83,406.85a4,4,0,0,0,2-.72,9.33,9.33,0,0,0,1.83-1.38,10,10,0,0,0,.91-1,2.34,2.34,0,0,0,.42-.67.88.88,0,0,0-.28-1.05,1.14,1.14,0,0,0-1-.14,3,3,0,0,0-.7.37,8.44,8.44,0,0,0-1.06.86,7.38,7.38,0,0,0-1.38,1.85,3.44,3.44,0,0,0-.58,2c.11,0,.33-.73,1-1.76a8.19,8.19,0,0,1,1.39-1.62,8.75,8.75,0,0,1,1-.76c.38-.26.73-.39.91-.24s.07.08,0,.23a2.2,2.2,0,0,1-.31.5,11.6,11.6,0,0,1-.82,1,12.21,12.21,0,0,1-1.64,1.42A15.15,15.15,0,0,0,330.83,406.85Z" style="fill:#263238"></path><path d="M331.18,407A3.29,3.29,0,0,0,331,405a7,7,0,0,0-2-3.07,1.72,1.72,0,0,0-1.61-.53,1,1,0,0,0-.63.84,3.3,3.3,0,0,0,.06.8,4.92,4.92,0,0,0,.48,1.32,4.75,4.75,0,0,0,1.58,1.72,2.69,2.69,0,0,0,2,.61,17.7,17.7,0,0,1-1.72-1,4.91,4.91,0,0,1-1.29-1.62,4.3,4.3,0,0,1-.37-1.15c-.09-.44-.06-.83.11-.84s.64.12.92.39a7.38,7.38,0,0,1,.88.89,7.81,7.81,0,0,1,1.09,1.82C331,406.25,331.06,407,331.18,407Z" style="fill:#263238"></path><path d="M360.86,120.44c-1.51,1.3-1.89,3.5-1.73,5.49s.76,3.92.8,5.91c.08,3.85-1.94,7.52-1.86,11.38s2.24,7.43,2.6,11.29c.35,3.65,4.58,6.38,3.67,9.93s-6.92,8.34-5.14,11.55a3.07,3.07,0,0,0,1.44,1.45,3.6,3.6,0,0,0,2,0l9.21-1.74a6.07,6.07,0,0,0,3.16-1.27,5.49,5.49,0,0,0,1.28-3.53c.76-7.73-1-15.45-2-23.15a109.79,109.79,0,0,1-.07-27.11" style="fill:#263238"></path><path d="M373.37,172.49Z" style="fill:#ffbe9d"></path><path d="M361.61,130.3a17.89,17.89,0,0,1,16.82-17.7,17.37,17.37,0,0,1,18.41,17l-.42,39.16a3.34,3.34,0,0,1-.74,2.08,16,16,0,0,1-10.6,5.76A16.66,16.66,0,0,1,375,173.7a3.33,3.33,0,0,1-1.49-3l.45-8.74s0-.06-.05-.06a12.39,12.39,0,0,1-2.44-.24c-2.27-.73-8-3.4-9.37-12.18C361.61,146.6,361.52,138.42,361.61,130.3Z" style="fill:#ffbe9d"></path><path d="M373.53,144a10.17,10.17,0,0,0-2.51-.45c-.39,0-.76-.12-.83-.38a2,2,0,0,1,.27-1.15c.38-.94.77-1.92,1.19-2.95,1.64-4.21,2.84-7.67,2.66-7.73s-1.64,3.29-3.29,7.5c-.4,1-.78,2-1.14,3a2.21,2.21,0,0,0-.21,1.52,1,1,0,0,0,.65.57,2.43,2.43,0,0,0,.67.09A10.38,10.38,0,0,0,373.53,144Z" style="fill:#263238"></path><path d="M364,137a1.41,1.41,0,0,0,1.37,1.43,1.37,1.37,0,0,0,1.49-1.27,1.41,1.41,0,0,0-1.37-1.43A1.38,1.38,0,0,0,364,137Z" style="fill:#263238"></path><path d="M364.37,133.5c.16.24,1.34-.65,2.89-.53s2.58,1.13,2.77.92,0-.52-.5-1a3.41,3.41,0,0,0-4.51-.31C364.5,133,364.3,133.39,364.37,133.5Z" style="fill:#263238"></path><path d="M378.64,137.14a1.42,1.42,0,0,0,1.37,1.43,1.38,1.38,0,0,0,1.49-1.28,1.41,1.41,0,0,0-1.37-1.42A1.38,1.38,0,0,0,378.64,137.14Z" style="fill:#263238"></path><path d="M379.21,134c.2.22,1.34-.83,3-.93s2.94.76,3.11.52-.13-.5-.69-.91a3.9,3.9,0,0,0-4.87.33C379.27,133.53,379.11,134,379.21,134Z" style="fill:#263238"></path><path d="M373.93,161.93s6,.48,13.46-3.92c0,0-2.4,7.75-13.61,6.71Z" style="fill:#eb996e"></path><path d="M374.16,147.61a2.83,2.83,0,0,1,2.51-1,2.55,2.55,0,0,1,1.75.92,1.56,1.56,0,0,1,.11,1.81,1.9,1.9,0,0,1-2,.51,6,6,0,0,1-2-1.16,2.08,2.08,0,0,1-.44-.45.51.51,0,0,1,0-.57" style="fill:#eb996e"></path><path d="M378.08,145c-.25,0-.27,1.64-1.71,2.81s-3.23,1-3.24,1.22.39.32,1.15.34a4.24,4.24,0,0,0,2.7-.93,3.56,3.56,0,0,0,1.33-2.35C378.38,145.4,378.19,145,378.08,145Z" style="fill:#263238"></path><path d="M378.64,128.66c.15.41,1.7.24,3.5.48s3.27.75,3.52.39c.11-.18-.14-.57-.72-1a6.21,6.21,0,0,0-5.35-.66C378.92,128.14,378.58,128.46,378.64,128.66Z" style="fill:#263238"></path><path d="M364.53,128.62c.29.33,1.33-.09,2.61-.19s2.37.09,2.6-.29c.1-.18-.09-.51-.58-.81a3.61,3.61,0,0,0-2.15-.44,3.69,3.69,0,0,0-2.05.82C364.53,128.09,364.4,128.46,364.53,128.62Z" style="fill:#263238"></path><path d="M377.2,110.55a5.26,5.26,0,0,1,4.13-2c6.9-.55,14.24,4.1,17.66,10.12s3,14.61-.22,20.73l-2.59.26c-5.32-.69-13.25-16.19-20.15-24.93C375.17,113.68,376.41,111.69,377.2,110.55Z" style="fill:#263238"></path><path d="M363.8,114.11c3.09-3,8-6.69,13.78-4,.76,1.72-1.15,3.75-2.71,4.91-2.28,1.69-4.25,2.81-5.75,4-3.05,2.46-6.89,6.63-7.52,11.51,0,.3-.27.33-.58.26s-1.17-2.15-1.46-4.84C359,120.23,360.72,117.16,363.8,114.11Z" style="fill:#263238"></path><path d="M394.7,136.46c.16-.08,6.65-2.13,6.58,4.54s-6.74,5.22-6.75,5S394.7,136.46,394.7,136.46Z" style="fill:#ffbe9d"></path><path d="M396.59,143.53s.11.08.31.17a1.19,1.19,0,0,0,.87,0,2.9,2.9,0,0,0,1.35-2.57,3.73,3.73,0,0,0-.31-1.66,1.33,1.33,0,0,0-.86-.9.58.58,0,0,0-.69.31c-.09.18-.05.32-.09.33s-.14-.12-.08-.39a.72.72,0,0,1,.27-.41.85.85,0,0,1,.64-.17,1.63,1.63,0,0,1,1.2,1,4,4,0,0,1,.39,1.86,3,3,0,0,1-1.73,2.86,1.23,1.23,0,0,1-1.06-.19C396.6,143.69,396.57,143.54,396.59,143.53Z" style="fill:#eb996e"></path><path d="M313.31,169.43l-9.8,5.06-3.93-6.6a31.11,31.11,0,0,1-5.16-3.71l-3.49-4a3.63,3.63,0,0,1-.88-3.17,1.06,1.06,0,0,1,.3-.62l1-1.7s-.53-2.43-.68-4,1.14-4.34,1.14-4.34l-3.66-7.84a2,2,0,0,1,.29-2.22.87.87,0,0,1,1.22-.17c1.24.84,4.89,7.18,4.89,7.18l1.35,1.31,1.72.28s-.51-2.44.55-3l5,3.6,4.12,5.77s.82,8.34,1.92,10.57S313.31,169.43,313.31,169.43Z" style="fill:#ffbe9d"></path><path d="M294.48,152.61a9.85,9.85,0,0,1-1.76-2.93,10.14,10.14,0,0,1-1-3.28c.1,0,.5,1.44,1.25,3.15S294.56,152.56,294.48,152.61Z" style="fill:#eb996e"></path><path d="M292.11,156.59a3.86,3.86,0,0,1-.78-1.72A5.18,5.18,0,0,1,291,153a6.08,6.08,0,0,1,.65,1.76A11.53,11.53,0,0,1,292.11,156.59Z" style="fill:#eb996e"></path><path d="M293.67,142a16.94,16.94,0,0,1,1.16,1.58c.7,1,1.69,2.32,2.82,3.76.57.72,1.12,1.4,1.63,2a6.52,6.52,0,0,0,1.5,1.42,3.12,3.12,0,0,0,1.82.48,1,1,0,0,1-.53.11,3,3,0,0,1-1.4-.39,6.16,6.16,0,0,1-1.61-1.43c-.52-.6-1.09-1.28-1.66-2-1.14-1.44-2.1-2.81-2.76-3.83A9.29,9.29,0,0,1,293.67,142Z" style="fill:#eb996e"></path><path d="M301.44,150.58c-.05,0-.15-.48-.45-1.19a7,7,0,0,0-1.75-2.44,8.34,8.34,0,0,1-1.27-1.16,2.45,2.45,0,0,1-.54-1.33,2.77,2.77,0,0,1,.07-1.3c.06,0,0,.5.15,1.26a2.46,2.46,0,0,0,.54,1.18,9.47,9.47,0,0,0,1.26,1.11,6.41,6.41,0,0,1,1.75,2.59A3.11,3.11,0,0,1,301.44,150.58Z" style="fill:#eb996e"></path><path d="M409.25,246.55V229.22s1.86-27,1.86-35.3-9.8-26.75-9.8-26.75l-16.06.49-11.82.26c-.12,0-19.52,18.8-19.52,18.8a55.28,55.28,0,0,0-3.3,24.32,44.41,44.41,0,0,0,1.37,6.77l4.17,16.32s2.33,10.89,3.14,14.66c.63,3,33.63,1.55,48,1.28C410.7,250,409.25,246.55,409.25,246.55Z" style="fill:#FCA311"></path><path d="M310.77,162s20.59,29.44,21.3,29.44,24.78-16.95,24.78-16.95,10.53-7.82,16.92-6.4S372,197.64,372,197.64s-33,18.77-44.08,19.71-25.45-43.5-25.45-43.5l-1.89-2.54Z" style="fill:#FCA311"></path><path d="M368.27,199.55a2.86,2.86,0,0,1-.53.33l-1.56.88-5.8,3.14-4,2.14c-.73.38-1.45.8-2.27,1.17a13.6,13.6,0,0,0-2.33,1.22,2.52,2.52,0,0,0-1.1,2.23,15.4,15.4,0,0,0,.41,2.86c.41,1.95,1,3.92,1.49,6,1.73,8.31,3.85,15.7,5.17,21.12.67,2.7,1.17,4.89,1.49,6.42.14.72.26,1.3.35,1.76a4.38,4.38,0,0,1,.09.62,2.29,2.29,0,0,1-.19-.6q-.18-.67-.45-1.74c-.4-1.57-1-3.73-1.65-6.37-1.4-5.38-3.58-12.77-5.32-21.1-.45-2-1.08-4-1.48-6a14.84,14.84,0,0,1-.4-3,3,3,0,0,1,.31-1.5,3.25,3.25,0,0,1,1-1.11l8.72-4.48,5.88-3,1.6-.79A2.13,2.13,0,0,1,368.27,199.55Z" style="fill:#263238"></path><path d="M331.31,202.28a16.22,16.22,0,0,1,.73-10.95c.15,0-.61,2.42-.8,5.45S331.47,202.25,331.31,202.28Z" style="fill:#263238"></path><path d="M326.75,200.59a10.22,10.22,0,0,1,1.66-5.17,11.06,11.06,0,0,1,3.66-4,46.83,46.83,0,0,0-3.21,4.28A34.07,34.07,0,0,0,326.75,200.59Z" style="fill:#263238"></path><path d="M374.42,191.84c-.09,0,.22-1.23.38-3.2a23.85,23.85,0,0,0-.61-7.65,24.16,24.16,0,0,0-3-7.05c-1.07-1.67-1.9-2.58-1.83-2.65a3.26,3.26,0,0,1,.64.6,14.91,14.91,0,0,1,1.49,1.84,21.59,21.59,0,0,1,3.7,15,14.16,14.16,0,0,1-.46,2.33A3.12,3.12,0,0,1,374.42,191.84Z" style="fill:#263238"></path><g style="opacity:0.30000000000000004"><path d="M406.28,178.57c-.94-1.66-2-3.38-1.93-5.28l-20.11,4.52c-.89,2.15,0,4.71,1.62,6.4a17.72,17.72,0,0,0,5.89,3.66c2.61,1.18,5.44,2.37,8.25,1.81a12.07,12.07,0,0,0,5.12-2.81,6.74,6.74,0,0,0,2.35-2.9C408.07,182.17,407.22,180.22,406.28,178.57Z"></path></g><g style="opacity:0.30000000000000004"><path d="M351.8,208l-.73.86a17.39,17.39,0,0,0,20.54-12.51C364.91,201.21,359.51,205,351.8,208Z"></path></g><g style="opacity:0.30000000000000004"><path d="M332.07,191.41c-4.15,1.58-8.27,6-8.72,10.4a2.4,2.4,0,0,0,.09,1.22,1,1,0,0,0,.95.67c.62-.06.9-.8,1.06-1.4a27.11,27.11,0,0,1,6.62-10.89Z"></path></g><path d="M417.42,171.47a10.34,10.34,0,0,1-5-10.56c.43-2.43,1.73-4.62,2.49-7s.88-5.19-.78-7c-1-1.11-2.5-1.64-3.69-2.54a9.43,9.43,0,0,1-3.16-5c-.1-1.92,0-3.89,0-5.81a24.27,24.27,0,0,0-20.13-23l-10.5,3.79a26.81,26.81,0,0,0,6,13,57.89,57.89,0,0,1,4.67,5.49c1.31,2,2.07,4.59,1.25,6.85-.72,2-2.55,3.45-3.24,5.46-1.38,4,2.11,8.16,1.46,12.3a8.69,8.69,0,0,1-1.44,3.4,19.66,19.66,0,0,1-2.7.85,19.23,19.23,0,0,0-5.39,1.8,5.34,5.34,0,0,0-2.86,4.62,85.12,85.12,0,0,1,13.36.06c-3,4-5.3,11.28-4.41,12.17,1.17,1.17,9.58,3.18,11.24,3.31,7,.53,5.52-4.09,12.44-5A3.64,3.64,0,0,0,409,178a3.42,3.42,0,0,0,.66-3c-.24-2-.77-4-1.16-6A10.64,10.64,0,0,0,417.42,171.47Z" style="fill:#263238"></path><path d="M386.1,177.69s0-.05-.05-.17a3,3,0,0,1-.1-.52,5.77,5.77,0,0,1,.11-2,10.19,10.19,0,0,1,1.24-3,35.31,35.31,0,0,1,2.44-3.48,15.62,15.62,0,0,0,2.46-4.41,6.25,6.25,0,0,0,.25-2.73,7.23,7.23,0,0,0-1.11-2.7c-.54-.87-1.19-1.72-1.75-2.68a6,6,0,0,1-.9-3.3,7.86,7.86,0,0,1,1-3.37c.55-1.05,1.2-2.05,1.77-3.09a9.06,9.06,0,0,0,1.13-6.57,16.2,16.2,0,0,0-2.48-5.88c-1.13-1.72-2.4-3.24-3.55-4.68a40.28,40.28,0,0,1-3.06-4.16,14.82,14.82,0,0,1-2.43-7,9.05,9.05,0,0,1,.14-2,4.43,4.43,0,0,1,.18-.69,14.91,14.91,0,0,0-.12,2.71,15.14,15.14,0,0,0,2.54,6.85,44.15,44.15,0,0,0,3.08,4.08,57.49,57.49,0,0,1,3.62,4.69,16.34,16.34,0,0,1,2.58,6,10.38,10.38,0,0,1,.08,3.52,10.1,10.1,0,0,1-1.25,3.4c-1.15,2.11-2.66,4-2.76,6.23a5.5,5.5,0,0,0,.83,3c.52.93,1.16,1.78,1.72,2.68a7.55,7.55,0,0,1,1.15,2.88,6.65,6.65,0,0,1-.29,2.93,15.84,15.84,0,0,1-2.57,4.5,38.36,38.36,0,0,0-2.49,3.41,10.62,10.62,0,0,0-1.29,2.88A7.53,7.53,0,0,0,386.1,177.69Z" style="fill:#455a64"></path><path d="M359.64,258.35l-4.34-.28c-1.75,2.11-2.83,4.72-4.62,6.8a17,17,0,0,1-7.35,4.73,50.48,50.48,0,0,1-8.61,2,9.93,9.93,0,0,0,.38,2.72,3.34,3.34,0,0,0,1.7,2.06,4.68,4.68,0,0,0,2.52.16,47.25,47.25,0,0,0,13.14-3.67c2.27-1,4.56-2.27,5.93-4.35C360.31,265.6,360,261.81,359.64,258.35Z" style="fill:#455a64"></path><path d="M333.29,314.18c.76.9,36.81,83.19,36.81,83.19s24.41-10.24,23.81-11.14S364.79,312,364.79,312Z" style="fill:#263238"></path><path d="M408.46,249.93l-48.62-.3-.65,10.73c-2.7,6.15-5.31,9.29-8.92,10.46-14.76,4.8-52.47,17.19-57.92,20.4-6.81,4-5.82,14.53-6.62,21.73s39.5,96.43,39.5,96.43l27.89-11.9-22.77-72.65-1.6-9.21,77.16-1.11s14.7-3.68,14.3-24.09S408.46,249.93,408.46,249.93Z" style="fill:#263238"></path><path d="M396.21,285.38a7.09,7.09,0,0,1,.33,1.42,21.56,21.56,0,0,1,.31,4,24.47,24.47,0,0,1-13,21.48,21.93,21.93,0,0,1-3.64,1.57,6.35,6.35,0,0,1-1.41.37,47.79,47.79,0,0,0,4.87-2.26,25.1,25.1,0,0,0,12.76-21.17A48.84,48.84,0,0,0,396.21,285.38Z" style="fill:#FCA311"></path><path d="M360,251.17c-1-.91-4-.55-5.05.3a3.92,3.92,0,0,0-1.29,3.71,5.48,5.48,0,0,0,2.21,3.35c1.21.89,2.95,1.33,4.17.47a3.29,3.29,0,0,0,1.23-2.26,9.38,9.38,0,0,0-.11-2.64,6,6,0,0,0-.68-2.39,2,2,0,0,0-2.12-1" style="fill:#455a64"></path><path d="M410.41,249.2c3.13,7.69,6.27,15.4,8.29,23.45s2.88,16.5,1.39,24.67c-1,5.67-2.43,12.29-7.31,15.36,0,0-1.82,1.87-6,2.09-9.09.48-25.41.19-34.5-.13-4.39-.16-10,.41-14.4.25,13.25-11.57,21.05-31,18.12-48.33-.45-2.67-1.25-5.53-3.43-7.12-1.95-1.43-4.53-1.52-6.94-1.65s-3,.46-5.22.46c-3.33,0-2.86-8-.52-8.62Z" style="fill:#455a64"></path><path d="M400.64,285a8.32,8.32,0,0,1-.39,1.37c-.28.87-.74,2.12-1.37,3.64a67.42,67.42,0,0,1-6.08,11.29,66.54,66.54,0,0,1-8.14,9.91c-1.17,1.16-2.15,2.06-2.85,2.65a6.88,6.88,0,0,1-1.12.88,9,9,0,0,1,1-1c.66-.63,1.6-1.57,2.72-2.75a74.85,74.85,0,0,0,14.15-21.1c.67-1.49,1.18-2.71,1.52-3.56A7.26,7.26,0,0,1,400.64,285Z" style="fill:#263238"></path><path d="M405,298.27a3.87,3.87,0,0,1-.53.86c-.37.53-1,1.28-1.69,2.17a49.89,49.89,0,0,1-6.41,6.41,50.83,50.83,0,0,1-7.45,5.17c-1,.57-1.84,1-2.43,1.27a3.76,3.76,0,0,1-.94.37c0-.07,1.22-.75,3.19-2a64.79,64.79,0,0,0,7.3-5.25,64,64,0,0,0,6.47-6.25C404.05,299.34,404.93,298.22,405,298.27Z" style="fill:#263238"></path><path d="M415.06,314.65c0,.14-12.22.26-27.29.26s-27.31-.12-27.31-.26,12.23-.26,27.31-.26S415.06,314.5,415.06,314.65Z" style="fill:#263238"></path><path d="M388.59,265.76c-.07.07-1.24-1-3.34-2.39a35.65,35.65,0,0,0-3.85-2.19,37.73,37.73,0,0,0-5-2,36.93,36.93,0,0,0-5.29-1.12,33.36,33.36,0,0,0-4.42-.27c-2.53,0-4.09.26-4.1.17a4.15,4.15,0,0,1,1.08-.24,21.83,21.83,0,0,1,3-.3,29.77,29.77,0,0,1,4.48.17,34.12,34.12,0,0,1,5.39,1.09,34.65,34.65,0,0,1,5.11,2,30.94,30.94,0,0,1,3.85,2.32,22.7,22.7,0,0,1,2.35,1.89A4.94,4.94,0,0,1,388.59,265.76Z" style="fill:#263238"></path><path d="M395.75,262.56a10.28,10.28,0,0,1-2.35-.32c-1.44-.27-3.42-.71-5.58-1.31s-4.08-1.23-5.46-1.74a9.6,9.6,0,0,1-2.18-.94,12,12,0,0,1,2.3.59c1.4.42,3.33,1,5.48,1.59s4.1,1.09,5.52,1.45A11.17,11.17,0,0,1,395.75,262.56Z" style="fill:#263238"></path><path d="M360.62,258.51a2.68,2.68,0,0,1-1.55-.68,5.11,5.11,0,0,1-2-3.52,5.17,5.17,0,0,1,1.25-3.88c.71-.8,1.35-1,1.38-1s-.5.41-1.09,1.21a5,5,0,0,0,.73,6.89C360.05,258.21,360.66,258.42,360.62,258.51Z" style="fill:#263238"></path><path d="M357.76,255.1c0,.15-.85.12-1.74.52s-1.44,1-1.57.91.3-.94,1.36-1.39S357.8,255,357.76,255.1Z" style="fill:#263238"></path><path d="M360.65,258.76s0,.27-.39.56a2.76,2.76,0,0,1-1.78.51,5.34,5.34,0,0,1-2.61-.85,5,5,0,0,1-2.09-2.63,4.71,4.71,0,0,1,.16-3.36,4,4,0,0,1,1.94-1.94,3.55,3.55,0,0,1,1.81-.35c.44,0,.66.14.65.17a5,5,0,0,0-2.29.51,3.76,3.76,0,0,0-1.67,1.81,4.27,4.27,0,0,0-.1,3,4.59,4.59,0,0,0,1.86,2.39,5.3,5.3,0,0,0,2.36.88,2.77,2.77,0,0,0,1.64-.31C360.49,258.94,360.61,258.73,360.65,258.76Z" style="fill:#263238"></path><g style="opacity:0.30000000000000004"><path d="M392.27,269.72v0a8,8,0,0,0-2.44-3.29c-6.1-5.57-15.73-9.56-23.35-8.54,4.57.18,11.77,2.7,15.34,5.55a54.23,54.23,0,0,1,7.58,7.79A1.65,1.65,0,0,0,392.27,269.72Z"></path></g><g style="opacity:0.30000000000000004"><path d="M404.53,299c-4.68,6.32-11.82,11.75-18.76,15.42,4.09-.76,9.24-1.76,12.63-4.16C402,307.72,405,303.35,404.53,299Z"></path></g></g><g id="freepik--character-2--inject-63"><polygon points="178.76 476.64 184.7 476.55 197.82 361.33 191.97 360.65 178.76 476.64" style="fill:#455a64"></polygon><polygon points="213.58 476.64 219.52 476.55 232.64 361.33 226.79 360.65 213.58 476.64" style="fill:#455a64"></polygon><polygon points="318.53 476.85 312.59 476.76 299.47 362.6 305.32 361.93 318.53 476.85" style="fill:#455a64"></polygon><polygon points="280.24 476.85 274.3 476.76 261.18 362.6 267.03 361.93 280.24 476.85" style="fill:#455a64"></polygon><rect x="188.01" y="368" width="119.84" height="12.42" transform="translate(495.86 748.41) rotate(180)" style="fill:#455a64"></rect><polygon points="264.89 229.57 188.97 230.51 188.01 368 275.19 369.19 264.89 229.57" style="fill:#455a64"></polygon><path d="M298.89,283.37c-.39-2.65-8.34-11.44-8.34-11.44s-4-16-5.16-20.65a15.75,15.75,0,0,0-1.73-3.85,31.07,31.07,0,0,0-11.6-11.19l-11-6.18-2.63-5.85-28.26-5-5.69,6.55s-21.34,8.09-24.14,10.55c-3.43,3,6,53.34,6,53.34s-7.28,30.54-8.81,36.86.67,15.19.67,15.19l14.46-13.82c4-5,11.18-11.15,17.53-11.06l54.25.24-2.16-15.2,43.86,8.53s7.55-14.71,8.15-15S298.89,283.37,298.89,283.37Z" style="fill:#FCA311"></path><path d="M230.58,227c-.38-.39,3.38,12.53,7.7,24.38a58.33,58.33,0,0,1,3.5,20v42.92l26-1.76L263.9,284.2s-3.17-18.23-4-25.17c-.82-6.35-3.62-25.68-3.62-25.68S241.47,238.05,230.58,227Z" style="fill:#fff"></path><path d="M288.61,294a1.64,1.64,0,0,1,0-.66,8.85,8.85,0,0,1,.34-1.75,11.77,11.77,0,0,1,8-8,10.62,10.62,0,0,1,1.75-.34,1.64,1.64,0,0,1,.66,0c0,.08-.91.18-2.3.66a12.9,12.9,0,0,0-4.81,3,12.76,12.76,0,0,0-3,4.82C288.79,293.13,288.69,294.05,288.61,294Z" style="fill:#263238"></path><path d="M290,283.74a10.39,10.39,0,0,1,8.08-.66c0,.14-1.84-.21-4.07,0S290,283.87,290,283.74Z" style="fill:#263238"></path><g style="opacity:0.30000000000000004"><path d="M203.68,307.16l-2.26,2.56a18.26,18.26,0,0,0,9.17,6.06,46.46,46.46,0,0,0,11,1,15.9,15.9,0,0,0,4.47-.43c1.48-.42,2.85-1.26,4.38-1.35a11.21,11.21,0,0,1,3,.44,6,6,0,0,0,3,.05,2.41,2.41,0,0,0,1.77-2.25A160.41,160.41,0,0,0,203.68,307.16Z"></path></g><path d="M277.93,310.44l-6.38-6.78-13.13-3.32s-12,3.61-12.32,3.59-10.47-2.78-10.47-2.78l-3.55,13.06,18.33,1.25,20.94-.84s1.09-1,.45-1.71,3.5,1.18,4,1.2,1.43.4,2.08-.39C278.31,313.19,278.91,311.48,277.93,310.44Z" style="fill:#ffbe9d"></path><path d="M271.8,312.91a10.82,10.82,0,0,1-2.09-.59c-1.27-.41-3-.95-5-1.45s-3.78-.88-5.09-1.14a12.21,12.21,0,0,1-2.11-.49,8.79,8.79,0,0,1,2.17.16,48.63,48.63,0,0,1,5.15,1,46.92,46.92,0,0,1,5,1.59A9,9,0,0,1,271.8,312.91Z" style="fill:#eb996e"></path><path d="M277.93,310.44a26.2,26.2,0,0,1-2.91-.94c-1.79-.6-4.28-1.34-7.06-2.11a37,37,0,0,0-7.12-1.76,16.82,16.82,0,0,0-3,.12,2.23,2.23,0,0,1,.78-.27,9.06,9.06,0,0,1,2.26-.19,31.43,31.43,0,0,1,7.23,1.64c2.77.78,5.27,1.57,7,2.26.89.34,1.59.64,2.07.86A2.6,2.6,0,0,1,277.93,310.44Z" style="fill:#eb996e"></path><path d="M200.35,236.27s-4.65,3.06-7,12.54-12.27,48.17-10.23,54S225,314.24,225,314.24l4.72-19.89-20.21-5.53s.25-18.43.51-26.06S200.35,236.27,200.35,236.27Z" style="fill:#FCA311"></path><polygon points="229.45 297.32 235.96 298.92 232.05 313.94 225.65 312.91 229.45 297.32" style="fill:#fff"></polygon><path d="M183,300.72s0,.34.1.94a4.35,4.35,0,0,0,1.39,2.26c1.73,1.61,5,2.95,9.22,3.71h0c1.91.63,4.09,1.13,6.42,1.66s4.84,1.06,7.49,1.6c5.3,1.08,11.15,2.22,17.36,3.38l-.27.17c.45-1.84.93-3.79,1.41-5.77,1.11-4.57,2.2-9,3.22-13.18l.16.27-18-5.13h0a17.51,17.51,0,0,0-7.83-1.37,17.26,17.26,0,0,0-5.92,1.38,21.26,21.26,0,0,0-3.39,1.88l-.82.6a2,2,0,0,1-.3.2l.26-.24c.18-.14.44-.37.79-.64a18.64,18.64,0,0,1,3.38-2,17.25,17.25,0,0,1,6-1.49,17.86,17.86,0,0,1,8,1.33h0l18,5,.22.06-.06.22c-1,4.19-2.09,8.61-3.2,13.18-.49,2-1,3.93-1.41,5.77l-.06.22-.21,0c-6.21-1.17-12.07-2.33-17.36-3.43-2.65-.56-5.16-1.11-7.49-1.64s-4.51-1.06-6.45-1.73h0c-4.24-.8-7.55-2.2-9.29-3.89a4.39,4.39,0,0,1-1.36-2.37A2.81,2.81,0,0,1,183,300.72Z" style="fill:#263238"></path><path d="M210.6,290.14c-.06.06-.73-.56-1.94-1.37a19,19,0,0,0-5.14-2.4,19.25,19.25,0,0,0-5.63-.74c-1.46,0-2.36.2-2.37.12a7.18,7.18,0,0,1,2.36-.45,16.5,16.5,0,0,1,11,3.2A7.33,7.33,0,0,1,210.6,290.14Z" style="fill:#263238"></path><path d="M213.25,257.72a5.83,5.83,0,0,1,0,1.22c0,.78-.08,1.91-.19,3.3-.22,2.78-.64,6.61-1.36,10.81a76.62,76.62,0,0,1-2.51,10.61c-.22.67-.45,1.26-.65,1.78l-.58,1.3a5.59,5.59,0,0,1-.62,1.05,6.8,6.8,0,0,1,.46-1.12l.5-1.32c.17-.53.37-1.12.57-1.79A92.4,92.4,0,0,0,211.24,273c.73-4.18,1.19-8,1.5-10.76.14-1.32.25-2.42.34-3.28A6.52,6.52,0,0,1,213.25,257.72Z" style="fill:#263238"></path><path d="M236.33,247.53s-.1-.23-.32-.62a3.77,3.77,0,0,0-1.36-1.37,3.62,3.62,0,0,0-5.43,2.2l-.12.59-.28-.55a56.5,56.5,0,0,1-2.77-6.45,31.38,31.38,0,0,1-2-11.39,18.23,18.23,0,0,1,.16-2c.11-.59.19-1.09.29-1.49a6.14,6.14,0,0,1,.4-1.24,25.84,25.84,0,0,0-.52,4.73,33.56,33.56,0,0,0,2.16,11.26,62.7,62.7,0,0,0,2.71,6.42l-.4,0a3.95,3.95,0,0,1,6-2.32,3.63,3.63,0,0,1,1.34,1.52,2.4,2.4,0,0,1,.17.49C236.33,247.47,236.34,247.53,236.33,247.53Z" style="fill:#263238"></path><path d="M258.4,249.5a6.36,6.36,0,0,1-.2-1.08,11.21,11.21,0,0,1-.2-3,6.34,6.34,0,0,1,2.19-4,4.18,4.18,0,0,1,2.63-.95,3.57,3.57,0,0,1,2.77,1.24l-.4.23c-.27-.7-.56-1.42-.86-2.16-1.69-4.27-3.19-8.14-4.26-11l-1.24-3.34a7,7,0,0,1-.39-1.24,6.94,6.94,0,0,1,.56,1.18c.36.86.83,2,1.38,3.28,1.15,2.78,2.7,6.63,4.39,10.9.3.74.58,1.47.86,2.17l.55,1.39-.95-1.17a3.18,3.18,0,0,0-2.41-1.08,3.79,3.79,0,0,0-2.38.82,6.18,6.18,0,0,0-2.13,3.73,13.22,13.22,0,0,0,.05,3A4.18,4.18,0,0,1,258.4,249.5Z" style="fill:#263238"></path><path d="M275.2,251.75c.13,0,2.17,13.74,4.57,30.74s4.23,30.79,4.1,30.81-2.17-13.74-4.57-30.74S275.07,251.76,275.2,251.75Z" style="fill:#263238"></path><g style="opacity:0.30000000000000004"><path d="M226.33,240.89a28.28,28.28,0,0,0,2.26,10.23c1-1.22,2.08-2.51,3.58-2.87,1.87-.45,3.76.71,5.11,2.11a9.33,9.33,0,0,0-1.63-3.9,4.6,4.6,0,0,0-3.59-1.88,3.19,3.19,0,0,0-3,2.47l-2.59-6.1"></path></g><path d="M211,250.84c-.09,0-.06-1-.33-2.43a14.83,14.83,0,0,0-2.2-5.38,16.17,16.17,0,0,0-2.07-2.46,14.49,14.49,0,0,0-2.08-1.62c-1.27-.8-2.17-1.11-2.14-1.19s.24,0,.65.16a4.63,4.63,0,0,1,.73.28,7.39,7.39,0,0,1,.93.47,12.25,12.25,0,0,1,2.2,1.58,14.35,14.35,0,0,1,2.17,2.52,13.47,13.47,0,0,1,2.14,5.59,10.5,10.5,0,0,1,.09,1.82A2,2,0,0,1,211,250.84Z" style="fill:#263238"></path><path d="M258,181.4a19.4,19.4,0,0,0-21.69-14.9l-1,.15c-10.64,2.17-14.73,12.41-12.27,23L230.58,227l1.45,3.88a19.67,19.67,0,0,0,24.2,2.51l.23-2.19-2.25-12s10.08-3.09,8.72-13.42C262.27,200.74,260.09,190.57,258,181.4Z" style="fill:#ffbe9d"></path><path d="M254.29,219.11a25.25,25.25,0,0,1-14.08-2s4.25,7,14.4,4.55Z" style="fill:#eb996e"></path><path d="M256.34,189.26a1.49,1.49,0,0,1-1.21,1.69,1.42,1.42,0,0,1-1.7-1.11,1.49,1.49,0,0,1,1.2-1.69A1.42,1.42,0,0,1,256.34,189.26Z" style="fill:#263238"></path><path d="M240.84,191.21a1.49,1.49,0,0,1-1.2,1.69,1.42,1.42,0,0,1-1.71-1.11,1.49,1.49,0,0,1,1.2-1.69A1.42,1.42,0,0,1,240.84,191.21Z" style="fill:#263238"></path><path d="M240.36,188.67c-.16.22-1.43-.43-3.06-.18s-2.71,1.21-2.92,1,0-.44.51-.89a4.41,4.41,0,0,1,2.31-1.07,4.14,4.14,0,0,1,2.47.39C240.22,188.25,240.44,188.57,240.36,188.67Z" style="fill:#263238"></path><path d="M255.62,186.65c-.17.22-1.44-.42-3.08-.18s-2.73,1.22-2.93,1.05,0-.45.51-.89a4.41,4.41,0,0,1,2.32-1.07,4.18,4.18,0,0,1,2.48.38C255.47,186.24,255.7,186.56,255.62,186.65Z" style="fill:#263238"></path><path d="M247.87,200.29a10.48,10.48,0,0,1,2.51-.83c.39-.1.77-.24.79-.52a2,2,0,0,0-.44-1.16l-1.64-2.91c-2.29-4.15-4-7.58-3.85-7.67s2.17,3.19,4.46,7.34c.56,1,1.09,2,1.59,2.93a2.38,2.38,0,0,1,.44,1.56,1,1,0,0,1-.58.69,3,3,0,0,1-.67.19A10.3,10.3,0,0,1,247.87,200.29Z" style="fill:#263238"></path><path d="M239.48,182.54c-.13.44-1.74.35-3.59.7s-3.34,1-3.62.6c-.12-.18.12-.61.7-1.07a6.35,6.35,0,0,1,5.49-1C239.16,182,239.53,182.33,239.48,182.54Z" style="fill:#263238"></path><path d="M255.27,181c-.3.41-1.72.21-3.36.4s-3,.63-3.36.3c-.16-.17,0-.56.57-1a5.65,5.65,0,0,1,2.65-.94,5.42,5.42,0,0,1,2.76.39C255.16,180.49,255.4,180.84,255.27,181Z" style="fill:#263238"></path><path d="M259.94,171.9a2,2,0,0,0-2.26-1.35,4.36,4.36,0,0,0,1.34-.89,1.43,1.43,0,0,0,.32-1.5c-.36-.77-1.4-.81-2.24-.95a5.32,5.32,0,0,1-2.91-1.48c-1.13-1.12-1.7-2.7-2.71-3.93a6.91,6.91,0,0,0-10.79.08,7.21,7.21,0,0,0-11.3,3.11A8.41,8.41,0,0,0,219,175.47l6.91,3.18a3.5,3.5,0,0,1,3.89-3.51c2,.33,3.51,2.43,5.55,2.35,1.59-.07,2.78-1.44,4.25-2,1.79-.71,3.83-.2,5.6.54a22,22,0,0,0,5.41,2,10.78,10.78,0,0,0,6.47-1.55,7,7,0,0,0,2.25-1.79A3,3,0,0,0,259.94,171.9Z" style="fill:#263238"></path><path d="M226.71,175.49l29.47-3.65a13.55,13.55,0,0,0-5-4.36,23.15,23.15,0,0,0-14-2.84c-4.81.61-13.71,7.87-16.7,11.68-2.39,3.05-2,5.34-2,5.34.11,3.87,2.88,7.89,4.27,11.51.72,1.86,2.42,7.57,2.42,7.57h0c1.61-.24,2-1.61,1.55-3.18l-1.22-6.23a9.6,9.6,0,0,0,1.28-11.5C226.2,179.32,224.93,176.84,226.71,175.49Z" style="fill:#263238"></path><path d="M224.92,191c-2.12-5-4.16-10.48-3.17-15.86l-.88.07-.34.31a4.15,4.15,0,0,0-3.88,6.9,3.6,3.6,0,0,0-3.22,3.55,6.62,6.62,0,0,0,1.36,3.33,8.13,8.13,0,0,1,1.52,3.28,2.6,2.6,0,0,1-1.65,2.89,3,3,0,0,0,3.53,1.23,5.85,5.85,0,0,1-1.72,2.79c2.07,1.08,4.66.33,6.63-.94a5.7,5.7,0,0,0,2.64-3.09C226.13,193.93,225.51,192.38,224.92,191Z" style="fill:#263238"></path><path d="M225.15,197.1c-.18,0-7.38-1.07-6.14,5.94s8,4.33,8,4.12S225.15,197.1,225.15,197.1Z" style="fill:#ffbe9d"></path><path d="M225,204.79s-.11.11-.3.24a1.23,1.23,0,0,1-.91.18,3.05,3.05,0,0,1-1.87-2.46,3.93,3.93,0,0,1,0-1.81,1.42,1.42,0,0,1,.75-1.1.63.63,0,0,1,.78.2c.13.18.11.33.15.34s.13-.15,0-.43a.79.79,0,0,0-.35-.39,1,1,0,0,0-.71-.06,1.76,1.76,0,0,0-1.08,1.32,4.17,4.17,0,0,0-.08,2c.29,1.4,1.25,2.6,2.32,2.71a1.34,1.34,0,0,0,1.08-.38C225,205,225.05,204.8,225,204.79Z" style="fill:#eb996e"></path><path d="M217.13,192.11s-.23-.24-.23-.8a2.69,2.69,0,0,1,1.11-2,8.12,8.12,0,0,1,3.14-1.16,4,4,0,0,0,3-2,5.89,5.89,0,0,0,.12-3.77c-.31-1.17-.75-2.21-1-3.12a5.43,5.43,0,0,1-.31-3,13.55,13.55,0,0,0,.69,2.92c.3.88.78,1.88,1.13,3.11a6.19,6.19,0,0,1-.11,4.13,3.45,3.45,0,0,1-1.51,1.62,7.06,7.06,0,0,1-1.9.66,8.49,8.49,0,0,0-3,1,2.56,2.56,0,0,0-1.12,1.69A6.23,6.23,0,0,0,217.13,192.11Z" style="fill:#455a64"></path><path d="M215.06,189.23s-.18-.18-.29-.61a3,3,0,0,1,.14-1.86,3.14,3.14,0,0,1,.72-1.11,3.63,3.63,0,0,1,1.28-.79,3.91,3.91,0,0,0,1.27-.71,1.58,1.58,0,0,0,.38-1.35c0-.54-.19-1.1-.24-1.67a8.17,8.17,0,0,1,.7-4.27,2,2,0,0,1,1.45-1.18c.47-.05.69.14.67.16s-.24-.05-.63,0a1.82,1.82,0,0,0-1.13,1.14,8,8,0,0,0-.56,2.52,8.68,8.68,0,0,0,0,1.52c0,.52.2,1.07.26,1.68a2.2,2.2,0,0,1-.55,1.79,4.17,4.17,0,0,1-1.47.79,3,3,0,0,0-1.83,1.58A4.05,4.05,0,0,0,215.06,189.23Z" style="fill:#455a64"></path><path d="M254.2,165.74a1.47,1.47,0,0,1-1.47.12,4.23,4.23,0,0,1-1.47-1,5.72,5.72,0,0,0-1.81-1.26,4.94,4.94,0,0,0-5.28,1c-.8.74-1.47,1.71-2.4,2.57a4.52,4.52,0,0,1-1.67,1,3.78,3.78,0,0,1-2,0c-1.33-.3-2.43-1-3.57-1.23a8.92,8.92,0,0,0-3.39-.21,8.79,8.79,0,0,0-5.13,2.47,9.82,9.82,0,0,0-2.18,3.26c-.34.87-.44,1.39-.49,1.38s0-.14,0-.39a7.17,7.17,0,0,1,.26-1.07,9.19,9.19,0,0,1,2.1-3.45,9.07,9.07,0,0,1,5.34-2.71,9.35,9.35,0,0,1,3.59.19c1.24.29,2.35,1,3.56,1.22a3.21,3.21,0,0,0,1.74,0,4,4,0,0,0,1.48-.9c.87-.79,1.55-1.77,2.41-2.55a5.19,5.19,0,0,1,3-1.38,5.43,5.43,0,0,1,2.82.42,6,6,0,0,1,1.87,1.39,4.18,4.18,0,0,0,1.33,1A2.09,2.09,0,0,0,254.2,165.74Z" style="fill:#455a64"></path><path d="M244.16,202.61c.22-.08.66,1.4,2.23,2.08s3.1.06,3.17.26-.26.39-.93.6a3.82,3.82,0,0,1-2.62-.13,3.34,3.34,0,0,1-1.77-1.78C244,203,244.06,202.63,244.16,202.61Z" style="fill:#263238"></path><path d="M336.37,356.25a13.94,13.94,0,0,0-10-3.3l-6.12,19.45c4.49.2,9,2.51,13.29,1.32a9.46,9.46,0,0,0,6.59-7.78A11.25,11.25,0,0,0,336.37,356.25Z" style="fill:#FCA311"></path><path d="M326.48,352.5c0-.16.66-.28,1.85-.27a15.15,15.15,0,0,1,5,.94,13.57,13.57,0,0,1,6.1,4.74,12.44,12.44,0,0,1,2,4.22,11.08,11.08,0,0,1,.15,5.1,10.24,10.24,0,0,1-2.22,4.64,9.76,9.76,0,0,1-3.95,2.74,14,14,0,0,1-7.69.49,23,23,0,0,1-4.8-1.49c-1.08-.46-1.64-.8-1.6-1s.71-.11,1.86.08,2.78.54,4.77.72a13.68,13.68,0,0,0,6.65-.86,7.76,7.76,0,0,0,3-2.2,8.42,8.42,0,0,0,1.68-3.64,10,10,0,0,0-1.65-7.6,13.16,13.16,0,0,0-5-4.45,22.7,22.7,0,0,0-4.46-1.56C327.1,352.85,326.46,352.66,326.48,352.5Z" style="fill:#f5f5f5"></path><path d="M269.77,425.44l-13.31,37.29,46.32,16.8c1.33-4.52-19.41-22.1-19.41-22.1l9.51-23.54Z" style="fill:#FCA311"></path><g style="opacity:0.6000000000000001"><path d="M269.78,450.23a2,2,0,0,0-2.09,1.69,1.93,1.93,0,0,0,1.65,2.08,2.11,2.11,0,0,0,2.2-1.79c0-1-1-2.12-2-2" style="fill:#fff"></path></g><path d="M256.46,462.73l1.35-3.76,44,17.55s1.74,1.64,1,3Z" style="fill:#fff"></path><path d="M284.21,457.47c-.09.22-1.26-.08-2.63.24s-2.32,1.06-2.49.89.63-1.34,2.3-1.71S284.33,457.28,284.21,457.47Z" style="fill:#263238"></path><path d="M288.34,461.24c0,.24-1.15.27-2.26.95s-1.71,1.61-1.93,1.52.1-1.43,1.5-2.24S288.41,461,288.34,461.24Z" style="fill:#263238"></path><path d="M289,468.06c-.22,0-.13-1.27.9-2.3s2.27-1.14,2.29-.92-.86.65-1.7,1.51S289.22,468.12,289,468.06Z" style="fill:#263238"></path><path d="M285.78,451.86c-.17.18-1.09-.51-2.4-.89s-2.46-.33-2.5-.57,1.2-.7,2.74-.23S286,451.73,285.78,451.86Z" style="fill:#263238"></path><path d="M286.67,446a4.69,4.69,0,0,1-2.31-.85,11,11,0,0,1-2.16-1.63,11.44,11.44,0,0,1-1.08-1.19,3.07,3.07,0,0,1-.5-.8,1.06,1.06,0,0,1,.33-1.24,1.34,1.34,0,0,1,1.18-.16,3.22,3.22,0,0,1,.83.44,8.62,8.62,0,0,1,1.26,1,8.4,8.4,0,0,1,1.63,2.18c.72,1.38.78,2.36.68,2.37s-.39-.86-1.19-2.07a9.88,9.88,0,0,0-1.64-1.92,9.22,9.22,0,0,0-1.19-.89c-.44-.31-.86-.47-1.06-.29s-.1.09-.05.28a2.5,2.5,0,0,0,.37.58,14.36,14.36,0,0,0,1,1.15,13.77,13.77,0,0,0,1.93,1.67C285.87,445.47,286.72,445.85,286.67,446Z" style="fill:#263238"></path><path d="M286.26,446.19a4,4,0,0,1,.2-2.47,8,8,0,0,1,2.34-3.61,2,2,0,0,1,1.9-.64,1.16,1.16,0,0,1,.74,1,3.46,3.46,0,0,1-.07.94,5.57,5.57,0,0,1-.57,1.56,5.64,5.64,0,0,1-1.86,2c-1.34.87-2.38.8-2.37.71a19.47,19.47,0,0,0,2-1.19,5.78,5.78,0,0,0,1.53-1.91,5,5,0,0,0,.44-1.36c.11-.52.07-1-.14-1s-.75.14-1.08.47a7.21,7.21,0,0,0-1,1,8.53,8.53,0,0,0-1.29,2.16C286.46,445.26,286.39,446.2,286.26,446.19Z" style="fill:#263238"></path><path d="M224.9,325.83c-7,.16-13.69,1.15-18.53,6.25-6.42,6.76-14.35,16.38-14.81,23.06-.67,10,5.35,12.95,9.75,15.38a12.21,12.21,0,0,0,6.38,1.48l81.2-.62,2.55-13.75-52.52-12.95,2.18-19.77Z" style="fill:#263238"></path><path d="M241.1,324.91l25.55-1.17s44.13,2.45,53.54,11.08,8.24,18.43,5.1,27.85-30.79,69.61-30.79,69.61,2.24,3.83,1,7.65a10.11,10.11,0,0,1-7.21,6.87l-24.56-9s-3.33-1.17-1-4.31,3.93-3.73,3.93-3.73v-6.27s8.62-15.69,9.41-17.85,9.05-34.08,9.05-34.08l5.5-9.45s-13.29-6.24-24.8-10.77l-26.9-6.63Z" style="fill:#263238"></path><path d="M282.54,436.64c-.05.06-.83-.56-2.16-1.42a29.91,29.91,0,0,0-5.5-2.79,30.53,30.53,0,0,0-6-1.57,25.42,25.42,0,0,1-2.55-.37,9.53,9.53,0,0,1,2.59,0,24.74,24.74,0,0,1,6.09,1.46,24.33,24.33,0,0,1,5.52,3A9.72,9.72,0,0,1,282.54,436.64Z" style="fill:#455a64"></path><path d="M294.81,432.32a8.57,8.57,0,0,1-1.43-1.5c-.82-1-1.93-2.35-3.08-3.92s-2.15-3-2.83-4.11a9,9,0,0,1-1-1.81,8.94,8.94,0,0,1,1.29,1.62l2.93,4,3,4A10.32,10.32,0,0,1,294.81,432.32Z" style="fill:#455a64"></path><path d="M303.81,353.46a22.61,22.61,0,0,1-2.33.75,25.11,25.11,0,0,0-5.28,2.48,24.81,24.81,0,0,0-4.55,3.66c-1,1.07-1.63,1.81-1.69,1.76a8.18,8.18,0,0,1,1.44-2,20.86,20.86,0,0,1,4.55-3.83,20.5,20.5,0,0,1,5.44-2.4A8.49,8.49,0,0,1,303.81,353.46Z" style="fill:#455a64"></path><path d="M278.69,396.1a2.13,2.13,0,0,1,.1-.54c.1-.39.22-.88.38-1.49.36-1.36.86-3.21,1.47-5.48,1.3-4.67,3.07-11,5-18,1-3.52,1.89-6.87,2.87-9.91a20.62,20.62,0,0,1,4.63-7.06,25.51,25.51,0,0,1,4.39-3.61c.56-.36,1-.64,1.32-.8a3.23,3.23,0,0,1,.48-.24s-.61.42-1.7,1.19a28.67,28.67,0,0,0-4.25,3.7,20.64,20.64,0,0,0-4.46,7c-.94,3-1.82,6.39-2.83,9.89-2,7-3.82,13.33-5.16,18l-1.62,5.44c-.18.6-.34,1.08-.46,1.47A2.22,2.22,0,0,1,278.69,396.1Z" style="fill:#455a64"></path><path d="M256.09,350.1c-.13,0-.66-4.76-1.19-10.66s-.86-10.7-.73-10.71.66,4.76,1.19,10.67S256.22,350.09,256.09,350.1Z" style="fill:#455a64"></path><path d="M213.58,362.86c-.07,0-.47-.74-1.27-1.87a18.49,18.49,0,0,0-3.71-3.9,18.75,18.75,0,0,0-4.68-2.66c-1.29-.5-2.14-.7-2.12-.77a6.86,6.86,0,0,1,2.23.46,15.75,15.75,0,0,1,4.86,2.6,16.14,16.14,0,0,1,3.7,4.08A7.35,7.35,0,0,1,213.58,362.86Z" style="fill:#455a64"></path><path d="M229.23,345.52c0,.07-1.13-.62-3-1.48a29.49,29.49,0,0,0-7.68-2.25,28.82,28.82,0,0,0-8,0c-2,.29-3.27.65-3.29.57a3.51,3.51,0,0,1,.84-.32,18.48,18.48,0,0,1,2.4-.58,25.78,25.78,0,0,1,15.9,2.28,19.38,19.38,0,0,1,2.14,1.23A3.25,3.25,0,0,1,229.23,345.52Z" style="fill:#455a64"></path><path d="M290.39,357.61a3,3,0,0,1-.63-.1l-1.8-.39-6.62-1.49c-5.59-1.25-13.33-2.93-21.9-4.63s-16.36-3.09-22-4.06l-6.68-1.15-1.82-.33a2.68,2.68,0,0,1-.63-.14,2.87,2.87,0,0,1,.65.05l1.83.24c1.58.21,3.88.55,6.71,1,5.66.89,13.46,2.23,22.05,3.93s16.3,3.43,21.87,4.76c2.79.67,5,1.23,6.59,1.64l1.78.47A3.89,3.89,0,0,1,290.39,357.61Z" style="fill:#455a64"></path><path d="M238.92,347c-.09,0-.28-1.07-1.12-2.59a11.69,11.69,0,0,0-1.86-2.41,30.1,30.1,0,0,0-2.84-2.45,42.61,42.61,0,0,0-5.82-3.62,18.32,18.32,0,0,1-2.48-1.41,15.8,15.8,0,0,1,2.63,1.12,33.36,33.36,0,0,1,5.95,3.53,26.1,26.1,0,0,1,2.87,2.53,10.79,10.79,0,0,1,1.84,2.55,8.91,8.91,0,0,1,.73,2A2,2,0,0,1,238.92,347Z" style="fill:#455a64"></path><path d="M329.37,359.29a42.35,42.35,0,0,0-2.31,3.56c-1.08,2.08-1.41,4-1.55,4a8.17,8.17,0,0,1,1.13-4.17A8.34,8.34,0,0,1,329.37,359.29Z" style="fill:#263238"></path><g style="opacity:0.30000000000000004"><path d="M276,257.38l5.81,40.95.29.65A87.92,87.92,0,0,0,276,257.38Z"></path></g><path d="M307.25,280.91,288.35,314l-46.57,1-.11,2.11,45.09-.33,1.43-.05,47.62.09,9.62-16.59,12.29-17.62a1.73,1.73,0,0,0-1.43-2.73l-47.53.18A1.74,1.74,0,0,0,307.25,280.91Z" style="fill:#e0e0e0"></path><path d="M345.43,300.21s2.45,2.24,2.06,4.14-.26,3.33-2.06,3.46a2.74,2.74,0,0,1-2.45,2.83s.55,3-2.92,3.5c0,0-1.07,3.2-3.26,2.42a19.42,19.42,0,0,1-3.61-1.67l-.64-1.16s-3.23-1.21-2.43-3c.48-1.11,2.15-1.4,2.15-1.4a3.13,3.13,0,0,1,.21-2.83c.77-1,3.29-.18,3.29-.18a3.52,3.52,0,0,1,.8-2.46c.85-1,4.86,1.74,4.86,1.74l2.19-2.61Z" style="fill:#ffbe9d"></path><path d="M340.06,314.14a44.7,44.7,0,0,1-7.79-4.84,44.7,44.7,0,0,1,7.79,4.84Z" style="fill:#eb996e"></path><path d="M343,310.64a37,37,0,0,1-7.21-4.35,19.22,19.22,0,0,1,3.73,2A18.76,18.76,0,0,1,343,310.64Z" style="fill:#eb996e"></path><path d="M339,304.08a13,13,0,0,1,3.3,1.76,29.09,29.09,0,0,1,3.11,2.06c-.06.16-1.62-.55-3.36-1.66A18,18,0,0,1,339,304.08Z" style="fill:#eb996e"></path><path d="M357.73,281.11a.6.6,0,0,1-.23,0l-.67,0-2.57,0-9.46.08-31.19.07h-2.27a1.89,1.89,0,0,0-1.74.82L307.49,286c-1.4,2.51-2.74,4.93-4,7.24l-6.82,12.26L292,313.72,290.74,316l-.35.57c-.08.13-.12.2-.13.19l.09-.21.3-.6c.3-.55.7-1.31,1.21-2.27,1.08-2,2.61-4.83,4.5-8.31L303.09,293c1.28-2.31,2.61-4.74,4-7.26l2.13-3.85a2.38,2.38,0,0,1,2.13-1h2.27l31.19.07,9.46.08,2.57,0,.67,0A.6.6,0,0,1,357.73,281.11Z" style="fill:#263238"></path><path d="M324.22,297.73a2,2,0,1,0,3-.36A2.15,2.15,0,0,0,324.22,297.73Z" style="fill:#fff"></path><path d="M308.71,401s0-.07.07-.21l.23-.6.95-2.3c.87-2,2.1-4.94,3.62-8.53,3.13-7.27,7.47-17.36,12.41-28.82v0a40.62,40.62,0,0,0,1.17-8.86,22.73,22.73,0,0,0-2-10.27,18.19,18.19,0,0,0-2.84-4.12,19,19,0,0,0-3.45-3.33,19.77,19.77,0,0,0-4.1-2c-1.39-.56-2.75-1.06-4.09-1.49-2.67-.88-5.21-1.56-7.54-2.11-4.66-1.1-8.5-1.69-11.15-2.07l-3.06-.4-.8-.11a1,1,0,0,1-.27-.06h.28l.8.06c.7.06,1.74.15,3.07.31A111.31,111.31,0,0,1,303.18,328c2.34.53,4.89,1.19,7.58,2.06,1.35.43,2.73.92,4.13,1.47a20.67,20.67,0,0,1,4.21,2.05,19.38,19.38,0,0,1,3.55,3.41,19.14,19.14,0,0,1,2.92,4.21,23.18,23.18,0,0,1,2.1,10.5,40.78,40.78,0,0,1-1.19,9v0l-12.57,28.75c-1.59,3.57-2.86,6.45-3.76,8.47l-1,2.27-.28.58C308.75,401,308.72,401,308.71,401Z" style="fill:#455a64"></path></g><g id="freepik--Floor--inject-63"><path d="M479.22,476.39c0,.14-100.39.26-224.21.26s-224.23-.12-224.23-.26,100.37-.26,224.23-.26S479.22,476.24,479.22,476.39Z" style="fill:#263238"></path></g><g id="freepik--Desk--inject-63"><polygon points="113.75 476.39 109.38 476.39 106.89 326.1 116.24 326.1 113.75 476.39" style="fill:#e0e0e0"></polygon><path d="M113.75,476.39s0-.27,0-.79,0-1.28,0-2.27c0-2,.06-4.94.11-8.72.11-7.58.26-18.52.45-32.09.42-27.1,1-64.63,1.66-106.43l.26.26h-9.35l.26-.26c1.21,73.49,2.14,134.67,2.28,150.3l-.05-.06,3.28,0,1.09,0-1.06,0-3.31,0h-.06v-.06c-.38-15.63-1.47-76.81-2.69-150.29v-.27h9.88v.27c-.74,41.87-1.4,79.47-1.88,106.62-.25,13.53-.46,24.46-.6,32-.08,3.75-.14,6.67-.19,8.66,0,1,0,1.72,0,2.24Z" style="fill:#263238"></path><polygon points="399.22 476.39 394.84 476.39 393.45 326.52 402.8 326.52 399.22 476.39" style="fill:#e0e0e0"></polygon><path d="M399.22,476.39s0-.27,0-.79,0-1.28,0-2.26c0-2,.1-4.93.17-8.7.16-7.55.4-18.47.69-32,.62-27,1.47-64.45,2.43-106.13l.26.26h-9.35l.26-.26c.68,73.27,1.16,134.27,1.19,149.87l-.06-.06,3.29,0,1.09,0-1.06,0-3.32,0h0v-.06c-.26-15.6-.92-76.6-1.6-149.86v-.27h9.89v.27c-1,41.75-2,79.24-2.65,106.32-.36,13.49-.64,24.38-.84,31.92-.11,3.74-.19,6.65-.25,8.64,0,1-.05,1.71-.07,2.23Z" style="fill:#263238"></path><rect x="85.85" y="314.65" width="349.11" height="12.4" style="fill:#e0e0e0"></rect><path d="M85.85,314.65l1.78,0,5.23,0,20.19,0,74.49-.08L435,314.39h.26v12.92H435l-349.11-.2h-.06v-.06c0-4.26,0-7.37,0-9.41s0-3,0-3c0,.44,0,4,.07,12.4l-.07-.07L435,326.79l-.26.26v-12.4l.26.26-247.22-.11-74.56-.08-20.25,0-5.27,0Z" style="fill:#263238"></path><path d="M159.81,314.83s0,.05-.11.14l-.37.37a7.5,7.5,0,0,1-1.75,1.14,11.3,11.3,0,0,1-3.37.92,29.24,29.24,0,0,1-4.71.17c-1.75-.05-3.64-.27-5.66-.53a62.4,62.4,0,0,0-6.45-.63,48.14,48.14,0,0,0-14.51,2.29c-5,1.44-9.64,3.09-14.09,4.09a47.31,47.31,0,0,1-6.43,1,32.83,32.83,0,0,1-5.7,0,22.51,22.51,0,0,1-7.83-2,11.86,11.86,0,0,1-2.42-1.47l.17.09.46.28a17.18,17.18,0,0,0,1.87,1,23,23,0,0,0,7.78,1.91,33.31,33.31,0,0,0,5.64,0,46.72,46.72,0,0,0,6.35-1.06c4.41-1,9-2.66,14-4.11a48.35,48.35,0,0,1,14.67-2.28,62,62,0,0,1,6.5.66,55.85,55.85,0,0,0,5.61.57,30.29,30.29,0,0,0,4.66-.11,11.56,11.56,0,0,0,3.33-.85A8.22,8.22,0,0,0,159.81,314.83Z" style="fill:#fff"></path><path d="M121.62,315a7.78,7.78,0,0,1-1.06.73,24.66,24.66,0,0,1-3.18,1.67,32.42,32.42,0,0,1-5.21,1.72,34.32,34.32,0,0,1-6.81.86,31.19,31.19,0,0,1-12.16-2A7.63,7.63,0,0,1,90.26,316a3.16,3.16,0,0,1-.48-.75,1,1,0,0,1-.09-.29,7.5,7.5,0,0,0,.71,1,8,8,0,0,0,2.93,1.8,32.24,32.24,0,0,0,12,1.91,35,35,0,0,0,6.71-.82,33.24,33.24,0,0,0,5.18-1.63,32.52,32.52,0,0,0,3.23-1.56A9.58,9.58,0,0,1,121.62,315Z" style="fill:#fff"></path><path d="M203.54,322.88l.54.16a11.84,11.84,0,0,0,1.61.34,11.44,11.44,0,0,0,6.11-.77l0,.16a16.54,16.54,0,0,0-7.57-2.4,17.4,17.4,0,0,0-9.86,2.08c-.37.22-.72.48-.76.8s.25.62.65.8a5.66,5.66,0,0,0,1.36.39l1.48.27c2,.36,4.06.72,6.2,1a46,46,0,0,0,6.59.36,29.75,29.75,0,0,0,3.39-.26c.56-.08,1.12-.17,1.68-.29a9.51,9.51,0,0,0,1.63-.43,5.37,5.37,0,0,0,2.11-1.24,1.66,1.66,0,0,0,.41-1.9,3.57,3.57,0,0,0-1.66-1.51,14.75,14.75,0,0,0-2.32-.92,38,38,0,0,0-9.69-1.63A48.62,48.62,0,0,0,188.87,320a44.7,44.7,0,0,0-10,4.42c-1.06.67-1.88,1.2-2.41,1.59l-.61.42a1.86,1.86,0,0,1-.22.14s.06-.06.19-.16l.59-.46c.5-.4,1.31-.95,2.36-1.64a42.88,42.88,0,0,1,10-4.54,48.35,48.35,0,0,1,16.68-2.17,38.42,38.42,0,0,1,9.83,1.63,15.86,15.86,0,0,1,2.39.95,3.94,3.94,0,0,1,1.83,1.68A2,2,0,0,1,219,324a6,6,0,0,1-2.29,1.35,9.9,9.9,0,0,1-1.7.45c-.56.12-1.14.21-1.71.29a30.83,30.83,0,0,1-3.44.27,45.49,45.49,0,0,1-6.67-.38c-2.15-.26-4.22-.63-6.22-1l-1.49-.28a6.11,6.11,0,0,1-1.46-.42,2,2,0,0,1-.62-.44.89.89,0,0,1-.22-.67c.07-.49.54-.79.92-1a17.7,17.7,0,0,1,10.11-2.08,16.65,16.65,0,0,1,7.69,2.5l.14.09-.16.07a11.49,11.49,0,0,1-6.24.7A8.12,8.12,0,0,1,203.54,322.88Z" style="fill:#fff"></path><path d="M248.46,315.15a1.79,1.79,0,0,1,.34.63,3.94,3.94,0,0,1,.24,1.86c-.12,1.6-1.33,3.69-3.4,5.41a16.89,16.89,0,0,1-3.18,2.19,15.17,15.17,0,0,1-3.07,1.21,16.35,16.35,0,0,1-2.22.45,4.28,4.28,0,0,1-.83.06c0-.07,1.17-.2,2.95-.74a16.39,16.39,0,0,0,3-1.25,17.24,17.24,0,0,0,3.08-2.16,8.92,8.92,0,0,0,3.41-5.2A5.44,5.44,0,0,0,248.46,315.15Z" style="fill:#fff"></path><path d="M311.15,326.4a15.3,15.3,0,0,0-1.6-1.27,12.8,12.8,0,0,0-5.46-2,14.68,14.68,0,0,0-4.16.1,22.18,22.18,0,0,1-4.87.36,10.73,10.73,0,0,1-4.85-1.93,17.89,17.89,0,0,0-4.87-2.35,21.75,21.75,0,0,0-10.83-.13,28.17,28.17,0,0,0-8,3.29,43.47,43.47,0,0,0-4.64,3.22l-1.19.95a2.78,2.78,0,0,1-.42.32s.11-.14.36-.37.63-.57,1.13-1a38.14,38.14,0,0,1,4.58-3.32,27.89,27.89,0,0,1,8.08-3.4,22,22,0,0,1,11.08.11,18.21,18.21,0,0,1,5,2.41,10.36,10.36,0,0,0,4.64,1.88,21.86,21.86,0,0,0,4.77-.33,15.27,15.27,0,0,1,4.26-.05,12.28,12.28,0,0,1,5.52,2.14A6.37,6.37,0,0,1,311.15,326.4Z" style="fill:#fff"></path><path d="M367.12,314.77s-.12.15-.38.42a15.44,15.44,0,0,1-1.19,1.15,30.85,30.85,0,0,1-5.1,3.68,44,44,0,0,1-8.84,4,43.06,43.06,0,0,1-5.7,1.48,35.44,35.44,0,0,1-6.38.66,37.74,37.74,0,0,1-12.1-2,43.67,43.67,0,0,1-8.8-4.05,33.27,33.27,0,0,1-5.06-3.71c-.56-.47-.92-.89-1.19-1.15a2.92,2.92,0,0,1-.39-.42,2.77,2.77,0,0,1,.45.38c.3.24.68.64,1.25,1.1a36.32,36.32,0,0,0,5.12,3.6,44.33,44.33,0,0,0,8.77,3.95,37.89,37.89,0,0,0,11.95,2,36.4,36.4,0,0,0,6.28-.65,43.92,43.92,0,0,0,5.65-1.45,45.33,45.33,0,0,0,8.82-3.88,34.49,34.49,0,0,0,5.15-3.57c.58-.45.95-.85,1.25-1.1A3.08,3.08,0,0,1,367.12,314.77Z" style="fill:#fff"></path><path d="M359.13,314.65a1.33,1.33,0,0,1-.3.2c-.2.11-.5.29-.9.49-.8.42-2,1-3.5,1.61a42.59,42.59,0,0,1-5.53,1.83,29.86,29.86,0,0,1-7.2,1,35.13,35.13,0,0,1-12.8-2.63,31.06,31.06,0,0,1-3.47-1.65c-.4-.21-.68-.41-.88-.53s-.3-.19-.29-.2a10.72,10.72,0,0,1,1.26.61,38.12,38.12,0,0,0,3.51,1.55,36.46,36.46,0,0,0,12.67,2.5,29.92,29.92,0,0,0,7.09-1,46.59,46.59,0,0,0,5.51-1.74c1.52-.59,2.72-1.12,3.54-1.5A14.08,14.08,0,0,1,359.13,314.65Z" style="fill:#fff"></path><path d="M394.62,315.92h-.4l-1.14-.06-.83-.05h-1c-.71,0-1.51,0-2.39,0l-1.39.06L386,316c-1,.07-2.13.27-3.28.43a57.91,57.91,0,0,0-7.3,1.77,55.65,55.65,0,0,0-6.84,2.73c-1,.52-1.95,1-2.78,1.48l-1.22.72-1.09.71c-.7.44-1.28.89-1.8,1.27l-.73.54-.58.48-.8.66a2.1,2.1,0,0,1-.31.22s.07-.1.24-.27l.75-.7c.17-.16.36-.32.55-.51l.71-.56c.51-.4,1.08-.86,1.78-1.32l1.07-.73,1.22-.74c.83-.53,1.8-1,2.79-1.53a54,54,0,0,1,6.88-2.78,57.16,57.16,0,0,1,7.38-1.76c1.17-.15,2.27-.34,3.32-.4l1.51-.12,1.41,0c.89,0,1.7,0,2.41,0l1,0,.82.08,1.14.12A1.39,1.39,0,0,1,394.62,315.92Z" style="fill:#fff"></path><path d="M317.42,326.15a13.45,13.45,0,0,0-1.92-1.86,19.16,19.16,0,0,0-7-3.19,46.82,46.82,0,0,0-5.49-1c-2-.25-4.16-.46-6.42-.77a64.35,64.35,0,0,1-7-1.42,53.82,53.82,0,0,0-7.44-1.46,37.61,37.61,0,0,0-14.48,1.62c-2.14.64-4.09,1.41-5.9,2.15s-3.46,1.5-5,2.19c-3,1.38-5.4,2.55-7.05,3.37l-1.89.94-.5.24a.74.74,0,0,1-.18.08l.16-.11.47-.27,1.85-1c1.63-.85,4-2.06,7-3.47,1.49-.7,3.15-1.46,4.95-2.22a55.87,55.87,0,0,1,5.92-2.2,37.89,37.89,0,0,1,14.68-1.67,55,55,0,0,1,7.5,1.48,64.61,64.61,0,0,0,6.92,1.43c2.24.32,4.4.54,6.4.81a47.21,47.21,0,0,1,5.53,1,18.61,18.61,0,0,1,7.06,3.33A7.54,7.54,0,0,1,317.42,326.15Z" style="fill:#fff"></path><path d="M238.79,314.83a2.44,2.44,0,0,1,0,.8,7.81,7.81,0,0,1-.68,2.09,12.7,12.7,0,0,1-5.37,5.57,40.24,40.24,0,0,1-7.95,3c-1.06.28-1.93.49-2.54.62a6.44,6.44,0,0,1-.95.16,3.8,3.8,0,0,1,.9-.29l2.49-.73a46.45,46.45,0,0,0,7.82-3,13.28,13.28,0,0,0,5.32-5.37A14.79,14.79,0,0,0,238.79,314.83Z" style="fill:#fff"></path><path d="M157.75,327.05a5.06,5.06,0,0,1,.85-.67c.56-.41,1.41-1,2.48-1.65a76.17,76.17,0,0,1,8.91-4.66c3.62-1.62,7-2.91,9.47-3.83,1.23-.46,2.23-.82,2.93-1.06a8.9,8.9,0,0,1,1.1-.35,5.56,5.56,0,0,1-1,.47l-2.87,1.16c-2.42,1-5.78,2.31-9.4,3.92a92.16,92.16,0,0,0-8.93,4.55c-1.09.64-2,1.18-2.56,1.56A8.39,8.39,0,0,1,157.75,327.05Z" style="fill:#fff"></path><path d="M174.19,315.34s-.8-.08-2.25,0a18.58,18.58,0,0,0-5.82,1.43,55.73,55.73,0,0,0-7.57,4.13A40.26,40.26,0,0,1,154,323.3a29.17,29.17,0,0,1-5.45,1.71,62.23,62.23,0,0,1-11.15,1.09c-3.46.08-6.56,0-9.15.11a55.73,55.73,0,0,0-6.12.48l-1.65.27a4,4,0,0,1-.57.09,2.11,2.11,0,0,1,.55-.16c.37-.09.92-.2,1.63-.33a49,49,0,0,1,6.14-.6c2.61-.12,5.72-.09,9.15-.19a62.74,62.74,0,0,0,11.06-1.1A28.94,28.94,0,0,0,153.8,323a40.64,40.64,0,0,0,4.52-2.35,53.48,53.48,0,0,1,7.66-4.09,18.36,18.36,0,0,1,6-1.35,13.31,13.31,0,0,1,1.69.05A3.35,3.35,0,0,1,174.19,315.34Z" style="fill:#fff"></path><path d="M402.83,327.05a5.06,5.06,0,0,1,.85-.67c.56-.41,1.41-1,2.48-1.65a76.75,76.75,0,0,1,8.9-4.66c3.63-1.62,7-2.91,9.48-3.83,1.23-.46,2.23-.82,2.93-1.06a7.81,7.81,0,0,1,1.1-.35,6,6,0,0,1-1,.47l-2.87,1.16c-2.42,1-5.78,2.31-9.4,3.92a92.16,92.16,0,0,0-8.93,4.55c-1.09.64-2,1.18-2.56,1.56A9.62,9.62,0,0,1,402.83,327.05Z" style="fill:#fff"></path><path d="M419.27,315.34s-.8-.08-2.25,0a18.58,18.58,0,0,0-5.82,1.43,55.73,55.73,0,0,0-7.57,4.13,40.43,40.43,0,0,1-4.56,2.39,28.83,28.83,0,0,1-5.44,1.71,62.25,62.25,0,0,1-11.16,1.09c-3.45.08-6.55,0-9.15.11a55.73,55.73,0,0,0-6.12.48l-1.64.27a4,4,0,0,1-.57.09,2.11,2.11,0,0,1,.55-.16c.37-.09.92-.2,1.63-.33a49,49,0,0,1,6.14-.6c2.61-.12,5.71-.09,9.15-.19a62.74,62.74,0,0,0,11.06-1.1,28.94,28.94,0,0,0,5.36-1.67,41.55,41.55,0,0,0,4.52-2.35,53.48,53.48,0,0,1,7.66-4.09,18.36,18.36,0,0,1,5.95-1.35,13.07,13.07,0,0,1,1.68.05A3.64,3.64,0,0,1,419.27,315.34Z" style="fill:#fff"></path><path d="M391.92,314.6c0,.1-14.59.18-32.58.18s-32.59-.08-32.59-.18,14.59-.17,32.59-.17S391.92,314.5,391.92,314.6Z" style="fill:#263238"></path></g></svg>