<svg xmlns="http://www.w3.org/2000/svg" viewBox="0 0 500 500"><g id="freepik--background-simple--inject-242"><path d="M443,278.87l-.68-1.63a39.87,39.87,0,0,0-33.05-24.67,37.15,37.15,0,0,0-5.68-.08,41.86,41.86,0,0,0-33.38,21.17c-4,7.1-6,15.65-12.27,20.83-8.1,6.73-19.9,5.19-30.19,3.3s-22.1-3.39-30.17,3.37c-5.06,4.24-7.49,11-8.13,17.59-1.71,17.48,8,34.82,22.23,44.86s32.19,13.46,49.53,12.62c24.28-1.18,48.67-10.83,65.19-28.94S450.49,302.25,443,278.87Z" style="fill:#ebebeb"></path><path d="M48.18,121.54l1,.8A29.1,29.1,0,0,0,79,126.21a27.83,27.83,0,0,0,3.64-2,30.54,30.54,0,0,0,13.65-25.4c0-5.93-1.75-12.11.36-17.63,2.74-7.18,10.79-10.42,18-12.9s15.27-5.74,18-12.93c1.7-4.5.83-9.66-1.12-14.09C126.38,29.56,114,22,101.37,20.71s-25.28,2.95-36,9.69c-15,9.43-27.07,24.28-31.1,41.7S35.06,109.35,48.18,121.54Z" style="fill:#ebebeb"></path><circle cx="269.92" cy="286.4" r="19.7" style="fill:#ebebeb"></circle></g><g id="freepik--Plant--inject-242"><path d="M445.18,389A22.08,22.08,0,0,0,409,397.69l2.61,10.12c1-3.45,3.13-6.78,6.42-8.2s7.4-.64,10.91.64,6.95,3,10.68,3.21,7.93-1.54,9.05-5.1C449.73,395,447.71,391.44,445.18,389Z" style="fill:#FCA311"></path><g style="opacity:0.30000000000000004"><path d="M445.46,388.73a22.08,22.08,0,0,0-36.17,8.68l2.61,10.12c1-3.45,3.13-6.78,6.43-8.2s7.39-.64,10.9.64,7,3,10.68,3.21,7.93-1.54,9-5.1C450,394.73,448,391.16,445.46,388.73Z"></path></g><path d="M382.39,422.5c-5.47-5.2-5.19-14.24-2.47-21.26s8.68-12.43,15.33-16a48.56,48.56,0,0,1,42.29-1.37,20.11,20.11,0,0,0-16.23,9.53c-3,5-3.66,11-6.13,16.27a25.61,25.61,0,0,1-32.79,12.82" style="fill:#FCA311"></path><path d="M379.76,391.3c-6.05-7.14-6.86-18.61-6-27.93s3.06-18.7,1.59-27.95c-.87-5.47-3-10.7-3.72-16.2s.3-11.72,4.56-15.27c4.9-4.08,12.61-3.12,17.71.71s8.05,9.85,10.2,15.85c4.74,13.18,6.48,27.79,2.59,41.25s-13,25.48-26.43,29.54" style="fill:#FCA311"></path><path d="M376.86,449.91a4.29,4.29,0,0,1,0-.82c0-.54,0-1.34.05-2.36.08-2.05.27-5,.73-8.66a113.87,113.87,0,0,1,2.33-12.66,57.92,57.92,0,0,1,5.78-14.67,60.67,60.67,0,0,1,9.45-12.63,59.67,59.67,0,0,1,9.9-8.24c1.51-1.05,3-1.84,4.23-2.57s2.42-1.24,3.34-1.68l2.18-.92c.5-.2.77-.3.77-.29a3.85,3.85,0,0,1-.73.38l-2.13,1c-.91.47-2,1-3.29,1.75s-2.68,1.57-4.17,2.62A62.36,62.36,0,0,0,386.16,411c-5.57,9.73-7.09,20-8.2,27.14-.5,3.62-.75,6.58-.89,8.62-.05,1-.1,1.77-.14,2.35A6.59,6.59,0,0,1,376.86,449.91Z" style="fill:#263238"></path><path d="M315.09,382.11c1.87,5.8,8.74,9.83,14.43,7.66,3.23-1.23,5.56-4,7.55-6.84s3.87-5.82,6.66-7.84a9.83,9.83,0,0,1,6.68-1.91l-26-9.78C313.18,370.16,313.22,376.31,315.09,382.11Z" style="fill:#FCA311"></path><path d="M350.41,373.18l3,1.12A6.32,6.32,0,0,0,350.41,373.18Z" style="fill:#FCA311"></path><g style="opacity:0.30000000000000004"><path d="M324.66,363.12c-11.2,6.76-11.16,12.9-9.29,18.71s8.74,9.83,14.44,7.66c3.22-1.23,5.55-4,7.54-6.84s3.87-5.82,6.66-7.84a9.85,9.85,0,0,1,6.68-1.91Z"></path></g><path d="M357.05,375.82l-10.38-3.9,4.08.48a6.88,6.88,0,0,1,3.2,1.21Z"></path><path d="M316.28,370.53c2.92-4,10.16-5.22,14.72-3.2s7.92,6,10.91,10,5.91,8.21,10.06,11,9.94,3.79,14.07,1a12.07,12.07,0,0,0,4.78-8.28,27.48,27.48,0,0,0-.65-9.76c-1-4.7-2.61-9.6-6.36-12.59-4.19-3.32-10-3.48-15.35-3.31-6.13.21-12.35.67-18.11,2.79s-11.63,6.72-14.07,12.35" style="fill:#FCA311"></path><path d="M367.55,440.94a.75.75,0,0,1,0-.24c0-.19,0-.43,0-.73,0-.67-.05-1.6-.09-2.77-.07-2.46-.17-5.94-.3-10.22s-.31-9.45-.62-15.15-.74-12-1.61-18.48A59.9,59.9,0,0,0,363,384a49.42,49.42,0,0,0-3.43-8.21,48,48,0,0,0-4.33-6.79,43.42,43.42,0,0,0-4.73-5.19,34.5,34.5,0,0,0-8.38-5.72c-.55-.25-1-.49-1.45-.67L339.6,357l-.67-.27a1.59,1.59,0,0,1-.23-.11.72.72,0,0,1,.24.06l.69.22,1.11.39c.44.16.93.39,1.48.63a33.2,33.2,0,0,1,8.54,5.63,43.76,43.76,0,0,1,4.82,5.19,48.22,48.22,0,0,1,4.41,6.84,49.26,49.26,0,0,1,3.49,8.28,59.11,59.11,0,0,1,1.88,9.46c.87,6.54,1.28,12.81,1.57,18.52s.43,10.84.52,15.16.12,7.81.13,10.22V440c0,.3,0,.53,0,.73A.64.64,0,0,1,367.55,440.94Z" style="fill:#263238"></path><path d="M371.58,446a31.68,31.68,0,0,1-1.23-4.81,50.51,50.51,0,0,1-.51-13.5,89.72,89.72,0,0,1,4.27-19.6c2.29-7.21,5.41-14.91,8.08-23.19a106.41,106.41,0,0,0,3.21-12.27,108.27,108.27,0,0,0,1.59-11.7,171.3,171.3,0,0,0,.36-20c-.19-5.7-.5-10.31-.69-13.5l-.21-3.67c0-.4,0-.72-.05-1a2.59,2.59,0,0,1,0-.32,1.19,1.19,0,0,1,.05.32c0,.24.06.55.1,1,.07.87.17,2.1.31,3.67.25,3.18.6,7.79.84,13.5a163.57,163.57,0,0,1-.25,20.06,109,109,0,0,1-1.56,11.76,106.87,106.87,0,0,1-3.22,12.33c-2.68,8.31-5.81,16-8.12,23.18a90.74,90.74,0,0,0-4.36,19.49,51.72,51.72,0,0,0,.36,13.44c.27,1.57.52,2.78.74,3.59.1.39.17.7.23.93A1.31,1.31,0,0,1,371.58,446Z" style="fill:#263238"></path><polygon points="399.34 451.06 346.76 451.06 345.56 440.94 399.34 440.94 399.34 451.06" style="fill:#455a64"></polygon><polygon points="352.41 449.91 358.98 480.27 387.55 480.27 393.7 449.91 352.41 449.91" style="fill:#455a64"></polygon><path d="M399.34,451.06c0,.14-11.56.22-25.82.18s-25.81-.18-25.81-.32,11.56-.22,25.81-.18S399.34,450.92,399.34,451.06Z" style="fill:#455a64"></path><path d="M390.31,466.05a21.42,21.42,0,0,0-4.63-2.66,16.29,16.29,0,0,0-5.63-1.13,19.87,19.87,0,0,0-6.92,1.27c-2.39.81-4.63,1.75-6.81,2.27a16.06,16.06,0,0,1-5.89.18,11.81,11.81,0,0,1-3.78-1.2,7.32,7.32,0,0,1-.92-.58c-.19-.15-.29-.23-.28-.24s.45.26,1.28.65a13.37,13.37,0,0,0,3.75,1,16.35,16.35,0,0,0,5.74-.28c2.1-.52,4.34-1.47,6.75-2.29a19.67,19.67,0,0,1,7.1-1.26,16.28,16.28,0,0,1,5.75,1.26,14.71,14.71,0,0,1,3.42,2,7,7,0,0,1,.82.71C390.24,465.94,390.33,466,390.31,466.05Z" style="fill:#263238"></path><path d="M389.92,468.07a23.62,23.62,0,0,0-4.45-2.62,15.23,15.23,0,0,0-5.43-1.11,19.43,19.43,0,0,0-6.7,1.2c-2.31.77-4.49,1.67-6.56,2.23a16.78,16.78,0,0,1-5.66.64,9.64,9.64,0,0,1-3.71-1,5.25,5.25,0,0,1-.88-.56c-.19-.14-.29-.22-.28-.24s.44.26,1.24.63a10.25,10.25,0,0,0,3.65.81,17.31,17.31,0,0,0,5.52-.72c2-.57,4.18-1.48,6.53-2.26a19.44,19.44,0,0,1,6.86-1.2,15,15,0,0,1,8.84,3.24q.53.43.78.69C389.84,468,389.93,468.06,389.92,468.07Z" style="fill:#fff"></path><path d="M390.84,464a25.78,25.78,0,0,0-4.76-2.8,17.71,17.71,0,0,0-5.77-1.39,18.85,18.85,0,0,0-7.14,1.26,65.69,65.69,0,0,1-7.06,2.31,18.18,18.18,0,0,1-6.08,0,13.74,13.74,0,0,1-3.9-1.24,7.62,7.62,0,0,1-.95-.59c-.21-.15-.31-.24-.3-.25s.46.27,1.33.66a15.07,15.07,0,0,0,3.88,1.07A18.44,18.44,0,0,0,366,463a68.54,68.54,0,0,0,7-2.32,18.63,18.63,0,0,1,7.33-1.25,17.17,17.17,0,0,1,5.88,1.53,16.93,16.93,0,0,1,3.51,2.11,9.93,9.93,0,0,1,.84.73C390.76,463.92,390.85,464,390.84,464Z" style="fill:#fff"></path><path d="M399.8,451.11c0,.13-11.82.25-26.41.25s-26.41-.12-26.41-.25,11.82-.25,26.41-.25S399.8,451,399.8,451.11Z" style="fill:#263238"></path></g><g id="freepik--Character--inject-242"><polygon points="77.62 480.15 68.66 480.15 65.34 439.85 75.89 439.85 77.62 480.15" style="fill:#263238"></polygon><polygon points="155.21 480.15 164.16 480.15 167.48 439.85 156.94 439.85 155.21 480.15" style="fill:#263238"></polygon><path d="M173.63,445,58.4,447.66l-3.51-74.44a12.78,12.78,0,0,1,12.77-13.38h98.18a12.78,12.78,0,0,1,12.75,13.67Z" style="fill:#455a64"></path><path d="M81.2,373.61a6.6,6.6,0,0,1-2-1.14,15.27,15.27,0,0,1-3.83-4.11,14.63,14.63,0,0,1-2.06-5.23,6.21,6.21,0,0,1-.13-2.32c.09,0,.15.88.49,2.25a17.11,17.11,0,0,0,2.14,5,17.82,17.82,0,0,0,3.62,4.1A22.5,22.5,0,0,1,81.2,373.61Z" style="fill:#fff"></path><path d="M135.68,359.05c.12.14-2.92,2.21-5.29,5.94a30.2,30.2,0,0,0-3.17,7.3,7.13,7.13,0,0,1,.38-2.34,19.19,19.19,0,0,1,2.35-5.24,19.76,19.76,0,0,1,3.77-4.31A7.48,7.48,0,0,1,135.68,359.05Z" style="fill:#fff"></path><path d="M179.54,373l-.32,0-.95,0-3.63.06-13.36.05c-11.28,0-26.86-.11-44.06.29-17.21.57-32.8.47-44.08.3-5.64-.09-10.2-.2-13.36-.29l-3.63-.13-.94,0-.32,0a2,2,0,0,1,.32,0h.95l3.63,0,13.35.13c11.28.08,26.86.12,44.07-.45,17.21-.4,32.8-.22,44.07-.14l13.36.12,3.63,0,.95,0A1.34,1.34,0,0,1,179.54,373Z" style="fill:#263238"></path><path d="M96.92,361a27.18,27.18,0,0,0-7.48,2.25A26.62,26.62,0,0,0,83.23,368a7.25,7.25,0,0,1,1.43-1.85,17.21,17.21,0,0,1,9.93-5.07A7.29,7.29,0,0,1,96.92,361Z" style="fill:#263238"></path><g style="opacity:0.30000000000000004"><path d="M82.15,359.84c3.41,3.81,9,5.48,14,6.25,9.11,1.38,18.43,2.13,27.51.58,5.82-1,11.58-2.92,17.47-2.52s12.08,3.26,17.9,1.61a12.2,12.2,0,0,0,7.35-5.94c.49-.91.79-2.19,0-2.85-.4-.34-1.27.83-1.79.79-27.3-2.08-55.17,4-82.48,2.08"></path></g><path d="M175.79,389.58a.75.75,0,0,1-.24,0l-.72,0c-.64,0-1.58,0-2.78.11A66.09,66.09,0,0,0,162,391.1a66.21,66.21,0,0,0-51.25,52c-.27,1.18-.37,2.11-.5,2.73,0,.29-.1.52-.13.71s-.06.25-.07.24,0-.08,0-.24,0-.43.09-.72c.09-.63.16-1.57.4-2.75a60.56,60.56,0,0,1,2.59-9.9,64.71,64.71,0,0,1,6.63-13.64,65,65,0,0,1,42.16-28.75A60.88,60.88,0,0,1,172,389.55c1.21-.07,2.15,0,2.79,0l.72,0A.64.64,0,0,1,175.79,389.58Z" style="fill:#fff"></path><g style="opacity:0.30000000000000004"><path d="M152.44,377.73a8.21,8.21,0,0,0,2.54,7,28.28,28.28,0,0,0,6.33,4.39c3.7,2.15,7.4,4.61,9.71,8.21,4.4,6.83,2.78,15.8,4.64,23.72,0,0,1.55-34.15,1.23-33.29"></path></g><path d="M102,374.73a.94.94,0,0,1,0,.27c0,.21,0,.48.05.8,0,.7.07,1.74,0,3.08a44.35,44.35,0,0,1-1.5,11.22,29.82,29.82,0,0,1-3,7.23,22.23,22.23,0,0,1-6,6.72,21,21,0,0,1-4.21,2.49A18.56,18.56,0,0,1,82.5,408a17.11,17.11,0,0,1-5.3,0l-1.33-.28c-.44-.11-.87-.27-1.31-.41a10.74,10.74,0,0,1-2.49-1.19,7.21,7.21,0,0,1-2-1.93,5.19,5.19,0,0,1-.93-2.62,4.35,4.35,0,0,1,.66-2.68A3.76,3.76,0,0,1,72,397.42a6,6,0,0,1,5,1.16,8.46,8.46,0,0,1,2.89,4,10.21,10.21,0,0,1-1,8.81,15.13,15.13,0,0,1-5.76,5.3,21.84,21.84,0,0,1-6.1,2.15,41,41,0,0,1-4.83.68c-1.34.12-2.37.17-3.08.2l-.79,0h-.28a.84.84,0,0,1,.27-.05l.8-.08,3.06-.29a44.82,44.82,0,0,0,4.79-.76,22.46,22.46,0,0,0,6-2.19,14.87,14.87,0,0,0,5.57-5.2,9.73,9.73,0,0,0,.88-8.42A8,8,0,0,0,76.7,399a5.56,5.56,0,0,0-4.56-1.06,3.21,3.21,0,0,0-2,1.32,3.8,3.8,0,0,0-.57,2.36,5.49,5.49,0,0,0,2.73,4.15,10.09,10.09,0,0,0,2.39,1.14c.42.13.83.29,1.26.4l1.28.27a16.4,16.4,0,0,0,5.14,0,18.22,18.22,0,0,0,4.76-1.43,21.11,21.11,0,0,0,4.13-2.42,22,22,0,0,0,5.89-6.56,30.06,30.06,0,0,0,3-7.11,46.39,46.39,0,0,0,1.65-11.12c0-1.34,0-2.37,0-3.08V375A.8.8,0,0,1,102,374.73Z" style="fill:#fff"></path><path d="M152.92,444a18.76,18.76,0,0,0,2.37-.81,11.93,11.93,0,0,0,5-4.44,16.34,16.34,0,0,0,2.26-9.67,9.29,9.29,0,0,0-1.88-5.46,4.57,4.57,0,0,0-5.54-1.18,3,3,0,0,0-1.49,2.48,4.27,4.27,0,0,0,.9,2.81,7.35,7.35,0,0,0,5.14,2.42,13.3,13.3,0,0,0,9.44-2.66,13.64,13.64,0,0,0,4.12-5.35c.63-1.49.78-2.39.83-2.37a4.59,4.59,0,0,1-.1.65,11.13,11.13,0,0,1-.54,1.8,13.38,13.38,0,0,1-4.08,5.55,13.56,13.56,0,0,1-9.72,2.86,7.83,7.83,0,0,1-5.5-2.59,4.85,4.85,0,0,1-1-3.14,3.5,3.5,0,0,1,1.75-2.91,5.07,5.07,0,0,1,6.19,1.3,9.71,9.71,0,0,1,2,5.76,16.51,16.51,0,0,1-2.43,9.9,11.9,11.9,0,0,1-5.26,4.43,9.66,9.66,0,0,1-1.81.54A4,4,0,0,1,152.92,444Z" style="fill:#fff"></path><path d="M88.88,198.47q-2.4-21.42-4.82-42.85l-8.84-9.9c-9.77,12-12.6,26-13.4,35.24-1.32,15-4.48,28-.84,42.64a2.78,2.78,0,0,0,1.2,1.94,3.89,3.89,0,0,0,1.87.24l22.83-1C90.8,216.59,89.88,207.32,88.88,198.47Z" style="fill:#263238"></path><path d="M124.48,186.1c-.29-12.55-.29-19.66-1.88-29.82L99.28,185.4a101,101,0,0,1-1.38,38.45c-.34,1.5-.65,3.3.43,4.4,1.72,1.75,4.71-.15,7.1.38,2.9.65,4.61,4.84,7.53,4.24,3.28-.67,3.74-6.85,7.06-6.39,1.21.17,2.23,1.33,3.44,1.14,1.56-.23,1.91-2.31,1.88-3.89Q124.91,204.92,124.48,186.1Z" style="fill:#263238"></path><path d="M103.35,214.8Z" style="fill:#ffbe9d"></path><path d="M119.05,163.43A21.93,21.93,0,0,0,99,141.23a21.32,21.32,0,0,0-23.08,20.22l-.67,48a4.12,4.12,0,0,0,.85,2.57,19.6,19.6,0,0,0,12.81,7.39,20.54,20.54,0,0,0,12.5-3.19,4.09,4.09,0,0,0,1.91-3.6L103,201.9a.07.07,0,0,1,.07-.07,14.34,14.34,0,0,0,3-.22c2.8-.82,9.9-3.93,11.84-14.64C118.55,183.42,118.92,173.4,119.05,163.43Z" style="fill:#ffbe9d"></path><path d="M104,179.8a13.74,13.74,0,0,1,3.09-.47c.49,0,1-.12,1-.44a2.43,2.43,0,0,0-.29-1.42c-.44-1.16-.89-2.38-1.37-3.66-1.89-5.2-3.25-9.47-3-9.55s1.92,4.09,3.81,9.3c.45,1.28.89,2.5,1.3,3.67a2.76,2.76,0,0,1,.22,1.88,1.2,1.2,0,0,1-.81.67,3.28,3.28,0,0,1-.83.1A12.34,12.34,0,0,1,104,179.8Z" style="fill:#263238"></path><path d="M115,171.14a1.74,1.74,0,0,1-1.73,1.7,1.69,1.69,0,0,1-1.79-1.6,1.74,1.74,0,0,1,1.73-1.71A1.69,1.69,0,0,1,115,171.14Z" style="fill:#263238"></path><path d="M116.24,165.39c-.17.19-1.58.14-3.36.79s-2.93,1.63-3.16,1.58,0-.31.53-.75a8.28,8.28,0,0,1,2.48-1.41,7.23,7.23,0,0,1,2.72-.48C116.07,165.15,116.32,165.29,116.24,165.39Z" style="fill:#263238"></path><path d="M96.88,170.38a1.73,1.73,0,0,1-1.74,1.7,1.67,1.67,0,0,1-1.78-1.6,1.73,1.73,0,0,1,1.73-1.71A1.69,1.69,0,0,1,96.88,170.38Z" style="fill:#263238"></path><path d="M96.92,167.46c-.27,0-1.33-1.07-3.2-1.9s-3.49-1-3.63-1.17.25-.21,1-.17a9,9,0,0,1,3,.8,8.28,8.28,0,0,1,2.48,1.65C97,167.16,97.05,167.45,96.92,167.46Z" style="fill:#263238"></path><path d="M103,201.83s-7.33.41-16.38-5.21c0,0,2.7,9.57,16.47,8.64Z" style="fill:#eb996e"></path><path d="M103.14,184.27a3.49,3.49,0,0,0-3-1.32A3.16,3.16,0,0,0,97.92,184a1.91,1.91,0,0,0-.19,2.21,2.34,2.34,0,0,0,2.48.68,7.17,7.17,0,0,0,2.44-1.36,2.22,2.22,0,0,0,.56-.54.62.62,0,0,0,0-.69" style="fill:#eb996e"></path><path d="M98.42,181c.31,0,.28,2,2,3.49s3.93,1.31,3.94,1.59c0,.13-.5.38-1.42.38a5.21,5.21,0,0,1-3.29-1.21,4.42,4.42,0,0,1-1.56-2.92C98,181.44,98.28,180.94,98.42,181Z" style="fill:#263238"></path><path d="M98,159.91c-.26.48-2.1,0-4.33-.1s-4.1.27-4.33-.22c-.1-.23.27-.66,1.06-1a7.25,7.25,0,0,1,3.32-.63,7.46,7.46,0,0,1,3.28.87C97.76,159.23,98.11,159.69,98,159.91Z" style="fill:#263238"></path><path d="M116.05,159.72c-.34.41-1.64-.06-3.21-.11s-2.91.21-3.2-.24c-.13-.22.08-.64.67-1a4.44,4.44,0,0,1,2.62-.63,4.51,4.51,0,0,1,2.55.91C116,159.08,116.2,159.52,116.05,159.72Z" style="fill:#263238"></path><path d="M100.54,138.76c-1.06-1.64-2.94-2.32-5-2.54-8.44-.89-17.57,4.59-22,11.86s-4.14,17.82-.35,25.42l4.26-2.74c6.53-.69,15.63-16.3,24.36-26.8C102.93,142.65,101.47,140.18,100.54,138.76Z" style="fill:#263238"></path><path d="M116.85,143.53c-3.69-3.83-9.61-8.44-16.77-5.33-1,2.08,1.3,4.63,3.18,6.1,2.74,2.14,4.53,5,6.34,6.51,3.65,3.12,9.38,10.51,9.39,16.54,0,4.66-.31,4.44.06,4.36,0,0,2.39-4.11,2.85-6.6C124.16,152.94,120.54,147.36,116.85,143.53Z" style="fill:#263238"></path><path d="M78.31,170c-.2-.1-8.09-2.81-8.21,5.36s8.11,6.6,8.13,6.37S78.31,170,78.31,170Z" style="fill:#ffbe9d"></path><path d="M75.78,178.59s-.15.1-.39.2a1.41,1.41,0,0,1-1.06,0c-.86-.33-1.57-1.71-1.59-3.19a4.73,4.73,0,0,1,.43-2,1.64,1.64,0,0,1,1.09-1.07.71.71,0,0,1,.83.4c.11.23.06.39.1.41s.18-.14.11-.48a.89.89,0,0,0-.31-.51,1,1,0,0,0-.78-.22,2,2,0,0,0-1.51,1.24,4.9,4.9,0,0,0-.53,2.27c0,1.65.85,3.2,2,3.56a1.51,1.51,0,0,0,1.3-.2C75.76,178.79,75.8,178.6,75.78,178.59Z" style="fill:#eb996e"></path><path d="M95.53,136.22a3.08,3.08,0,0,1,1.65.07,7.05,7.05,0,0,1,3.41,2,5.59,5.59,0,0,1,.7.92,4.37,4.37,0,0,1,.43,1,10.23,10.23,0,0,1,.51,1.7,2.5,2.5,0,0,1-.08,1.64c-.08,0,0-.63-.27-1.56-.13-.47-.35-1-.59-1.62a5.19,5.19,0,0,0-.42-.89,6.23,6.23,0,0,0-.65-.83,7.79,7.79,0,0,0-3.14-2C96.15,136.33,95.53,136.3,95.53,136.22Z" style="fill:#455a64"></path><path d="M134.74,212.64a2.27,2.27,0,0,1-.38-.5c-.24-.34-.59-.84-1-1.52a38.62,38.62,0,0,1-2.83-6c-2-5.25-3.67-12.89-5-21.34s-2.5-16.05-3.37-21.65c-.4-2.73-.73-4.95-1-6.57-.1-.73-.18-1.33-.24-1.79a3.7,3.7,0,0,1,0-.63,3,3,0,0,1,.16.61c.08.46.19,1.05.33,1.78.28,1.61.66,3.83,1.12,6.54.92,5.59,2.16,13.21,3.53,21.63s2.87,16,4.8,21.3a43.28,43.28,0,0,0,2.67,6.05C134.3,211.89,134.78,212.61,134.74,212.64Z" style="fill:#263238"></path><path d="M99.64,142.21a7.37,7.37,0,0,1-.12,1.45,35.17,35.17,0,0,1-.73,3.9,34.81,34.81,0,0,1-5.31,11.92,27.58,27.58,0,0,1-9.79,8.59A21,21,0,0,1,80,169.55c-.45.15-.81.21-1,.27s-.36.07-.37.05a40.23,40.23,0,0,0,4.93-2.13,28.49,28.49,0,0,0,9.55-8.56,37.66,37.66,0,0,0,5.38-11.71c.43-1.61.71-2.92.88-3.84A8.65,8.65,0,0,1,99.64,142.21Z" style="fill:#263238"></path><path d="M83.85,199.42c-2.66-2.58-5.58-4.93-7.71-8s-3.39-6.94-2.22-10.45l-4.77,10.82c.13,8-.76,16.08-.63,24.11,2.89-4.25,6.17-5.49,9.62-7.09s9-.32,12.55,1.07C89.81,206.33,86.5,202,83.85,199.42Z" style="fill:#263238"></path><path d="M75.86,183.71,75,180.34a.5.5,0,0,0-1,0,25.68,25.68,0,0,0-1.09,3.62,10.4,10.4,0,0,0-.23,3.19,4.23,4.23,0,0,0,1.42,2.81,1.48,1.48,0,0,0,1.16.39c.64-.12,1-.83,1.11-1.48A12,12,0,0,0,75.86,183.71Z" style="fill:#e0e0e0"></path><path d="M184,298.65,179.59,292l-7.09-3.56-.27-.19a9.49,9.49,0,0,0-8-1.5c-2.89.77-6.74,1.73-10.09,2.3l-7.63-2.09v14.9l38.5-2.44Z" style="fill:#ffbe9d"></path><path d="M183.74,298.24a10.6,10.6,0,0,0-1.62-1.49c-1.05-.87-2.51-2-4.14-3.32l-1.52-1.18-.05,0h0c-1.58-.29-3-.53-3.93-.68a5.47,5.47,0,0,0-1.58-.16,6.78,6.78,0,0,0,1.52.44c1,.24,2.33.53,3.9.86l-.1-.05,1.52,1.2c1.63,1.28,3.12,2.41,4.22,3.21A10.24,10.24,0,0,0,183.74,298.24Z" style="fill:#eb996e"></path><path d="M180.74,299.54a44.59,44.59,0,0,0-5.54-3.34l-1.35-.74,0,0h-.05a28.25,28.25,0,0,0-4.93-.08,29.82,29.82,0,0,0,4.9.54l-.1,0,1.34.75A43,43,0,0,0,180.74,299.54Z" style="fill:#eb996e"></path><path d="M228.82,256.5a2.93,2.93,0,0,0-3.79.82l-31,42L145,300c-2,.11-4.33,4.08-2.58,6l55.41-.75,32-44.45A2.93,2.93,0,0,0,228.82,256.5Z" style="fill:#e0e0e0"></path><path d="M228.82,256.5a1.53,1.53,0,0,1,.25.14,2.71,2.71,0,0,1,.62.55,3,3,0,0,1,.45,3.07,17.14,17.14,0,0,1-1.31,2l-1.63,2.3-4.06,5.69L198,305.35l-.07.09h-.12l-54.4.78h-1.12l-.08-.08a2.75,2.75,0,0,1-.67-2,4.68,4.68,0,0,1,.52-2,5.56,5.56,0,0,1,1.19-1.62,2.77,2.77,0,0,1,1.86-.87l7.57-.1,14.65-.2,26.72-.33-.18.09c10.09-13.6,18.49-24.93,24.39-32.87l6.86-9.18a3,3,0,0,1,2.77-1,2.19,2.19,0,0,1,1,.37,3.69,3.69,0,0,0-1-.3,2.89,2.89,0,0,0-2.65,1l-6.76,9.24-24.24,33-.07.09H194l-26.71.39-14.64.2-7.58.11a2.28,2.28,0,0,0-1.52.73,5.28,5.28,0,0,0-1.08,1.47,3.05,3.05,0,0,0,.08,3.36l-.2-.09h1l54.41-.71-.18.09,25.32-35L227,264.4l1.66-2.28A18.06,18.06,0,0,0,230,260.2a2.89,2.89,0,0,0-.38-3A3.86,3.86,0,0,0,228.82,256.5Z" style="fill:#263238"></path><path d="M76.4,208.62c-1.94.53-3,1.68-4.44,3.08a27.7,27.7,0,0,0-6.62,10.83c-1.63,4.91-3,25.71-3,31.33s3.54,25.3,4.24,28.81-1.72,6.32-1.33,10.06a111.24,111.24,0,0,0,2.33,11.21l61-2.8,1.77-5.86s-3.6-11.95-2.67-24c.76-10,1-20.79-.88-26.61-2.8-8.88-14-23.49-25.24-32.11,0,0-8.84-1.89-10.83-2.59C84.71,207.82,82.43,207,76.4,208.62Z" style="fill:#FCA311"></path><path d="M151,285.2,99.54,274.46,98.21,229.8s-1.8-18.19-10.91-19.88l-22,27.33c1.23,13.77.11,39.83,6.44,49.88s12.49,18.11,28.07,17.39,49.94-1,49.94-1Z" style="fill:#FCA311"></path><path d="M99.64,274.63c.12.1-1.11,1.71-2.15,3.95s-1.49,4.22-1.65,4.19a13.07,13.07,0,0,1,3.8-8.14Z" style="fill:#263238"></path><path d="M150.32,296.53a2,2,0,0,1-.39-.17c-.25-.13-.63-.29-1.13-.5a14,14,0,0,0-4.61-.91,13.34,13.34,0,0,0-7.13,1.84,27.57,27.57,0,0,1-4.17,2.21,10.38,10.38,0,0,1-5.28.33,38.66,38.66,0,0,1-5.6-1.57A24,24,0,0,0,116,296.4a14.82,14.82,0,0,0-3.24.23,21.6,21.6,0,0,0-3.25.91c-2.16.8-4.28,1.87-6.49,2.91-1.11.52-2.24,1-3.42,1.47a13.9,13.9,0,0,1-3.74.89,8.68,8.68,0,0,1-3.93-.47,5,5,0,0,1-2.82-2.89,21.51,21.51,0,0,1-.7-4,6.93,6.93,0,0,0-1.58-3.56c-1.66-2.09-4.23-3.59-5.51-6.29a7.88,7.88,0,0,1-.57-4.25,16.11,16.11,0,0,1,1.16-4,69.38,69.38,0,0,0,3-7.48,11,11,0,0,0,.37-3.81,10.35,10.35,0,0,0-1.09-3.61c-1.1-2.27-2.65-4.25-3.89-6.38a11.81,11.81,0,0,1-2-6.87,19.13,19.13,0,0,1,2.09-6.44,22.94,22.94,0,0,0,2.11-5.83,10,10,0,0,0-.73-5.57c-1.42-3.38-3.7-5.91-5.15-8.48A15.74,15.74,0,0,1,75,219.09a9.3,9.3,0,0,1-.33-3.44,7.17,7.17,0,0,1,1.87-4.33,4.3,4.3,0,0,1,1.35-1,9,9,0,0,0-1.27,1,7.16,7.16,0,0,0-1.74,4.28,9.14,9.14,0,0,0,.35,3.36,16.31,16.31,0,0,0,1.68,3.67c1.45,2.53,3.76,5,5.24,8.49a10.26,10.26,0,0,1,.79,5.77,23.06,23.06,0,0,1-2.12,5.95,18.64,18.64,0,0,0-2,6.29,11.26,11.26,0,0,0,1.94,6.6c1.23,2.09,2.79,4.07,3.93,6.41A10.8,10.8,0,0,1,85.76,266a11.54,11.54,0,0,1-.38,4,67.35,67.35,0,0,1-3,7.53,15.33,15.33,0,0,0-1.12,3.91,7.35,7.35,0,0,0,.52,4c1.17,2.51,3.69,4,5.44,6.19a7.46,7.46,0,0,1,1.69,3.8,20.61,20.61,0,0,0,.67,3.9,4.42,4.42,0,0,0,2.53,2.6,8.27,8.27,0,0,0,3.69.45,21.89,21.89,0,0,0,7-2.3c2.2-1,4.34-2.11,6.53-2.91a22.28,22.28,0,0,1,3.33-.92A15.74,15.74,0,0,1,116,296a24.88,24.88,0,0,1,6.16,1.42,40.37,40.37,0,0,0,5.54,1.59,10.05,10.05,0,0,0,5.11-.28,27.76,27.76,0,0,0,4.14-2.16,13.56,13.56,0,0,1,11.92-.76A9.47,9.47,0,0,1,150.32,296.53Z" style="fill:#fff"></path><path d="M150.56,288.91l-.32-.15-.93-.48a27,27,0,0,0-3.66-1.61,9.8,9.8,0,0,0-6.16-.24c-2.36.7-4.63,2.44-7.42,3.87a11.2,11.2,0,0,1-4.75,1.33,10.39,10.39,0,0,1-5.21-1.19,16.89,16.89,0,0,1-4.32-3.75c-1.31-1.39-2.87-2.78-4.88-3a8.84,8.84,0,0,0-3,.29,23,23,0,0,0-3,1.09c-1,.43-2,.89-3,1.3a12.6,12.6,0,0,1-3.26.92,6,6,0,0,1-3.44-.51,5.77,5.77,0,0,1-2.52-2.49,8.67,8.67,0,0,1-1-3.45,13.51,13.51,0,0,1,.28-3.59c.49-2.36,1.3-4.57,1.72-6.83a22.81,22.81,0,0,0,.4-6.72,13.77,13.77,0,0,0-2.07-6.09c-.56-.9-1.19-1.78-1.71-2.72a8,8,0,0,1-.66-1.46,7.74,7.74,0,0,1-.42-1.53,14.45,14.45,0,0,1,.33-6.06c.46-1.92,1.08-3.71,1.61-5.46a28.53,28.53,0,0,0,1.16-5.13,12.38,12.38,0,0,0-.32-4.77c-.85-3-2.45-5.35-3.53-7.57a15.66,15.66,0,0,1-1.86-6.08,8.07,8.07,0,0,1,.65-4,4.75,4.75,0,0,1,.76-1.19s-.29.4-.66,1.23a8.1,8.1,0,0,0-.55,3.89,16,16,0,0,0,1.91,6c1.1,2.2,2.73,4.57,3.64,7.61a12.75,12.75,0,0,1,.36,4.92,27.8,27.8,0,0,1-1.15,5.2c-.52,1.76-1.13,3.56-1.57,5.44a14,14,0,0,0-.31,5.87,8.21,8.21,0,0,0,.4,1.45,7.66,7.66,0,0,0,.64,1.4c.5.9,1.13,1.77,1.7,2.69a14.31,14.31,0,0,1,2.16,6.29,23.16,23.16,0,0,1-.41,6.88c-.42,2.3-1.23,4.53-1.7,6.83a12.64,12.64,0,0,0-.28,3.45,8.17,8.17,0,0,0,.91,3.24,5.28,5.28,0,0,0,2.29,2.27,5.39,5.39,0,0,0,3.16.47,12,12,0,0,0,3.14-.88c1-.39,2-.86,3-1.28a22.61,22.61,0,0,1,3-1.11,9,9,0,0,1,3.19-.29,8.11,8.11,0,0,1,1.54.4,6.69,6.69,0,0,1,1.37.74,14.5,14.5,0,0,1,2.24,2,17,17,0,0,0,4.19,3.68,10,10,0,0,0,5,1.17,10.91,10.91,0,0,0,4.6-1.26c2.75-1.38,5.06-3.12,7.5-3.81a9.9,9.9,0,0,1,6.31.32,24.82,24.82,0,0,1,3.64,1.71l.9.52A1.33,1.33,0,0,1,150.56,288.91Z" style="fill:#fff"></path><path d="M77.32,295a4,4,0,0,1-.5-.64,6.58,6.58,0,0,1-.55-.81,10.64,10.64,0,0,1-.66-1.16,20.7,20.7,0,0,1-1.71-14.05A53.09,53.09,0,0,1,76.22,272a12.3,12.3,0,0,0,.81-3.46,6.44,6.44,0,0,0-.75-3.52c-1.17-2.22-3.44-3.9-4.58-6.52a16.22,16.22,0,0,1-1.09-7.94c.18-2.59.82-5,1.15-7.34a12.9,12.9,0,0,0,.08-3.39,11.39,11.39,0,0,0-.88-3.06c-.83-1.91-1.8-3.65-2.39-5.36a27.13,27.13,0,0,1-1.63-8.32,22.73,22.73,0,0,1,0-2.31,4,4,0,0,1,.09-.8,4.4,4.4,0,0,1,0,.8c0,.53,0,1.3.07,2.3a28.76,28.76,0,0,0,1.78,8.21c.6,1.67,1.57,3.36,2.44,5.31a11.92,11.92,0,0,1,.94,3.17,13.78,13.78,0,0,1-.06,3.51c-.33,2.37-.95,4.77-1.12,7.32a15.71,15.71,0,0,0,1.06,7.69c1,2.47,3.3,4.14,4.55,6.49a7,7,0,0,1,.8,3.79,13,13,0,0,1-.86,3.59,55.36,55.36,0,0,0-2.35,6.26,20.16,20.16,0,0,0-.55,5.75,20.79,20.79,0,0,0,2,8.11C76.67,294.11,77.37,295,77.32,295Z" style="fill:#fff"></path><path d="M112.65,275.86a5.88,5.88,0,0,0,.51-2.32,7.84,7.84,0,0,0-.57-2.73,21.47,21.47,0,0,0-1.79-3.29,17.42,17.42,0,0,1-2.06-4.12,15.07,15.07,0,0,1-.74-5.25,14.73,14.73,0,0,1,1.34-5.7,39.11,39.11,0,0,0,2.55-5.63,9.15,9.15,0,0,0-.55-5.92,33.3,33.3,0,0,0-2.77-5,38.42,38.42,0,0,1-2.58-4.61,17.4,17.4,0,0,1-1.28-4.43,17.72,17.72,0,0,1,.2-6.63,13.71,13.71,0,0,1,.51-1.74,2.37,2.37,0,0,1,.24-.58s-.25.83-.55,2.36a18.55,18.55,0,0,0,0,6.53,17.13,17.13,0,0,0,1.32,4.32A36.7,36.7,0,0,0,109,235.6a33.92,33.92,0,0,1,2.84,5.1,9.74,9.74,0,0,1,.57,6.26,38.72,38.72,0,0,1-2.58,5.7,14.13,14.13,0,0,0-1.33,5.51,14.79,14.79,0,0,0,.67,5.1,18.23,18.23,0,0,0,2,4.06,20.24,20.24,0,0,1,1.75,3.37,7.57,7.57,0,0,1,.5,2.84,4.81,4.81,0,0,1-.39,1.78A2.11,2.11,0,0,1,112.65,275.86Z" style="fill:#fff"></path><path d="M124.25,278.84s.09-.77.13-2.16a18.11,18.11,0,0,0-.75-5.77,20.65,20.65,0,0,0-1.54-3.73c-.65-1.3-1.42-2.67-2-4.22a11,11,0,0,1-.85-5.17,6.71,6.71,0,0,1,.87-2.68c.47-.82,1.06-1.56,1.52-2.36a6.43,6.43,0,0,0,.51-5.17,14.74,14.74,0,0,0-2.28-4.51c-.93-1.34-1.9-2.58-2.68-3.84a12.54,12.54,0,0,1-1.66-3.77,16.19,16.19,0,0,1-.14-5.92c.1-.69.2-1.23.27-1.59a2.28,2.28,0,0,1,.15-.54,3.33,3.33,0,0,1,0,.56q-.08.63-.18,1.59a17,17,0,0,0,.3,5.81,12.58,12.58,0,0,0,1.66,3.63c.78,1.22,1.76,2.44,2.71,3.79a15,15,0,0,1,2.38,4.66A6.86,6.86,0,0,1,122,253c-.49.84-1.08,1.58-1.52,2.36a6.21,6.21,0,0,0-.82,2.48,10.58,10.58,0,0,0,.8,4.93c.59,1.52,1.35,2.89,2,4.21A21.5,21.5,0,0,1,124,270.8a17.43,17.43,0,0,1,.59,5.89,14.09,14.09,0,0,1-.19,1.6A2.7,2.7,0,0,1,124.25,278.84Z" style="fill:#fff"></path><g style="opacity:0.30000000000000004"><path d="M97.86,227.89c5.14,15.79,4,40.13,13.82,49.1l-12.14-2.53a61.13,61.13,0,0,0,.1-8.58c-1-12.48-1.1-25.17-1.78-38"></path></g><path d="M96.72,222.26a28.32,28.32,0,0,1,.9,3.58,44.45,44.45,0,0,1,.63,4.42c.16,1.76.19,3.79.28,6.06.29,9.11.71,22.19,1.22,38.13l-.17-.19L151,285l.22,0,0,.23c-.37,5.85-.77,12-1.18,18.28v.24h-.24l-6.26.07c-8.94.11-17.67.25-26.09.43q-6.33.13-12.41.33c-4,.11-8,.49-11.92-.12A26.23,26.23,0,0,1,87.53,303a24.06,24.06,0,0,1-4.94-2.7,33.39,33.39,0,0,1-7.42-7.71q-1.5-2.12-2.84-4.22l-.67-1.05c-.21-.36-.39-.73-.59-1.09s-.38-.73-.58-1.09-.29-.76-.44-1.13a43.68,43.68,0,0,1-2.3-8.93,139,139,0,0,1-1.5-15.75c-.23-4.65-.34-8.66-.45-11.93s-.22-5.81-.31-7.54c0-.84-.09-1.5-.12-2s0-.67,0-.67,0,.22.08.66.1,1.11.17,2c.13,1.72.28,4.26.41,7.53s.28,7.28.54,11.93A141.69,141.69,0,0,0,68.12,275a42.3,42.3,0,0,0,2.31,8.84l.43,1.11.57,1.06c.2.36.38.72.58,1.07l.67,1q1.33,2.1,2.84,4.2a33.15,33.15,0,0,0,7.34,7.59,23.77,23.77,0,0,0,4.84,2.63,25.28,25.28,0,0,0,5.49,1.4c3.81.6,7.78.21,11.83.11s8.2-.26,12.41-.35c8.43-.19,17.16-.33,26.1-.44l6.26-.07-.26.24c.41-6.27.81-12.43,1.19-18.28l.21.27L99.5,274.66l-.16,0v-.16c-.43-16-.79-29-1-38.14-.07-2.28-.08-4.3-.23-6.05s-.35-3.23-.56-4.41-.42-2.09-.57-2.69c-.07-.29-.12-.52-.16-.69A.82.82,0,0,1,96.72,222.26Z" style="fill:#263238"></path><polygon points="179.29 394.81 171.65 451.07 191.63 454.35 205.84 404.43 179.29 394.81" style="fill:#ffbe9d"></polygon><path d="M118.71,308.35s85.22-8.1,91.53-2.31,11.59,18.43,9.48,22.64-6.84,18.43-6.84,18.43l-39.26-8.95Z" style="fill:#263238"></path><polygon points="173.63 347.11 157.81 371.23 176.42 383.29 196.61 352.35 173.63 347.11" style="fill:#ffbe9d"></polygon><path d="M67.57,303.94s-7.38,33.69,4.73,47.38,30,13.69,48.44,11.06,62.17-3.55,62.17-3.55-1.95,12-3.38,25.57-1.72,22.22-1.72,22.22l27.39,2.29s15.25-46.44,17.6-55.64,1.56-21.55-6.56-26.14c-6.88-3.88-61.12-18.92-87.09-21.16L125,301.3Z" style="fill:#263238"></path><path d="M196.31,347.65c0,.09-1.06.24-2.68.82a18.44,18.44,0,0,0-2.74,1.27,19.41,19.41,0,0,0-3,2.17,19.17,19.17,0,0,0-2.46,2.75,17.62,17.62,0,0,0-1.55,2.59c-.75,1.56-1,2.61-1.1,2.59a2.51,2.51,0,0,1,.11-.76,12.63,12.63,0,0,1,.65-2,15.44,15.44,0,0,1,1.5-2.72,16.29,16.29,0,0,1,5.6-5.05,15.56,15.56,0,0,1,2.86-1.21,10.69,10.69,0,0,1,2-.44C196,347.62,196.31,347.61,196.31,347.65Z" style="fill:#455a64"></path><path d="M193.06,319.6a7.68,7.68,0,0,1,1.44-2.83,7.53,7.53,0,0,1,2.11-2.38,13.87,13.87,0,0,1-1.68,2.67A13.56,13.56,0,0,1,193.06,319.6Z" style="fill:#455a64"></path><path d="M224,340.34l-.08-.26c-.05-.21-.11-.46-.18-.78-.17-.68-.42-1.69-.83-3a22.11,22.11,0,0,0-1.94-4.42,11.09,11.09,0,0,0-4.42-4.45,121.29,121.29,0,0,0-15.78-5.61c-6.06-1.81-12.74-3.73-19.79-5.59-14.1-3.75-27.05-6.43-36.48-8-4.71-.8-8.54-1.34-11.19-1.71l-3-.42-.79-.12-.27-.06a1.48,1.48,0,0,1,.28,0l.79.07,3.07.32c2.66.3,6.5.79,11.22,1.54a371.22,371.22,0,0,1,36.55,7.85c7.06,1.87,13.74,3.8,19.8,5.64a118,118,0,0,1,15.81,5.74,11.24,11.24,0,0,1,4.5,4.63,22.25,22.25,0,0,1,1.89,4.51,30.7,30.7,0,0,1,.73,3c.06.32.1.58.14.79A1.1,1.1,0,0,1,224,340.34Z" style="fill:#455a64"></path><path d="M193.18,452.89l.67-2.44a38,38,0,0,1-22-9.5L165,455.58l45.14,20.08C211.88,471.34,193.18,452.89,193.18,452.89Z" style="fill:#FCA311"></path><path d="M165,455.58l1.65-3.57,42.75,20.62s1.61,1.75.74,3Z" style="fill:#e0e0e0"></path><path d="M192.58,452.61c-.11.21-1.26-.18-2.67,0s-2.41.86-2.57.68.75-1.27,2.46-1.49S192.72,452.43,192.58,452.61Z" style="fill:#263238"></path><path d="M175,451a1.33,1.33,0,0,1-1.74.6,1.25,1.25,0,0,1-.61-1.69,1.32,1.32,0,0,1,1.74-.6A1.25,1.25,0,0,1,175,451Z" style="fill:#e0e0e0"></path><path d="M192.31,452.31a3.11,3.11,0,0,1-1-.19,5.51,5.51,0,0,1-2.53-1.35,3.9,3.9,0,0,1-.59-.78,2.3,2.3,0,0,1-.38-1,1.1,1.1,0,0,1,.71-1.11,1.69,1.69,0,0,1,1.36.06,5,5,0,0,1,2.8,4.4l-.67-.09a5.3,5.3,0,0,1,.45-1,5.54,5.54,0,0,1,4.89-2.77,1.69,1.69,0,0,1,.76.15,1,1,0,0,1,.51.67,1.71,1.71,0,0,1-.32,1.3,4.18,4.18,0,0,1-1.73,1.39,7,7,0,0,1-3.1.46,4.25,4.25,0,0,1-1.13-.09,3.34,3.34,0,0,1,1.12-.17,7.34,7.34,0,0,0,2.89-.63,3.61,3.61,0,0,0,1.47-1.26,1.17,1.17,0,0,0,.21-.88c-.05-.25-.27-.33-.68-.33a5,5,0,0,0-4.3,2.48,5.35,5.35,0,0,0-.39.89.35.35,0,0,1-.43.22.37.37,0,0,1-.24-.32,4.51,4.51,0,0,0-2.36-3.87c-.61-.32-1.33,0-1.27.49a3,3,0,0,0,.76,1.54,5.94,5.94,0,0,0,2.28,1.42A3.49,3.49,0,0,1,192.31,452.31Z" style="fill:#263238"></path><path d="M196,455.74a16.9,16.9,0,0,0-3,.21,16.68,16.68,0,0,0-2.73,1.21,3.8,3.8,0,0,1,2.61-1.72A3.88,3.88,0,0,1,196,455.74Z" style="fill:#263238"></path><path d="M198.56,458.61c0,.15-1.24.11-2.65.54s-2.42,1.11-2.51,1a4,4,0,0,1,2.37-1.48A3.86,3.86,0,0,1,198.56,458.61Z" style="fill:#263238"></path><path d="M180,380.57l1.07-2.29a38,38,0,0,1-20.14-13.08l-9.13,13.29,41.12,27.38C195.29,401.9,180,380.57,180,380.57Z" style="fill:#FCA311"></path><path d="M151.76,378.49l2.23-3.25,38.67,27.53s1.29,2,.22,3.1Z" style="fill:#e0e0e0"></path><path d="M179.42,380.19c-.15.19-1.21-.39-2.63-.42s-2.52.44-2.65.24,1-1.13,2.67-1.06S179.58,380,179.42,380.19Z" style="fill:#263238"></path><path d="M162.36,375.69a1.32,1.32,0,0,1-1.81.3,1.27,1.27,0,0,1-.32-1.78,1.31,1.31,0,0,1,1.81-.29A1.25,1.25,0,0,1,162.36,375.69Z" style="fill:#e0e0e0"></path><path d="M179.2,379.85a2.92,2.92,0,0,1-1-.36,5.57,5.57,0,0,1-2.27-1.75,4,4,0,0,1-.45-.87,2.31,2.31,0,0,1-.2-1.09,1.11,1.11,0,0,1,.89-1,1.69,1.69,0,0,1,1.33.29,5,5,0,0,1,2,4.81l-.64-.2a6.45,6.45,0,0,1,.61-.93,5.58,5.58,0,0,1,5.29-1.9,1.62,1.62,0,0,1,.73.28,1,1,0,0,1,.39.74,1.74,1.74,0,0,1-.54,1.23,4,4,0,0,1-1.94,1.08,7,7,0,0,1-3.13-.07,3.58,3.58,0,0,1-1.1-.28,3.28,3.28,0,0,1,1.13,0,7.88,7.88,0,0,0,3-.13,3.64,3.64,0,0,0,1.66-1,1.22,1.22,0,0,0,.36-.83c0-.26-.21-.38-.62-.44a5,5,0,0,0-4.65,1.71,5.7,5.7,0,0,0-.54.81.33.33,0,0,1-.45.15.34.34,0,0,1-.19-.35,4.48,4.48,0,0,0-1.68-4.21c-.55-.43-1.3-.27-1.33.26a3,3,0,0,0,.49,1.64,5.89,5.89,0,0,0,2,1.79A3.63,3.63,0,0,1,179.2,379.85Z" style="fill:#263238"></path><path d="M182.3,383.86a17.52,17.52,0,0,0-3-.29,16.3,16.3,0,0,0-2.9.73,4.73,4.73,0,0,1,5.88-.44Z" style="fill:#263238"></path><path d="M184.3,387.11c0,.15-1.24-.09-2.7.09s-2.57.69-2.64.55a5.16,5.16,0,0,1,5.34-.64Z" style="fill:#263238"></path></g><g id="freepik--Floor--inject-242"><path d="M456.48,480.15c0,.14-94.69.26-211.47.26s-211.49-.12-211.49-.26,94.67-.26,211.49-.26S456.48,480,456.48,480.15Z" style="fill:#263238"></path></g><g id="freepik--Window--inject-242"><polygon points="150.61 55.92 150.61 237.11 327.31 237.11 440.3 237.11 440.3 55.92 150.61 55.92" style="fill:#fafafa"></polygon><path d="M282.68,84.56S273.26,211.45,439.9,207.78V84.56Z" style="fill:#ebebeb"></path><rect x="150.61" y="66.56" width="289.69" height="17.99" style="fill:#f5f5f5"></rect><rect x="150.61" y="54.5" width="289.69" height="12.5" style="fill:#263238"></rect><circle cx="157.39" cy="61.32" r="1.62" style="fill:#455a64"></circle><circle cx="163.44" cy="61.32" r="1.62" style="fill:#455a64"></circle><circle cx="169.48" cy="61.32" r="1.62" style="fill:#455a64"></circle><path d="M295.45,93.48c0,.09-5.71.17-12.76.17s-12.77-.08-12.77-.17,5.71-.17,12.77-.17S295.45,93.38,295.45,93.48Z" style="fill:#263238"></path><path d="M329.42,93.48c0,.09-5.71.17-12.76.17s-12.77-.08-12.77-.17,5.71-.17,12.77-.17S329.42,93.38,329.42,93.48Z" style="fill:#263238"></path><path d="M363.39,93.48c0,.09-5.71.17-12.76.17s-12.77-.08-12.77-.17,5.71-.17,12.77-.17S363.39,93.38,363.39,93.48Z" style="fill:#263238"></path><path d="M397.67,93.48c0,.09-5.72.17-12.77.17s-12.77-.08-12.77-.17,5.71-.17,12.77-.17S397.67,93.38,397.67,93.48Z" style="fill:#263238"></path><path d="M427.44,97.54s.21,0,.61-.1a2.87,2.87,0,0,0,1.46-.91,2.72,2.72,0,0,0,.59-1.09,5.58,5.58,0,0,0,.09-1.51c-.07-1.07.25-2.46-.72-3.47a2.68,2.68,0,0,0-1.81-.9c-.74,0-1.54,0-2.35,0h-5.2l-11.91,0a2.7,2.7,0,0,0-2.39,1.46,2.8,2.8,0,0,0-.29,1.4V94a5.12,5.12,0,0,0,.09,1.43,2.68,2.68,0,0,0,.67,1.18,2.77,2.77,0,0,0,1.13.69,4.21,4.21,0,0,0,1.33.12l9.73,0,6.56,0,1.78,0,.47,0c.1,0,.16,0,.16,0l-.16,0h-.47l-1.78,0-6.56.06-9.73,0a4.36,4.36,0,0,1-1.42-.12,3.11,3.11,0,0,1-1.27-.78,3,3,0,0,1-.76-1.31,3.32,3.32,0,0,1-.1-.77V92.45a3.26,3.26,0,0,1,.33-1.55,3,3,0,0,1,2.69-1.65h11.91l5.2,0c.82,0,1.59,0,2.37,0a3,3,0,0,1,2.71,2.87c0,.62,0,1.21,0,1.76a5.54,5.54,0,0,1-.13,1.55,2.74,2.74,0,0,1-.64,1.14,2.83,2.83,0,0,1-1.55.88A2.24,2.24,0,0,1,427.44,97.54Z" style="fill:#263238"></path><path d="M182,97.35a5.52,5.52,0,1,1-5.52-5.51A5.52,5.52,0,0,1,182,97.35Z" style="fill:#455a64"></path><path d="M396.43,79.88H188.8a4.32,4.32,0,0,1-4.31-4.32h0a4.31,4.31,0,0,1,4.31-4.31H396.43a4.32,4.32,0,0,1,4.32,4.31h0A4.33,4.33,0,0,1,396.43,79.88Z" style="fill:#fff"></path><path d="M394.29,75a2.77,2.77,0,0,0-.91-1.46,1.85,1.85,0,0,0-1.72-.21,1.79,1.79,0,0,0,0,3.34,1.85,1.85,0,0,0,1.72-.21,2.77,2.77,0,0,0,.91-1.46s.08.18,0,.52a1.94,1.94,0,0,1-.72,1.23,2.16,2.16,0,0,1-2.1.37,2.24,2.24,0,0,1,0-4.24,2.16,2.16,0,0,1,2.1.37,1.94,1.94,0,0,1,.72,1.23C394.37,74.83,394.32,75,394.29,75Z" style="fill:#263238"></path><path d="M395.44,78.18c-.11.1-.58-.2-1.07-.68s-.79-.94-.69-1,.57.21,1.06.68S395.54,78.08,395.44,78.18Z" style="fill:#263238"></path><path d="M253,125.9c0,.14-17.62.26-39.34.26s-39.34-.12-39.34-.26,17.61-.26,39.34-.26S253,125.75,253,125.9Z" style="fill:#263238"></path><path d="M253,140.17c0,.14-17.62.26-39.34.26s-39.34-.12-39.34-.26,17.61-.26,39.34-.26S253,140,253,140.17Z" style="fill:#FCA311"></path><path d="M220.88,154.44c0,.14-10.41.26-23.26.26s-23.26-.12-23.26-.26,10.41-.26,23.26-.26S220.88,154.3,220.88,154.44Z" style="fill:#263238"></path><circle cx="300.38" cy="217.95" r="12.2" style="fill:#fafafa"></circle><path d="M312.58,218a24.65,24.65,0,0,0-.48-2.95,12,12,0,0,0-15.79-8.28,11.36,11.36,0,0,0-3,1.63,11.5,11.5,0,0,0-2.53,2.54,11.9,11.9,0,0,0,0,14.12,11.29,11.29,0,0,0,2.53,2.54,11.09,11.09,0,0,0,3,1.63,12,12,0,0,0,6.28.54,11.82,11.82,0,0,0,5.06-2.22,12.15,12.15,0,0,0,4.45-6.59,24.25,24.25,0,0,0,.48-3,4.23,4.23,0,0,1,0,.78,5.81,5.81,0,0,1-.07,1,9.3,9.3,0,0,1-.22,1.28,12.35,12.35,0,0,1-9.63,9.19,12.41,12.41,0,0,1-6.53-.52A11.42,11.42,0,0,1,293,228a11.6,11.6,0,0,1-2.64-2.64,12.36,12.36,0,0,1,0-14.72,12.59,12.59,0,0,1,5.79-4.32,12.5,12.5,0,0,1,6.53-.51,12.32,12.32,0,0,1,5.2,2.35A12.16,12.16,0,0,1,312.3,215a8.82,8.82,0,0,1,.22,1.28,5.77,5.77,0,0,1,.07.94A4.16,4.16,0,0,1,312.58,218Z" style="fill:#263238"></path><polygon points="297.86 216.75 302.91 216.75 300.38 220.59 297.86 216.75" style="fill:#263238"></polygon><path d="M214.42,203.54H179a6.47,6.47,0,0,1-6.46-6.47h0a6.46,6.46,0,0,1,6.46-6.46h35.45a6.46,6.46,0,0,1,6.46,6.46h0A6.47,6.47,0,0,1,214.42,203.54Z" style="fill:#ebebeb"></path><path d="M268.76,203.54h-31.7a6.47,6.47,0,0,1-6.47-6.47h0a6.46,6.46,0,0,1,6.47-6.46h31.7a6.46,6.46,0,0,1,6.46,6.46h0A6.47,6.47,0,0,1,268.76,203.54Z" style="fill:#FCA311"></path><path d="M365.17,133.63c.18-7.88.18-12.35,1.18-18.72L381,133.19a63.54,63.54,0,0,0,.87,24.15c.22.94.41,2.07-.27,2.76-1.08,1.09-3-.1-4.46.24-1.82.4-2.9,3-4.73,2.66-2.06-.42-2.35-4.3-4.43-4-.76.1-1.4.83-2.16.71-1-.14-1.2-1.45-1.18-2.44Z" style="fill:#263238"></path><path d="M363.7,152.65s-6.33,1.56-8.36,9.85-2.79,28.36-2.79,28.36l10.45,0,.67-37.39" style="fill:#FCA311"></path><path d="M387.52,141.4l3-26.91,5.55-6.21c6.14,7.52,7.91,16.35,8.42,22.12.82,9.41,2.81,17.56.52,26.77a1.74,1.74,0,0,1-.75,1.22,2.32,2.32,0,0,1-1.17.15l-14.34-.61C386.32,152.78,386.9,147,387.52,141.4Z" style="fill:#263238"></path><polygon points="399.92 151.65 396.11 149.65 377.08 150.75 371.6 153.5 386.98 160.12 398.92 153.45 399.92 151.65" style="fill:#ffbe9d"></polygon><path d="M404.63,206.44c0-1.7-3.34-8.17-3.34-8.17s.89-1.8,3.34-7.71c2.07-5,.94-10.82.94-10.82l4.27-23.9-11.41-5.47s-7.76,7-14.66,6.43-7.09-6.5-7.09-6.5l-13,2.35-1.48,36.1,1.45,9.08A201.74,201.74,0,0,0,404.63,206.44Z" style="fill:#FCA311"></path><path d="M419.17,171.75c-.45-14.51-9.33-15.91-9.33-15.91l-4.22,19.63.16,19.29,13.53-.5C419.5,186.46,419.31,176.33,419.17,171.75Z" style="fill:#FCA311"></path><path d="M353.88,190.63,355.31,175,358,157a6.6,6.6,0,0,0,2.05-3.3c.27-1.82-.64-12.42-.64-12.42s-1.42-.16-1.95,1.94a43.82,43.82,0,0,0-.69,5l-3-7.74c-.68-1.74-1.81-4.32-2.78-4.22s.27,3.49.51,5,.62,3.68.62,3.68-2.83-6.78-4.11-8.41c-.93-1.19-2.27.17-1.49,1.71,0,0-1.44-1.2-1.56.29s2.77,8.14,2.28,8.26-3.15-5.15-4.09-5.27c-.53-.06-.78.7-.17,2.08s5.14,11.3,6.23,12.84c-1.46,4.8-6.24,21-7.69,31.77a140.5,140.5,0,0,0,18.29,8.23,34.6,34.6,0,0,0,2.32-5.63Z" style="fill:#ffbe9d"></path><path d="M350.65,151.74a2.7,2.7,0,0,1,1.27,0,7.57,7.57,0,0,1,2.85,1.17l-.29.12,0-.12a9,9,0,0,1,1.14-3c.43-.69.79-1.05.83-1a15.35,15.35,0,0,0-1.59,4.05l0,.12-.06.29-.24-.17A12.19,12.19,0,0,0,350.65,151.74Z" style="fill:#eb996e"></path><path d="M346.41,138a31.71,31.71,0,0,1,2.14,4.13,17.72,17.72,0,0,1,1.6,4.37c-.1,0-.86-1.9-1.95-4.21A26.33,26.33,0,0,1,346.41,138Z" style="fill:#eb996e"></path><path d="M351.64,157.31c0-.1,1,.13,2.24.15s2.2-.19,2.23-.08a3.92,3.92,0,0,1-2.24.46A4,4,0,0,1,351.64,157.31Z" style="fill:#eb996e"></path><g style="opacity:0.30000000000000004"><path d="M393.29,197.08c-1.92,1.08-3.88,2.08-5.87,3a13,13,0,0,1-3.08,1.11c-2.23.39-4.49-.35-6.59-1.2a14.62,14.62,0,0,1-4.05-2.21,32.88,32.88,0,0,0,8.19,1,45.88,45.88,0,0,0,5.62-.4c2-.36,3.47-1,5.48-1.31"></path></g><g style="opacity:0.30000000000000004"><path d="M405.66,185.92c0-2.38-1.34-4.52-2-6.81a11.45,11.45,0,0,1,1.9-10,49.29,49.29,0,0,0,.06,9.25c.19,2.29-.1,4.82,0,7.52"></path></g><path d="M378.44,151.65Z" style="fill:#ffbe9d"></path><path d="M368.58,119.4a13.77,13.77,0,0,1,12.61-13.94,13.39,13.39,0,0,1,14.49,12.69l.42,30.15c0,.58.06,2.93-.29,3.39-1.88,2.5-6,3.47-8.83,3.74a12.52,12.52,0,0,1-7.73-2c-.78-.48-.8-2.24-.78-3.15l.19-6.74a0,0,0,0,0-.05,0,9.11,9.11,0,0,1-1.88-.14c-1.76-.52-6.22-2.47-7.43-9.19A133.22,133.22,0,0,1,368.58,119.4Z" style="fill:#ffbe9d"></path><path d="M378,129.68a7.63,7.63,0,0,0-1.94-.3c-.31,0-.6-.07-.65-.28a1.47,1.47,0,0,1,.18-.89c.28-.73.56-1.49.86-2.29a39.07,39.07,0,0,0,1.91-6,38.55,38.55,0,0,0-2.4,5.84l-.81,2.3a1.74,1.74,0,0,0-.14,1.18.74.74,0,0,0,.51.42,1.66,1.66,0,0,0,.52.06A7.61,7.61,0,0,0,378,129.68Z" style="fill:#263238"></path><path d="M372.24,123.76a1.1,1.1,0,0,0,1.09,1.07,1.05,1.05,0,0,0,1.12-1,1.1,1.1,0,0,0-1.09-1.07A1.06,1.06,0,0,0,372.24,123.76Z" style="fill:#263238"></path><path d="M370.35,120.62c.1.13,1,.09,2.11.51s1.83,1,2,1,0-.2-.33-.47a5,5,0,0,0-1.56-.89,4.49,4.49,0,0,0-1.71-.3C370.45,120.48,370.29,120.57,370.35,120.62Z" style="fill:#263238"></path><path d="M383.93,123.41a1.09,1.09,0,0,0,1.09,1.07,1.05,1.05,0,0,0,1.12-1,1.09,1.09,0,0,0-1.08-1.07A1.07,1.07,0,0,0,383.93,123.41Z" style="fill:#263238"></path><path d="M382.47,121.93c.18,0,.84-.67,2-1.2s2.19-.6,2.27-.73-.15-.13-.6-.1a5.68,5.68,0,0,0-1.87.49,5.32,5.32,0,0,0-1.56,1C382.45,121.74,382.39,121.92,382.47,121.93Z" style="fill:#263238"></path><path d="M378.66,143.51s4.6.26,10.28-3.28c0,0-1.7,6-10.34,5.43Z" style="fill:#eb996e"></path><path d="M378.57,132.49a2.17,2.17,0,0,1,1.91-.83,1.91,1.91,0,0,1,1.36.68,1.18,1.18,0,0,1,.12,1.39,1.45,1.45,0,0,1-1.55.42,4.58,4.58,0,0,1-1.54-.85,1.22,1.22,0,0,1-.34-.34.39.39,0,0,1,0-.44" style="fill:#eb996e"></path><path d="M381.53,130.4c-.19,0-.17,1.27-1.26,2.19s-2.46.83-2.47,1,.31.24.89.24a3.24,3.24,0,0,0,2.07-.76,2.74,2.74,0,0,0,1-1.83C381.77,130.71,381.62,130.39,381.53,130.4Z" style="fill:#263238"></path><path d="M381.8,117.19c.16.3,1.31,0,2.72-.06s2.57.17,2.72-.14c.06-.15-.18-.42-.67-.66a4.56,4.56,0,0,0-2.09-.39,4.47,4.47,0,0,0-2.05.55C382,116.76,381.73,117.05,381.8,117.19Z" style="fill:#263238"></path><path d="M370.47,117.07c.21.26,1,0,2-.07s1.82.13,2-.15-.05-.4-.42-.64a2.75,2.75,0,0,0-1.65-.4,2.86,2.86,0,0,0-1.6.57C370.48,116.66,370.37,116.94,370.47,117.07Z" style="fill:#263238"></path><path d="M380.2,103.91a4.05,4.05,0,0,1,3.14-1.6c5.31-.56,11,2.88,13.79,7.45s2.6,11.19.22,16L394.67,124c-4.1-.43-9.81-10.24-15.29-16.83C378.7,106.35,379.62,104.8,380.2,103.91Z" style="fill:#263238"></path><path d="M370,106.9c2.32-2.4,6-5.3,10.53-3.35.61,1.31-.82,2.91-2,3.83-1.73,1.35-2.85,3.13-4,4.1-2.29,2-5.88,6.59-5.89,10.38,0,2.92.19,2.78,0,2.74a18.17,18.17,0,0,1-1.79-4.15C365.37,112.81,367.65,109.31,370,106.9Z" style="fill:#263238"></path><path d="M394.16,123.51c.13-.06,5.08-1.76,5.15,3.37s-5.09,4.15-5.1,4S394.16,123.51,394.16,123.51Z" style="fill:#ffbe9d"></path><path d="M395.75,128.92s.09.06.24.12a.89.89,0,0,0,.67,0,2.24,2.24,0,0,0,1-2,3.08,3.08,0,0,0-.27-1.28,1,1,0,0,0-.69-.67.44.44,0,0,0-.52.25c-.07.14,0,.25-.06.25s-.11-.08-.07-.29a.63.63,0,0,1,.19-.33.7.7,0,0,1,.5-.13,1.26,1.26,0,0,1,.94.78,3,3,0,0,1,.33,1.42,2.31,2.31,0,0,1-1.27,2.24,1,1,0,0,1-.82-.13C395.76,129,395.73,128.92,395.75,128.92Z" style="fill:#eb996e"></path><path d="M383.34,102.31a1.93,1.93,0,0,0-1,0,4.53,4.53,0,0,0-2.14,1.27,4.67,4.67,0,0,0-.44.58,3.54,3.54,0,0,0-.27.62,7.33,7.33,0,0,0-.32,1.07,1.58,1.58,0,0,0,.05,1c.05,0,0-.39.17-1,.08-.29.22-.63.37-1a4.27,4.27,0,0,1,.26-.57,4.79,4.79,0,0,1,.42-.52,4.89,4.89,0,0,1,2-1.27A9.1,9.1,0,0,0,383.34,102.31Z" style="fill:#455a64"></path><path d="M380.77,106.08c.08,0,.26,1.27.82,3.28a23.77,23.77,0,0,0,3.39,7.31,18.29,18.29,0,0,0,5.94,5.38c1.82,1,3.1,1.3,3.07,1.39a2.74,2.74,0,0,1-.9-.16,12.86,12.86,0,0,1-2.34-.91,17.08,17.08,0,0,1-6.2-5.4,21.67,21.67,0,0,1-3.32-7.52,22.25,22.25,0,0,1-.43-2.46A2.65,2.65,0,0,1,380.77,106.08Z" style="fill:#263238"></path><path d="M363.67,197.83a2.27,2.27,0,0,1-.17-.63l-.33-1.81c-.27-1.66-.64-3.86-1.06-6.44l0,.06a26.43,26.43,0,0,1-2.39-8.29,27.44,27.44,0,0,1,1.47-12.35,27.75,27.75,0,0,1,1.54-3.46,6.82,6.82,0,0,1,.73-1.18c.1.05-.91,1.75-1.92,4.76a28.53,28.53,0,0,0-1.3,12.17,27.33,27.33,0,0,0,2.28,8.16v.06c.35,2.6.65,4.8.87,6.47.09.72.15,1.32.21,1.82A2.75,2.75,0,0,1,363.67,197.83Z" style="fill:#263238"></path><path d="M405.48,170.06c.14,0,.32,5.08.41,11.34s0,11.34-.11,11.34-.33-5.07-.41-11.34S405.33,170.07,405.48,170.06Z" style="fill:#263238"></path><path d="M410.87,157a17.23,17.23,0,0,0-2.82,3,17.54,17.54,0,0,0-1.63,3.77,7.23,7.23,0,0,1,4.45-6.76Z" style="fill:#263238"></path><path d="M406.42,194.74l-1,11.79c3.75.39,7.91.69,12.32.93l.9-13.18Z" style="fill:#ffbe9d"></path><path d="M360.63,215.82a21.29,21.29,0,0,0-21.28,21.29h42.57A21.29,21.29,0,0,0,360.63,215.82Z" style="fill:#FCA311"></path><circle cx="335.4" cy="203.53" r="4.33" style="fill:#455a64"></circle><path d="M150.61,54.5l289.69-.24h.24v.24c0,56.14,0,117.84,0,182.59v.28h-.26l-289.69-.05h-.2v-.21c.12-111.62.2-180.94.2-182.61,0,1.67.08,71,.21,182.61l-.21-.2,289.69-.06-.26.26v0c0-64.75,0-126.45,0-182.59l.24.24Z" style="fill:#263238"></path></g></svg>