<svg id="visual" viewBox="0 0 935 1240" width="935" height="1240" xmlns="http://www.w3.org/2000/svg" xmlns:xlink="http://www.w3.org/1999/xlink" version="1.1"><path d="M596 0L771 0L771 83L576 83L576 165L785 165L785 248L670 248L670 331L865 331L865 413L743 413L743 496L299 496L299 579L740 579L740 661L436 661L436 744L591 744L591 827L382 827L382 909L685 909L685 992L882 992L882 1075L903 1075L903 1157L310 1157L310 1240L0 1240L0 1157L0 1157L0 1075L0 1075L0 992L0 992L0 909L0 909L0 827L0 827L0 744L0 744L0 661L0 661L0 579L0 579L0 496L0 496L0 413L0 413L0 331L0 331L0 248L0 248L0 165L0 165L0 83L0 83L0 0L0 0Z" fill="#fca311"></path><path d="M322 0L430 0L430 83L289 83L289 165L606 165L606 248L811 248L811 331L530 331L530 413L443 413L443 496L717 496L717 579L805 579L805 661L394 661L394 744L334 744L334 827L487 827L487 909L774 909L774 992L519 992L519 1075L765 1075L765 1157L688 1157L688 1240L0 1240L0 1157L0 1157L0 1075L0 1075L0 992L0 992L0 909L0 909L0 827L0 827L0 744L0 744L0 661L0 661L0 579L0 579L0 496L0 496L0 413L0 413L0 331L0 331L0 248L0 248L0 165L0 165L0 83L0 83L0 0L0 0Z" fill="#fd9424"></path><path d="M552 0L214 0L214 83L508 83L508 165L423 165L423 248L519 248L519 331L504 331L504 413L528 413L528 496L518 496L518 579L308 579L308 661L700 661L700 744L417 744L417 827L672 827L672 909L263 909L263 992L239 992L239 1075L381 1075L381 1157L299 1157L299 1240L0 1240L0 1157L0 1157L0 1075L0 1075L0 992L0 992L0 909L0 909L0 827L0 827L0 744L0 744L0 661L0 661L0 579L0 579L0 496L0 496L0 413L0 413L0 331L0 331L0 248L0 248L0 165L0 165L0 83L0 83L0 0L0 0Z" fill="#fb8631"></path><path d="M218 0L447 0L447 83L499 83L499 165L549 165L549 248L576 248L576 331L166 331L166 413L395 413L395 496L376 496L376 579L217 579L217 661L230 661L230 744L457 744L457 827L459 827L459 909L426 909L426 992L551 992L551 1075L401 1075L401 1157L440 1157L440 1240L0 1240L0 1157L0 1157L0 1075L0 1075L0 992L0 992L0 909L0 909L0 827L0 827L0 744L0 744L0 661L0 661L0 579L0 579L0 496L0 496L0 413L0 413L0 331L0 331L0 248L0 248L0 165L0 165L0 83L0 83L0 0L0 0Z" fill="#f7783c"></path><path d="M255 0L346 0L346 83L95 83L95 165L118 165L118 248L346 248L346 331L107 331L107 413L347 413L347 496L338 496L338 579L320 579L320 661L382 661L382 744L112 744L112 827L462 827L462 909L393 909L393 992L184 992L184 1075L195 1075L195 1157L438 1157L438 1240L0 1240L0 1157L0 1157L0 1075L0 1075L0 992L0 992L0 909L0 909L0 827L0 827L0 744L0 744L0 661L0 661L0 579L0 579L0 496L0 496L0 413L0 413L0 331L0 331L0 248L0 248L0 165L0 165L0 83L0 83L0 0L0 0Z" fill="#f16b46"></path><path d="M147 0L286 0L286 83L280 83L280 165L345 165L345 248L128 248L128 331L316 331L316 413L105 413L105 496L323 496L323 579L176 579L176 661L271 661L271 744L166 744L166 827L229 827L229 909L215 909L215 992L259 992L259 1075L57 1075L57 1157L309 1157L309 1240L0 1240L0 1157L0 1157L0 1075L0 1075L0 992L0 992L0 909L0 909L0 827L0 827L0 744L0 744L0 661L0 661L0 579L0 579L0 496L0 496L0 413L0 413L0 331L0 331L0 248L0 248L0 165L0 165L0 83L0 83L0 0L0 0Z" fill="#e9604e"></path><path d="M234 0L55 0L55 83L189 83L189 165L129 165L129 248L51 248L51 331L86 331L86 413L24 413L24 496L64 496L64 579L111 579L111 661L17 661L17 744L231 744L231 827L84 827L84 909L161 909L161 992L85 992L85 1075L198 1075L198 1157L86 1157L86 1240L0 1240L0 1157L0 1157L0 1075L0 1075L0 992L0 992L0 909L0 909L0 827L0 827L0 744L0 744L0 661L0 661L0 579L0 579L0 496L0 496L0 413L0 413L0 331L0 331L0 248L0 248L0 165L0 165L0 83L0 83L0 0L0 0Z" fill="#df5656"></path></svg>