<svg id="visual" viewBox="0 0 935 1240" width="935" height="1240" xmlns="http://www.w3.org/2000/svg" xmlns:xlink="http://www.w3.org/1999/xlink" version="1.1"><g stroke-width="7" stroke-linejoin="bevel"><path d="M481.5 611L623.3 610L611.3 453Z" fill="#fca311" stroke="#FFFFFF"></path><path d="M611.3 453L469.5 465L481.5 611Z" fill="#af3e6b" stroke="#FFFFFF"></path><path d="M623.3 610L773.2 606L611.3 453Z" fill="#fc8631" stroke="#FFFFFF"></path><path d="M619.3 290L472.5 306L611.3 453Z" fill="#14213d" stroke="#FFFFFF"></path><path d="M611.3 453L472.5 306L469.5 465Z" fill="#8f396d" stroke="#FFFFFF"></path><path d="M304.7 450L329.7 638L469.5 465Z" fill="#f46c46" stroke="#FFFFFF"></path><path d="M469.5 465L329.7 638L481.5 611Z" fill="#e35756" stroke="#FFFFFF"></path><path d="M481.5 611L635.3 769L623.3 610Z" fill="#8f396d" stroke="#FFFFFF"></path><path d="M623.3 610L635.3 769L773.2 606Z" fill="#e35756" stroke="#FFFFFF"></path><path d="M773.2 606L784.2 455L611.3 453Z" fill="#fc8631" stroke="#FFFFFF"></path><path d="M459.5 775L635.3 769L481.5 611Z" fill="#6d3569" stroke="#FFFFFF"></path><path d="M763.2 295L619.3 290L611.3 453Z" fill="#8f396d" stroke="#FFFFFF"></path><path d="M329.7 638L459.5 775L481.5 611Z" fill="#8f396d" stroke="#FFFFFF"></path><path d="M472.5 306L304.7 450L469.5 465Z" fill="#4b315f" stroke="#FFFFFF"></path><path d="M784.2 455L763.2 295L611.3 453Z" fill="#6d3569" stroke="#FFFFFF"></path><path d="M158.8 611L312.7 760L329.7 638Z" fill="#f46c46" stroke="#FFFFFF"></path><path d="M329.7 638L312.7 760L459.5 775Z" fill="#fc8631" stroke="#FFFFFF"></path><path d="M629.3 936L767.2 789L635.3 769Z" fill="#e35756" stroke="#FFFFFF"></path><path d="M635.3 769L767.2 789L773.2 606Z" fill="#fc8631" stroke="#FFFFFF"></path><path d="M773.2 606L935 450L784.2 455Z" fill="#cc4763" stroke="#FFFFFF"></path><path d="M472.5 306L309.7 296L304.7 450Z" fill="#8f396d" stroke="#FFFFFF"></path><path d="M460.5 174L309.7 296L472.5 306Z" fill="#fc8631" stroke="#FFFFFF"></path><path d="M606.3 160L460.5 174L619.3 290Z" fill="#cc4763" stroke="#FFFFFF"></path><path d="M619.3 290L460.5 174L472.5 306Z" fill="#fc8631" stroke="#FFFFFF"></path><path d="M763.2 295L606.3 160L619.3 290Z" fill="#6d3569" stroke="#FFFFFF"></path><path d="M163.8 323L170.8 448L304.7 450Z" fill="#6d3569" stroke="#FFFFFF"></path><path d="M304.7 450L158.8 611L329.7 638Z" fill="#af3e6b" stroke="#FFFFFF"></path><path d="M935 635L935 450L773.2 606Z" fill="#fca311" stroke="#FFFFFF"></path><path d="M784.2 455L935 303L763.2 295Z" fill="#6d3569" stroke="#FFFFFF"></path><path d="M767.2 789L935 635L773.2 606Z" fill="#6d3569" stroke="#FFFFFF"></path><path d="M299.7 912L475.5 925L459.5 775Z" fill="#4b315f" stroke="#FFFFFF"></path><path d="M459.5 775L475.5 925L635.3 769Z" fill="#af3e6b" stroke="#FFFFFF"></path><path d="M170.8 448L158.8 611L304.7 450Z" fill="#4b315f" stroke="#FFFFFF"></path><path d="M312.7 760L299.7 912L459.5 775Z" fill="#af3e6b" stroke="#FFFFFF"></path><path d="M475.5 925L629.3 936L635.3 769Z" fill="#fca311" stroke="#FFFFFF"></path><path d="M767.2 789L935 768L935 635Z" fill="#fc8631" stroke="#FFFFFF"></path><path d="M309.7 296L163.8 323L304.7 450Z" fill="#2d2a50" stroke="#FFFFFF"></path><path d="M170.8 448L0 473L158.8 611Z" fill="#f46c46" stroke="#FFFFFF"></path><path d="M158.8 162L163.8 323L309.7 296Z" fill="#af3e6b" stroke="#FFFFFF"></path><path d="M460.5 0L306.7 165L460.5 174Z" fill="#af3e6b" stroke="#FFFFFF"></path><path d="M460.5 174L306.7 165L309.7 296Z" fill="#cc4763" stroke="#FFFFFF"></path><path d="M781.2 933L935 768L767.2 789Z" fill="#2d2a50" stroke="#FFFFFF"></path><path d="M935 450L935 303L784.2 455Z" fill="#4b315f" stroke="#FFFFFF"></path><path d="M763.2 295L792.2 149L606.3 160Z" fill="#fc8631" stroke="#FFFFFF"></path><path d="M160.8 793L299.7 912L312.7 760Z" fill="#14213d" stroke="#FFFFFF"></path><path d="M935 303L792.2 149L763.2 295Z" fill="#8f396d" stroke="#FFFFFF"></path><path d="M606.3 160L460.5 0L460.5 174Z" fill="#4b315f" stroke="#FFFFFF"></path><path d="M629.3 936L781.2 933L767.2 789Z" fill="#af3e6b" stroke="#FFFFFF"></path><path d="M158.8 611L160.8 793L312.7 760Z" fill="#f46c46" stroke="#FFFFFF"></path><path d="M292.7 1077L464.5 1069L299.7 912Z" fill="#14213d" stroke="#FFFFFF"></path><path d="M299.7 912L464.5 1069L475.5 925Z" fill="#6d3569" stroke="#FFFFFF"></path><path d="M475.5 925L464.5 1069L629.3 936Z" fill="#cc4763" stroke="#FFFFFF"></path><path d="M629.3 936L634.3 1086L781.2 933Z" fill="#14213d" stroke="#FFFFFF"></path><path d="M935 303L935 155L792.2 149Z" fill="#e35756" stroke="#FFFFFF"></path><path d="M773.2 0L626.3 0L792.2 149Z" fill="#8f396d" stroke="#FFFFFF"></path><path d="M792.2 149L626.3 0L606.3 160Z" fill="#fca311" stroke="#FFFFFF"></path><path d="M306.7 165L158.8 162L309.7 296Z" fill="#f46c46" stroke="#FFFFFF"></path><path d="M163.8 323L0 473L170.8 448Z" fill="#4b315f" stroke="#FFFFFF"></path><path d="M301.7 0L158.8 162L306.7 165Z" fill="#8f396d" stroke="#FFFFFF"></path><path d="M626.3 0L460.5 0L606.3 160Z" fill="#8f396d" stroke="#FFFFFF"></path><path d="M0 293L0 473L163.8 323Z" fill="#fca311" stroke="#FFFFFF"></path><path d="M158.8 611L0 759L160.8 793Z" fill="#4b315f" stroke="#FFFFFF"></path><path d="M464.5 1069L634.3 1086L629.3 936Z" fill="#af3e6b" stroke="#FFFFFF"></path><path d="M0 921L150.8 925L160.8 793Z" fill="#af3e6b" stroke="#FFFFFF"></path><path d="M160.8 793L150.8 925L299.7 912Z" fill="#fca311" stroke="#FFFFFF"></path><path d="M792.2 1082L935 944L781.2 933Z" fill="#f46c46" stroke="#FFFFFF"></path><path d="M781.2 933L935 944L935 768Z" fill="#e35756" stroke="#FFFFFF"></path><path d="M0 473L0 637L158.8 611Z" fill="#8f396d" stroke="#FFFFFF"></path><path d="M935 0L773.2 0L792.2 149Z" fill="#fca311" stroke="#FFFFFF"></path><path d="M460.5 0L301.7 0L306.7 165Z" fill="#f46c46" stroke="#FFFFFF"></path><path d="M0 637L0 759L158.8 611Z" fill="#f46c46" stroke="#FFFFFF"></path><path d="M634.3 1086L792.2 1082L781.2 933Z" fill="#2d2a50" stroke="#FFFFFF"></path><path d="M150.8 925L292.7 1077L299.7 912Z" fill="#af3e6b" stroke="#FFFFFF"></path><path d="M464.5 1069L481.5 1240L634.3 1086Z" fill="#f46c46" stroke="#FFFFFF"></path><path d="M158.8 162L0 293L163.8 323Z" fill="#8f396d" stroke="#FFFFFF"></path><path d="M0 142L0 293L158.8 162Z" fill="#fca311" stroke="#FFFFFF"></path><path d="M935 155L935 0L792.2 149Z" fill="#4b315f" stroke="#FFFFFF"></path><path d="M301.7 0L162.8 0L158.8 162Z" fill="#e35756" stroke="#FFFFFF"></path><path d="M150.8 925L155.8 1077L292.7 1077Z" fill="#8f396d" stroke="#FFFFFF"></path><path d="M305.7 1240L481.5 1240L464.5 1069Z" fill="#fc8631" stroke="#FFFFFF"></path><path d="M0 1081L155.8 1077L150.8 925Z" fill="#2d2a50" stroke="#FFFFFF"></path><path d="M0 759L0 921L160.8 793Z" fill="#fca311" stroke="#FFFFFF"></path><path d="M162.8 0L0 142L158.8 162Z" fill="#fca311" stroke="#FFFFFF"></path><path d="M765.2 1240L792.2 1082L634.3 1086Z" fill="#fca311" stroke="#FFFFFF"></path><path d="M935 1240L935 1103L792.2 1082Z" fill="#cc4763" stroke="#FFFFFF"></path><path d="M792.2 1082L935 1103L935 944Z" fill="#af3e6b" stroke="#FFFFFF"></path><path d="M305.7 1240L464.5 1069L292.7 1077Z" fill="#6d3569" stroke="#FFFFFF"></path><path d="M481.5 1240L624.3 1240L634.3 1086Z" fill="#cc4763" stroke="#FFFFFF"></path><path d="M624.3 1240L765.2 1240L634.3 1086Z" fill="#14213d" stroke="#FFFFFF"></path><path d="M169.8 1240L305.7 1240L292.7 1077Z" fill="#2d2a50" stroke="#FFFFFF"></path><path d="M169.8 1240L292.7 1077L155.8 1077Z" fill="#e35756" stroke="#FFFFFF"></path><path d="M162.8 0L0 0L0 142Z" fill="#f46c46" stroke="#FFFFFF"></path><path d="M0 921L0 1081L150.8 925Z" fill="#4b315f" stroke="#FFFFFF"></path><path d="M0 1240L169.8 1240L155.8 1077Z" fill="#6d3569" stroke="#FFFFFF"></path><path d="M765.2 1240L935 1240L792.2 1082Z" fill="#f46c46" stroke="#FFFFFF"></path><path d="M0 1081L0 1240L155.8 1077Z" fill="#6d3569" stroke="#FFFFFF"></path></g></svg>