<svg id="visual" viewBox="0 0 935 1240" width="935" height="1240" xmlns="http://www.w3.org/2000/svg" xmlns:xlink="http://www.w3.org/1999/xlink" version="1.1"><g stroke-width="1" stroke-linejoin="bevel"><path d="M451.5 643.4L381.1 614L398.1 663.4Z" fill="#6d3569" stroke="#6d3569"></path><path d="M339.6 629L392.6 679.4L398.1 663.4Z" fill="#6d3569" stroke="#6d3569"></path><path d="M398.1 663.4L417.5 714.7L451.5 643.4Z" fill="#e35756" stroke="#e35756"></path><path d="M381.1 614L339.6 629L398.1 663.4Z" fill="#4b315f" stroke="#4b315f"></path><path d="M381.1 614L333.6 610.6L339.6 629Z" fill="#14213d" stroke="#14213d"></path><path d="M364.6 762.7L417.5 714.7L392.6 679.4Z" fill="#cc4763" stroke="#cc4763"></path><path d="M392.6 679.4L417.5 714.7L398.1 663.4Z" fill="#af3e6b" stroke="#af3e6b"></path><path d="M571.4 659L503.5 605.6L451.5 643.4Z" fill="#e35756" stroke="#e35756"></path><path d="M451.5 643.4L438.1 529.6L381.1 614Z" fill="#f46c46" stroke="#f46c46"></path><path d="M381.1 614L324.2 584.6L333.6 610.6Z" fill="#14213d" stroke="#14213d"></path><path d="M365.1 514.3L324.2 584.6L381.1 614Z" fill="#6d3569" stroke="#6d3569"></path><path d="M333.6 610.6L289.2 626.4L339.6 629Z" fill="#fc8631" stroke="#fc8631"></path><path d="M503.5 605.6L438.1 529.6L451.5 643.4Z" fill="#8f396d" stroke="#8f396d"></path><path d="M503.5 605.6L514.5 585L438.1 529.6Z" fill="#fc8631" stroke="#fc8631"></path><path d="M438.1 529.6L365.1 514.3L381.1 614Z" fill="#af3e6b" stroke="#af3e6b"></path><path d="M324.2 584.6L289.2 626.4L333.6 610.6Z" fill="#2d2a50" stroke="#2d2a50"></path><path d="M339.6 629L286.2 665L392.6 679.4Z" fill="#6d3569" stroke="#6d3569"></path><path d="M239.8 518.6L289.2 626.4L324.2 584.6Z" fill="#cc4763" stroke="#cc4763"></path><path d="M289.2 626.4L286.2 665L339.6 629Z" fill="#af3e6b" stroke="#af3e6b"></path><path d="M514.5 585L484.5 513.3L438.1 529.6Z" fill="#fc8631" stroke="#fc8631"></path><path d="M438.1 529.6L400.1 478.9L365.1 514.3Z" fill="#fca311" stroke="#fca311"></path><path d="M324.6 767.1L364.6 762.7L392.6 679.4Z" fill="#2d2a50" stroke="#2d2a50"></path><path d="M503.5 605.6L549.9 575L514.5 585Z" fill="#fca311" stroke="#fca311"></path><path d="M514.5 585L558.9 551.6L484.5 513.3Z" fill="#6d3569" stroke="#6d3569"></path><path d="M571.4 659L549.9 575L503.5 605.6Z" fill="#f46c46" stroke="#f46c46"></path><path d="M532.9 499.9L486.9 500.3L484.5 513.3Z" fill="#14213d" stroke="#14213d"></path><path d="M484.5 513.3L486.9 500.3L438.1 529.6Z" fill="#8f396d" stroke="#8f396d"></path><path d="M486.9 500.3L400.1 478.9L438.1 529.6Z" fill="#4b315f" stroke="#4b315f"></path><path d="M324.6 767.1L372.1 776.7L364.6 762.7Z" fill="#f46c46" stroke="#f46c46"></path><path d="M364.6 762.7L372.1 776.7L417.5 714.7Z" fill="#6d3569" stroke="#6d3569"></path><path d="M572.9 709.4L571.4 659L451.5 643.4Z" fill="#14213d" stroke="#14213d"></path><path d="M524.9 755.7L451.5 643.4L417.5 714.7Z" fill="#af3e6b" stroke="#af3e6b"></path><path d="M596.4 594.6L558.9 551.6L549.9 575Z" fill="#4b315f" stroke="#4b315f"></path><path d="M549.9 575L558.9 551.6L514.5 585Z" fill="#2d2a50" stroke="#2d2a50"></path><path d="M286.2 665L324.6 767.1L392.6 679.4Z" fill="#fca311" stroke="#fca311"></path><path d="M426.5 799.5L524.9 755.7L417.5 714.7Z" fill="#fca311" stroke="#fca311"></path><path d="M363.1 806.5L399.6 797.5L372.1 776.7Z" fill="#14213d" stroke="#14213d"></path><path d="M372.1 776.7L399.6 797.5L417.5 714.7Z" fill="#2d2a50" stroke="#2d2a50"></path><path d="M399.6 797.5L426.5 799.5L417.5 714.7Z" fill="#f46c46" stroke="#f46c46"></path><path d="M558.9 551.6L532.9 499.9L484.5 513.3Z" fill="#af3e6b" stroke="#af3e6b"></path><path d="M486.9 500.3L500.5 440.9L400.1 478.9Z" fill="#4b315f" stroke="#4b315f"></path><path d="M524.9 755.7L572.9 709.4L451.5 643.4Z" fill="#2d2a50" stroke="#2d2a50"></path><path d="M321.2 474.3L313.6 483.3L365.1 514.3Z" fill="#fc8631" stroke="#fc8631"></path><path d="M365.1 514.3L313.6 483.3L324.2 584.6Z" fill="#e35756" stroke="#e35756"></path><path d="M399.6 797.5L418.5 810.1L426.5 799.5Z" fill="#f46c46" stroke="#f46c46"></path><path d="M426.5 799.5L518.9 816.1L524.9 755.7Z" fill="#14213d" stroke="#14213d"></path><path d="M402.1 815.1L418.5 810.1L399.6 797.5Z" fill="#14213d" stroke="#14213d"></path><path d="M400.1 478.9L321.2 474.3L365.1 514.3Z" fill="#cc4763" stroke="#cc4763"></path><path d="M623.4 650.4L596.4 594.6L571.4 659Z" fill="#cc4763" stroke="#cc4763"></path><path d="M571.4 659L596.4 594.6L549.9 575Z" fill="#e35756" stroke="#e35756"></path><path d="M558.9 551.6L603.8 473.3L532.9 499.9Z" fill="#af3e6b" stroke="#af3e6b"></path><path d="M324.6 767.1L363.1 806.5L372.1 776.7Z" fill="#cc4763" stroke="#cc4763"></path><path d="M363.1 806.5L402.1 815.1L399.6 797.5Z" fill="#e35756" stroke="#e35756"></path><path d="M304.6 425.9L282.2 492.9L313.6 483.3Z" fill="#6d3569" stroke="#6d3569"></path><path d="M313.6 483.3L282.2 492.9L324.2 584.6Z" fill="#f46c46" stroke="#f46c46"></path><path d="M214.8 663L244.2 723.7L286.2 665Z" fill="#14213d" stroke="#14213d"></path><path d="M214.8 663L286.2 665L289.2 626.4Z" fill="#fc8631" stroke="#fc8631"></path><path d="M286.2 665L244.2 723.7L324.6 767.1Z" fill="#8f396d" stroke="#8f396d"></path><path d="M324.6 767.1L332.2 825.1L363.1 806.5Z" fill="#cc4763" stroke="#cc4763"></path><path d="M199.3 637L214.8 663L289.2 626.4Z" fill="#8f396d" stroke="#8f396d"></path><path d="M578.4 446.9L500.5 440.9L532.9 499.9Z" fill="#af3e6b" stroke="#af3e6b"></path><path d="M532.9 499.9L500.5 440.9L486.9 500.3Z" fill="#2d2a50" stroke="#2d2a50"></path><path d="M329.6 402.5L304.6 425.9L321.2 474.3Z" fill="#2d2a50" stroke="#2d2a50"></path><path d="M282.2 492.9L239.8 518.6L324.2 584.6Z" fill="#14213d" stroke="#14213d"></path><path d="M572.9 709.4L623.4 650.4L571.4 659Z" fill="#cc4763" stroke="#cc4763"></path><path d="M214.8 663L224.8 718.4L244.2 723.7Z" fill="#e35756" stroke="#e35756"></path><path d="M198.3 797.1L332.2 825.1L324.6 767.1Z" fill="#4b315f" stroke="#4b315f"></path><path d="M212.3 520.6L232.8 522.3L239.8 518.6Z" fill="#f46c46" stroke="#f46c46"></path><path d="M239.8 518.6L232.8 522.3L289.2 626.4Z" fill="#e35756" stroke="#e35756"></path><path d="M198.3 797.1L324.6 767.1L244.2 723.7Z" fill="#2d2a50" stroke="#2d2a50"></path><path d="M363.1 806.5L337.2 845.5L402.1 815.1Z" fill="#e35756" stroke="#e35756"></path><path d="M566.9 849.5L518.9 816.1L510.9 923.2Z" fill="#4b315f" stroke="#4b315f"></path><path d="M418.5 810.1L518.9 816.1L426.5 799.5Z" fill="#14213d" stroke="#14213d"></path><path d="M524.9 755.7L577.4 773.7L572.9 709.4Z" fill="#fc8631" stroke="#fc8631"></path><path d="M572.9 709.4L635.8 658.4L623.4 650.4Z" fill="#6d3569" stroke="#6d3569"></path><path d="M518.9 816.1L418.5 810.1L492.9 930.8Z" fill="#cc4763" stroke="#cc4763"></path><path d="M550.4 804.1L577.4 773.7L524.9 755.7Z" fill="#4b315f" stroke="#4b315f"></path><path d="M232.8 522.3L199.3 637L289.2 626.4Z" fill="#14213d" stroke="#14213d"></path><path d="M185.3 733.7L213.8 740.1L224.8 718.4Z" fill="#fca311" stroke="#fca311"></path><path d="M623.4 650.4L632.8 605.6L596.4 594.6Z" fill="#8f396d" stroke="#8f396d"></path><path d="M632.4 504.3L603.8 473.3L558.9 551.6Z" fill="#fca311" stroke="#fca311"></path><path d="M518.9 816.1L550.4 804.1L524.9 755.7Z" fill="#f46c46" stroke="#f46c46"></path><path d="M671.8 744.7L635.8 658.4L572.9 709.4Z" fill="#cc4763" stroke="#cc4763"></path><path d="M623.4 650.4L659.8 624L632.8 605.6Z" fill="#14213d" stroke="#14213d"></path><path d="M500.5 440.9L425.1 400.5L400.1 478.9Z" fill="#af3e6b" stroke="#af3e6b"></path><path d="M321.2 474.3L304.6 425.9L313.6 483.3Z" fill="#4b315f" stroke="#4b315f"></path><path d="M204.8 454.9L212.3 520.6L239.8 518.6Z" fill="#2d2a50" stroke="#2d2a50"></path><path d="M271.8 895.8L337.2 845.5L332.2 825.1Z" fill="#f46c46" stroke="#f46c46"></path><path d="M332.2 825.1L337.2 845.5L363.1 806.5Z" fill="#f46c46" stroke="#f46c46"></path><path d="M185.3 733.7L224.8 718.4L214.8 663Z" fill="#8f396d" stroke="#8f396d"></path><path d="M224.8 718.4L213.8 740.1L244.2 723.7Z" fill="#8f396d" stroke="#8f396d"></path><path d="M204.8 454.9L239.8 518.6L282.2 492.9Z" fill="#8f396d" stroke="#8f396d"></path><path d="M232.8 522.3L191.3 529.3L199.3 637Z" fill="#6d3569" stroke="#6d3569"></path><path d="M329.6 402.5L321.2 474.3L400.1 478.9Z" fill="#fc8631" stroke="#fc8631"></path><path d="M500.5 440.9L455.5 391.5L425.1 400.5Z" fill="#e35756" stroke="#e35756"></path><path d="M425.1 400.5L329.6 402.5L400.1 478.9Z" fill="#2d2a50" stroke="#2d2a50"></path><path d="M340.6 343.2L329.6 402.5L425.1 400.5Z" fill="#6d3569" stroke="#6d3569"></path><path d="M635.8 658.4L659.8 624L623.4 650.4Z" fill="#8f396d" stroke="#8f396d"></path><path d="M632.4 504.3L558.9 551.6L596.4 594.6Z" fill="#4b315f" stroke="#4b315f"></path><path d="M671.3 656.4L659.8 624L635.8 658.4Z" fill="#8f396d" stroke="#8f396d"></path><path d="M632.4 504.3L596.4 594.6L632.8 605.6Z" fill="#af3e6b" stroke="#af3e6b"></path><path d="M500.5 440.9L495.5 366.2L455.5 391.5Z" fill="#fca311" stroke="#fca311"></path><path d="M603.8 473.3L578.4 446.9L532.9 499.9Z" fill="#8f396d" stroke="#8f396d"></path><path d="M150.9 483.9L191.3 529.3L212.3 520.6Z" fill="#af3e6b" stroke="#af3e6b"></path><path d="M212.3 520.6L191.3 529.3L232.8 522.3Z" fill="#f46c46" stroke="#f46c46"></path><path d="M204.8 454.9L282.2 492.9L304.6 425.9Z" fill="#8f396d" stroke="#8f396d"></path><path d="M191.3 529.3L165.9 634.4L199.3 637Z" fill="#af3e6b" stroke="#af3e6b"></path><path d="M199.3 637L165.9 634.4L214.8 663Z" fill="#af3e6b" stroke="#af3e6b"></path><path d="M694.3 606.6L632.4 504.3L632.8 605.6Z" fill="#e35756" stroke="#e35756"></path><path d="M128.3 707.4L185.3 733.7L214.8 663Z" fill="#cc4763" stroke="#cc4763"></path><path d="M213.8 740.1L198.3 797.1L244.2 723.7Z" fill="#fca311" stroke="#fca311"></path><path d="M185.3 733.7L186.8 740.7L213.8 740.1Z" fill="#8f396d" stroke="#8f396d"></path><path d="M632.4 504.3L601.8 452.9L603.8 473.3Z" fill="#6d3569" stroke="#6d3569"></path><path d="M603.8 473.3L601.8 452.9L578.4 446.9Z" fill="#f46c46" stroke="#f46c46"></path><path d="M505.9 361.5L495.5 366.2L500.5 440.9Z" fill="#2d2a50" stroke="#2d2a50"></path><path d="M671.8 744.7L671.3 656.4L635.8 658.4Z" fill="#fca311" stroke="#fca311"></path><path d="M659.8 624L694.3 606.6L632.8 605.6Z" fill="#2d2a50" stroke="#2d2a50"></path><path d="M550.4 804.1L630.4 835.5L577.4 773.7Z" fill="#f46c46" stroke="#f46c46"></path><path d="M577.4 773.7L671.8 744.7L572.9 709.4Z" fill="#e35756" stroke="#e35756"></path><path d="M518.9 816.1L566.9 849.5L550.4 804.1Z" fill="#e35756" stroke="#e35756"></path><path d="M372.1 892.8L418.5 810.1L402.1 815.1Z" fill="#fc8631" stroke="#fc8631"></path><path d="M311.2 937.8L372.1 892.8L337.2 845.5Z" fill="#cc4763" stroke="#cc4763"></path><path d="M337.2 845.5L372.1 892.8L402.1 815.1Z" fill="#14213d" stroke="#14213d"></path><path d="M248.8 351.5L204.8 454.9L304.6 425.9Z" fill="#f46c46" stroke="#f46c46"></path><path d="M88.4 699.7L128.3 707.4L165.9 634.4Z" fill="#e35756" stroke="#e35756"></path><path d="M158.9 797.5L198.3 797.1L186.8 740.7Z" fill="#8f396d" stroke="#8f396d"></path><path d="M186.8 740.7L198.3 797.1L213.8 740.1Z" fill="#2d2a50" stroke="#2d2a50"></path><path d="M505.9 361.5L500.5 440.9L570.4 392.5Z" fill="#af3e6b" stroke="#af3e6b"></path><path d="M455.5 391.5L449.1 346.2L425.1 400.5Z" fill="#e35756" stroke="#e35756"></path><path d="M671.3 656.4L692.3 611L659.8 624Z" fill="#4b315f" stroke="#4b315f"></path><path d="M692.3 611L694.3 606.6L659.8 624Z" fill="#6d3569" stroke="#6d3569"></path><path d="M573.9 345.2L570.4 392.5L607.8 347.2Z" fill="#8f396d" stroke="#8f396d"></path><path d="M630.4 835.5L671.8 744.7L577.4 773.7Z" fill="#4b315f" stroke="#4b315f"></path><path d="M671.3 656.4L736.7 651L692.3 611Z" fill="#af3e6b" stroke="#af3e6b"></path><path d="M692.3 611L736.7 651L694.3 606.6Z" fill="#8f396d" stroke="#8f396d"></path><path d="M570.4 392.5L500.5 440.9L578.4 446.9Z" fill="#fca311" stroke="#fca311"></path><path d="M495.5 366.2L449.1 346.2L455.5 391.5Z" fill="#14213d" stroke="#14213d"></path><path d="M601.8 452.9L570.4 392.5L578.4 446.9Z" fill="#fc8631" stroke="#fc8631"></path><path d="M638.8 387.5L601.8 452.9L725.3 472.9Z" fill="#4b315f" stroke="#4b315f"></path><path d="M480.5 301.8L449.1 346.2L495.5 366.2Z" fill="#14213d" stroke="#14213d"></path><path d="M329.6 402.5L300.2 368.5L304.6 425.9Z" fill="#4b315f" stroke="#4b315f"></path><path d="M340.6 343.2L300.2 368.5L329.6 402.5Z" fill="#6d3569" stroke="#6d3569"></path><path d="M449.1 346.2L340.6 343.2L425.1 400.5Z" fill="#8f396d" stroke="#8f396d"></path><path d="M644.8 864.5L630.4 835.5L566.9 849.5Z" fill="#f46c46" stroke="#f46c46"></path><path d="M566.9 849.5L630.4 835.5L550.4 804.1Z" fill="#fc8631" stroke="#fc8631"></path><path d="M165.9 634.4L128.3 707.4L214.8 663Z" fill="#f46c46" stroke="#f46c46"></path><path d="M185.3 733.7L125.9 773.7L186.8 740.7Z" fill="#2d2a50" stroke="#2d2a50"></path><path d="M92.4 571L165.9 634.4L191.3 529.3Z" fill="#8f396d" stroke="#8f396d"></path><path d="M135.3 481.9L150.9 483.9L204.8 454.9Z" fill="#4b315f" stroke="#4b315f"></path><path d="M204.8 454.9L150.9 483.9L212.3 520.6Z" fill="#8f396d" stroke="#8f396d"></path><path d="M235.8 888.5L332.2 825.1L198.3 797.1Z" fill="#14213d" stroke="#14213d"></path><path d="M235.8 888.5L271.8 895.8L332.2 825.1Z" fill="#fca311" stroke="#fca311"></path><path d="M442.1 934.2L418.5 810.1L372.1 892.8Z" fill="#14213d" stroke="#14213d"></path><path d="M442.1 934.2L444.5 933.8L418.5 810.1Z" fill="#8f396d" stroke="#8f396d"></path><path d="M390.6 937.8L442.1 934.2L372.1 892.8Z" fill="#2d2a50" stroke="#2d2a50"></path><path d="M125.9 773.7L158.9 797.5L186.8 740.7Z" fill="#6d3569" stroke="#6d3569"></path><path d="M135.3 481.9L140.9 490.3L150.9 483.9Z" fill="#6d3569" stroke="#6d3569"></path><path d="M150.9 483.9L140.9 490.3L191.3 529.3Z" fill="#f46c46" stroke="#f46c46"></path><path d="M492.9 930.8L510.9 923.2L518.9 816.1Z" fill="#e35756" stroke="#e35756"></path><path d="M335.6 950.2L390.6 937.8L372.1 892.8Z" fill="#4b315f" stroke="#4b315f"></path><path d="M444.5 933.8L492.9 930.8L418.5 810.1Z" fill="#f46c46" stroke="#f46c46"></path><path d="M483.5 978.5L492.9 930.8L444.5 933.8Z" fill="#6d3569" stroke="#6d3569"></path><path d="M483.5 978.5L444.5 933.8L442.1 934.2Z" fill="#8f396d" stroke="#8f396d"></path><path d="M148.3 871.8L235.8 888.5L198.3 797.1Z" fill="#6d3569" stroke="#6d3569"></path><path d="M271.8 895.8L311.2 937.8L337.2 845.5Z" fill="#fca311" stroke="#fca311"></path><path d="M86.4 469.3L135.3 481.9L78.4 431.5Z" fill="#f46c46" stroke="#f46c46"></path><path d="M95.9 543.6L92.4 571L191.3 529.3Z" fill="#8f396d" stroke="#8f396d"></path><path d="M733.3 715.7L671.3 656.4L671.8 744.7Z" fill="#af3e6b" stroke="#af3e6b"></path><path d="M733.3 715.7L736.7 651L671.3 656.4Z" fill="#e35756" stroke="#e35756"></path><path d="M694.3 606.6L729.3 547.3L632.4 504.3Z" fill="#4b315f" stroke="#4b315f"></path><path d="M128.3 707.4L125.9 773.7L185.3 733.7Z" fill="#fc8631" stroke="#fc8631"></path><path d="M158.9 797.5L138.3 844.5L198.3 797.1Z" fill="#af3e6b" stroke="#af3e6b"></path><path d="M88.4 699.7L125.9 773.7L128.3 707.4Z" fill="#6d3569" stroke="#6d3569"></path><path d="M758.7 631.4L729.3 547.3L694.3 606.6Z" fill="#fca311" stroke="#fca311"></path><path d="M277.2 290.2L248.8 351.5L300.2 368.5Z" fill="#af3e6b" stroke="#af3e6b"></path><path d="M300.2 368.5L248.8 351.5L304.6 425.9Z" fill="#14213d" stroke="#14213d"></path><path d="M570.4 392.5L573.9 345.2L505.9 361.5Z" fill="#6d3569" stroke="#6d3569"></path><path d="M505.9 361.5L480.5 301.8L495.5 366.2Z" fill="#fca311" stroke="#fca311"></path><path d="M449.1 346.2L438.1 291.8L340.6 343.2Z" fill="#fca311" stroke="#fca311"></path><path d="M638.8 387.5L570.4 392.5L601.8 452.9Z" fill="#fca311" stroke="#fca311"></path><path d="M264.8 974.2L311.2 937.8L271.8 895.8Z" fill="#cc4763" stroke="#cc4763"></path><path d="M644.8 864.5L689.8 808.1L630.4 835.5Z" fill="#14213d" stroke="#14213d"></path><path d="M630.4 835.5L689.8 808.1L671.8 744.7Z" fill="#14213d" stroke="#14213d"></path><path d="M634.8 905.8L644.8 864.5L566.9 849.5Z" fill="#2d2a50" stroke="#2d2a50"></path><path d="M95.9 543.6L191.3 529.3L140.9 490.3Z" fill="#fca311" stroke="#fca311"></path><path d="M717.7 760.7L733.3 715.7L671.8 744.7Z" fill="#af3e6b" stroke="#af3e6b"></path><path d="M689.8 808.1L717.7 760.7L671.8 744.7Z" fill="#af3e6b" stroke="#af3e6b"></path><path d="M725.3 472.9L601.8 452.9L632.4 504.3Z" fill="#4b315f" stroke="#4b315f"></path><path d="M311.2 937.8L335.6 950.2L372.1 892.8Z" fill="#af3e6b" stroke="#af3e6b"></path><path d="M439.1 1027.5L483.5 978.5L442.1 934.2Z" fill="#e35756" stroke="#e35756"></path><path d="M135.3 481.9L95.9 543.6L140.9 490.3Z" fill="#af3e6b" stroke="#af3e6b"></path><path d="M573.9 345.2L480.5 301.8L505.9 361.5Z" fill="#fc8631" stroke="#fc8631"></path><path d="M340.6 343.2L312.2 286.8L300.2 368.5Z" fill="#6d3569" stroke="#6d3569"></path><path d="M74.9 613L88.4 699.7L165.9 634.4Z" fill="#8f396d" stroke="#8f396d"></path><path d="M638.8 387.5L622.4 362.2L570.4 392.5Z" fill="#8f396d" stroke="#8f396d"></path><path d="M573.9 345.2L569.9 244.8L480.5 301.8Z" fill="#f46c46" stroke="#f46c46"></path><path d="M480.5 301.8L438.1 291.8L449.1 346.2Z" fill="#cc4763" stroke="#cc4763"></path><path d="M51.4 638.4L74.9 613L48.4 564.6Z" fill="#cc4763" stroke="#cc4763"></path><path d="M92.4 571L74.9 613L165.9 634.4Z" fill="#fca311" stroke="#fca311"></path><path d="M622.4 362.2L607.8 347.2L570.4 392.5Z" fill="#af3e6b" stroke="#af3e6b"></path><path d="M801.1 729.7L758.7 631.4L736.7 651Z" fill="#14213d" stroke="#14213d"></path><path d="M736.7 651L758.7 631.4L694.3 606.6Z" fill="#6d3569" stroke="#6d3569"></path><path d="M88.4 699.7L110.9 791.1L125.9 773.7Z" fill="#14213d" stroke="#14213d"></path><path d="M125.9 773.7L110.9 791.1L158.9 797.5Z" fill="#f46c46" stroke="#f46c46"></path><path d="M745.7 498.9L725.3 472.9L729.3 547.3Z" fill="#fca311" stroke="#fca311"></path><path d="M729.3 547.3L725.3 472.9L632.4 504.3Z" fill="#cc4763" stroke="#cc4763"></path><path d="M688.8 272.8L623.4 280.8L622.4 362.2Z" fill="#6d3569" stroke="#6d3569"></path><path d="M579.4 960.2L600.8 923.2L510.9 923.2Z" fill="#cc4763" stroke="#cc4763"></path><path d="M510.9 923.2L600.8 923.2L566.9 849.5Z" fill="#fca311" stroke="#fca311"></path><path d="M748.3 827.1L746.3 797.5L689.8 808.1Z" fill="#14213d" stroke="#14213d"></path><path d="M483.5 978.5L510.9 923.2L492.9 930.8Z" fill="#8f396d" stroke="#8f396d"></path><path d="M831.1 546.6L749.7 521.6L729.3 547.3Z" fill="#e35756" stroke="#e35756"></path><path d="M110.9 791.1L138.3 844.5L158.9 797.5Z" fill="#2d2a50" stroke="#2d2a50"></path><path d="M235.8 888.5L208.3 924.2L271.8 895.8Z" fill="#cc4763" stroke="#cc4763"></path><path d="M600.8 923.2L634.8 905.8L566.9 849.5Z" fill="#2d2a50" stroke="#2d2a50"></path><path d="M689.8 808.1L746.3 797.5L717.7 760.7Z" fill="#2d2a50" stroke="#2d2a50"></path><path d="M749.7 521.6L745.7 498.9L729.3 547.3Z" fill="#af3e6b" stroke="#af3e6b"></path><path d="M493.5 1001.2L483.5 978.5L439.1 1027.5Z" fill="#f46c46" stroke="#f46c46"></path><path d="M321.6 275.8L312.2 286.8L340.6 343.2Z" fill="#6d3569" stroke="#6d3569"></path><path d="M600.8 923.2L616.4 928.8L634.8 905.8Z" fill="#14213d" stroke="#14213d"></path><path d="M579.4 960.2L616.4 928.8L600.8 923.2Z" fill="#8f396d" stroke="#8f396d"></path><path d="M148.3 871.8L208.3 924.2L235.8 888.5Z" fill="#e35756" stroke="#e35756"></path><path d="M311.2 937.8L310.2 992.2L335.6 950.2Z" fill="#2d2a50" stroke="#2d2a50"></path><path d="M130.9 910.8L148.3 871.8L138.3 844.5Z" fill="#fc8631" stroke="#fc8631"></path><path d="M138.3 844.5L148.3 871.8L198.3 797.1Z" fill="#f46c46" stroke="#f46c46"></path><path d="M74.9 613L51.4 638.4L88.4 699.7Z" fill="#af3e6b" stroke="#af3e6b"></path><path d="M88.4 699.7L79.4 810.1L110.9 791.1Z" fill="#8f396d" stroke="#8f396d"></path><path d="M48.4 564.6L74.9 613L92.4 571Z" fill="#6d3569" stroke="#6d3569"></path><path d="M438.1 291.8L321.6 275.8L340.6 343.2Z" fill="#4b315f" stroke="#4b315f"></path><path d="M312.2 286.8L277.2 290.2L300.2 368.5Z" fill="#fc8631" stroke="#fc8631"></path><path d="M135.3 481.9L86.4 469.3L95.9 543.6Z" fill="#2d2a50" stroke="#2d2a50"></path><path d="M95.9 543.6L48.4 564.6L92.4 571Z" fill="#8f396d" stroke="#8f396d"></path><path d="M108.9 369.5L135.3 481.9L204.8 454.9Z" fill="#8f396d" stroke="#8f396d"></path><path d="M159.3 345.5L204.8 454.9L248.8 351.5Z" fill="#4b315f" stroke="#4b315f"></path><path d="M274.8 242.5L277.2 290.2L312.2 286.8Z" fill="#14213d" stroke="#14213d"></path><path d="M483.5 978.5L579.4 960.2L510.9 923.2Z" fill="#14213d" stroke="#14213d"></path><path d="M717.7 760.7L775.7 757.1L733.3 715.7Z" fill="#cc4763" stroke="#cc4763"></path><path d="M733.3 715.7L801.1 729.7L736.7 651Z" fill="#e35756" stroke="#e35756"></path><path d="M748.3 827.1L689.8 808.1L734.3 908.2Z" fill="#6d3569" stroke="#6d3569"></path><path d="M689.8 808.1L644.8 864.5L734.3 908.2Z" fill="#4b315f" stroke="#4b315f"></path><path d="M86.4 469.3L48.4 564.6L95.9 543.6Z" fill="#2d2a50" stroke="#2d2a50"></path><path d="M208.3 924.2L264.8 974.2L271.8 895.8Z" fill="#8f396d" stroke="#8f396d"></path><path d="M349.6 1036.5L439.1 1027.5L390.6 937.8Z" fill="#fc8631" stroke="#fc8631"></path><path d="M241.8 984.5L264.8 974.2L208.3 924.2Z" fill="#6d3569" stroke="#6d3569"></path><path d="M264.8 974.2L310.2 992.2L311.2 937.8Z" fill="#2d2a50" stroke="#2d2a50"></path><path d="M439.1 1027.5L442.1 934.2L390.6 937.8Z" fill="#2d2a50" stroke="#2d2a50"></path><path d="M483.5 978.5L493.5 1001.2L579.4 960.2Z" fill="#2d2a50" stroke="#2d2a50"></path><path d="M746.3 797.5L775.7 757.1L717.7 760.7Z" fill="#e35756" stroke="#e35756"></path><path d="M831.1 546.6L788.7 505.3L749.7 521.6Z" fill="#cc4763" stroke="#cc4763"></path><path d="M0 757.7L79.4 810.1L88.4 699.7Z" fill="#af3e6b" stroke="#af3e6b"></path><path d="M110.9 791.1L79.4 810.1L138.3 844.5Z" fill="#e35756" stroke="#e35756"></path><path d="M197.8 300.2L159.3 345.5L248.8 351.5Z" fill="#14213d" stroke="#14213d"></path><path d="M772.7 832.5L748.3 827.1L734.3 908.2Z" fill="#fc8631" stroke="#fc8631"></path><path d="M746.3 797.5L772.7 832.5L775.7 757.1Z" fill="#f46c46" stroke="#f46c46"></path><path d="M644.8 864.5L634.8 905.8L734.3 908.2Z" fill="#4b315f" stroke="#4b315f"></path><path d="M108.9 369.5L78.4 431.5L135.3 481.9Z" fill="#f46c46" stroke="#f46c46"></path><path d="M0 530.3L0 539.6L48.4 564.6Z" fill="#f46c46" stroke="#f46c46"></path><path d="M833.6 596L729.3 547.3L758.7 631.4Z" fill="#cc4763" stroke="#cc4763"></path><path d="M749.7 521.6L788.7 505.3L745.7 498.9Z" fill="#6d3569" stroke="#6d3569"></path><path d="M745.7 498.9L812.1 486.9L725.3 472.9Z" fill="#2d2a50" stroke="#2d2a50"></path><path d="M688.8 272.8L622.4 362.2L743.3 312.2Z" fill="#fca311" stroke="#fca311"></path><path d="M622.4 362.2L623.4 280.8L607.8 347.2Z" fill="#fca311" stroke="#fca311"></path><path d="M214.3 267.8L197.8 300.2L277.2 290.2Z" fill="#6d3569" stroke="#6d3569"></path><path d="M277.2 290.2L197.8 300.2L248.8 351.5Z" fill="#e35756" stroke="#e35756"></path><path d="M159.3 345.5L108.9 369.5L204.8 454.9Z" fill="#fc8631" stroke="#fc8631"></path><path d="M264.8 974.2L285.2 1015.5L310.2 992.2Z" fill="#6d3569" stroke="#6d3569"></path><path d="M179.3 989.5L241.8 984.5L208.3 924.2Z" fill="#6d3569" stroke="#6d3569"></path><path d="M130.9 910.8L208.3 924.2L148.3 871.8Z" fill="#e35756" stroke="#e35756"></path><path d="M834.1 801.1L801.1 729.7L775.7 757.1Z" fill="#cc4763" stroke="#cc4763"></path><path d="M775.7 757.1L801.1 729.7L733.3 715.7Z" fill="#fca311" stroke="#fca311"></path><path d="M349.6 1036.5L390.6 937.8L335.6 950.2Z" fill="#fca311" stroke="#fca311"></path><path d="M493.5 1001.2L519.9 1023.5L579.4 960.2Z" fill="#e35756" stroke="#e35756"></path><path d="M349.6 1036.5L335.6 950.2L310.2 992.2Z" fill="#6d3569" stroke="#6d3569"></path><path d="M79.4 810.1L130.9 910.8L138.3 844.5Z" fill="#8f396d" stroke="#8f396d"></path><path d="M127.9 296.2L108.9 369.5L159.3 345.5Z" fill="#14213d" stroke="#14213d"></path><path d="M746.3 382.5L638.8 387.5L725.3 472.9Z" fill="#6d3569" stroke="#6d3569"></path><path d="M607.8 347.2L623.4 280.8L573.9 345.2Z" fill="#fca311" stroke="#fca311"></path><path d="M418.5 195.5L399.6 206.5L438.1 291.8Z" fill="#af3e6b" stroke="#af3e6b"></path><path d="M309.2 194.5L274.8 242.5L321.6 275.8Z" fill="#6d3569" stroke="#6d3569"></path><path d="M493.5 1070.9L519.9 1023.5L493.5 1001.2Z" fill="#8f396d" stroke="#8f396d"></path><path d="M735.7 931.8L634.8 905.8L652.8 1003.5Z" fill="#2d2a50" stroke="#2d2a50"></path><path d="M278.8 1090.9L285.2 1015.5L241.8 984.5Z" fill="#fca311" stroke="#fca311"></path><path d="M241.8 984.5L285.2 1015.5L264.8 974.2Z" fill="#8f396d" stroke="#8f396d"></path><path d="M734.3 908.2L634.8 905.8L735.7 931.8Z" fill="#14213d" stroke="#14213d"></path><path d="M748.3 827.1L772.7 832.5L746.3 797.5Z" fill="#e35756" stroke="#e35756"></path><path d="M197.8 300.2L169.3 301.2L159.3 345.5Z" fill="#af3e6b" stroke="#af3e6b"></path><path d="M214.3 267.8L169.3 301.2L197.8 300.2Z" fill="#6d3569" stroke="#6d3569"></path><path d="M399.6 206.5L321.6 275.8L438.1 291.8Z" fill="#6d3569" stroke="#6d3569"></path><path d="M321.6 275.8L274.8 242.5L312.2 286.8Z" fill="#14213d" stroke="#14213d"></path><path d="M285.2 1015.5L349.6 1036.5L310.2 992.2Z" fill="#14213d" stroke="#14213d"></path><path d="M493.5 1070.9L554.4 1053.5L519.9 1023.5Z" fill="#6d3569" stroke="#6d3569"></path><path d="M809.1 397.5L746.3 382.5L725.3 472.9Z" fill="#8f396d" stroke="#8f396d"></path><path d="M274.8 242.5L214.3 267.8L277.2 290.2Z" fill="#f46c46" stroke="#f46c46"></path><path d="M623.4 280.8L569.9 244.8L573.9 345.2Z" fill="#fc8631" stroke="#fc8631"></path><path d="M0 539.6L0 622L48.4 564.6Z" fill="#fca311" stroke="#fca311"></path><path d="M48.4 564.6L0 622L51.4 638.4Z" fill="#f46c46" stroke="#f46c46"></path><path d="M51.4 638.4L0 678.4L88.4 699.7Z" fill="#4b315f" stroke="#4b315f"></path><path d="M0 622L0 678.4L51.4 638.4Z" fill="#cc4763" stroke="#cc4763"></path><path d="M70.4 935.2L126.9 958.2L130.9 910.8Z" fill="#fc8631" stroke="#fc8631"></path><path d="M847.1 661L833.6 596L758.7 631.4Z" fill="#e35756" stroke="#e35756"></path><path d="M788.7 505.3L812.1 486.9L745.7 498.9Z" fill="#f46c46" stroke="#f46c46"></path><path d="M831.1 546.6L812.1 486.9L788.7 505.3Z" fill="#4b315f" stroke="#4b315f"></path><path d="M634.8 905.8L616.4 928.8L652.8 1003.5Z" fill="#cc4763" stroke="#cc4763"></path><path d="M833.6 596L831.1 546.6L729.3 547.3Z" fill="#8f396d" stroke="#8f396d"></path><path d="M418.5 195.5L438.1 291.8L440.1 180.5Z" fill="#f46c46" stroke="#f46c46"></path><path d="M0 530.3L48.4 564.6L0 493.9Z" fill="#8f396d" stroke="#8f396d"></path><path d="M48.4 564.6L86.4 469.3L0 493.9Z" fill="#fca311" stroke="#fca311"></path><path d="M833.6 596L835.6 553.6L831.1 546.6Z" fill="#4b315f" stroke="#4b315f"></path><path d="M894.6 499.3L852.1 457.3L812.1 486.9Z" fill="#14213d" stroke="#14213d"></path><path d="M0 493.9L86.4 469.3L78.4 431.5Z" fill="#2d2a50" stroke="#2d2a50"></path><path d="M126.9 958.2L179.3 989.5L208.3 924.2Z" fill="#2d2a50" stroke="#2d2a50"></path><path d="M356.6 1124.3L421.1 1092.9L349.6 1036.5Z" fill="#af3e6b" stroke="#af3e6b"></path><path d="M858.6 709.7L845.1 680.4L801.1 729.7Z" fill="#e35756" stroke="#e35756"></path><path d="M801.1 729.7L845.1 680.4L758.7 631.4Z" fill="#e35756" stroke="#e35756"></path><path d="M935 543.3L894.6 499.3L835.6 553.6Z" fill="#cc4763" stroke="#cc4763"></path><path d="M845.1 680.4L847.1 661L758.7 631.4Z" fill="#af3e6b" stroke="#af3e6b"></path><path d="M0 298.8L48.4 400.9L108.9 369.5Z" fill="#cc4763" stroke="#cc4763"></path><path d="M108.9 369.5L48.4 400.9L78.4 431.5Z" fill="#e35756" stroke="#e35756"></path><path d="M623.4 280.8L610.4 242.5L569.9 244.8Z" fill="#f46c46" stroke="#f46c46"></path><path d="M509.9 195.5L438.1 291.8L480.5 301.8Z" fill="#fc8631" stroke="#fc8631"></path><path d="M688.8 272.8L610.4 242.5L623.4 280.8Z" fill="#8f396d" stroke="#8f396d"></path><path d="M509.9 195.5L480.5 301.8L569.9 244.8Z" fill="#14213d" stroke="#14213d"></path><path d="M240.8 187.1L216.3 235.5L274.8 242.5Z" fill="#8f396d" stroke="#8f396d"></path><path d="M809.1 397.5L751.7 353.5L746.3 382.5Z" fill="#6d3569" stroke="#6d3569"></path><path d="M746.3 382.5L751.7 353.5L638.8 387.5Z" fill="#fc8631" stroke="#fc8631"></path><path d="M0 678.4L0 757.7L88.4 699.7Z" fill="#fca311" stroke="#fca311"></path><path d="M130.9 910.8L126.9 958.2L208.3 924.2Z" fill="#fc8631" stroke="#fc8631"></path><path d="M48.4 400.9L0 493.9L78.4 431.5Z" fill="#8f396d" stroke="#8f396d"></path><path d="M70.4 935.2L130.9 910.8L79.4 810.1Z" fill="#14213d" stroke="#14213d"></path><path d="M0 757.7L18.4 814.5L79.4 810.1Z" fill="#cc4763" stroke="#cc4763"></path><path d="M652.8 1003.5L616.4 928.8L579.4 960.2Z" fill="#f46c46" stroke="#f46c46"></path><path d="M734.3 908.2L830.6 882.8L772.7 832.5Z" fill="#cc4763" stroke="#cc4763"></path><path d="M772.7 832.5L834.1 801.1L775.7 757.1Z" fill="#cc4763" stroke="#cc4763"></path><path d="M156.9 233.8L127.9 296.2L169.3 301.2Z" fill="#f46c46" stroke="#f46c46"></path><path d="M169.3 301.2L127.9 296.2L159.3 345.5Z" fill="#f46c46" stroke="#f46c46"></path><path d="M197.8 239.8L169.3 301.2L214.3 267.8Z" fill="#cc4763" stroke="#cc4763"></path><path d="M309.2 194.5L321.6 275.8L399.6 206.5Z" fill="#4b315f" stroke="#4b315f"></path><path d="M274.8 242.5L216.3 235.5L214.3 267.8Z" fill="#6d3569" stroke="#6d3569"></path><path d="M602.4 1051.9L652.8 1003.5L579.4 960.2Z" fill="#2d2a50" stroke="#2d2a50"></path><path d="M600.8 180.5L509.9 195.5L569.9 244.8Z" fill="#6d3569" stroke="#6d3569"></path><path d="M493.5 1070.9L493.5 1001.2L439.1 1027.5Z" fill="#e35756" stroke="#e35756"></path><path d="M519.9 1023.5L554.4 1053.5L579.4 960.2Z" fill="#14213d" stroke="#14213d"></path><path d="M216.3 235.5L197.8 239.8L214.3 267.8Z" fill="#14213d" stroke="#14213d"></path><path d="M779.7 989.2L749.3 928.8L735.7 931.8Z" fill="#6d3569" stroke="#6d3569"></path><path d="M735.7 931.8L749.3 928.8L734.3 908.2Z" fill="#af3e6b" stroke="#af3e6b"></path><path d="M365.6 165.1L399.6 206.5L418.5 195.5Z" fill="#e35756" stroke="#e35756"></path><path d="M365.6 165.1L309.2 194.5L399.6 206.5Z" fill="#cc4763" stroke="#cc4763"></path><path d="M216.3 235.5L196.3 217.1L197.8 239.8Z" fill="#cc4763" stroke="#cc4763"></path><path d="M421.1 1092.9L493.5 1070.9L439.1 1027.5Z" fill="#fca311" stroke="#fca311"></path><path d="M743.3 312.2L622.4 362.2L638.8 387.5Z" fill="#4b315f" stroke="#4b315f"></path><path d="M610.4 242.5L600.8 180.5L569.9 244.8Z" fill="#2d2a50" stroke="#2d2a50"></path><path d="M830.6 882.8L818.1 830.5L772.7 832.5Z" fill="#8f396d" stroke="#8f396d"></path><path d="M509.9 195.5L440.1 180.5L438.1 291.8Z" fill="#2d2a50" stroke="#2d2a50"></path><path d="M834.1 801.1L858.6 709.7L801.1 729.7Z" fill="#f46c46" stroke="#f46c46"></path><path d="M845.1 680.4L878.6 708.4L847.1 661Z" fill="#e35756" stroke="#e35756"></path><path d="M894.6 499.3L831.1 546.6L835.6 553.6Z" fill="#8f396d" stroke="#8f396d"></path><path d="M818.1 830.5L834.1 801.1L772.7 832.5Z" fill="#fc8631" stroke="#fc8631"></path><path d="M805.7 339.2L743.3 312.2L751.7 353.5Z" fill="#2d2a50" stroke="#2d2a50"></path><path d="M751.7 353.5L743.3 312.2L638.8 387.5Z" fill="#f46c46" stroke="#f46c46"></path><path d="M852.1 457.3L809.1 397.5L812.1 486.9Z" fill="#cc4763" stroke="#cc4763"></path><path d="M812.1 486.9L809.1 397.5L725.3 472.9Z" fill="#4b315f" stroke="#4b315f"></path><path d="M156.9 233.8L103.4 292.2L127.9 296.2Z" fill="#f46c46" stroke="#f46c46"></path><path d="M127.9 296.2L103.4 292.2L108.9 369.5Z" fill="#cc4763" stroke="#cc4763"></path><path d="M48.4 400.9L0 389.5L0 493.9Z" fill="#cc4763" stroke="#cc4763"></path><path d="M0 757.7L0 827.1L18.4 814.5Z" fill="#f46c46" stroke="#f46c46"></path><path d="M0 876.8L70.4 935.2L79.4 810.1Z" fill="#4b315f" stroke="#4b315f"></path><path d="M830.6 882.8L836.6 818.5L818.1 830.5Z" fill="#8f396d" stroke="#8f396d"></path><path d="M818.1 830.5L836.6 818.5L834.1 801.1Z" fill="#e35756" stroke="#e35756"></path><path d="M914.6 747.1L878.6 708.4L858.6 709.7Z" fill="#4b315f" stroke="#4b315f"></path><path d="M0 876.8L79.4 810.1L18.4 814.5Z" fill="#cc4763" stroke="#cc4763"></path><path d="M147.3 1078.9L241.8 984.5L179.3 989.5Z" fill="#af3e6b" stroke="#af3e6b"></path><path d="M554.4 1053.5L602.4 1051.9L579.4 960.2Z" fill="#fc8631" stroke="#fc8631"></path><path d="M652.8 1003.5L692.3 1010.5L735.7 931.8Z" fill="#4b315f" stroke="#4b315f"></path><path d="M572.9 1085.3L602.4 1051.9L554.4 1053.5Z" fill="#af3e6b" stroke="#af3e6b"></path><path d="M349.6 1036.5L421.1 1092.9L439.1 1027.5Z" fill="#6d3569" stroke="#6d3569"></path><path d="M493.5 1070.9L514.9 1095.9L554.4 1053.5Z" fill="#af3e6b" stroke="#af3e6b"></path><path d="M304.2 1081.9L349.6 1036.5L285.2 1015.5Z" fill="#fc8631" stroke="#fc8631"></path><path d="M278.8 1090.9L241.8 984.5L147.3 1078.9Z" fill="#8f396d" stroke="#8f396d"></path><path d="M278.8 1090.9L304.2 1081.9L285.2 1015.5Z" fill="#cc4763" stroke="#cc4763"></path><path d="M440.5 152.7L365.6 165.1L418.5 195.5Z" fill="#2d2a50" stroke="#2d2a50"></path><path d="M240.8 187.1L196.3 217.1L216.3 235.5Z" fill="#f46c46" stroke="#f46c46"></path><path d="M240.8 187.1L274.8 242.5L309.2 194.5Z" fill="#cc4763" stroke="#cc4763"></path><path d="M197.8 239.8L156.9 233.8L169.3 301.2Z" fill="#8f396d" stroke="#8f396d"></path><path d="M894.6 499.3L812.1 486.9L831.1 546.6Z" fill="#fca311" stroke="#fca311"></path><path d="M835.6 553.6L833.6 596L935 596Z" fill="#cc4763" stroke="#cc4763"></path><path d="M914.6 747.1L858.6 709.7L834.1 801.1Z" fill="#f46c46" stroke="#f46c46"></path><path d="M858.6 709.7L878.6 708.4L845.1 680.4Z" fill="#fc8631" stroke="#fc8631"></path><path d="M664.3 1081.9L692.3 1010.5L652.8 1003.5Z" fill="#14213d" stroke="#14213d"></path><path d="M797.1 933.8L830.6 882.8L734.3 908.2Z" fill="#fca311" stroke="#fca311"></path><path d="M786.7 238.8L715.3 265.8L743.3 312.2Z" fill="#cc4763" stroke="#cc4763"></path><path d="M743.3 312.2L715.3 265.8L688.8 272.8Z" fill="#fc8631" stroke="#fc8631"></path><path d="M687.8 142.1L600.8 180.5L610.4 242.5Z" fill="#fca311" stroke="#fca311"></path><path d="M805.7 339.2L751.7 353.5L809.1 397.5Z" fill="#e35756" stroke="#e35756"></path><path d="M196.3 217.1L156.9 233.8L197.8 239.8Z" fill="#2d2a50" stroke="#2d2a50"></path><path d="M280.2 147.7L240.8 187.1L309.2 194.5Z" fill="#f46c46" stroke="#f46c46"></path><path d="M196.3 217.1L151.9 200.1L156.9 233.8Z" fill="#2d2a50" stroke="#2d2a50"></path><path d="M438.1 1110.3L514.9 1095.9L493.5 1070.9Z" fill="#8f396d" stroke="#8f396d"></path><path d="M602.4 1051.9L664.3 1081.9L652.8 1003.5Z" fill="#cc4763" stroke="#cc4763"></path><path d="M478.9 133.1L440.5 152.7L440.1 180.5Z" fill="#2d2a50" stroke="#2d2a50"></path><path d="M440.1 180.5L440.5 152.7L418.5 195.5Z" fill="#fc8631" stroke="#fc8631"></path><path d="M478.9 133.1L440.1 180.5L509.9 195.5Z" fill="#af3e6b" stroke="#af3e6b"></path><path d="M0 378.2L48.4 400.9L0 298.8Z" fill="#af3e6b" stroke="#af3e6b"></path><path d="M0 378.2L0 389.5L48.4 400.9Z" fill="#4b315f" stroke="#4b315f"></path><path d="M356.6 1124.3L438.1 1110.3L421.1 1092.9Z" fill="#2d2a50" stroke="#2d2a50"></path><path d="M421.1 1092.9L438.1 1110.3L493.5 1070.9Z" fill="#8f396d" stroke="#8f396d"></path><path d="M95.4 1035.9L179.3 989.5L126.9 958.2Z" fill="#f46c46" stroke="#f46c46"></path><path d="M304.2 1081.9L356.6 1124.3L349.6 1036.5Z" fill="#fca311" stroke="#fca311"></path><path d="M612.4 1112.3L572.9 1085.3L565.9 1137.6Z" fill="#af3e6b" stroke="#af3e6b"></path><path d="M514.9 1095.9L572.9 1085.3L554.4 1053.5Z" fill="#4b315f" stroke="#4b315f"></path><path d="M0 827.1L0 876.8L18.4 814.5Z" fill="#4b315f" stroke="#4b315f"></path><path d="M728.3 185.1L610.4 242.5L688.8 272.8Z" fill="#6d3569" stroke="#6d3569"></path><path d="M797.1 933.8L734.3 908.2L749.3 928.8Z" fill="#4b315f" stroke="#4b315f"></path><path d="M935 767.1L914.6 747.1L935 801.5Z" fill="#8f396d" stroke="#8f396d"></path><path d="M0 298.8L108.9 369.5L103.4 292.2Z" fill="#8f396d" stroke="#8f396d"></path><path d="M865.1 326.2L805.7 339.2L809.1 397.5Z" fill="#e35756" stroke="#e35756"></path><path d="M779.7 989.2L797.1 933.8L749.3 928.8Z" fill="#fc8631" stroke="#fc8631"></path><path d="M0 876.8L0 884.5L70.4 935.2Z" fill="#4b315f" stroke="#4b315f"></path><path d="M70.4 935.2L84.9 1001.5L126.9 958.2Z" fill="#2d2a50" stroke="#2d2a50"></path><path d="M278.8 1090.9L305.6 1108.9L304.2 1081.9Z" fill="#cc4763" stroke="#cc4763"></path><path d="M305.6 1108.9L314.2 1112.3L304.2 1081.9Z" fill="#14213d" stroke="#14213d"></path><path d="M935 596L833.6 596L847.1 661Z" fill="#fca311" stroke="#fca311"></path><path d="M852.1 457.3L879.6 413.5L809.1 397.5Z" fill="#2d2a50" stroke="#2d2a50"></path><path d="M894.6 499.3L880.6 452.9L852.1 457.3Z" fill="#fc8631" stroke="#fc8631"></path><path d="M21.4 981.5L84.9 1001.5L70.4 935.2Z" fill="#fc8631" stroke="#fc8631"></path><path d="M278.8 1090.9L230.8 1136.6L305.6 1108.9Z" fill="#fca311" stroke="#fca311"></path><path d="M314.2 1112.3L356.6 1124.3L304.2 1081.9Z" fill="#af3e6b" stroke="#af3e6b"></path><path d="M514.5 119.1L478.9 133.1L509.9 195.5Z" fill="#2d2a50" stroke="#2d2a50"></path><path d="M406.1 121.1L354.6 132.7L365.6 165.1Z" fill="#2d2a50" stroke="#2d2a50"></path><path d="M322.2 135.1L280.2 147.7L309.2 194.5Z" fill="#8f396d" stroke="#8f396d"></path><path d="M198.3 124.7L151.9 200.1L196.3 217.1Z" fill="#f46c46" stroke="#f46c46"></path><path d="M322.2 135.1L309.2 194.5L365.6 165.1Z" fill="#fca311" stroke="#fca311"></path><path d="M406.1 121.1L365.6 165.1L440.5 152.7Z" fill="#2d2a50" stroke="#2d2a50"></path><path d="M354.6 132.7L322.2 135.1L365.6 165.1Z" fill="#4b315f" stroke="#4b315f"></path><path d="M727.7 1071.9L751.7 1005.5L692.3 1010.5Z" fill="#af3e6b" stroke="#af3e6b"></path><path d="M692.3 1010.5L751.7 1005.5L735.7 931.8Z" fill="#4b315f" stroke="#4b315f"></path><path d="M797.1 933.8L827.6 989.5L830.6 882.8Z" fill="#2d2a50" stroke="#2d2a50"></path><path d="M198.3 124.7L196.3 217.1L240.8 187.1Z" fill="#2d2a50" stroke="#2d2a50"></path><path d="M156.9 233.8L75.9 228.5L103.4 292.2Z" fill="#e35756" stroke="#e35756"></path><path d="M0 884.5L11.4 937.8L70.4 935.2Z" fill="#f46c46" stroke="#f46c46"></path><path d="M420.1 111.7L406.1 121.1L440.5 152.7Z" fill="#fc8631" stroke="#fc8631"></path><path d="M305.6 53.4L261.2 70.4L322.2 135.1Z" fill="#cc4763" stroke="#cc4763"></path><path d="M412.1 1172.6L449.5 1138.3L438.1 1110.3Z" fill="#f46c46" stroke="#f46c46"></path><path d="M438.1 1110.3L449.5 1138.3L514.9 1095.9Z" fill="#fca311" stroke="#fca311"></path><path d="M751.7 1005.5L779.7 989.2L735.7 931.8Z" fill="#e35756" stroke="#e35756"></path><path d="M907.6 384.2L879.6 413.5L935 404.5Z" fill="#8f396d" stroke="#8f396d"></path><path d="M880.6 452.9L879.6 413.5L852.1 457.3Z" fill="#4b315f" stroke="#4b315f"></path><path d="M914.6 747.1L834.1 801.1L935 801.5Z" fill="#6d3569" stroke="#6d3569"></path><path d="M878.6 708.4L935 596L847.1 661Z" fill="#fca311" stroke="#fca311"></path><path d="M834.1 801.1L836.6 818.5L935 801.5Z" fill="#cc4763" stroke="#cc4763"></path><path d="M261.2 70.4L243.8 144.7L280.2 147.7Z" fill="#fca311" stroke="#fca311"></path><path d="M280.2 147.7L243.8 144.7L240.8 187.1Z" fill="#4b315f" stroke="#4b315f"></path><path d="M198.3 124.7L243.8 144.7L261.2 70.4Z" fill="#fca311" stroke="#fca311"></path><path d="M612.4 1112.3L602.4 1051.9L572.9 1085.3Z" fill="#2d2a50" stroke="#2d2a50"></path><path d="M647.8 1108.3L664.3 1081.9L602.4 1051.9Z" fill="#4b315f" stroke="#4b315f"></path><path d="M827.6 989.5L805.1 980.5L779.7 989.2Z" fill="#8f396d" stroke="#8f396d"></path><path d="M0 1027.9L95.4 1035.9L84.9 1001.5Z" fill="#6d3569" stroke="#6d3569"></path><path d="M84.9 1001.5L95.4 1035.9L126.9 958.2Z" fill="#cc4763" stroke="#cc4763"></path><path d="M305.6 1108.9L270.2 1186.6L314.2 1112.3Z" fill="#cc4763" stroke="#cc4763"></path><path d="M478.9 133.1L420.1 111.7L440.5 152.7Z" fill="#af3e6b" stroke="#af3e6b"></path><path d="M361.1 10.4L305.6 53.4L354.6 132.7Z" fill="#f46c46" stroke="#f46c46"></path><path d="M805.1 980.5L803.1 975.2L779.7 989.2Z" fill="#14213d" stroke="#14213d"></path><path d="M779.7 989.2L803.1 975.2L797.1 933.8Z" fill="#e35756" stroke="#e35756"></path><path d="M554.4 119.1L514.5 119.1L509.9 195.5Z" fill="#fca311" stroke="#fca311"></path><path d="M478.9 133.1L481.9 62.7L420.1 111.7Z" fill="#e35756" stroke="#e35756"></path><path d="M935 715.4L935 596L878.6 708.4Z" fill="#e35756" stroke="#e35756"></path><path d="M894.6 499.3L935 493.9L880.6 452.9Z" fill="#e35756" stroke="#e35756"></path><path d="M565.9 1137.6L572.9 1085.3L514.9 1095.9Z" fill="#af3e6b" stroke="#af3e6b"></path><path d="M95.4 1035.9L147.3 1078.9L179.3 989.5Z" fill="#af3e6b" stroke="#af3e6b"></path><path d="M314.2 1112.3L333.6 1218.6L356.6 1124.3Z" fill="#f46c46" stroke="#f46c46"></path><path d="M827.6 989.5L779.7 989.2L841.1 1089.9Z" fill="#2d2a50" stroke="#2d2a50"></path><path d="M803.1 975.2L827.6 989.5L797.1 933.8Z" fill="#f46c46" stroke="#f46c46"></path><path d="M34.4 178.5L75.9 228.5L95.4 122.1Z" fill="#af3e6b" stroke="#af3e6b"></path><path d="M151.9 200.1L75.9 228.5L156.9 233.8Z" fill="#8f396d" stroke="#8f396d"></path><path d="M935 722.7L878.6 708.4L914.6 747.1Z" fill="#8f396d" stroke="#8f396d"></path><path d="M935 722.7L935 715.4L878.6 708.4Z" fill="#4b315f" stroke="#4b315f"></path><path d="M935 596L935 543.3L835.6 553.6Z" fill="#14213d" stroke="#14213d"></path><path d="M75.9 228.5L57.4 243.8L103.4 292.2Z" fill="#8f396d" stroke="#8f396d"></path><path d="M935 767.1L935 722.7L914.6 747.1Z" fill="#4b315f" stroke="#4b315f"></path><path d="M11.4 937.8L21.4 981.5L70.4 935.2Z" fill="#fca311" stroke="#fca311"></path><path d="M76.4 1090.3L136.9 1098.9L147.3 1078.9Z" fill="#6d3569" stroke="#6d3569"></path><path d="M578.4 117.7L554.4 119.1L600.8 180.5Z" fill="#8f396d" stroke="#8f396d"></path><path d="M600.8 180.5L554.4 119.1L509.9 195.5Z" fill="#f46c46" stroke="#f46c46"></path><path d="M514.5 119.1L481.9 62.7L478.9 133.1Z" fill="#e35756" stroke="#e35756"></path><path d="M578.4 117.7L600.8 180.5L687.8 142.1Z" fill="#f46c46" stroke="#f46c46"></path><path d="M449.5 1138.3L565.9 1137.6L514.9 1095.9Z" fill="#fca311" stroke="#fca311"></path><path d="M57.4 243.8L0 298.8L103.4 292.2Z" fill="#fca311" stroke="#fca311"></path><path d="M935 543.3L935 514.6L894.6 499.3Z" fill="#cc4763" stroke="#cc4763"></path><path d="M679.8 1114.9L631.4 1182.6L702.3 1135.6Z" fill="#fca311" stroke="#fca311"></path><path d="M612.4 1112.3L647.8 1108.3L602.4 1051.9Z" fill="#e35756" stroke="#e35756"></path><path d="M664.3 1081.9L727.7 1071.9L692.3 1010.5Z" fill="#fca311" stroke="#fca311"></path><path d="M935 514.6L935 493.9L894.6 499.3Z" fill="#6d3569" stroke="#6d3569"></path><path d="M935 801.5L836.6 818.5L935 892.8Z" fill="#e35756" stroke="#e35756"></path><path d="M728.3 185.1L688.8 272.8L715.3 265.8Z" fill="#4b315f" stroke="#4b315f"></path><path d="M554.4 119.1L566.4 86.4L514.5 119.1Z" fill="#14213d" stroke="#14213d"></path><path d="M833.1 247.8L786.7 238.8L805.7 339.2Z" fill="#af3e6b" stroke="#af3e6b"></path><path d="M805.7 339.2L786.7 238.8L743.3 312.2Z" fill="#6d3569" stroke="#6d3569"></path><path d="M865.1 326.2L809.1 397.5L879.6 413.5Z" fill="#fca311" stroke="#fca311"></path><path d="M147.3 1078.9L230.8 1136.6L278.8 1090.9Z" fill="#f46c46" stroke="#f46c46"></path><path d="M356.6 1124.3L412.1 1172.6L438.1 1110.3Z" fill="#af3e6b" stroke="#af3e6b"></path><path d="M709.3 1115.3L727.7 1071.9L664.3 1081.9Z" fill="#cc4763" stroke="#cc4763"></path><path d="M907.6 384.2L865.1 326.2L879.6 413.5Z" fill="#14213d" stroke="#14213d"></path><path d="M333.6 1218.6L412.1 1172.6L356.6 1124.3Z" fill="#8f396d" stroke="#8f396d"></path><path d="M449.5 1138.3L521.9 1240L565.9 1137.6Z" fill="#6d3569" stroke="#6d3569"></path><path d="M768.7 205.5L728.3 185.1L715.3 265.8Z" fill="#14213d" stroke="#14213d"></path><path d="M147.3 1078.9L214.8 1139.3L230.8 1136.6Z" fill="#4b315f" stroke="#4b315f"></path><path d="M76.4 1090.3L147.3 1078.9L95.4 1035.9Z" fill="#f46c46" stroke="#f46c46"></path><path d="M935 892.8L836.6 818.5L830.6 882.8Z" fill="#4b315f" stroke="#4b315f"></path><path d="M841.1 1089.9L779.7 989.2L751.7 1005.5Z" fill="#2d2a50" stroke="#2d2a50"></path><path d="M805.1 980.5L827.6 989.5L803.1 975.2Z" fill="#6d3569" stroke="#6d3569"></path><path d="M168.3 1150.6L214.8 1139.3L147.3 1078.9Z" fill="#f46c46" stroke="#f46c46"></path><path d="M230.8 1136.6L270.2 1186.6L305.6 1108.9Z" fill="#af3e6b" stroke="#af3e6b"></path><path d="M935 404.5L879.6 413.5L880.6 452.9Z" fill="#e35756" stroke="#e35756"></path><path d="M261.2 70.4L280.2 147.7L322.2 135.1Z" fill="#f46c46" stroke="#f46c46"></path><path d="M243.8 144.7L198.3 124.7L240.8 187.1Z" fill="#8f396d" stroke="#8f396d"></path><path d="M75.9 228.5L34.4 178.5L57.4 243.8Z" fill="#fc8631" stroke="#fc8631"></path><path d="M835.1 212.5L768.7 205.5L786.7 238.8Z" fill="#cc4763" stroke="#cc4763"></path><path d="M786.7 238.8L768.7 205.5L715.3 265.8Z" fill="#f46c46" stroke="#f46c46"></path><path d="M679.8 1114.9L647.8 1108.3L631.4 1182.6Z" fill="#f46c46" stroke="#f46c46"></path><path d="M647.8 1108.3L679.8 1114.9L664.3 1081.9Z" fill="#4b315f" stroke="#4b315f"></path><path d="M727.7 1071.9L841.1 1089.9L751.7 1005.5Z" fill="#e35756" stroke="#e35756"></path><path d="M709.3 1115.3L702.3 1135.6L718.7 1122.3Z" fill="#14213d" stroke="#14213d"></path><path d="M768.7 205.5L748.3 186.5L728.3 185.1Z" fill="#8f396d" stroke="#8f396d"></path><path d="M728.3 185.1L687.8 142.1L610.4 242.5Z" fill="#4b315f" stroke="#4b315f"></path><path d="M718.3 102.4L687.8 142.1L744.3 109.7Z" fill="#af3e6b" stroke="#af3e6b"></path><path d="M11.4 937.8L0 1006.2L21.4 981.5Z" fill="#8f396d" stroke="#8f396d"></path><path d="M21.4 981.5L0 1027.9L84.9 1001.5Z" fill="#f46c46" stroke="#f46c46"></path><path d="M0 884.5L0 1006.2L11.4 937.8Z" fill="#f46c46" stroke="#f46c46"></path><path d="M624.8 68.7L566.4 86.4L578.4 117.7Z" fill="#af3e6b" stroke="#af3e6b"></path><path d="M578.4 117.7L566.4 86.4L554.4 119.1Z" fill="#cc4763" stroke="#cc4763"></path><path d="M305.6 53.4L322.2 135.1L354.6 132.7Z" fill="#fc8631" stroke="#fc8631"></path><path d="M792.7 130.1L744.3 109.7L748.3 186.5Z" fill="#14213d" stroke="#14213d"></path><path d="M744.3 109.7L687.8 142.1L728.3 185.1Z" fill="#af3e6b" stroke="#af3e6b"></path><path d="M856.6 258.5L833.1 247.8L805.7 339.2Z" fill="#4b315f" stroke="#4b315f"></path><path d="M856.6 258.5L805.7 339.2L865.1 326.2Z" fill="#e35756" stroke="#e35756"></path><path d="M935 493.9L935 404.5L880.6 452.9Z" fill="#2d2a50" stroke="#2d2a50"></path><path d="M907.6 384.2L935 297.8L865.1 326.2Z" fill="#cc4763" stroke="#cc4763"></path><path d="M709.3 1115.3L679.8 1114.9L702.3 1135.6Z" fill="#4b315f" stroke="#4b315f"></path><path d="M679.8 1114.9L709.3 1115.3L664.3 1081.9Z" fill="#fca311" stroke="#fca311"></path><path d="M566.4 86.4L481.9 62.7L514.5 119.1Z" fill="#2d2a50" stroke="#2d2a50"></path><path d="M0 1044.5L76.4 1090.3L95.4 1035.9Z" fill="#14213d" stroke="#14213d"></path><path d="M136.9 1098.9L168.3 1150.6L147.3 1078.9Z" fill="#8f396d" stroke="#8f396d"></path><path d="M168.3 1168.3L270.2 1186.6L214.8 1139.3Z" fill="#fc8631" stroke="#fc8631"></path><path d="M214.8 1139.3L270.2 1186.6L230.8 1136.6Z" fill="#cc4763" stroke="#cc4763"></path><path d="M0 1006.2L0 1027.9L21.4 981.5Z" fill="#cc4763" stroke="#cc4763"></path><path d="M935 404.5L935 380.2L907.6 384.2Z" fill="#8f396d" stroke="#8f396d"></path><path d="M896.6 276.8L856.6 258.5L865.1 326.2Z" fill="#fca311" stroke="#fca311"></path><path d="M833.1 247.8L835.1 212.5L786.7 238.8Z" fill="#4b315f" stroke="#4b315f"></path><path d="M70.9 1172.3L168.3 1150.6L136.9 1098.9Z" fill="#e35756" stroke="#e35756"></path><path d="M647.8 1108.3L612.4 1112.3L631.4 1182.6Z" fill="#6d3569" stroke="#6d3569"></path><path d="M709.3 1115.3L718.7 1122.3L727.7 1071.9Z" fill="#e35756" stroke="#e35756"></path><path d="M354.6 132.7L406.1 121.1L361.1 10.4Z" fill="#fca311" stroke="#fca311"></path><path d="M95.4 122.1L75.9 228.5L151.9 200.1Z" fill="#4b315f" stroke="#4b315f"></path><path d="M631.4 1182.6L612.4 1112.3L565.9 1137.6Z" fill="#4b315f" stroke="#4b315f"></path><path d="M935 914.2L935 892.8L920.6 941.2Z" fill="#14213d" stroke="#14213d"></path><path d="M935 892.8L830.6 882.8L920.6 941.2Z" fill="#8f396d" stroke="#8f396d"></path><path d="M361.1 10.4L406.1 121.1L420.1 111.7Z" fill="#e35756" stroke="#e35756"></path><path d="M0 1027.9L0 1044.5L95.4 1035.9Z" fill="#14213d" stroke="#14213d"></path><path d="M70.9 1172.3L168.3 1168.3L168.3 1150.6Z" fill="#14213d" stroke="#14213d"></path><path d="M140.9 103.4L151.9 200.1L198.3 124.7Z" fill="#e35756" stroke="#e35756"></path><path d="M57.4 243.8L0 193.5L0 298.8Z" fill="#e35756" stroke="#e35756"></path><path d="M877.6 195.1L835.1 212.5L856.6 258.5Z" fill="#cc4763" stroke="#cc4763"></path><path d="M856.6 258.5L835.1 212.5L833.1 247.8Z" fill="#4b315f" stroke="#4b315f"></path><path d="M920.6 941.2L830.6 882.8L827.6 989.5Z" fill="#af3e6b" stroke="#af3e6b"></path><path d="M70.9 1172.3L136.9 1098.9L76.4 1090.3Z" fill="#fc8631" stroke="#fc8631"></path><path d="M168.3 1150.6L168.3 1168.3L214.8 1139.3Z" fill="#2d2a50" stroke="#2d2a50"></path><path d="M935 964.5L920.6 941.2L827.6 989.5Z" fill="#14213d" stroke="#14213d"></path><path d="M455.5 1224.6L449.5 1138.3L412.1 1172.6Z" fill="#2d2a50" stroke="#2d2a50"></path><path d="M609.8 1211.6L631.4 1182.6L565.9 1137.6Z" fill="#e35756" stroke="#e35756"></path><path d="M114.9 86.7L140.9 103.4L148.3 37.4Z" fill="#f46c46" stroke="#f46c46"></path><path d="M148.3 37.4L140.9 103.4L198.3 124.7Z" fill="#af3e6b" stroke="#af3e6b"></path><path d="M312.6 1240L333.6 1218.6L270.2 1186.6Z" fill="#fc8631" stroke="#fc8631"></path><path d="M270.2 1186.6L333.6 1218.6L314.2 1112.3Z" fill="#14213d" stroke="#14213d"></path><path d="M935 297.8L896.6 276.8L865.1 326.2Z" fill="#f46c46" stroke="#f46c46"></path><path d="M385.1 1240L455.5 1224.6L412.1 1172.6Z" fill="#cc4763" stroke="#cc4763"></path><path d="M687.8 142.1L624.8 68.7L578.4 117.7Z" fill="#6d3569" stroke="#6d3569"></path><path d="M463.5 0L448.5 26.4L481.9 62.7Z" fill="#cc4763" stroke="#cc4763"></path><path d="M481.9 62.7L448.5 26.4L420.1 111.7Z" fill="#fca311" stroke="#fca311"></path><path d="M718.3 102.4L624.8 68.7L687.8 142.1Z" fill="#fc8631" stroke="#fc8631"></path><path d="M140.9 103.4L95.4 122.1L151.9 200.1Z" fill="#6d3569" stroke="#6d3569"></path><path d="M0 177.1L0 193.5L34.4 178.5Z" fill="#cc4763" stroke="#cc4763"></path><path d="M34.4 178.5L0 193.5L57.4 243.8Z" fill="#14213d" stroke="#14213d"></path><path d="M513.9 11.4L481.9 62.7L566.4 86.4Z" fill="#af3e6b" stroke="#af3e6b"></path><path d="M744.3 109.7L728.3 185.1L748.3 186.5Z" fill="#fc8631" stroke="#fc8631"></path><path d="M312.6 1240L385.1 1240L333.6 1218.6Z" fill="#f46c46" stroke="#f46c46"></path><path d="M333.6 1218.6L385.1 1240L412.1 1172.6Z" fill="#14213d" stroke="#14213d"></path><path d="M385.1 1240L447.5 1240L455.5 1224.6Z" fill="#fc8631" stroke="#fc8631"></path><path d="M566.4 1240L609.8 1211.6L565.9 1137.6Z" fill="#6d3569" stroke="#6d3569"></path><path d="M521.9 1240L449.5 1138.3L455.5 1224.6Z" fill="#fca311" stroke="#fca311"></path><path d="M682.3 1240L768.1 1158.3L702.3 1135.6Z" fill="#6d3569" stroke="#6d3569"></path><path d="M841.1 1089.9L727.7 1071.9L768.1 1158.3Z" fill="#f46c46" stroke="#f46c46"></path><path d="M40.4 136.7L0 177.1L34.4 178.5Z" fill="#8f396d" stroke="#8f396d"></path><path d="M792.7 130.1L748.3 186.5L768.7 205.5Z" fill="#fca311" stroke="#fca311"></path><path d="M513.9 11.4L566.4 86.4L554.4 0Z" fill="#f46c46" stroke="#f46c46"></path><path d="M792.7 130.1L768.7 205.5L835.1 212.5Z" fill="#8f396d" stroke="#8f396d"></path><path d="M935 380.2L935 297.8L907.6 384.2Z" fill="#fca311" stroke="#fca311"></path><path d="M896.6 276.8L877.6 195.1L856.6 258.5Z" fill="#fc8631" stroke="#fc8631"></path><path d="M896.6 1072.9L935 964.5L827.6 989.5Z" fill="#2d2a50" stroke="#2d2a50"></path><path d="M920.6 941.2L935 964.5L935 914.2Z" fill="#fca311" stroke="#fca311"></path><path d="M727.7 1071.9L718.7 1122.3L768.1 1158.3Z" fill="#f46c46" stroke="#f46c46"></path><path d="M285.2 1240L312.6 1240L270.2 1186.6Z" fill="#e35756" stroke="#e35756"></path><path d="M0 1044.5L0 1088.3L76.4 1090.3Z" fill="#f46c46" stroke="#f46c46"></path><path d="M265.8 1240L285.2 1240L270.2 1186.6Z" fill="#2d2a50" stroke="#2d2a50"></path><path d="M447.5 1240L521.9 1240L455.5 1224.6Z" fill="#cc4763" stroke="#cc4763"></path><path d="M95.4 122.1L40.4 136.7L34.4 178.5Z" fill="#6d3569" stroke="#6d3569"></path><path d="M84.4 61.4L40.4 136.7L95.4 122.1Z" fill="#6d3569" stroke="#6d3569"></path><path d="M245.8 31.4L198.3 124.7L261.2 70.4Z" fill="#2d2a50" stroke="#2d2a50"></path><path d="M140.9 103.4L114.9 86.7L95.4 122.1Z" fill="#14213d" stroke="#14213d"></path><path d="M245.8 31.4L261.2 70.4L305.6 53.4Z" fill="#fca311" stroke="#fca311"></path><path d="M448.5 26.4L361.1 10.4L420.1 111.7Z" fill="#af3e6b" stroke="#af3e6b"></path><path d="M289.2 0L245.8 31.4L305.6 53.4Z" fill="#fc8631" stroke="#fc8631"></path><path d="M265.8 1240L270.2 1186.6L180.3 1240Z" fill="#14213d" stroke="#14213d"></path><path d="M856.1 129.1L792.7 130.1L835.1 212.5Z" fill="#8f396d" stroke="#8f396d"></path><path d="M534.9 0L513.9 11.4L554.4 0Z" fill="#e35756" stroke="#e35756"></path><path d="M448.5 26.4L376.1 0L361.1 10.4Z" fill="#8f396d" stroke="#8f396d"></path><path d="M566.4 86.4L624.8 68.7L554.4 0Z" fill="#4b315f" stroke="#4b315f"></path><path d="M624.8 68.7L718.3 102.4L723.7 65.7Z" fill="#4b315f" stroke="#4b315f"></path><path d="M768.1 1158.3L718.7 1122.3L702.3 1135.6Z" fill="#14213d" stroke="#14213d"></path><path d="M180.3 1240L270.2 1186.6L168.3 1168.3Z" fill="#f46c46" stroke="#f46c46"></path><path d="M521.9 1240L566.4 1240L565.9 1137.6Z" fill="#14213d" stroke="#14213d"></path><path d="M682.3 1240L702.3 1135.6L631.4 1182.6Z" fill="#14213d" stroke="#14213d"></path><path d="M463.5 0L376.1 0L448.5 26.4Z" fill="#cc4763" stroke="#cc4763"></path><path d="M361.1 10.4L303.6 0L305.6 53.4Z" fill="#f46c46" stroke="#f46c46"></path><path d="M513.9 11.4L463.5 0L481.9 62.7Z" fill="#e35756" stroke="#e35756"></path><path d="M935 245.5L877.6 195.1L896.6 276.8Z" fill="#6d3569" stroke="#6d3569"></path><path d="M682.3 1240L631.4 1182.6L609.8 1211.6Z" fill="#2d2a50" stroke="#2d2a50"></path><path d="M566.4 1240L601.8 1240L609.8 1211.6Z" fill="#4b315f" stroke="#4b315f"></path><path d="M376.1 0L303.6 0L361.1 10.4Z" fill="#f46c46" stroke="#f46c46"></path><path d="M245.8 31.4L148.3 37.4L198.3 124.7Z" fill="#4b315f" stroke="#4b315f"></path><path d="M723.7 65.7L718.3 102.4L744.3 109.7Z" fill="#2d2a50" stroke="#2d2a50"></path><path d="M513.9 11.4L534.9 0L463.5 0Z" fill="#6d3569" stroke="#6d3569"></path><path d="M303.6 0L289.2 0L305.6 53.4Z" fill="#2d2a50" stroke="#2d2a50"></path><path d="M737.7 57.4L744.3 109.7L792.7 130.1Z" fill="#f46c46" stroke="#f46c46"></path><path d="M737.7 57.4L723.7 65.7L744.3 109.7Z" fill="#f46c46" stroke="#f46c46"></path><path d="M0 1088.3L70.9 1172.3L76.4 1090.3Z" fill="#fca311" stroke="#fca311"></path><path d="M648.8 19.4L554.4 0L624.8 68.7Z" fill="#4b315f" stroke="#4b315f"></path><path d="M935 297.8L935 245.5L896.6 276.8Z" fill="#2d2a50" stroke="#2d2a50"></path><path d="M289.2 0L258.8 0L245.8 31.4Z" fill="#14213d" stroke="#14213d"></path><path d="M214.3 0L148.3 37.4L245.8 31.4Z" fill="#4b315f" stroke="#4b315f"></path><path d="M114.9 86.7L84.4 61.4L95.4 122.1Z" fill="#4b315f" stroke="#4b315f"></path><path d="M0 1088.3L62.4 1178.6L70.9 1172.3Z" fill="#cc4763" stroke="#cc4763"></path><path d="M146.9 1229.6L180.3 1240L168.3 1168.3Z" fill="#6d3569" stroke="#6d3569"></path><path d="M723.7 65.7L648.8 19.4L624.8 68.7Z" fill="#cc4763" stroke="#cc4763"></path><path d="M882.6 1183.6L896.6 1072.9L841.1 1089.9Z" fill="#fca311" stroke="#fca311"></path><path d="M841.1 1089.9L896.6 1072.9L827.6 989.5Z" fill="#14213d" stroke="#14213d"></path><path d="M146.9 1229.6L168.3 1168.3L70.9 1172.3Z" fill="#e35756" stroke="#e35756"></path><path d="M832.1 108.7L737.7 57.4L792.7 130.1Z" fill="#4b315f" stroke="#4b315f"></path><path d="M723.7 65.7L673.8 0L648.8 19.4Z" fill="#fc8631" stroke="#fc8631"></path><path d="M856.1 129.1L835.1 212.5L877.6 195.1Z" fill="#6d3569" stroke="#6d3569"></path><path d="M138.9 1240L146.9 1229.6L70.9 1172.3Z" fill="#2d2a50" stroke="#2d2a50"></path><path d="M148.3 37.4L84.4 61.4L114.9 86.7Z" fill="#f46c46" stroke="#f46c46"></path><path d="M40.4 136.7L0 78.7L0 177.1Z" fill="#2d2a50" stroke="#2d2a50"></path><path d="M768.1 1158.3L794.7 1167.6L841.1 1089.9Z" fill="#f46c46" stroke="#f46c46"></path><path d="M821.1 1206.6L794.7 1167.6L780.7 1240Z" fill="#fca311" stroke="#fca311"></path><path d="M258.8 0L214.3 0L245.8 31.4Z" fill="#fca311" stroke="#fca311"></path><path d="M148.3 37.4L108.9 0L84.4 61.4Z" fill="#6d3569" stroke="#6d3569"></path><path d="M601.8 1240L682.3 1240L609.8 1211.6Z" fill="#e35756" stroke="#e35756"></path><path d="M873.6 135.7L856.1 129.1L877.6 195.1Z" fill="#fca311" stroke="#fca311"></path><path d="M856.1 129.1L832.1 108.7L792.7 130.1Z" fill="#14213d" stroke="#14213d"></path><path d="M62.4 1178.6L138.9 1240L70.9 1172.3Z" fill="#6d3569" stroke="#6d3569"></path><path d="M146.9 1229.6L138.9 1240L180.3 1240Z" fill="#fca311" stroke="#fca311"></path><path d="M821.1 1206.6L827.6 1159.3L794.7 1167.6Z" fill="#cc4763" stroke="#cc4763"></path><path d="M794.7 1167.6L827.6 1159.3L841.1 1089.9Z" fill="#af3e6b" stroke="#af3e6b"></path><path d="M935 179.1L873.6 135.7L877.6 195.1Z" fill="#8f396d" stroke="#8f396d"></path><path d="M856.1 129.1L850.1 84.4L832.1 108.7Z" fill="#6d3569" stroke="#6d3569"></path><path d="M701.3 0L723.7 65.7L711.7 0Z" fill="#fc8631" stroke="#fc8631"></path><path d="M701.3 0L673.8 0L723.7 65.7Z" fill="#6d3569" stroke="#6d3569"></path><path d="M648.8 19.4L673.8 0L554.4 0Z" fill="#af3e6b" stroke="#af3e6b"></path><path d="M723.7 65.7L737.7 57.4L711.7 0Z" fill="#fc8631" stroke="#fc8631"></path><path d="M935 1082.3L935 1072.9L896.6 1072.9Z" fill="#f46c46" stroke="#f46c46"></path><path d="M896.6 1072.9L935 1072.9L935 964.5Z" fill="#e35756" stroke="#e35756"></path><path d="M935 245.5L935 179.1L877.6 195.1Z" fill="#e35756" stroke="#e35756"></path><path d="M935 1152.6L935 1082.3L896.6 1072.9Z" fill="#af3e6b" stroke="#af3e6b"></path><path d="M0 16.4L0 78.7L84.4 61.4Z" fill="#f46c46" stroke="#f46c46"></path><path d="M84.4 61.4L0 78.7L40.4 136.7Z" fill="#4b315f" stroke="#4b315f"></path><path d="M711.7 0L737.7 57.4L849.6 0Z" fill="#6d3569" stroke="#6d3569"></path><path d="M737.7 57.4L832.1 108.7L850.1 84.4Z" fill="#fca311" stroke="#fca311"></path><path d="M850.1 84.4L856.1 129.1L873.6 135.7Z" fill="#6d3569" stroke="#6d3569"></path><path d="M935 91.4L850.1 84.4L873.6 135.7Z" fill="#af3e6b" stroke="#af3e6b"></path><path d="M214.3 0L108.9 0L148.3 37.4Z" fill="#e35756" stroke="#e35756"></path><path d="M778.1 1240L794.7 1167.6L768.1 1158.3Z" fill="#2d2a50" stroke="#2d2a50"></path><path d="M827.6 1159.3L882.6 1183.6L841.1 1089.9Z" fill="#14213d" stroke="#14213d"></path><path d="M682.3 1240L778.1 1240L768.1 1158.3Z" fill="#cc4763" stroke="#cc4763"></path><path d="M778.1 1240L780.7 1240L794.7 1167.6Z" fill="#2d2a50" stroke="#2d2a50"></path><path d="M108.9 0L78.4 0L84.4 61.4Z" fill="#2d2a50" stroke="#2d2a50"></path><path d="M840.6 1240L882.6 1183.6L821.1 1206.6Z" fill="#cc4763" stroke="#cc4763"></path><path d="M821.1 1206.6L882.6 1183.6L827.6 1159.3Z" fill="#cc4763" stroke="#cc4763"></path><path d="M0 1231.6L22.4 1240L62.4 1178.6Z" fill="#f46c46" stroke="#f46c46"></path><path d="M62.4 1178.6L22.4 1240L138.9 1240Z" fill="#fca311" stroke="#fca311"></path><path d="M935 179.1L935 121.7L873.6 135.7Z" fill="#4b315f" stroke="#4b315f"></path><path d="M850.1 84.4L849.6 0L737.7 57.4Z" fill="#8f396d" stroke="#8f396d"></path><path d="M0 1088.3L0 1231.6L62.4 1178.6Z" fill="#14213d" stroke="#14213d"></path><path d="M882.6 1183.6L935 1152.6L896.6 1072.9Z" fill="#4b315f" stroke="#4b315f"></path><path d="M0 1231.6L0 1240L22.4 1240Z" fill="#2d2a50" stroke="#2d2a50"></path><path d="M78.4 0L0 16.4L84.4 61.4Z" fill="#6d3569" stroke="#6d3569"></path><path d="M780.7 1240L840.6 1240L821.1 1206.6Z" fill="#4b315f" stroke="#4b315f"></path><path d="M882.6 1183.6L935 1240L935 1152.6Z" fill="#8f396d" stroke="#8f396d"></path><path d="M935 121.7L935 91.4L873.6 135.7Z" fill="#fc8631" stroke="#fc8631"></path><path d="M78.4 0L0 0L0 16.4Z" fill="#2d2a50" stroke="#2d2a50"></path><path d="M935 91.4L858.6 6.4L850.1 84.4Z" fill="#fc8631" stroke="#fc8631"></path><path d="M858.6 6.4L849.6 0L850.1 84.4Z" fill="#af3e6b" stroke="#af3e6b"></path><path d="M858.6 6.4L852.1 0L849.6 0Z" fill="#e35756" stroke="#e35756"></path><path d="M840.6 1240L935 1240L882.6 1183.6Z" fill="#8f396d" stroke="#8f396d"></path><path d="M935 91.4L935 0L858.6 6.4Z" fill="#8f396d" stroke="#8f396d"></path><path d="M858.6 6.4L935 0L852.1 0Z" fill="#8f396d" stroke="#8f396d"></path></g></svg>