<svg id="visual" viewBox="0 0 935 1240" width="935" height="1240" xmlns="http://www.w3.org/2000/svg" xmlns:xlink="http://www.w3.org/1999/xlink" version="1.1"><path d="M225 0L211 34.5C197 69 169 138 169.5 206.8C170 275.7 199 344.3 195.3 413.2C191.7 482 155.3 551 171 620C186.7 689 254.3 758 263.7 826.8C273 895.7 224 964.3 206.5 1033.2C189 1102 203 1171 210 1205.5L217 1240L0 1240L0 1205.5C0 1171 0 1102 0 1033.2C0 964.3 0 895.7 0 826.8C0 758 0 689 0 620C0 551 0 482 0 413.2C0 344.3 0 275.7 0 206.8C0 138 0 69 0 34.5L0 0Z" fill="#e07050" stroke-linecap="round" stroke-linejoin="miter"></path></svg>
