<?xml version="1.0" standalone="no"?>
<!DOCTYPE svg PUBLIC "-//W3C//DTD SVG 20010904//EN"
 "http://www.w3.org/TR/2001/REC-SVG-20010904/DTD/svg10.dtd">
<svg version="1.0" xmlns="http://www.w3.org/2000/svg"
 width="431.000000pt" height="431.000000pt" viewBox="0 0 431.000000 431.000000"
 preserveAspectRatio="xMidYMid meet">
<metadata>
Created by potrace 1.14, written by Peter Selinger 2001-2017
</metadata>
<g transform="translate(0.000000,431.000000) scale(0.100000,-0.100000)"
fill="#000000" stroke="none">
<path d="M2168 3930 c-46 -47 -100 -111 -121 -143 -116 -175 -178 -377 -178
-585 l0 -83 -67 47 c-37 26 -79 57 -93 68 -15 12 -38 29 -53 40 -139 100 -203
146 -211 153 -21 18 -60 43 -66 43 -7 0 -57 -77 -88 -135 -133 -252 -152 -579
-49 -847 28 -75 80 -180 100 -205 6 -7 7 -13 2 -13 -5 0 -101 30 -214 67 -113
37 -207 67 -210 68 -3 0 -10 3 -16 7 -6 4 -21 9 -35 12 -13 3 -97 29 -186 58
l-161 54 -16 -55 c-27 -99 -35 -173 -31 -301 4 -134 5 -146 35 -257 52 -192
201 -419 345 -527 15 -12 17 -16 5 -17 -8 -1 -206 -1 -439 0 l-423 1 6 -85 c8
-102 44 -251 82 -337 30 -68 97 -183 120 -205 8 -8 14 -18 14 -22 0 -4 35 -43
78 -86 128 -129 249 -206 421 -266 161 -57 172 -58 1306 -59 572 -1 1232 -2
1468 -3 l427 -2 55 49 c30 26 52 53 48 59 -3 5 -2 8 3 5 5 -3 15 0 22 8 7 8
10 14 7 14 -3 0 5 10 18 22 28 28 93 128 90 140 -2 4 1 8 6 8 7 0 53 91 56
110 0 3 3 10 7 15 6 11 47 138 54 170 36 171 18 412 -43 575 -52 138 -154 292
-326 490 -12 14 -34 42 -49 62 -15 20 -33 42 -40 50 -12 11 -76 89 -118 141
-8 11 -30 35 -47 56 -18 20 -33 39 -33 43 0 4 -8 14 -17 24 -10 10 -94 110
-186 223 -209 255 -220 269 -251 306 -39 48 -415 506 -450 549 -17 21 -78 95
-136 165 -171 208 -312 379 -326 398 -12 16 -20 11 -96 -67z"/>
</g>
</svg>
